<svg width="40" height="40" viewBox="0 0 40 40" fill="none" xmlns="http://www.w3.org/2000/svg">
<g clip-path="url(#clip0_774_1267)">
<path d="M34.1981 16.4047C34.1981 27.8044 19.5415 37.5755 19.5415 37.5755C19.5415 37.5755 4.88477 27.8044 4.88477 16.4047C4.88477 12.5175 6.42895 8.78955 9.17761 6.04089C11.9263 3.29223 15.6543 1.74805 19.5415 1.74805C23.4287 1.74805 27.1566 3.29223 29.9053 6.04089C32.654 8.78955 34.1981 12.5175 34.1981 16.4047Z" stroke="#21B873" stroke-width="2.60563" stroke-linecap="round" stroke-linejoin="round"/>
<path d="M19.5418 21.2907C22.24 21.2907 24.4274 19.1033 24.4274 16.4051C24.4274 13.7069 22.24 11.5195 19.5418 11.5195C16.8436 11.5195 14.6562 13.7069 14.6562 16.4051C14.6562 19.1033 16.8436 21.2907 19.5418 21.2907Z" stroke="#21B873" stroke-width="2.60563" stroke-linecap="round" stroke-linejoin="round"/>
</g>
<defs>
<clipPath id="clip0_774_1267">
<rect width="39.0845" height="39.0845" fill="white" transform="translate(0 0.119141)"/>
</clipPath>
</defs>
</svg>
