<svg width="40" height="40" viewBox="0 0 40 40" fill="none" xmlns="http://www.w3.org/2000/svg">
<path d="M36.3785 28.4071V33.2926C36.3803 33.7462 36.2874 34.1951 36.1057 34.6107C35.924 35.0262 35.6575 35.3993 35.3233 35.7059C34.9891 36.0125 34.5945 36.2459 34.1649 36.3912C33.7352 36.5365 33.28 36.5905 32.8283 36.5497C27.817 36.0052 23.0034 34.2928 18.7741 31.5501C14.8394 29.0498 11.5033 25.7138 9.00301 21.779C6.25078 17.5305 4.538 12.6935 4.00345 7.65971C3.96276 7.20937 4.01628 6.75549 4.16061 6.32697C4.30493 5.89844 4.53691 5.50467 4.84176 5.17071C5.14661 4.83675 5.51766 4.56993 5.93128 4.38723C6.3449 4.20453 6.79204 4.10996 7.24421 4.10953H12.1298C12.9201 4.10175 13.6863 4.38162 14.2855 4.89698C14.8848 5.41233 15.2762 6.128 15.3868 6.91059C15.593 8.47408 15.9754 10.0092 16.5268 11.4867C16.7459 12.0696 16.7933 12.7031 16.6634 13.3121C16.5335 13.9211 16.2318 14.4801 15.7939 14.9229L13.7257 16.9911C16.044 21.0682 19.4198 24.444 23.4969 26.7623L25.5651 24.694C26.0078 24.2562 26.5669 23.9544 27.1759 23.8246C27.7849 23.6947 28.4184 23.7421 29.0013 23.9612C30.4788 24.5125 32.0139 24.895 33.5774 25.1012C34.3685 25.2128 35.0909 25.6112 35.6074 26.2208C36.1239 26.8303 36.3983 27.6084 36.3785 28.4071Z" stroke="#21B873" stroke-width="2.60563" stroke-linecap="round" stroke-linejoin="round"/>
</svg>
