<svg width="33" height="32" viewBox="0 0 33 32" fill="none" xmlns="http://www.w3.org/2000/svg">
<path fill-rule="evenodd" clip-rule="evenodd" d="M25.6198 22.1151C27.3895 19.804 28.4734 16.9233 28.4734 13.7958C28.4734 6.18628 22.151 0 14.4203 0C6.68968 0 0.402344 6.18593 0.402344 13.7958C0.402344 21.404 6.68787 27.5917 14.4203 27.5917C17.3106 27.5917 20.0202 26.7028 22.2597 25.2098C22.2964 25.2459 22.2964 25.2459 22.3317 25.2806L28.4734 31.325C28.9067 31.7514 29.5206 32 30.0992 32C30.6778 32 31.2917 31.7861 31.7249 31.325C32.6281 30.4361 32.6281 29.0139 31.7249 28.125L25.6198 22.1151ZM14.4184 23.075C9.21669 23.075 4.98828 18.9154 4.98828 13.7943C4.98828 8.67507 9.21488 4.51367 14.4184 4.51367C19.6201 4.51367 23.8485 8.6733 23.8485 13.7943C23.8485 18.9154 19.6204 23.075 14.4184 23.075Z" fill="white"/>
</svg>
