<svg width="24" height="24" viewBox="0 0 24 24" fill="none" xmlns="http://www.w3.org/2000/svg">
<rect x="0.5" y="0.5" width="23" height="23" rx="3.5" stroke="white"/>
<path d="M16.2571 8.84294C15.9129 8.9859 15.5461 9.08065 15.1636 9.12666C15.5571 8.90429 15.8573 8.55484 15.9985 8.13364C15.6317 8.34068 15.2267 8.48692 14.7951 8.56853C14.4468 8.21745 13.9504 8 13.4088 8C12.3581 8 11.5123 8.80734 11.5123 9.79707C11.5123 9.93948 11.525 10.0764 11.5562 10.2068C9.97849 10.1339 8.58239 9.41805 7.64453 8.32754C7.48079 8.59647 7.38475 8.90429 7.38475 9.23566C7.38475 9.85787 7.72321 10.4094 8.22773 10.7287C7.92282 10.7233 7.6237 10.6395 7.37029 10.5075C7.37029 10.5129 7.37029 10.5201 7.37029 10.5272C7.37029 11.4003 8.02812 12.1254 8.89077 12.2925C8.73629 12.3325 8.56793 12.3516 8.3932 12.3516C8.2717 12.3516 8.14904 12.3451 8.03391 12.321C8.2798 13.0325 8.97756 13.5555 9.80723 13.5725C9.16154 14.0507 8.34171 14.3388 7.45418 14.3388C7.29854 14.3388 7.14927 14.3322 7 14.3141C7.84066 14.8273 8.83696 15.1204 9.91137 15.1204C13.4036 15.1204 15.3129 12.3818 15.3129 10.0079C15.3129 9.92853 15.31 9.85184 15.306 9.77571C15.6826 9.52266 15.9991 9.20663 16.2571 8.84294Z" fill="white"/>
</svg>
