<svg width="24" height="24" viewBox="0 0 24 24" fill="none" xmlns="http://www.w3.org/2000/svg">
<rect x="0.5" y="0.5" width="23" height="23" rx="3.5" stroke="white"/>
<path fill-rule="evenodd" clip-rule="evenodd" d="M15.979 8.00404C14.9265 6.95032 13.5267 6.36976 12.0356 6.36914C8.96282 6.36914 6.46206 8.86983 6.46082 11.9434C6.46041 12.9259 6.71708 13.885 7.20494 14.7304L6.41406 17.6191L9.36932 16.8439C10.1836 17.2881 11.1003 17.5222 12.0333 17.5225H12.0356C15.108 17.5225 17.6091 15.0216 17.6102 11.9479C17.6108 10.4583 17.0315 9.0577 15.979 8.00404ZM12.0356 16.581H12.0336C11.2022 16.5807 10.3869 16.3572 9.67535 15.9351L9.50623 15.8347L7.75254 16.2947L8.22063 14.5849L8.11042 14.4096C7.64659 13.6719 7.40166 12.8192 7.40208 11.9437C7.40304 9.38908 9.48165 7.31067 12.0374 7.31067C13.275 7.31108 14.4384 7.79366 15.3132 8.66947C16.188 9.54529 16.6695 10.7094 16.669 11.9475C16.6679 14.5024 14.5895 16.581 12.0356 16.581ZM14.5771 13.1108C14.4379 13.041 13.753 12.7041 13.6253 12.6576C13.4977 12.6111 13.4047 12.588 13.312 12.7273C13.2191 12.8667 12.9522 13.1805 12.8709 13.2734C12.7896 13.3664 12.7084 13.3781 12.5691 13.3083C12.4298 13.2386 11.981 13.0915 11.4489 12.6169C11.0348 12.2476 10.7553 11.7914 10.674 11.6521C10.5928 11.5125 10.6733 11.4444 10.7351 11.3678C10.8859 11.1805 11.0369 10.9842 11.0833 10.8913C11.1298 10.7983 11.1065 10.717 11.0716 10.6473C11.0369 10.5776 10.7583 9.89198 10.6423 9.61299C10.5291 9.34149 10.4144 9.37816 10.3288 9.3739C10.2477 9.36985 10.1548 9.36903 10.0619 9.36903C9.96903 9.36903 9.81811 9.40384 9.69039 9.54337C9.56274 9.68282 9.20294 10.0198 9.20294 10.7054C9.20294 11.391 9.70206 12.0533 9.77169 12.1463C9.84132 12.2393 10.7539 13.6462 12.1512 14.2495C12.4835 14.3931 12.7429 14.4788 12.9453 14.543C13.279 14.649 13.5826 14.634 13.8226 14.5982C14.0903 14.5581 14.6467 14.2612 14.7628 13.9358C14.8789 13.6104 14.8789 13.3316 14.844 13.2734C14.8093 13.2153 14.7164 13.1805 14.5771 13.1108Z" fill="white"/>
</svg>
