<svg width="24" height="24" viewBox="0 0 24 24" fill="none" xmlns="http://www.w3.org/2000/svg">
<rect x="0.5" y="0.5" width="23" height="23" rx="3.5" stroke="white"/>
<path d="M8.38741 7.19922H15.2682C15.9216 7.19922 16.4563 7.68301 16.4563 8.38731V15.2683C16.4563 15.9726 15.9216 16.4564 15.2682 16.4564H8.38741C7.73377 16.4564 7.19922 15.9726 7.19922 15.2683V8.38731C7.19922 7.68301 7.73377 7.19922 8.38741 7.19922ZM13.9426 8.22773C13.7134 8.22773 13.5261 8.41516 13.5261 8.64451V9.64203C13.5261 9.87129 13.7134 10.0588 13.9426 10.0588H14.9889C15.2182 10.0588 15.4057 9.87129 15.4057 9.64203V8.64451C15.4057 8.41516 15.2182 8.22773 14.9889 8.22773H13.9426ZM15.4101 11.114H14.5953C14.6724 11.3657 14.7141 11.6323 14.7141 11.9082C14.7141 13.4479 13.4257 14.6961 11.8366 14.6961C10.2476 14.6961 8.95931 13.4479 8.95931 11.9082C8.95931 11.6321 9.00094 11.3656 9.07812 11.114H8.22792V15.0244C8.22792 15.2267 8.39349 15.3924 8.59594 15.3924H15.0422C15.2447 15.3924 15.4103 15.2268 15.4103 15.0244V11.114H15.4101ZM11.8365 10.0063C10.8098 10.0063 9.97736 10.8127 9.97736 11.8077C9.97736 12.8026 10.8098 13.6091 11.8365 13.6091C12.8633 13.6091 13.6958 12.8026 13.6958 11.8077C13.6958 10.8127 12.8634 10.0063 11.8365 10.0063Z" fill="white"/>
</svg>
