<svg width="92" height="92" viewBox="0 0 92 92" fill="none" xmlns="http://www.w3.org/2000/svg">
<path d="M92 15.334H0V76.668H92V15.334Z" fill="#0052B4"/>
<path d="M40.1419 45.9986C40.1909 45.944 40.2395 45.8891 40.288 45.834C40.2395 45.8893 40.1899 45.9436 40.1406 45.9986H40.1419Z" fill="#F0F0F0"/>
<path d="M33.9999 53.5332L35.9689 57.6504L40.4156 56.6229L38.4241 60.7293L41.9999 63.565L37.548 64.5685L37.5604 69.1322L33.9999 66.277L30.4395 69.1322L30.4519 64.5685L26 63.565L29.5758 60.7293L27.5843 56.6229L32.0309 57.6504L33.9999 53.5332Z" fill="#F0F0F0"/>
<path d="M69.552 58.6484L70.4912 60.6122L72.6121 60.1221L71.6622 62.0807L73.3678 63.4333L71.2443 63.9118L71.25 66.0886L69.552 64.7269L67.8539 66.0886L67.8597 63.9118L65.7363 63.4333L67.4417 62.0807L66.4921 60.1221L68.6129 60.6122L69.552 58.6484Z" fill="#F0F0F0"/>
<path d="M60.8158 37.8145L61.7551 39.7784L63.8759 39.2881L62.9261 41.2468L64.6315 42.5995L62.5081 43.078L62.5139 45.255L60.8158 43.8929L59.1176 45.255L59.1235 43.078L57 42.5995L58.7054 41.2468L57.7559 39.2881L59.8766 39.7784L60.8158 37.8145Z" fill="#F0F0F0"/>
<path d="M69.552 25.9102L70.4912 27.8741L72.6121 27.3836L71.6622 29.3425L73.3677 30.6951L71.2443 31.1737L71.25 33.3505L69.552 31.9884L67.8539 33.3505L67.8597 31.1737L65.7363 30.6951L67.4417 29.3425L66.4921 27.3836L68.6129 27.8741L69.552 25.9102Z" fill="#F0F0F0"/>
<path d="M77.1848 34.8398L78.124 36.8036L80.2447 36.3135L79.2952 38.2721L81.0006 39.6246L78.8771 40.1033L78.883 42.28L77.1848 40.9183L75.4868 42.28L75.4925 40.1033L73.3691 39.6246L75.0746 38.2721L74.1247 36.3135L76.2456 36.8036L77.1848 34.8398Z" fill="#F0F0F0"/>
<path d="M71.7271 45.2559L72.4656 47.5293H74.8562L72.9222 48.9344L73.6611 51.2078L71.7271 49.8029L69.7928 51.2078L70.5316 48.9344L68.5977 47.5293H70.9882L71.7271 45.2559Z" fill="#F0F0F0"/>
<path d="M46 15.334V20.824L37.8841 25.334H46V36H35.3799L46 41.9001V46H41.2059L28 38.6641V46H18V37.272L2.28994 46H0V40.51L8.11594 36H0V25.334H10.6201L0 19.4319V15.334H4.79406L18 22.6701V15.334H28V24.0619L43.7101 15.334H46Z" fill="#F0F0F0"/>
<path d="M25.875 15.332H20.125V27.7901H0V33.5401H20.125V45.9986H25.875V33.5401H46V27.7901H25.875V15.332Z" fill="#D80027"/>
<path d="M28 36L46 46V43.1722L33.09 36H28Z" fill="#0052B4"/>
<path d="M28 36L46 46V43.1722L33.09 36H28Z" fill="#F0F0F0"/>
<path d="M28 36L46 46V43.1722L33.09 36H28Z" fill="#D80027"/>
<path d="M12.9098 36L0 43.1722V46L18 36H12.9098Z" fill="#D80027"/>
<path d="M18 25.332L0 15.332V18.1598L12.91 25.332H18Z" fill="#0052B4"/>
<path d="M18 25.332L0 15.332V18.1598L12.91 25.332H18Z" fill="#F0F0F0"/>
<path d="M18 25.332L0 15.332V18.1598L12.91 25.332H18Z" fill="#D80027"/>
<path d="M33.0902 25.332L46 18.1598V15.332L28 25.332H33.0902Z" fill="#D80027"/>
</svg>
