<svg width="92" height="92" viewBox="0 0 92 92" fill="none" xmlns="http://www.w3.org/2000/svg">
<g clip-path="url(#clip0_2636_33328)">
<path d="M88.6758 34.3574H82.1768C81.0852 34.3574 80.2003 35.2424 80.2003 36.334V39.5684C80.2003 40.66 81.0852 41.5449 82.1768 41.5449H88.6758C89.7674 41.5449 90.6524 40.66 90.6524 39.5684V36.334C90.6524 35.2424 89.7674 34.3574 88.6758 34.3574Z" fill="#E4222E"/>
<path d="M88.6758 34.3574H85.9805C86.5047 34.3574 87.0074 34.5657 87.3781 34.9363C87.7488 35.307 87.957 35.8098 87.957 36.334V39.5684C87.957 40.0926 87.7488 40.5953 87.3781 40.966C87.0074 41.3367 86.5047 41.5449 85.9805 41.5449H88.6758C89.2 41.5449 89.7027 41.3367 90.0734 40.966C90.4441 40.5953 90.6523 40.0926 90.6523 39.5684V36.334C90.6523 35.8098 90.4441 35.307 90.0734 34.9363C89.7027 34.5657 89.2 34.3574 88.6758 34.3574Z" fill="#C0232C"/>
<path d="M9.82316 34.3574H3.32422C2.23259 34.3574 1.34766 35.2424 1.34766 36.334V39.5684C1.34766 40.66 2.23259 41.5449 3.32422 41.5449H9.82316C10.9148 41.5449 11.7997 40.66 11.7997 39.5684V36.334C11.7997 35.2424 10.9148 34.3574 9.82316 34.3574Z" fill="#E4222E"/>
<path d="M69.3594 78.6328H81.9375V88.2254C81.9375 88.544 81.8747 88.8595 81.7528 89.1539C81.6309 89.4483 81.4521 89.7158 81.2268 89.9411C81.0015 90.1664 80.734 90.3451 80.4396 90.4671C80.1452 90.589 79.8297 90.6518 79.5111 90.6518H71.7858C71.1423 90.6518 70.5251 90.3961 70.0701 89.9411C69.615 89.4861 69.3594 88.8689 69.3594 88.2254V78.6328Z" fill="#787681"/>
<path d="M76.5469 78.6328V88.2254C76.5469 88.544 76.4841 88.8595 76.3622 89.1539C76.2402 89.4483 76.0615 89.7158 75.8362 89.9411C75.6109 90.1664 75.3434 90.3452 75.049 90.4671C74.7546 90.589 74.4391 90.6518 74.1205 90.6518H79.5111C79.8297 90.6518 80.1452 90.589 80.4396 90.4671C80.734 90.3452 81.0015 90.1664 81.2268 89.9411C81.4521 89.7158 81.6309 89.4483 81.7528 89.1539C81.8747 88.8595 81.9375 88.544 81.9375 88.2254V78.6328H76.5469Z" fill="#57565C"/>
<path d="M10.0625 78.6328H22.6406V88.2254C22.6406 88.8689 22.385 89.4861 21.9299 89.9411C21.4749 90.3961 20.8577 90.6518 20.2142 90.6518H12.4889C11.8454 90.6518 11.2282 90.3961 10.7732 89.9411C10.3181 89.4861 10.0625 88.8689 10.0625 88.2254V78.6328Z" fill="#787681"/>
<path d="M17.25 78.6328V88.2254C17.25 88.544 17.1872 88.8595 17.0653 89.1539C16.9434 89.4483 16.7646 89.7158 16.5393 89.9411C16.314 90.1664 16.0465 90.3452 15.7521 90.4671C15.4577 90.589 15.1422 90.6518 14.8236 90.6518H20.2142C20.5328 90.6518 20.8484 90.589 21.1428 90.4671C21.4371 90.3452 21.7046 90.1664 21.9299 89.9411C22.1553 89.7158 22.334 89.4483 22.4559 89.1539C22.5779 88.8595 22.6406 88.544 22.6406 88.2254V78.6328H17.25Z" fill="#57565C"/>
<path d="M9.82317 34.3574H7.12785C7.65207 34.3574 8.15482 34.5657 8.52549 34.9363C8.89617 35.307 9.10442 35.8098 9.10442 36.334V39.5684C9.10442 40.0926 8.89617 40.5953 8.52549 40.966C8.15482 41.3367 7.65207 41.5449 7.12785 41.5449H9.82317C10.3474 41.5449 10.8501 41.3367 11.2208 40.966C11.5915 40.5953 11.7997 40.0926 11.7997 39.5684V36.334C11.7997 35.8098 11.5915 35.307 11.2208 34.9363C10.8501 34.5657 10.3474 34.3574 9.82317 34.3574Z" fill="#C0232C"/>
<path d="M25.6825 20.972C25.3251 20.972 24.9823 20.83 24.7296 20.5773C24.4768 20.3245 24.3348 19.9817 24.3348 19.6243V17.4473C24.3348 17.0898 24.4768 16.7471 24.7296 16.4943C24.9823 16.2416 25.3251 16.0996 25.6825 16.0996C26.0399 16.0996 26.3827 16.2416 26.6354 16.4943C26.8882 16.7471 27.0302 17.0898 27.0302 17.4473V19.6243C27.0301 19.9817 26.8882 20.3245 26.6354 20.5773C26.3827 20.83 26.0399 20.972 25.6825 20.972ZM67.6284 20.972C67.271 20.972 66.9282 20.83 66.6754 20.5773C66.4227 20.3245 66.2807 19.9817 66.2807 19.6243V17.4473C66.2807 17.0898 66.4227 16.7471 66.6754 16.4943C66.9282 16.2416 67.271 16.0996 67.6284 16.0996C67.9858 16.0996 68.3286 16.2416 68.5813 16.4943C68.8341 16.7471 68.976 17.0898 68.976 17.4473V19.6243C68.976 19.9817 68.834 20.3245 68.5813 20.5773C68.3286 20.83 67.9858 20.972 67.6284 20.972Z" fill="#787681"/>
<path d="M79.3418 38.3693L73.4607 23.0785C73.0695 22.0616 72.3794 21.187 71.4812 20.5701C70.583 19.9532 69.519 19.623 68.4294 19.623H23.5706C22.481 19.623 21.417 19.9532 20.5188 20.5701C19.6206 21.187 18.9305 22.0616 18.5393 23.0785L12.6583 38.3693C12.0798 39.8733 11.2164 41.2514 10.1154 42.428C7.94552 44.7469 6.73828 47.804 6.73828 50.9798V73.5293C6.73828 74.959 7.30622 76.3301 8.31716 77.341C9.3281 78.352 10.6992 78.9199 12.1289 78.9199H79.8711C81.3008 78.9199 82.6719 78.352 83.6828 77.341C84.6938 76.3301 85.2617 74.959 85.2617 73.5293V50.9798C85.2617 47.804 84.0545 44.7469 81.8846 42.428C80.7836 41.2514 79.9202 39.8733 79.3418 38.3693Z" fill="#EB304A"/>
<path d="M81.8846 42.428L81.8846 42.428C80.7836 41.2514 79.9202 39.8733 79.3418 38.3693L73.4607 23.0785C73.0695 22.0616 72.3794 21.187 71.4812 20.5701C70.583 19.9532 69.519 19.623 68.4294 19.623H63.0388C64.1284 19.623 65.1924 19.9532 66.0906 20.5701C66.9888 21.187 67.6789 22.0616 68.0701 23.0785L73.9511 38.3693C74.5296 39.8733 75.393 41.2514 76.494 42.428L76.494 42.428C78.6639 44.7469 79.8711 47.804 79.8711 50.9798V73.5293C79.8711 74.959 79.3032 76.3301 78.2922 77.341C77.2813 78.352 75.9102 78.9199 74.4805 78.9199H79.8711C81.3008 78.9199 82.6719 78.352 83.6828 77.341C84.6938 76.3301 85.2617 74.959 85.2617 73.5293V50.9798C85.2617 47.804 84.0545 44.7469 81.8846 42.428Z" fill="#E4222E"/>
<path d="M69.9883 78.9199H21.832L27.8417 73.7115C29.1808 72.551 30.8934 71.9121 32.6654 71.9121H59.1549C60.9269 71.9121 62.6395 72.551 63.9786 73.7115L69.9883 78.9199Z" fill="#57565C"/>
<path d="M63.9786 73.7115C62.6395 72.551 60.9269 71.9121 59.1549 71.9121H51.0689C52.8409 71.9121 54.5535 72.551 55.8926 73.7115L61.9023 78.9199H69.9883L63.9786 73.7115Z" fill="#3C3B41"/>
<path d="M59.8149 64.1856H32.1851C31.9563 64.1856 31.7308 64.1309 31.5273 64.0262C31.3238 63.9215 31.1483 63.7698 31.0153 63.5836L27.6783 58.9117C27.5248 58.6968 27.4334 58.4437 27.4143 58.1803C27.3952 57.9169 27.449 57.6532 27.5698 57.4184C27.6907 57.1835 27.8739 56.9865 28.0994 56.849C28.3249 56.7114 28.5839 56.6387 28.848 56.6387H63.152C63.4161 56.6387 63.6751 56.7114 63.9006 56.849C64.1261 56.9865 64.3093 57.1835 64.4301 57.4184C64.551 57.6532 64.6048 57.9169 64.5857 58.1803C64.5666 58.4437 64.4752 58.6968 64.3217 58.9117L60.9847 63.5836C60.8517 63.7698 60.6761 63.9215 60.4727 64.0262C60.2692 64.1309 60.0437 64.1856 59.8149 64.1856Z" fill="white"/>
<path d="M63.152 56.6387H55.0661C55.3302 56.6387 55.5892 56.7114 55.8147 56.849C56.0401 56.9865 56.2234 57.1836 56.3442 57.4184C56.4651 57.6532 56.5189 57.9169 56.4998 58.1803C56.4806 58.4437 56.3893 58.6968 56.2358 58.9117L52.8987 63.5836C52.7657 63.7698 52.5902 63.9215 52.3868 64.0262C52.1833 64.1309 51.9578 64.1856 51.729 64.1856H59.8149C60.0437 64.1856 60.2693 64.1309 60.4727 64.0262C60.6762 63.9215 60.8517 63.7698 60.9847 63.5836L64.3217 58.9117C64.4753 58.6968 64.5666 58.4437 64.5857 58.1803C64.6048 57.9169 64.551 57.6532 64.4302 57.4184C64.3093 57.1836 64.1261 56.9865 63.9006 56.849C63.6751 56.7114 63.4161 56.6387 63.152 56.6387Z" fill="#E1E1E3"/>
<path d="M75.6484 64.7246C77.8813 64.7246 79.6914 62.9145 79.6914 60.6816C79.6914 58.4488 77.8813 56.6387 75.6484 56.6387C73.4156 56.6387 71.6055 58.4488 71.6055 60.6816C71.6055 62.9145 73.4156 64.7246 75.6484 64.7246Z" fill="#FDDD5A"/>
<path d="M75.6484 56.6387C75.1894 56.6384 74.7336 56.7165 74.3008 56.8696C75.089 57.1484 75.7715 57.6646 76.2542 58.3473C76.7369 59.03 76.9961 59.8455 76.9961 60.6816C76.9961 61.5177 76.7369 62.3333 76.2542 63.0159C75.7715 63.6986 75.089 64.2149 74.3008 64.4936C74.8559 64.6899 75.4472 64.7625 76.0333 64.7064C76.6195 64.6504 77.1863 64.467 77.6941 64.169C78.202 63.8711 78.6386 63.4658 78.9736 62.9816C79.3085 62.4973 79.5336 61.9457 79.6332 61.3654C79.7327 60.7851 79.7044 60.19 79.55 59.6218C79.3956 59.0536 79.119 58.526 78.7395 58.0758C78.36 57.6256 77.8868 57.2638 77.3528 57.0155C76.8189 56.7673 76.2372 56.6387 75.6484 56.6387Z" fill="#FED030"/>
<path d="M16.3516 64.7246C18.5844 64.7246 20.3945 62.9145 20.3945 60.6816C20.3945 58.4488 18.5844 56.6387 16.3516 56.6387C14.1187 56.6387 12.3086 58.4488 12.3086 60.6816C12.3086 62.9145 14.1187 64.7246 16.3516 64.7246Z" fill="#FDDD5A"/>
<path d="M16.3516 56.6387C15.8925 56.6384 15.4367 56.7165 15.0039 56.8696C15.7922 57.1484 16.4746 57.6646 16.9573 58.3473C17.44 59.03 17.6992 59.8455 17.6992 60.6816C17.6992 61.5177 17.44 62.3333 16.9573 63.0159C16.4746 63.6986 15.7922 64.2149 15.0039 64.4936C15.559 64.6899 16.1503 64.7625 16.7365 64.7064C17.3226 64.6504 17.8894 64.467 18.3973 64.169C18.9051 63.8711 19.3418 63.4658 19.6767 62.9816C20.0116 62.4973 20.2367 61.9457 20.3363 61.3654C20.4359 60.7851 20.4075 60.19 20.2531 59.6218C20.0988 59.0536 19.8222 58.526 19.4427 58.0758C19.0631 57.6256 18.5899 57.2638 18.056 57.0155C17.5221 56.7673 16.9404 56.6387 16.3516 56.6387Z" fill="#FED030"/>
<path d="M24.4344 25.2188H67.5656C67.7831 25.2187 67.9956 25.2845 68.175 25.4075C68.3545 25.5305 68.4925 25.7048 68.571 25.9077L75.0804 42.7228C75.1436 42.8862 75.1661 43.0625 75.1459 43.2365C75.1257 43.4105 75.0634 43.5769 74.9644 43.7214C74.8653 43.8659 74.7326 43.9841 74.5776 44.0658C74.4227 44.1475 74.2502 44.1901 74.075 44.1901H17.925C17.7498 44.1901 17.5773 44.1475 17.4223 44.0658C17.2674 43.9841 17.1346 43.8659 17.0356 43.7214C16.9366 43.5769 16.8743 43.4105 16.8541 43.2365C16.8339 43.0625 16.8563 42.8862 16.9196 42.7228L23.4289 25.9077C23.5075 25.7048 23.6455 25.5304 23.825 25.4075C24.0044 25.2845 24.2168 25.2187 24.4344 25.2188Z" fill="#52BBE9"/>
<path d="M75.0804 42.7228L68.5711 25.9077C68.4925 25.7048 68.3545 25.5305 68.175 25.4075C67.9956 25.2846 67.7832 25.2188 67.5656 25.2188H62.175C62.3925 25.2188 62.605 25.2846 62.7844 25.4075C62.9638 25.5305 63.1019 25.7048 63.1804 25.9077L69.6898 42.7228C69.753 42.8862 69.7755 43.0625 69.7553 43.2365C69.7351 43.4105 69.6728 43.5769 69.5737 43.7214C69.4747 43.8659 69.342 43.9841 69.187 44.0658C69.0321 44.1475 68.8595 44.1902 68.6844 44.1902H74.075C74.2502 44.1902 74.4227 44.1475 74.5777 44.0658C74.7326 43.9841 74.8654 43.8659 74.9644 43.7214C75.0634 43.5769 75.1257 43.4105 75.1459 43.2365C75.1661 43.0625 75.1436 42.8862 75.0804 42.7228Z" fill="#1CABE1"/>
<path d="M90.6523 92H1.34766C0.990236 92 0.647454 91.858 0.394719 91.6053C0.141985 91.3525 0 91.0098 0 90.6523C0 90.2949 0.141985 89.9521 0.394719 89.6994C0.647454 89.4467 0.990236 89.3047 1.34766 89.3047H90.6523C91.0098 89.3047 91.3525 89.4467 91.6053 89.6994C91.858 89.9521 92 90.2949 92 90.6523C92 91.0098 91.858 91.3525 91.6053 91.6053C91.3525 91.858 91.0098 92 90.6523 92Z" fill="#787681"/>
</g>
<defs>
<clipPath id="clip0_2636_33328">
<rect width="92" height="92" fill="white"/>
</clipPath>
</defs>
</svg>
