<svg width="92" height="92" viewBox="0 0 92 92" fill="none" xmlns="http://www.w3.org/2000/svg">
<g clip-path="url(#clip0_2636_35012)">
<path d="M83.9069 5.73633H8.09313C3.6225 5.73633 0 9.35883 0 13.8295V63.0638C0 67.5345 3.6225 71.157 8.09313 71.157H20.9156V86.2651L39.3731 71.157H83.9212C88.3919 71.157 92.0144 67.5345 92.0144 63.0638V13.8295C92 9.35883 88.3775 5.73633 83.9069 5.73633Z" fill="#E9E9E9"/>
<path d="M36.5413 31.5818L40.5376 27.5855C41.3713 26.7518 41.3713 25.4005 40.5376 24.5524L32.5019 16.5168C31.7401 15.7549 30.5326 15.683 29.6844 16.3299C18.4863 24.8543 23.4169 35.5062 36.1676 48.2712C48.9326 61.0362 59.5844 65.9524 68.1088 54.7543C68.7557 53.8918 68.6838 52.6987 67.9219 51.9368L59.8863 43.9012C59.0526 43.0674 57.7013 43.0674 56.8532 43.9012L52.8569 47.8974C52.0232 48.7312 50.6719 48.7312 49.8238 47.8974L36.5269 34.6005C35.7076 33.7668 35.7076 32.4155 36.5413 31.5818Z" fill="#DA6147"/>
<path d="M66.887 56.2349L55.7032 45.0512L56.8676 43.8868C57.7014 43.053 59.0526 43.053 59.9007 43.8868L67.9364 51.9224C68.6982 52.6843 68.7701 53.8774 68.1232 54.7399C67.7064 55.2862 67.3039 55.7893 66.887 56.2349ZM40.5376 27.5855L39.3876 28.7499L28.2039 17.5662C28.6639 17.1493 29.1526 16.7468 29.6845 16.3299C30.5326 15.683 31.7401 15.7549 32.502 16.5168L40.5376 24.5524C41.3714 25.3862 41.3857 26.7518 40.5376 27.5855Z" fill="#B34932"/>
<path d="M64.7594 36.2674C64.0263 36.2674 63.4225 35.6637 63.4225 34.9305C63.4225 27.2543 57.1838 21.0155 49.5075 21.0155C48.7744 21.0155 48.1707 20.4118 48.1707 19.6787C48.1707 18.9455 48.7744 18.3418 49.5075 18.3418C58.65 18.3418 66.0963 25.788 66.0963 34.9305C66.0963 35.6637 65.5069 36.2674 64.7594 36.2674Z" fill="#696867"/>
<path d="M60.1162 36.2969C59.3831 36.2969 58.7794 35.6931 58.7794 34.96C58.7794 29.8425 54.6106 25.6738 49.4931 25.6738C48.76 25.6738 48.1562 25.07 48.1562 24.3369C48.1562 23.6038 48.7456 23 49.4787 23C56.0769 23 61.4388 28.3619 61.4388 34.96C61.4531 35.6931 60.8494 36.2969 60.1162 36.2969Z" fill="#696867"/>
<path d="M55.4157 36.2674C54.6825 36.2674 54.0788 35.6637 54.0788 34.9305C54.0788 32.4149 52.0232 30.3593 49.5075 30.3593C48.7744 30.3593 48.1707 29.7555 48.1707 29.0224C48.1707 28.2893 48.7744 27.6855 49.5075 27.6855C53.5038 27.6855 56.7525 30.9343 56.7525 34.9305C56.7669 35.6637 56.1632 36.2674 55.4157 36.2674Z" fill="#696867"/>
</g>
<defs>
<clipPath id="clip0_2636_35012">
<rect width="92" height="92" fill="white"/>
</clipPath>
</defs>
</svg>
