<svg width="92" height="92" viewBox="0 0 92 92" fill="none" xmlns="http://www.w3.org/2000/svg">
<path d="M75.4401 9.19922H16.5601V82.7992H75.4401V9.19922Z" fill="#CFD1D1"/>
<path opacity="0.5" d="M75.4401 17.6613V17.2677H67.5631V9.19922H67.1693V17.2677H59.0954V9.19922H58.7016V17.2677H50.4308V9.19922H50.037V17.2677H41.9631V9.19922H41.5693V17.2677H33.4954V9.19922H33.1016V17.2677H24.8308V9.19922H24.437V17.2677H16.5601V17.6613H24.437V26.1233H16.5601V26.5169H24.437V34.7821H16.5601V35.1757H24.437V43.6377H16.5601V44.0313H24.437V52.4933H16.5601V52.8869H24.437V61.3489H16.5601V61.7425H24.437V70.2046H16.5601V70.5981H24.437V82.7992H24.8308V70.5981H32.9047V82.7992H33.2985V70.5981H41.3724V82.7992H41.7662V70.5981H49.8401V82.7992H50.4308V70.5981H58.5047V82.7992H58.8985V70.5981H66.9724V82.7992H67.3662V70.5981H75.2431V70.2046H67.3662V61.7425H75.2431V61.3489H67.3662V52.8869H75.2431V52.4933H67.3662V44.0313H75.2431V43.6377H67.3662V35.1757H75.2431V34.7821H67.3662V26.3201H75.2431V25.9265H67.3662V17.4645H75.4401V17.6613ZM32.9047 70.2046H24.8308V61.7425H32.9047V70.2046ZM32.9047 61.3489H24.8308V52.8869H32.9047V61.3489ZM32.9047 52.4933H24.8308V44.0313H32.9047V52.4933ZM32.9047 43.6377H24.8308V35.1757H32.9047V43.6377ZM32.9047 34.7821H24.8308V26.3201H32.9047V34.7821ZM32.9047 26.1233H24.8308V17.6613H32.9047V26.1233ZM41.3724 70.2046H33.2985V61.7425H41.3724V70.2046ZM41.3724 61.3489H33.2985V52.8869H41.3724V61.3489ZM41.3724 52.4933H33.2985V44.0313H41.3724V52.4933ZM41.3724 43.6377H33.2985V35.1757H41.3724V43.6377ZM41.3724 34.7821H33.2985V26.3201H41.3724V34.7821ZM41.3724 26.1233H33.2985V17.6613H41.3724V26.1233ZM49.8401 70.2046H41.7662V61.7425H49.8401V70.2046ZM49.8401 61.3489H41.7662V52.8869H49.8401V61.3489ZM49.8401 52.4933H41.7662V44.0313H49.8401V52.4933ZM49.8401 43.6377H41.7662V35.1757H49.8401V43.6377ZM49.8401 34.7821H41.7662V26.3201H49.8401V34.7821ZM49.8401 26.1233H41.7662V17.6613H49.8401V26.1233ZM58.5047 70.2046H50.4308V61.7425H58.5047V70.2046ZM58.5047 61.3489H50.4308V52.8869H58.5047V61.3489ZM58.5047 52.4933H50.4308V44.0313H58.5047V52.4933ZM58.5047 43.6377H50.4308V35.1757H58.5047V43.6377ZM58.5047 34.7821H50.4308V26.3201H58.5047V34.7821ZM58.5047 26.1233H50.4308V17.6613H58.5047V26.1233ZM66.9724 70.2046H58.8985V61.7425H66.9724V70.2046ZM66.9724 61.3489H58.8985V52.8869H66.9724V61.3489ZM66.9724 52.4933H58.8985V44.0313H66.9724V52.4933ZM66.9724 43.6377H58.8985V35.1757H66.9724V43.6377ZM66.9724 34.7821H58.8985V26.3201H66.9724V34.7821ZM66.9724 26.1233H58.8985V17.6613H66.9724V26.1233Z" fill="#BFC1C1"/>
<path d="M79.1199 66.2402H12.8799V86.4802H79.1199V66.2402Z" fill="#CFD1D1"/>
<path opacity="0.5" d="M21.6469 86.4802H22.2314V76.5755H31.3881V86.4802H31.7778V76.5755H40.9345V86.4802H41.5189V76.5755H50.4808V86.4802H51.0653V76.5755H60.0272V86.4802H60.6117V76.5755H69.7684V86.4802H70.158V76.5755H79.1199V76.1449H70.158V66.2402H69.7684V76.1449H60.6117V66.2402H60.0272V76.1449H51.0653V66.2402H50.4808V76.1449H41.5189V66.2402H40.9345V76.1449H31.7778V66.2402H31.3881V76.1449H22.2314V66.2402H21.6469V76.1449H12.8799V76.5755H21.6469V86.4802Z" fill="#BFC1C1"/>
<path d="M86.48 86.4805H0V90.1605H86.48V86.4805Z" fill="#444444"/>
<path d="M33.12 14.7207H25.76V60.7207H33.12V14.7207Z" fill="#B1B2B2"/>
<path d="M31.28 14.7207H25.76V60.7207H31.28V14.7207Z" fill="#11AAE4"/>
<path d="M44.1599 14.7207H38.6399V60.7207H44.1599V14.7207Z" fill="#B1B2B2"/>
<path d="M44.1599 14.7207H38.6399V60.7207H44.1599V14.7207Z" fill="#11AAE4"/>
<path d="M57.0399 14.7207H49.6799V60.7207H57.0399V14.7207Z" fill="#B1B2B2"/>
<path d="M55.1999 14.7207H49.6799V60.7207H55.1999V14.7207Z" fill="#11AAE4"/>
<path d="M68.0801 14.7207H62.5601V60.7207H68.0801V14.7207Z" fill="#B1B2B2"/>
<path d="M68.0801 14.7207H62.5601V60.7207H68.0801V14.7207Z" fill="#11AAE4"/>
<path d="M75.4399 77.2793H69.9199V80.9593H75.4399V77.2793Z" fill="#B1B2B2"/>
<path d="M75.44 77.2793H71.76V80.9593H75.44V77.2793Z" fill="#11AAE4"/>
<path d="M68.0801 77.2793H62.5601V80.9593H68.0801V77.2793Z" fill="#B1B2B2"/>
<path d="M68.0799 77.2793H64.3999V80.9593H68.0799V77.2793Z" fill="#11AAE4"/>
<path d="M60.72 77.2793H55.2V80.9593H60.72V77.2793Z" fill="#B1B2B2"/>
<path d="M60.72 77.2793H57.04V80.9593H60.72V77.2793Z" fill="#11AAE4"/>
<path d="M29.4399 77.2793H23.9199V80.9593H29.4399V77.2793Z" fill="#B1B2B2"/>
<path d="M27.5999 77.2793H23.9199V80.9593H27.5999V77.2793Z" fill="#11AAE4"/>
<path d="M20.24 77.2793H14.72V80.9593H20.24V77.2793Z" fill="#B1B2B2"/>
<path d="M20.2401 77.2793H16.5601V80.9593H20.2401V77.2793Z" fill="#11AAE4"/>
<path d="M80.96 67.1476V69.3256C80.96 69.7215 80.7614 69.9195 80.3641 69.9195H11.6359C11.2387 69.9195 11.04 69.7215 11.04 69.3256V67.1476C11.04 66.7517 11.2387 66.5537 11.6359 66.5537H80.3641C80.7614 66.5537 80.96 66.7517 80.96 67.1476ZM77.186 6.16617V9.73002C77.186 10.126 76.9873 10.324 76.59 10.324H15.41C15.0128 10.324 14.8141 10.126 14.8141 9.73002V6.16617C14.8141 5.77019 15.0128 5.57219 15.41 5.57219H76.3914C76.7887 5.3742 77.186 5.77019 77.186 6.16617Z" fill="#A1A1A1"/>
<path d="M51.52 77.2793H31.28V86.4793H51.52V77.2793Z" fill="#A1A1A1"/>
<path d="M49.6801 77.2793H33.1201V86.4793H49.6801V77.2793Z" fill="#848381"/>
</svg>
