<svg width="92" height="92" viewBox="0 0 92 92" fill="none" xmlns="http://www.w3.org/2000/svg">
<g clip-path="url(#clip0_2636_33373)">
<path fill-rule="evenodd" clip-rule="evenodd" d="M41.3442 44.6475C41.095 44.6571 40.8526 44.7313 40.6407 44.863C40.4289 44.9946 40.255 45.1793 40.136 45.3985C40.0171 45.6177 39.9571 45.864 39.9622 46.1134C39.9672 46.3628 40.0372 46.6064 40.165 46.8206L42.6638 51.1499C42.7582 51.3136 42.8838 51.457 43.0337 51.5721C43.1835 51.6872 43.3546 51.7719 43.5371 51.8209C43.7196 51.8699 43.9101 51.8823 44.0974 51.8578C44.2848 51.8332 44.4654 51.7721 44.6291 51.6777C44.7928 51.5834 44.9364 51.4577 45.0515 51.3078C45.1666 51.158 45.2511 50.9867 45.3001 50.8042C45.3491 50.6217 45.3617 50.4315 45.3372 50.2441C45.3126 50.0567 45.2513 49.8761 45.1569 49.7124L42.6526 45.3831C42.5234 45.1518 42.333 44.9608 42.1021 44.831C41.8712 44.7012 41.6089 44.6377 41.3442 44.6475ZM48.5205 57.0684C48.2712 57.078 48.0288 57.1522 47.817 57.2839C47.6052 57.4155 47.4313 57.6002 47.3123 57.8194C47.1934 58.0386 47.1335 58.2849 47.1386 58.5343C47.1437 58.7837 47.2135 59.0273 47.3413 59.2415L50.2275 64.2502C50.3177 64.4215 50.4416 64.573 50.5916 64.6953C50.7417 64.8175 50.9149 64.9083 51.1008 64.962C51.2868 65.0157 51.4816 65.0314 51.6738 65.008C51.8659 64.9845 52.0514 64.9223 52.219 64.8255C52.3866 64.7286 52.533 64.5991 52.6492 64.4443C52.7655 64.2896 52.8493 64.1129 52.8956 63.9249C52.9419 63.737 52.9498 63.5415 52.9188 63.3504C52.8878 63.1593 52.8184 62.9764 52.7151 62.8127L49.8288 57.804C49.6997 57.5727 49.5092 57.3817 49.2784 57.2519C49.0475 57.1221 48.7852 57.0586 48.5205 57.0684Z" fill="#34485C"/>
<path fill-rule="evenodd" clip-rule="evenodd" d="M53.9616 60.656C53.7095 60.6551 53.4616 60.7207 53.2428 60.8458L48.2621 63.7208C48.0907 63.8109 47.9392 63.9347 47.8168 64.0848C47.6943 64.2349 47.6035 64.408 47.5497 64.594C47.4959 64.7801 47.4801 64.9752 47.5035 65.1675C47.527 65.3597 47.589 65.5452 47.6859 65.7129C47.7828 65.8805 47.9126 66.0268 48.0675 66.1431C48.2224 66.2594 48.3992 66.3432 48.5873 66.3895C48.7754 66.4357 48.9708 66.4438 49.162 66.4126C49.3531 66.3815 49.536 66.312 49.6996 66.2084L54.349 63.5299H53.9616C54.1521 63.5326 54.3413 63.4974 54.518 63.4264C54.6948 63.3554 54.8556 63.2499 54.9913 63.1162C55.1269 62.9824 55.2347 62.823 55.3082 62.6473C55.3817 62.4715 55.4196 62.2829 55.4196 62.0924C55.4196 61.9019 55.3817 61.7133 55.3082 61.5376C55.2347 61.3618 55.1269 61.2025 54.9913 61.0687C54.8556 60.9349 54.6948 60.8295 54.518 60.7585C54.3413 60.6874 54.1521 60.6522 53.9616 60.6549V60.656ZM43.1803 41.9797C42.9283 41.9789 42.6804 42.0444 42.4616 42.1696L37.4809 45.0446C37.1503 45.2352 36.9088 45.5492 36.8099 45.9177C36.7109 46.2863 36.7624 46.6793 36.953 47.0099C37.1437 47.3405 37.4578 47.5819 37.8264 47.6809C38.195 47.7799 38.5878 47.7284 38.9184 47.5377L43.5678 44.8537H43.1803C43.3708 44.8564 43.56 44.8212 43.7368 44.7501C43.9135 44.6791 44.0744 44.5736 44.21 44.4399C44.3457 44.3061 44.4534 44.1468 44.5269 43.971C44.6005 43.7953 44.6384 43.6067 44.6384 43.4162C44.6384 43.2257 44.6005 43.037 44.5269 42.8613C44.4534 42.6856 44.3457 42.5262 44.21 42.3924C44.0744 42.2587 43.9135 42.1532 43.7368 42.0822C43.56 42.0112 43.3708 41.976 43.1803 41.9787V41.9797Z" fill="#34485C"/>
<path d="M17.2493 37.375C7.7394 37.375 -0.000761172 45.1151 -0.000732422 54.625C-0.000761172 64.1349 7.7394 71.875 17.2493 71.875C26.7591 71.875 34.4993 64.1349 34.4993 54.625C34.4993 45.1151 26.7591 37.375 17.2493 37.375ZM17.2493 40.25C25.2054 40.25 31.6243 46.669 31.6243 54.625C31.6243 62.5813 25.2054 69 17.2493 69C9.29317 69 2.87427 62.5813 2.87427 54.625C2.87427 46.669 9.29317 40.25 17.2493 40.25Z" fill="#2B4255"/>
<path fill-rule="evenodd" clip-rule="evenodd" d="M45.9993 48.875L45.8533 51.7444L74.856 53.2324L75.002 50.3574L45.9993 48.875Z" fill="#576D7E"/>
<path d="M74.7493 37.375C65.2394 37.375 57.4992 45.1151 57.4993 54.625C57.4992 64.1349 65.2394 71.875 74.7493 71.875C84.2591 71.875 91.9993 64.1349 91.9993 54.625C91.9993 45.1151 84.2591 37.375 74.7493 37.375ZM74.7493 40.25C82.7054 40.25 89.1243 46.669 89.1243 54.625C89.1243 62.5813 82.7054 69 74.7493 69C66.7932 69 60.3743 62.5813 60.3743 54.625C60.3743 46.669 66.7932 40.25 74.7493 40.25Z" fill="#2B4255"/>
<path fill-rule="evenodd" clip-rule="evenodd" d="M74.6763 56.0352L45.7522 57.512L45.8982 60.3813L74.8223 58.9102L74.6763 56.0352Z" fill="#576D7E"/>
<path d="M45.9543 48.875C42.7958 48.875 40.2043 51.4665 40.2043 54.625C40.2043 57.7838 42.7958 60.375 45.9543 60.375C49.113 60.375 51.7043 57.7838 51.7043 54.625C51.7043 51.4665 49.113 48.875 45.9543 48.875ZM45.9543 51.75C47.5592 51.75 48.8294 53.0202 48.8293 54.625C48.8293 56.2298 47.5592 57.5 45.9543 57.5C44.3495 57.5 43.0793 56.2298 43.0793 54.625C43.0793 53.0202 44.3495 51.75 45.9543 51.75Z" fill="#2B4255"/>
<path fill-rule="evenodd" clip-rule="evenodd" d="M27.3119 17.25C24.9476 17.25 22.9994 19.1984 22.9994 21.5625C22.9994 23.9269 24.9476 25.875 27.3119 25.875C27.5023 25.8777 27.6915 25.8425 27.8683 25.7715C28.0451 25.7004 28.2059 25.595 28.3416 25.4612C28.4772 25.3275 28.5849 25.1681 28.6585 24.9924C28.732 24.8166 28.7699 24.628 28.7699 24.4375C28.7699 24.247 28.732 24.0584 28.6585 23.8826C28.5849 23.7069 28.4772 23.5475 28.3416 23.4138C28.2059 23.28 28.0451 23.1746 27.8683 23.1035C27.6915 23.0325 27.5023 22.9973 27.3119 23C26.4906 23 25.8744 22.3839 25.8744 21.5625C25.8744 20.7414 26.4906 20.125 27.3119 20.125H34.1231L17.2494 51.0593C17.0662 51.3944 17.0237 51.7886 17.1311 52.155C17.2385 52.5214 17.4872 52.8303 17.8223 53.0134C18.1574 53.1966 18.5513 53.2391 18.9178 53.1317C19.2842 53.0243 19.5931 52.7758 19.7762 52.4407L37.0094 20.8381L37.8517 19.4231C37.9816 19.2048 38.0514 18.9562 38.054 18.7022C38.0565 18.4482 37.9917 18.198 37.8662 17.9772C37.7407 17.7563 37.559 17.5725 37.3394 17.4448C37.1199 17.317 36.8703 17.25 36.6163 17.25H27.3119Z" fill="#F05542"/>
<path fill-rule="evenodd" clip-rule="evenodd" d="M31.6243 27.3125V30.1875H58.6729V27.3125H31.6243Z" fill="#F05542"/>
<path fill-rule="evenodd" clip-rule="evenodd" d="M55.9608 20.125C53.5965 20.125 51.6483 22.0734 51.6483 24.4375C51.6456 24.628 51.6808 24.817 51.7518 24.9938C51.8228 25.1705 51.9283 25.3315 52.062 25.4672C52.1958 25.6029 52.3552 25.7106 52.5309 25.7841C52.7067 25.8576 52.8953 25.8954 53.0858 25.8954C53.2763 25.8954 53.4649 25.8576 53.6406 25.7841C53.8164 25.7106 53.9757 25.6029 54.1095 25.4672C54.2433 25.3315 54.3487 25.1705 54.4197 24.9938C54.4908 24.817 54.526 24.628 54.5233 24.4375C54.5233 23.6164 55.1396 23 55.9608 23H60.1834L45.6175 49.6892C45.5165 49.8554 45.4502 50.0403 45.4227 50.2328C45.3952 50.4253 45.407 50.6213 45.4575 50.8091C45.5079 50.9969 45.596 51.1725 45.7163 51.3253C45.8366 51.4782 45.9866 51.6049 46.1573 51.6981C46.328 51.7912 46.5157 51.8488 46.7093 51.8672C46.9029 51.8857 47.0982 51.8647 47.2835 51.8055C47.4687 51.7463 47.6401 51.6503 47.7871 51.5229C47.9341 51.3956 48.0537 51.2398 48.1388 51.0649L63.0697 23.7131L63.9119 22.2981C64.0419 22.0798 64.1117 21.8312 64.1143 21.5772C64.1168 21.3232 64.052 21.073 63.9265 20.8522C63.801 20.6313 63.6193 20.4475 63.3997 20.3198C63.1802 20.192 62.9306 20.125 62.6766 20.125H55.9608Z" fill="#F05542"/>
<path fill-rule="evenodd" clip-rule="evenodd" d="M60.4697 27.3184L58.1226 28.9749L75.1648 53.1204L77.512 51.4639L60.4697 27.3184Z" fill="#F05542"/>
<path d="M74.7493 50.3125C72.3846 50.3125 70.4368 52.2603 70.4368 54.625C70.4368 56.9897 72.3846 58.9375 74.7493 58.9375C77.114 58.9375 79.0618 56.9897 79.0618 54.625C79.0618 52.2603 77.114 50.3125 74.7493 50.3125ZM74.7493 53.1875C75.5602 53.1875 76.1868 53.814 76.1868 54.625C76.1868 55.436 75.5602 56.0625 74.7493 56.0625C73.9383 56.0625 73.3118 55.436 73.3118 54.625C73.3118 53.814 73.9383 53.1875 74.7493 53.1875ZM17.2493 50.3125C14.8846 50.3125 12.9368 52.2603 12.9368 54.625C12.9368 56.9897 14.8846 58.9375 17.2493 58.9375C19.614 58.9375 21.5618 56.9897 21.5618 54.625C21.5618 52.2603 19.614 50.3125 17.2493 50.3125ZM17.2493 53.1875C18.0602 53.1875 18.6868 53.814 18.6868 54.625C18.6868 55.436 18.0602 56.0625 17.2493 56.0625C16.4383 56.0625 15.8118 55.436 15.8118 54.625C15.8118 53.814 16.4383 53.1875 17.2493 53.1875Z" fill="#2B4255"/>
</g>
<defs>
<clipPath id="clip0_2636_33373">
<rect width="92" height="92" fill="white"/>
</clipPath>
</defs>
</svg>
