<svg width="92" height="92" viewBox="0 0 92 92" fill="none" xmlns="http://www.w3.org/2000/svg">
<g clip-path="url(#clip0_2636_34189)">
<path d="M85.2617 37.4648H6.73828V85.2617H85.2617V37.4648Z" fill="#F7F7F7"/>
<path d="M85.2617 37.4648H77.1758V85.2617H85.2617V37.4648Z" fill="#F2F2F2"/>
<path d="M89.7539 85.2617H2.24609C1.7499 85.2617 1.34766 85.664 1.34766 86.1602V89.7539C1.34766 90.2501 1.7499 90.6523 2.24609 90.6523H89.7539C90.2501 90.6523 90.6523 90.2501 90.6523 89.7539V86.1602C90.6523 85.664 90.2501 85.2617 89.7539 85.2617Z" fill="#3B3F4D"/>
<path d="M89.7539 85.2617H81.668C81.9062 85.2617 82.1348 85.3564 82.3033 85.5249C82.4717 85.6934 82.5664 85.9219 82.5664 86.1602V89.7539C82.5664 89.9922 82.4717 90.2207 82.3033 90.3892C82.1348 90.5577 81.9062 90.6523 81.668 90.6523H89.7539C89.9922 90.6523 90.2207 90.5577 90.3892 90.3892C90.5577 90.2207 90.6523 89.9922 90.6523 89.7539V86.1602C90.6523 85.9219 90.5577 85.6934 90.3892 85.5249C90.2207 85.3564 89.9922 85.2617 89.7539 85.2617Z" fill="#313440"/>
<path d="M89.7539 32.0742H2.24609C1.7499 32.0742 1.34766 32.4765 1.34766 32.9727V36.5664C1.34766 37.0626 1.7499 37.4648 2.24609 37.4648H89.7539C90.2501 37.4648 90.6523 37.0626 90.6523 36.5664V32.9727C90.6523 32.4765 90.2501 32.0742 89.7539 32.0742Z" fill="#3B3F4D"/>
<path d="M89.7539 32.0742H81.668C81.9062 32.0742 82.1348 32.1689 82.3033 32.3374C82.4717 32.5059 82.5664 32.7344 82.5664 32.9727V36.5664C82.5664 36.8047 82.4717 37.0332 82.3033 37.2017C82.1348 37.3702 81.9062 37.4648 81.668 37.4648H89.7539C89.9922 37.4648 90.2207 37.3702 90.3892 37.2017C90.5577 37.0332 90.6523 36.8047 90.6523 36.5664V32.9727C90.6523 32.7344 90.5577 32.5059 90.3892 32.3374C90.2207 32.1689 89.9922 32.0742 89.7539 32.0742Z" fill="#313440"/>
<path d="M71.0664 1.34766H20.9336C19.9412 1.34766 19.1367 2.15214 19.1367 3.14453V22.1914C19.1367 23.1838 19.9412 23.9883 20.9336 23.9883H71.0664C72.0588 23.9883 72.8633 23.1838 72.8633 22.1914V3.14453C72.8633 2.15214 72.0588 1.34766 71.0664 1.34766Z" fill="#FFE966"/>
<path d="M71.0664 1.34766H62.9805C63.457 1.34766 63.9141 1.53697 64.2511 1.87395C64.588 2.21093 64.7773 2.66797 64.7773 3.14453V22.1914C64.7773 22.668 64.588 23.125 64.2511 23.462C63.9141 23.799 63.457 23.9883 62.9805 23.9883H71.0664C71.543 23.9883 72 23.799 72.337 23.462C72.674 23.125 72.8633 22.668 72.8633 22.1914V3.14453C72.8633 2.66797 72.674 2.21093 72.337 1.87395C72 1.53697 71.543 1.34766 71.0664 1.34766Z" fill="#FFE236"/>
<path d="M19.1367 47.168H40.5195C40.9961 47.168 41.4531 47.3573 41.7901 47.6943C42.1271 48.0312 42.3164 48.4883 42.3164 48.9648V85.2617H17.3398V48.9648C17.3398 48.4883 17.5292 48.0312 17.8661 47.6943C18.2031 47.3573 18.6602 47.168 19.1367 47.168Z" fill="#DEDEDE"/>
<path d="M40.5195 47.168H35.1289C35.6055 47.168 36.0625 47.3573 36.3995 47.6943C36.7365 48.0312 36.9258 48.4883 36.9258 48.9648V85.2617H42.3164V48.9648C42.3164 48.4883 42.1271 48.0312 41.7901 47.6943C41.4531 47.3573 40.9961 47.168 40.5195 47.168Z" fill="#CECECE"/>
<path d="M75.7383 47.168H51.8398C51.0459 47.168 50.4023 47.8116 50.4023 48.6055V63.1332C50.4023 63.9271 51.0459 64.5707 51.8398 64.5707H75.7383C76.5322 64.5707 77.1758 63.9271 77.1758 63.1332V48.6055C77.1758 47.8116 76.5322 47.168 75.7383 47.168Z" fill="#B3E0FF"/>
<path d="M44.574 8.72656H47.4261C49.4276 8.72656 51.3472 9.52168 52.7625 10.937C54.1778 12.3523 54.973 14.2719 54.973 16.2734V18.5968H37.0271V16.2734C37.0271 14.2719 37.8222 12.3523 39.2375 10.937C40.6528 9.52168 42.5724 8.72656 44.574 8.72656Z" fill="#FF6666"/>
<path d="M47.426 8.72656H44.5739C44.1486 8.72705 43.724 8.76331 43.3047 8.83494C45.0606 9.13464 46.6539 10.0457 47.8028 11.407C48.9516 12.7684 49.582 14.4921 49.5823 16.2734V18.5968H54.9729V16.2734C54.9729 15.2824 54.7777 14.301 54.3985 13.3854C54.0192 12.4697 53.4633 11.6378 52.7625 10.937C52.0617 10.2362 51.2297 9.6803 50.3141 9.30103C49.3985 8.92177 48.4171 8.72656 47.426 8.72656Z" fill="#FF4E4E"/>
<path d="M34.6797 55.2539H24.9766C24.4804 55.2539 24.0781 55.6562 24.0781 56.1523V60.1055C24.0781 60.6017 24.4804 61.0039 24.9766 61.0039H34.6797C35.1759 61.0039 35.5781 60.6017 35.5781 60.1055V56.1523C35.5781 55.6562 35.1759 55.2539 34.6797 55.2539Z" fill="#FF6666"/>
<path d="M34.6797 55.2539H31.9844C32.2227 55.2539 32.4512 55.3486 32.6197 55.5171C32.7882 55.6855 32.8828 55.9141 32.8828 56.1523V60.1055C32.8828 60.3437 32.7882 60.5723 32.6197 60.7408C32.4512 60.9092 32.2227 61.0039 31.9844 61.0039H34.6797C34.918 61.0039 35.1465 60.9092 35.315 60.7408C35.4835 60.5723 35.5781 60.3437 35.5781 60.1055V56.1523C35.5781 55.9141 35.4835 55.6855 35.315 55.5171C35.1465 55.3486 34.918 55.2539 34.6797 55.2539Z" fill="#FF4E4E"/>
<path d="M51.8398 65.9178H75.7383C76.4767 65.917 77.1846 65.6233 77.7068 65.1012C78.2289 64.579 78.5226 63.8711 78.5234 63.1327V48.6055C78.5226 47.8671 78.2289 47.1591 77.7068 46.637C77.1846 46.1148 76.4767 45.8211 75.7383 45.8203H51.8398C51.1014 45.8211 50.3935 46.1148 49.8714 46.637C49.3492 47.1591 49.0555 47.8671 49.0547 48.6055V63.1327C49.0555 63.8711 49.3492 64.579 49.8714 65.1012C50.3935 65.6233 51.1014 65.917 51.8398 65.9178ZM65.1367 48.5156H75.7383C75.7621 48.5157 75.7849 48.5251 75.8018 48.542C75.8186 48.5588 75.8281 48.5816 75.8281 48.6055V54.5214H65.1367V48.5156ZM65.1367 57.2167H75.8281V63.1327C75.8281 63.1565 75.8186 63.1793 75.8018 63.1962C75.7849 63.213 75.7621 63.2225 75.7383 63.2225H65.1367V57.2167ZM51.75 48.6055C51.75 48.5816 51.7595 48.5588 51.7763 48.542C51.7932 48.5251 51.816 48.5157 51.8398 48.5156H62.4414V54.5214H51.75V48.6055ZM51.75 57.2167H62.4414V63.2225H51.8398C51.816 63.2225 51.7932 63.213 51.7763 63.1962C51.7595 63.1793 51.75 63.1565 51.75 63.1327V57.2167ZM89.7539 38.8125C90.3494 38.8118 90.9203 38.575 91.3414 38.1539C91.7625 37.7328 91.9993 37.1619 92 36.5664V32.9727C91.9993 32.3772 91.7625 31.8062 91.3414 31.3852C90.9203 30.9641 90.3494 30.7272 89.7539 30.7266H68.9102V25.3359H71.0664C71.9001 25.335 72.6994 25.0034 73.2889 24.4139C73.8784 23.8244 74.21 23.0251 74.2109 22.1914V3.14453C74.21 2.31084 73.8784 1.51157 73.2889 0.922062C72.6994 0.332554 71.9001 0.000951158 71.0664 0H20.9336C20.0999 0.000951158 19.3006 0.332554 18.7111 0.922062C18.1216 1.51157 17.79 2.31084 17.7891 3.14453V22.1914C17.79 23.0251 18.1216 23.8244 18.7111 24.4139C19.3006 25.0034 20.0999 25.335 20.9336 25.3359H23.0898V30.7266H2.24609C1.6506 30.7272 1.07968 30.9641 0.658605 31.3852C0.237526 31.8062 0.000669635 32.3772 0 32.9727V36.5664C0.000669635 37.1619 0.237526 37.7328 0.658605 38.1539C1.07968 38.575 1.6506 38.8118 2.24609 38.8125H5.39062V83.9141H2.24609C1.6506 83.9147 1.07968 84.1516 0.658605 84.5727C0.237526 84.9937 0.000669635 85.5647 0 86.1602V89.7539C0.000669635 90.3494 0.237526 90.9203 0.658605 91.3414C1.07968 91.7625 1.6506 91.9993 2.24609 92H89.7539C90.3494 91.9993 90.9203 91.7625 91.3414 91.3414C91.7625 90.9203 91.9993 90.3494 92 89.7539V86.1602C91.9993 85.5647 91.7625 84.9937 91.3414 84.5727C90.9203 84.1516 90.3494 83.9147 89.7539 83.9141H86.6094V38.8125H89.7539ZM20.9336 22.6406C20.8145 22.6405 20.7003 22.5931 20.6161 22.5089C20.5319 22.4247 20.4845 22.3105 20.4844 22.1914V3.14453C20.4845 3.02543 20.5319 2.91124 20.6161 2.82702C20.7003 2.74281 20.8145 2.69544 20.9336 2.69531H71.0664C71.1855 2.69544 71.2997 2.74281 71.3839 2.82702C71.4681 2.91124 71.5155 3.02543 71.5156 3.14453V22.1914C71.5155 22.3105 71.4681 22.4247 71.3839 22.5089C71.2997 22.5931 71.1855 22.6405 71.0664 22.6406H20.9336ZM66.2148 25.3359V30.7266H25.7852V25.3359H66.2148ZM89.3047 86.6094V89.3047H2.69531V86.6094H89.3047ZM40.5195 45.8203H19.1367C18.303 45.8213 17.5038 46.1529 16.9142 46.7424C16.3247 47.3319 15.9931 48.1312 15.9922 48.9648V83.9141H8.08594V38.8125H83.9141V83.9141H43.6641V48.9648C43.6631 48.1312 43.3315 47.3319 42.742 46.7424C42.1525 46.1529 41.3532 45.8213 40.5195 45.8203ZM34.2305 56.6016V59.6562H25.4258V56.6016H26.1139C26.1161 56.6016 26.1183 56.6019 26.1205 56.6019L26.1254 56.6016H34.2305ZM28.2216 53.9062L29.8951 50.2556L31.7645 53.9062H28.2216ZM25.2567 53.9062H24.0781C23.9011 53.9062 23.7259 53.9411 23.5624 54.0088C23.3989 54.0765 23.2503 54.1758 23.1252 54.301C23 54.4261 22.9008 54.5747 22.833 54.7382C22.7653 54.9017 22.7305 55.0769 22.7305 55.2539V61.0039C22.7305 61.1809 22.7653 61.3561 22.833 61.5196C22.9008 61.6832 23 61.8317 23.1252 61.9569C23.2503 62.082 23.3989 62.1813 23.5624 62.249C23.7259 62.3167 23.9011 62.3516 24.0781 62.3516H35.5781C35.7551 62.3516 35.9304 62.3167 36.0939 62.249C36.2574 62.1813 36.4059 62.082 36.5311 61.9569C36.6562 61.8317 36.7555 61.6832 36.8232 61.5196C36.8909 61.3561 36.9258 61.1809 36.9258 61.0039V55.2539C36.9258 55.0769 36.8909 54.9017 36.8232 54.7382C36.7555 54.5747 36.6562 54.4261 36.5311 54.301C36.4059 54.1758 36.2574 54.0765 36.0939 54.0088C35.9304 53.9411 35.7551 53.9062 35.5781 53.9062H34.7926L32.0323 48.5156H40.5195C40.6386 48.5158 40.7528 48.5631 40.837 48.6473C40.9213 48.7316 40.9686 48.8457 40.9688 48.9648V83.9141H18.6875V48.9648C18.6876 48.8457 18.735 48.7316 18.8192 48.6473C18.9034 48.5631 19.0176 48.5158 19.1367 48.5156H27.7279L25.2567 53.9062ZM2.69531 36.1172V33.4219H89.3047V36.1172H2.69531ZM57.6683 17.25H56.3206V16.2743C56.3179 13.9161 55.38 11.6553 53.7125 9.98784C52.0451 8.32037 49.7842 7.38241 47.4261 7.37973H47.3477V6.73828C47.3477 6.38086 47.2057 6.03808 46.9529 5.78534C46.7002 5.53261 46.3574 5.39062 46 5.39062C45.6426 5.39062 45.2998 5.53261 45.0471 5.78534C44.7943 6.03808 44.6523 6.38086 44.6523 6.73828V7.37973H44.5739C42.2158 7.38241 39.9549 8.32037 38.2875 9.98784C36.62 11.6553 35.6821 13.9161 35.6794 16.2743V17.25H34.3317C33.9743 17.25 33.6315 17.392 33.3788 17.6447C33.126 17.8975 32.9841 18.2402 32.9841 18.5977C32.9841 18.9551 33.126 19.2979 33.3788 19.5506C33.6315 19.8033 33.9743 19.9453 34.3317 19.9453H57.6683C58.0257 19.9453 58.3685 19.8033 58.6212 19.5506C58.8739 19.2979 59.0159 18.9551 59.0159 18.5977C59.0159 18.2402 58.8739 17.8975 58.6212 17.6447C58.3685 17.392 58.0257 17.25 57.6683 17.25H57.6683ZM53.6253 17.25H38.3747V16.2743C38.3765 14.6307 39.0303 13.055 40.1925 11.8928C41.3546 10.7306 42.9303 10.0769 44.5739 10.075H47.4261C49.0697 10.0769 50.6454 10.7306 51.8076 11.8928C52.9697 13.055 53.6235 14.6307 53.6253 16.2743V17.25Z" fill="#272A33"/>
</g>
<defs>
<clipPath id="clip0_2636_34189">
<rect width="92" height="92" fill="white"/>
</clipPath>
</defs>
</svg>
