<svg width="92" height="92" viewBox="0 0 92 92" fill="none" xmlns="http://www.w3.org/2000/svg">
<g clip-path="url(#clip0_2636_33315)">
<path d="M75.8294 91.9994C75.5858 91.9997 75.3468 91.9339 75.1377 91.8091C74.9286 91.6843 74.7572 91.5052 74.6417 91.2908L62.0476 67.9154C61.8785 67.6008 61.8412 67.2319 61.9439 66.8898C62.0466 66.5477 62.2809 66.2604 62.5954 66.0909C62.9099 65.9215 63.2787 65.8839 63.6209 65.9862C63.9631 66.0886 64.2507 66.3227 64.4204 66.637L77.0145 90.0123C77.125 90.2175 77.1804 90.4479 77.1753 90.6809C77.1702 90.914 77.1047 91.1417 76.9853 91.3419C76.8659 91.5421 76.6967 91.7079 76.4941 91.8231C76.2915 91.9384 76.0624 91.9991 75.8294 91.9994ZM16.1706 91.9994C15.9376 91.9991 15.7085 91.9384 15.5059 91.8231C15.3033 91.7079 15.134 91.5421 15.0147 91.3419C14.8953 91.1417 14.8298 90.914 14.8247 90.6809C14.8196 90.4479 14.875 90.2175 14.9855 90.0123L27.5796 66.637C27.7493 66.3227 28.0369 66.0886 28.3791 65.9862C28.7213 65.8839 29.0901 65.9215 29.4046 66.0909C29.7191 66.2604 29.9534 66.5477 30.0561 66.8898C30.1588 67.2319 30.1215 67.6008 29.9524 67.9154L17.3583 91.2908C17.2428 91.5052 17.0714 91.6843 16.8623 91.8091C16.6532 91.9339 16.4142 91.9997 16.1706 91.9994Z" fill="#787681"/>
<path d="M77.3106 34.8359L76.802 47.1266C76.7715 47.8579 76.717 48.5826 76.6385 49.3008L67.5014 54.6195L66.6857 55.0939C66.2119 54.8793 65.7934 54.5594 65.4619 54.1587C65.1303 53.758 64.8945 53.287 64.7724 52.7815C64.6502 52.276 64.645 51.7492 64.757 51.2414C64.869 50.7335 65.0954 50.2579 65.4189 49.8506L68.779 45.6082L77.3106 34.8359Z" fill="white"/>
<path d="M77.9764 18.7832L77.3105 34.8358L76.8019 47.126C76.7716 47.8575 76.7171 48.5823 76.6385 49.3003C75.835 56.5213 72.5803 63.2486 67.4173 68.3604C62.2543 73.4723 55.4949 76.6597 48.2663 77.3912L48.2017 77.3973C46.7135 77.5485 45.2138 77.5485 43.7256 77.3973C36.1258 76.6264 29.0584 73.1423 23.8189 67.5837C18.5794 62.025 15.5188 54.7642 15.1981 47.1321L14.0236 18.7832C13.9326 16.5401 14.2961 14.3017 15.0921 12.2026C15.8882 10.1035 17.1004 8.18697 18.6559 6.56823C20.2114 4.94948 22.0781 3.66191 24.1439 2.7829C26.2096 1.90388 28.4318 1.45157 30.6767 1.45313H61.3232C63.5682 1.45157 65.7904 1.90388 67.8561 2.7829C69.9219 3.66191 71.7886 4.94948 73.3441 6.56823C74.8996 8.18697 76.1118 10.1035 76.9079 12.2026C77.7039 14.3017 78.0674 16.5401 77.9764 18.7832Z" fill="#2370B5"/>
<path d="M61.3233 1.45313H53.2373C55.4823 1.45157 57.7045 1.90388 59.7702 2.7829C61.8359 3.66191 63.7027 4.94948 65.2582 6.56823C66.8137 8.18698 68.0259 10.1035 68.822 12.2026C69.618 14.3017 69.9815 16.5401 69.8905 18.7832L69.2245 34.8358L68.716 47.126C68.6857 47.8576 68.6312 48.5823 68.5525 49.3004C67.7826 56.2195 64.7606 62.6941 59.9516 67.7281C55.1426 72.762 48.8129 76.0766 41.9361 77.1618C42.5273 77.2559 43.1235 77.3359 43.7256 77.3974C45.2138 77.5485 46.7135 77.5485 48.2017 77.3974L48.2663 77.3913C55.4949 76.6597 62.2543 73.4723 67.4173 68.3605C72.5803 63.2486 75.835 56.5213 76.6385 49.3004C76.7172 48.583 76.7717 47.8582 76.8019 47.126L77.3105 34.8358L77.9764 18.7832C78.0674 16.5401 77.7039 14.3017 76.9079 12.2026C76.1118 10.1035 74.8996 8.18698 73.3441 6.56823C71.7886 4.94948 69.9219 3.66191 67.8561 2.7829C65.7904 1.90388 63.5683 1.45157 61.3233 1.45313Z" fill="#1067AE"/>
<path d="M61.4284 29.2622H30.5716C29.1339 29.263 27.743 28.752 26.6478 27.8207C25.5526 26.8893 24.8248 25.5985 24.5946 24.1794L23.5205 17.5295C23.3815 16.6647 23.432 15.78 23.6685 14.9366C23.905 14.0933 24.3218 13.3113 24.8902 12.6449C25.4586 11.9785 26.165 11.4434 26.9604 11.0768C27.7559 10.7102 28.6215 10.5207 29.4975 10.5215H62.5025C63.3784 10.5207 64.2441 10.7102 65.0395 11.0768C65.835 11.4434 66.5414 11.9785 67.1098 12.6449C67.6782 13.3113 68.095 14.0933 68.3315 14.9366C68.568 15.78 68.6185 16.6647 68.4795 17.5295L67.4054 24.1794C67.1752 25.5985 66.4474 26.8893 65.3522 27.8207C64.257 28.752 62.866 29.263 61.4284 29.2622Z" fill="#83C9EE"/>
<path d="M77.3105 34.8359L76.8019 47.1262C76.7716 47.8577 76.7172 48.5825 76.6385 49.3005L66.6853 55.094C66.2121 54.8787 65.7942 54.5585 65.4631 54.1577C65.132 53.7569 64.8966 53.286 64.7745 52.7806C64.6525 52.2753 64.6471 51.7488 64.7587 51.2411C64.8704 50.7333 65.0961 50.2577 65.4189 49.8502L77.3105 34.8359Z" fill="white"/>
<path d="M62.5026 10.5215H54.4166C55.2925 10.5207 56.1581 10.7102 56.9536 11.0768C57.7491 11.4434 58.4555 11.9785 59.0238 12.6449C59.5922 13.3113 60.0091 14.0933 60.2456 14.9366C60.4821 15.78 60.5326 16.6647 60.3936 17.5295L59.3195 24.1794C59.0893 25.5985 58.3614 26.8893 57.2662 27.8207C56.1711 28.752 54.7801 29.263 53.3424 29.2622H61.4284C62.866 29.263 64.257 28.752 65.3522 27.8207C66.4474 26.8893 67.1752 25.5985 67.4054 24.1794L68.4795 17.5295C68.6185 16.6647 68.568 15.78 68.3315 14.9366C68.095 14.0933 67.6782 13.3113 67.1098 12.6449C66.5414 11.9785 65.835 11.4434 65.0396 11.0768C64.2441 10.7102 63.3785 10.5207 62.5026 10.5215Z" fill="#52BBE9"/>
<path d="M50.9804 54.6523H41.0196C38.1417 54.6523 35.8087 56.9854 35.8087 59.8633V61.1292C35.8087 64.0071 38.1417 66.3401 41.0196 66.3401H50.9804C53.8583 66.3401 56.1913 64.0071 56.1913 61.1292V59.8633C56.1913 56.9854 53.8583 54.6523 50.9804 54.6523Z" fill="white"/>
<path d="M50.9804 54.6523H45.5897C46.9718 54.6523 48.2972 55.2014 49.2744 56.1786C50.2517 57.1558 50.8007 58.4813 50.8007 59.8633V61.1292C50.8007 62.5112 50.2517 63.8366 49.2744 64.8138C48.2972 65.7911 46.9718 66.3401 45.5897 66.3401H50.9804C52.3624 66.3401 53.6878 65.7911 54.665 64.8138C55.6423 63.8366 56.1913 62.5112 56.1913 61.1292V59.8633C56.1913 58.4813 55.6423 57.1558 54.665 56.1786C53.6878 55.2014 52.3624 54.6523 50.9804 54.6523Z" fill="#E1E1E3"/>
<path d="M14.6991 34.8359L15.2076 47.1262C15.2379 47.8577 15.2924 48.5825 15.3711 49.3005L25.3243 55.094C25.7974 54.8787 26.2154 54.5585 26.5465 54.1577C26.8775 53.7569 27.113 53.286 27.235 52.7806C27.3571 52.2753 27.3625 51.7488 27.2508 51.2411C27.1392 50.7333 26.9134 50.2577 26.5907 49.8502L14.6991 34.8359Z" fill="white"/>
<path d="M77.3105 34.8359L76.802 47.1266C76.7715 47.8579 76.717 48.5826 76.6385 49.3008L67.5014 54.6195C68.0037 52.8801 68.3554 51.1006 68.5526 49.3008C68.6316 48.5838 68.6861 47.8591 68.7161 47.1266L68.779 45.6082L77.3105 34.8359Z" fill="#E1E1E3"/>
<path d="M71.7852 85.6211H19.8555C19.498 85.6211 19.1553 85.4791 18.9025 85.2264C18.6498 84.9736 18.5078 84.6309 18.5078 84.2734C18.5078 83.916 18.6498 83.5732 18.9025 83.3205C19.1553 83.0678 19.498 82.9258 19.8555 82.9258H71.7852C72.1426 82.9258 72.4854 83.0678 72.7381 83.3205C72.9908 83.5732 73.1328 83.916 73.1328 84.2734C73.1328 84.6309 72.9908 84.9736 72.7381 85.2264C72.4854 85.4791 72.1426 85.6211 71.7852 85.6211Z" fill="#787681"/>
</g>
<defs>
<clipPath id="clip0_2636_33315">
<rect width="92" height="92" fill="white"/>
</clipPath>
</defs>
</svg>
