<svg width="92" height="92" viewBox="0 0 92 92" fill="none" xmlns="http://www.w3.org/2000/svg">
<g clip-path="url(#clip0_2636_34206)">
<path d="M46 90.6523C70.6608 90.6523 90.6523 70.6608 90.6523 46C90.6523 21.3392 70.6608 1.34766 46 1.34766C21.3392 1.34766 1.34766 21.3392 1.34766 46C1.34766 70.6608 21.3392 90.6523 46 90.6523Z" fill="#CECECE"/>
<path d="M46 1.34766C45.0947 1.34766 44.1966 1.37784 43.3047 1.43096C66.7101 2.8249 85.2617 22.2444 85.2617 46C85.2617 69.7555 66.7101 89.1751 43.3047 90.569C44.1966 90.6222 45.0947 90.6523 46 90.6523C70.6608 90.6523 90.6523 70.6608 90.6523 46C90.6523 21.3392 70.6608 1.34766 46 1.34766Z" fill="#BEBEBE"/>
<path d="M46 84.2465C42.1099 84.2465 39.0292 79.4213 35.5158 78.2773C31.8785 77.0928 26.5558 79.1383 23.5257 76.931C20.4667 74.7027 20.7823 68.9933 18.5539 65.9344C16.3466 62.9042 10.8059 61.4561 9.62143 57.8188C8.47733 54.3054 12.0652 49.8894 12.0652 45.9992C12.0652 42.1091 8.47733 37.6931 9.62141 34.1797C10.8059 30.5424 16.3466 29.0942 18.5539 26.0641C20.7823 23.0051 20.4667 17.2958 23.5257 15.0675C26.5558 12.8601 31.8785 14.9057 35.5158 13.7212C39.0291 12.5771 42.1099 7.75195 46 7.75195C49.8902 7.75195 52.9708 12.5771 56.4842 13.7212C60.1215 14.9057 65.4442 12.8601 68.4743 15.0675C71.5333 17.2958 71.2177 23.0052 73.4461 26.0641C75.6534 29.0942 81.1941 30.5424 82.3786 34.1797C83.5227 37.6931 79.9348 42.1091 79.9348 45.9992C79.9348 49.8894 83.5227 54.3054 82.3786 57.8187C81.1942 61.456 75.6534 62.9042 73.4461 65.9344C71.2177 68.9933 71.5333 74.7027 68.4743 76.931C65.4442 79.1383 60.1215 77.0928 56.4842 78.2773C52.9709 79.4213 49.8902 84.2465 46 84.2465Z" fill="white"/>
<path d="M28.9107 13.9969C27.9665 13.9494 27.02 13.9859 26.0823 14.1059C27.0265 14.1524 27.9729 14.116 28.9107 13.9969ZM51.0935 13.7212C53.0195 14.3484 55.4181 14.0701 57.6986 13.9969C57.2868 13.9393 56.8805 13.847 56.4842 13.7212C52.9708 12.5771 49.8901 7.75195 46 7.75195C45.0562 7.77429 44.1317 8.02357 43.3046 8.47869C46.0132 9.87039 48.4291 12.8536 51.0935 13.7212ZM51.0936 78.2773C48.4291 79.1449 46.0132 82.1281 43.3046 83.5198C44.1317 83.9749 45.0562 84.2242 46 84.2465C49.8901 84.2465 52.9708 79.4213 56.4842 78.2773C56.8805 78.1514 57.2868 78.0592 57.6986 78.0016C55.4181 77.9284 53.0196 77.6501 51.0936 78.2773ZM26.0823 77.8926C27.02 78.0126 27.9665 78.0491 28.9107 78.0016C27.9729 77.8826 27.0265 77.8461 26.0823 77.8926ZM79.9347 45.9992C79.9347 42.1091 83.5226 37.6931 82.3785 34.1797C81.1941 30.5424 75.6533 29.0942 73.446 26.0641C71.2177 23.0052 71.5333 17.2958 68.4743 15.0675C66.452 13.5943 63.409 14.0149 60.527 14.1059C61.4447 14.2137 62.3223 14.5438 63.0836 15.0675C66.1426 17.2958 65.827 23.0052 68.0554 26.0641C70.2627 29.0942 75.8035 30.5424 76.9879 34.1797C78.132 37.6931 74.5441 42.1091 74.5441 45.9992C74.5441 49.8894 78.132 54.3054 76.9879 57.8187C75.8035 61.4561 70.2627 62.9043 68.0554 65.9344C65.827 68.9934 66.1426 74.7027 63.0836 76.931C62.3223 77.4547 61.4447 77.7848 60.527 77.8926C63.409 77.9836 66.452 78.4042 68.4743 76.931C71.5333 74.7027 71.2177 68.9934 73.446 65.9344C75.6533 62.9043 81.1941 61.4561 82.3786 57.8187C83.5226 54.3054 79.9347 49.8894 79.9347 45.9992Z" fill="#EEEEEE"/>
<path d="M73.1683 48.6956C73.1683 49.1484 73.1539 49.5976 73.1251 50.0432C72.9535 52.7923 72.237 55.4798 71.0174 57.9495C70.621 58.7567 70.172 59.537 69.6733 60.2854C68.1607 62.5596 66.2192 64.517 63.9575 66.048C61.3652 67.8096 58.408 68.962 55.3073 69.419C54.9243 69.4755 54.5335 69.4488 54.1617 69.3407C53.7899 69.2326 53.4457 69.0457 53.1526 68.7926C52.8595 68.5396 52.6243 68.2264 52.4631 67.8743C52.302 67.5223 52.2185 67.1396 52.2185 66.7524V30.6388C52.2185 30.2516 52.302 29.8689 52.4631 29.5168C52.6243 29.1648 52.8595 28.8515 53.1526 28.5985C53.4457 28.3455 53.7899 28.1586 54.1617 28.0505C54.5335 27.9424 54.9243 27.9157 55.3073 27.9722C57.416 28.2822 59.464 28.9162 61.379 29.8517C62.1886 30.2428 62.9708 30.6883 63.7203 31.185C66.0614 32.7237 68.0709 34.7154 69.6302 37.0428C71.6855 40.1086 72.8914 43.6644 73.1251 47.3479C73.1539 47.7936 73.1683 48.2428 73.1683 48.6956Z" fill="#EEEEEE"/>
<path d="M59.6917 48.6956C59.6917 49.1484 59.6774 49.5976 59.6486 50.0432C59.4769 52.7923 58.7605 55.4798 57.5408 57.9495C57.1444 58.7567 56.6954 59.537 56.1968 60.2854C54.6842 62.5596 52.7427 64.517 50.4809 66.048C47.8886 67.8096 44.9315 68.962 41.8308 69.419C41.4477 69.4755 41.057 69.4488 40.6851 69.3407C40.3133 69.2326 39.9691 69.0457 39.676 68.7926C39.3829 68.5396 39.1478 68.2264 38.9866 67.8743C38.8254 67.5223 38.742 67.1396 38.7419 66.7524V30.6388C38.742 30.2516 38.8254 29.8689 38.9866 29.5168C39.1478 29.1648 39.3829 28.8515 39.676 28.5985C39.9691 28.3455 40.3133 28.1586 40.6851 28.0505C41.057 27.9424 41.4477 27.9157 41.8308 27.9722C43.9394 28.2822 45.9874 28.9162 47.9024 29.8517C48.7121 30.2428 49.4943 30.6883 50.2437 31.185C52.5849 32.7237 54.5943 34.7154 56.1536 37.0428C58.2089 40.1086 59.4149 43.6644 59.6486 47.3479C59.6774 47.7936 59.6917 48.2428 59.6917 48.6956Z" fill="#EEEEEE"/>
<path d="M73.1683 46.0003C73.1683 46.4531 73.1539 46.9023 73.1251 47.3479C72.9535 50.097 72.237 52.7845 71.0174 55.2542C70.621 56.0614 70.172 56.8417 69.6733 57.5901C68.1607 59.8643 66.2192 61.8217 63.9575 63.3527C61.3652 65.1143 58.408 66.2667 55.3073 66.7236C54.9243 66.7801 54.5335 66.7534 54.1617 66.6454C53.7899 66.5373 53.4457 66.3504 53.1526 66.0973C52.8595 65.8443 52.6243 65.5311 52.4631 65.179C52.302 64.8269 52.2185 64.4443 52.2185 64.0571V27.9435C52.2185 27.5563 52.302 27.1736 52.4631 26.8215C52.6243 26.4694 52.8595 26.1562 53.1526 25.9032C53.4457 25.6502 53.7899 25.4632 54.1617 25.3552C54.5335 25.2471 54.9243 25.2204 55.3073 25.2769C57.416 25.5869 59.464 26.2209 61.379 27.1564C62.1886 27.5475 62.9708 27.993 63.7203 28.4897C66.0614 30.0284 68.0709 32.0201 69.6302 34.3475C71.6855 37.4133 72.8914 40.9691 73.1251 44.6526C73.1539 45.0982 73.1683 45.5475 73.1683 46.0003Z" fill="#FFC166"/>
<path d="M64.9871 54.8825C63.9653 56.3477 62.7007 57.6275 61.2478 58.6667C61.2402 59.057 61.1797 59.4445 61.068 59.8186C60.963 60.1702 60.9057 60.362 60.7558 60.482C60.4046 60.7631 59.6712 60.5501 58.9298 60.0359C58.5004 60.2425 58.0602 60.4294 57.6091 60.5965C55.8877 61.2435 54.0567 61.5487 52.2185 61.495V30.5061C54.0567 30.4523 55.8877 30.7574 57.6091 31.4045C57.9703 31.5393 58.3261 31.6848 58.6747 31.8465C59.0971 31.9889 60.6533 31.3629 60.6533 31.3629C60.6533 31.3629 60.5802 32.7825 61.016 33.1726C62.545 34.2241 63.875 35.5389 64.944 37.0557C64.995 37.0662 65.0642 37.08 65.1463 37.095C66.4577 37.3352 67.1282 37.1682 67.2147 37.3975C67.311 37.6524 66.6493 38.2207 66.6748 38.2843C66.6827 38.3039 66.7163 38.3146 66.7855 38.3146C66.9975 38.3146 66.0994 39.4868 66.2988 39.3826C67.0829 41.0419 67.5642 42.8279 67.7202 44.6565C67.8979 44.6545 68.0743 44.6878 68.2391 44.7544C68.404 44.8211 68.5539 44.9197 68.6803 45.0448C68.8068 45.1698 68.9071 45.3186 68.9756 45.4827C69.0441 45.6467 69.0794 45.8227 69.0794 46.0005C69.0794 46.1783 69.0441 46.3543 68.9756 46.5184C68.9071 46.6824 68.8068 46.8313 68.6803 46.9563C68.5539 47.0813 68.404 47.18 68.2391 47.2466C68.0743 47.3133 67.8979 47.3466 67.7202 47.3446C67.5665 49.1479 67.0963 50.91 66.3312 52.5501C66.3988 53.0331 66.3033 53.5247 66.0598 53.9472C65.8163 54.3697 65.4388 54.6988 64.9871 54.8825L64.9871 54.8825Z" fill="#FFCD85"/>
<path d="M73.1683 46.0001C73.1683 46.4529 73.1539 46.9021 73.1251 47.3478H67.7777C67.7584 47.3484 67.7392 47.3472 67.7202 47.3442C67.7579 46.9021 67.7777 46.4529 67.7777 46.0001C67.7777 45.5473 67.7579 45.0981 67.7202 44.656C67.7392 44.653 67.7584 44.6518 67.7777 44.6524H73.1251C73.1539 45.0981 73.1683 45.5473 73.1683 46.0001ZM70.9833 36.6779L66.3455 39.357C66.3294 39.366 66.315 39.375 66.2988 39.3822C65.9158 38.5686 65.4625 37.79 64.944 37.0552C64.9619 37.0444 64.9799 37.0337 64.9979 37.0229L69.6302 34.3473C70.1317 35.0938 70.5837 35.8723 70.9833 36.6779ZM63.7203 28.4896L61.0411 33.1309C61.0322 33.1452 61.025 33.1596 61.016 33.1722C60.2758 32.6626 59.4924 32.2189 58.6747 31.8461C58.6837 31.8243 58.6945 31.8032 58.707 31.7832L61.379 27.1562C62.1886 27.5473 62.9709 27.9928 63.7203 28.4896ZM63.9575 63.3525C63.2135 63.8583 62.4374 64.3151 61.6341 64.7199L58.9514 60.075C58.9442 60.0624 58.937 60.0499 58.9298 60.0355C59.7403 59.6464 60.5158 59.1883 61.2478 58.6663C61.2604 58.6861 61.273 58.7058 61.2855 58.7274L63.9575 63.3525ZM71.0174 55.254C70.621 56.0612 70.172 56.8415 69.6733 57.5899L65.0356 54.9126C65.0194 54.9036 65.0033 54.8928 64.9871 54.882C65.5022 54.1452 65.9519 53.3648 66.3312 52.5497C66.3491 52.5587 66.3653 52.5695 66.3833 52.5784L71.0174 55.254Z" fill="#FFC97A"/>
<path d="M46.2498 48.6956C46.2498 49.1484 46.2354 49.5976 46.2067 50.0432C46.035 52.7923 45.3186 55.4798 44.0989 57.9495C43.7025 58.7567 43.2535 59.537 42.7549 60.2854C41.2423 62.5596 39.3008 64.517 37.039 66.048C34.4467 67.8096 31.4895 68.962 28.3889 69.419C28.0058 69.4754 27.615 69.4487 27.2432 69.3407C26.8714 69.2326 26.5272 69.0457 26.2341 68.7926C25.941 68.5396 25.7059 68.2264 25.5447 67.8743C25.3835 67.5223 25.3001 67.1396 25.3 66.7524V30.6388C25.3001 30.2516 25.3835 29.8689 25.5447 29.5168C25.7059 29.1648 25.941 28.8515 26.2341 28.5985C26.5272 28.3455 26.8714 28.1586 27.2432 28.0505C27.6151 27.9424 28.0058 27.9157 28.3889 27.9722C30.4975 28.2822 32.5455 28.9162 34.4605 29.8517C35.2702 30.2428 36.0524 30.6883 36.8018 31.185C39.143 32.7237 41.1524 34.7154 42.7118 37.0428C44.767 40.1086 45.973 43.6644 46.2067 47.3479C46.2354 47.7935 46.2498 48.2428 46.2498 48.6956Z" fill="#EEEEEE"/>
<path d="M59.6917 46.0003C59.6917 46.4531 59.6774 46.9023 59.6486 47.3479C59.4769 50.097 58.7605 52.7845 57.5408 55.2542C57.1444 56.0614 56.6954 56.8417 56.1968 57.5901C54.6842 59.8643 52.7427 61.8217 50.4809 63.3527C47.8886 65.1143 44.9315 66.2667 41.8308 66.7236C41.4477 66.7801 41.057 66.7534 40.6851 66.6454C40.3133 66.5373 39.9691 66.3504 39.676 66.0973C39.3829 65.8443 39.1478 65.5311 38.9866 65.179C38.8254 64.8269 38.742 64.4443 38.7419 64.0571V27.9435C38.742 27.5563 38.8254 27.1736 38.9866 26.8215C39.1478 26.4694 39.3829 26.1562 39.676 25.9032C39.9691 25.6502 40.3133 25.4632 40.6851 25.3552C41.057 25.2471 41.4477 25.2204 41.8308 25.2769C43.9394 25.5869 45.9874 26.2209 47.9024 27.1564C48.7121 27.5475 49.4943 27.993 50.2437 28.4897C52.5849 30.0284 54.5943 32.0201 56.1536 34.3475C58.2089 37.4133 59.4149 40.9691 59.6486 44.6526C59.6774 45.0982 59.6917 45.5475 59.6917 46.0003Z" fill="#FFC166"/>
<path d="M51.5105 54.8825C50.4887 56.3477 49.2241 57.6275 47.7712 58.6667C47.7636 59.057 47.7031 59.4445 47.5914 59.8186C47.4864 60.1702 47.4292 60.362 47.2792 60.482C46.9281 60.7631 46.1947 60.5501 45.4532 60.0359C45.0238 60.2425 44.5836 60.4294 44.1326 60.5965C42.4112 61.2435 40.5801 61.5487 38.7419 61.495V30.5061C40.5801 30.4523 42.4112 30.7574 44.1326 31.4045C44.4937 31.5393 44.8495 31.6848 45.1981 31.8465C45.6205 31.9889 47.1768 31.3629 47.1768 31.3629C47.1768 31.3629 47.1036 32.7825 47.5394 33.1726C49.0684 34.2241 50.3984 35.5389 51.4674 37.0557C51.5184 37.0662 51.5876 37.08 51.6698 37.095C52.9812 37.3352 53.6516 37.1682 53.7382 37.3975C53.8344 37.6524 53.1727 38.2207 53.1982 38.2843C53.2061 38.3039 53.2397 38.3146 53.3089 38.3146C53.5209 38.3146 52.6228 39.4868 52.8222 39.3826C53.6063 41.0419 54.0877 42.8279 54.2436 44.6565C54.4214 44.6545 54.5978 44.6878 54.7626 44.7544C54.9274 44.8211 55.0774 44.9197 55.2038 45.0448C55.3302 45.1698 55.4306 45.3186 55.499 45.4827C55.5675 45.6467 55.6028 45.8227 55.6028 46.0005C55.6028 46.1783 55.5675 46.3543 55.499 46.5184C55.4306 46.6824 55.3302 46.8313 55.2038 46.9563C55.0774 47.0813 54.9274 47.18 54.7626 47.2466C54.5978 47.3133 54.4214 47.3466 54.2436 47.3446C54.0899 49.1479 53.6198 50.91 52.8546 52.5501C52.9222 53.0331 52.8267 53.5247 52.5832 53.9472C52.3397 54.3697 51.9622 54.6988 51.5105 54.8825L51.5105 54.8825Z" fill="#FFCD85"/>
<path d="M59.6917 46.0001C59.6917 46.4529 59.6773 46.9021 59.6486 47.3478H54.3011C54.2819 47.3484 54.2626 47.3472 54.2436 47.3442C54.2813 46.9021 54.3011 46.4529 54.3011 46.0001C54.3011 45.5473 54.2813 45.0981 54.2436 44.656C54.2626 44.653 54.2819 44.6518 54.3011 44.6524H59.6486C59.6773 45.0981 59.6917 45.5473 59.6917 46.0001ZM57.5067 36.6779L52.869 39.357C52.8528 39.366 52.8384 39.375 52.8222 39.3822C52.4392 38.5686 51.9859 37.79 51.4674 37.0552C51.4854 37.0444 51.5033 37.0337 51.5213 37.0229L56.1537 34.3473C56.6552 35.0938 57.1072 35.8723 57.5067 36.6779ZM50.2438 28.4896L47.5646 33.1309C47.5556 33.1452 47.5484 33.1596 47.5394 33.1722C46.7993 32.6626 46.0158 32.2189 45.1981 31.8461C45.2071 31.8243 45.2179 31.8032 45.2305 31.7832L47.9024 27.1562C48.7121 27.5473 49.4943 27.9928 50.2438 28.4896ZM50.4809 63.3525C49.737 63.8583 48.9609 64.3151 48.1576 64.7199L45.4748 60.075C45.4677 60.0624 45.4605 60.0499 45.4533 60.0355C46.2637 59.6464 47.0393 59.1883 47.7713 58.6663C47.7838 58.6861 47.7964 58.7058 47.809 58.7274L50.4809 63.3525ZM57.5408 55.254C57.1444 56.0612 56.6954 56.8415 56.1968 57.5899L51.559 54.9126C51.5429 54.9036 51.5267 54.8928 51.5105 54.882C52.0256 54.1452 52.4753 53.3648 52.8546 52.5497C52.8726 52.5587 52.8888 52.5695 52.9067 52.5784L57.5408 55.254Z" fill="#FFC97A"/>
<path d="M46.2498 46.0003C46.2498 46.4531 46.2354 46.9023 46.2067 47.3479C46.035 50.097 45.3186 52.7845 44.0989 55.2542C43.7025 56.0614 43.2535 56.8417 42.7549 57.5901C41.2423 59.8643 39.3008 61.8216 37.039 63.3527C34.4467 65.1143 31.4895 66.2667 28.3889 66.7236C28.0058 66.7801 27.615 66.7534 27.2432 66.6454C26.8714 66.5373 26.5272 66.3504 26.2341 66.0973C25.941 65.8443 25.7059 65.5311 25.5447 65.179C25.3835 64.8269 25.3001 64.4443 25.3 64.0571V27.9435C25.3001 27.5563 25.3835 27.1736 25.5447 26.8215C25.7059 26.4694 25.941 26.1562 26.2341 25.9032C26.5272 25.6502 26.8714 25.4632 27.2432 25.3552C27.6151 25.2471 28.0058 25.2204 28.3889 25.2769C30.4975 25.5869 32.5455 26.2209 34.4605 27.1564C35.2702 27.5475 36.0524 27.993 36.8018 28.4897C39.143 30.0284 41.1524 32.0201 42.7118 34.3475C44.767 37.4133 45.973 40.9691 46.2067 44.6526C46.2354 45.0982 46.2498 45.5475 46.2498 46.0003Z" fill="#FFC166"/>
<path d="M38.0686 54.8825C37.0468 56.3477 35.7822 57.6275 34.3293 58.6667C34.3217 59.057 34.2612 59.4445 34.1495 59.8186C34.0445 60.1702 33.9873 60.362 33.8373 60.482C33.4862 60.7631 32.7528 60.5501 32.0114 60.0359C31.5819 60.2425 31.1417 60.4294 30.6907 60.5965C28.9693 61.2435 27.1382 61.5487 25.3 61.495V30.5061C27.1382 30.4523 28.9693 30.7574 30.6907 31.4045C31.0518 31.5393 31.4076 31.6848 31.7562 31.8465C32.1786 31.9889 33.7349 31.3629 33.7349 31.3629C33.7349 31.3629 33.6617 32.7825 34.0975 33.1726C35.6265 34.2241 36.9565 35.5389 38.0255 37.0557C38.0765 37.0662 38.1457 37.08 38.2279 37.095C39.5393 37.3352 40.2097 37.1682 40.2963 37.3975C40.3925 37.6524 39.7308 38.2207 39.7563 38.2843C39.7642 38.3039 39.7979 38.3146 39.867 38.3146C40.0791 38.3146 39.1809 39.4868 39.3803 39.3826C40.1644 41.0419 40.6458 42.8279 40.8017 44.6565C40.9795 44.6545 41.1559 44.6878 41.3207 44.7544C41.4855 44.8211 41.6355 44.9197 41.7619 45.0448C41.8883 45.1698 41.9887 45.3186 42.0572 45.4827C42.1257 45.6467 42.1609 45.8227 42.1609 46.0005C42.1609 46.1783 42.1257 46.3543 42.0572 46.5184C41.9887 46.6824 41.8883 46.8313 41.7619 46.9563C41.6355 47.0813 41.4855 47.18 41.3207 47.2466C41.1559 47.3133 40.9795 47.3466 40.8017 47.3446C40.648 49.1479 40.1779 50.91 39.4127 52.5501C39.4803 53.0331 39.3848 53.5247 39.1413 53.9472C38.8979 54.3697 38.5203 54.6988 38.0686 54.8825L38.0686 54.8825Z" fill="#FFCD85"/>
<path d="M46.2498 46.0001C46.2498 46.4529 46.2355 46.9021 46.2067 47.3478H40.8592C40.84 47.3484 40.8207 47.3472 40.8017 47.3442C40.8394 46.9021 40.8592 46.4529 40.8592 46.0001C40.8592 45.5473 40.8394 45.0981 40.8017 44.656C40.8207 44.653 40.84 44.6518 40.8592 44.6524H46.2067C46.2355 45.0981 46.2498 45.5473 46.2498 46.0001ZM44.0648 36.6779L39.4271 39.357C39.4109 39.366 39.3965 39.375 39.3804 39.3822C38.9973 38.5686 38.544 37.79 38.0255 37.0552C38.0435 37.0444 38.0614 37.0337 38.0794 37.0229L42.7118 34.3473C43.2133 35.0938 43.6653 35.8723 44.0648 36.6779ZM36.8019 28.4896L34.1227 33.1309C34.1137 33.1452 34.1065 33.1596 34.0976 33.1722C33.3574 32.6626 32.5739 32.2189 31.7562 31.8461C31.7652 31.8243 31.776 31.8032 31.7886 31.7832L34.4605 27.1562C35.2702 27.5473 36.0524 27.9928 36.8019 28.4896ZM37.039 63.3525C36.2951 63.8583 35.519 64.3151 34.7157 64.7199L32.0329 60.075C32.0258 60.0624 32.0186 60.0499 32.0114 60.0355C32.8218 59.6464 33.5974 59.1883 34.3294 58.6663C34.342 58.6861 34.3545 58.7058 34.3671 58.7274L37.039 63.3525ZM44.0989 55.254C43.7025 56.0612 43.2535 56.8415 42.7549 57.5899L38.1171 54.9126C38.101 54.9036 38.0848 54.8928 38.0686 54.882C38.5837 54.1452 39.0334 53.3648 39.4127 52.5497C39.4307 52.5587 39.4469 52.5695 39.4648 52.5784L44.0989 55.254Z" fill="#FFC97A"/>
<path d="M55.5031 23.8742C54.4478 23.7188 53.3739 23.9868 52.5154 24.6197C51.6568 25.2527 51.0832 26.1993 50.9195 27.2533C48.2339 25.4981 45.2001 24.3453 42.0266 23.8742C40.9749 23.7195 39.9046 23.9851 39.0473 24.6135C38.19 25.242 37.6147 26.1828 37.4458 27.2323C34.7681 25.4887 31.7458 24.3433 28.5851 23.8742C28.0104 23.7896 27.4243 23.8299 26.8666 23.9922C26.309 24.1545 25.7928 24.435 25.3532 24.8147C24.9136 25.1943 24.561 25.6642 24.3193 26.1924C24.0776 26.7205 23.9526 27.2945 23.9526 27.8754V63.988C23.9523 64.5689 24.0772 65.1431 24.3188 65.6714C24.5603 66.1997 24.913 66.6697 25.3526 67.0495C25.7923 67.4292 26.3086 67.7097 26.8664 67.8718C27.4242 68.034 28.0105 68.074 28.5852 67.9892C31.7458 67.5202 34.7681 66.3748 37.4458 64.6313C37.6142 65.681 38.1895 66.6221 39.047 67.2506C39.9044 67.8791 40.975 68.1445 42.0267 67.9892C45.2002 67.5182 48.234 66.3655 50.9195 64.6102C51.0829 65.6644 51.6564 66.6113 52.5151 67.2443C53.3738 67.8772 54.448 68.145 55.5033 67.9892C60.7896 67.2009 65.617 64.5403 69.1064 60.4918C72.5959 56.4434 74.5154 51.2764 74.5154 45.9316C74.5153 40.5869 72.5958 35.4199 69.1063 31.3714C65.6168 27.323 60.7894 24.6625 55.5031 23.8742ZM26.6479 31.8111C27.8709 31.9028 29.0746 32.168 30.2228 32.5987C32.9484 33.6052 35.3001 35.4229 36.961 37.807C38.6219 40.191 39.5123 43.0268 39.5122 45.9323C39.512 48.8379 38.6214 51.6736 36.9604 54.0575C35.2993 56.4413 32.9475 58.2589 30.2218 59.2652C29.0738 59.6956 27.8705 59.9605 26.6479 60.0519L26.6479 31.8111ZM28.1913 65.3227C27.9998 65.3507 27.8044 65.3371 27.6186 65.2829C27.4327 65.2286 27.2607 65.135 27.1143 65.0084C26.9679 64.8818 26.8504 64.7251 26.7699 64.549C26.6895 64.3729 26.6479 64.1816 26.6479 63.988V62.7511C28.1909 62.657 29.7113 62.3338 31.1592 61.7923C34.4008 60.5945 37.1976 58.4323 39.173 55.5966C41.1483 52.761 42.2074 49.3882 42.2075 45.9323C42.2076 42.4765 41.1488 39.1036 39.1736 36.2678C37.1984 33.432 34.4018 31.2696 31.1602 30.0716C29.712 29.5296 28.1913 29.206 26.6479 29.1114V27.8754C26.648 27.519 26.789 27.177 27.0402 26.9242C27.2914 26.6713 27.6323 26.5281 27.9887 26.5256C28.0565 26.5256 28.1242 26.5307 28.1913 26.5407C32.8379 27.2344 37.081 29.5737 40.148 33.1326C43.2151 36.6915 44.9022 41.2335 44.9022 45.9316C44.9022 50.6298 43.2151 55.1718 40.1481 58.7307C37.081 62.2897 32.838 64.6289 28.1913 65.3227ZM43.0027 32.3742C43.224 32.4437 43.4448 32.5171 43.6644 32.5987C46.39 33.6052 48.7417 35.4229 50.4026 37.807C52.0635 40.191 52.9538 43.0268 52.9537 45.9323C52.9536 48.8379 52.063 51.6736 50.4019 54.0575C48.7408 56.4414 46.3889 58.2589 43.6632 59.2652C43.4441 59.3466 43.2237 59.4198 43.0028 59.4891C45.9831 55.5979 47.5981 50.8331 47.5981 45.9317C47.5981 41.0303 45.983 36.2654 43.0027 32.3742V32.3742ZM41.633 65.3227C41.4414 65.3507 41.246 65.3371 41.0602 65.2829C40.8743 65.2287 40.7023 65.1351 40.5559 65.0084C40.4094 64.8818 40.292 64.7251 40.2115 64.549C40.131 64.3729 40.0894 64.1816 40.0895 63.988V62.7523C41.6324 62.6572 43.1527 62.3336 44.6007 61.7922C47.8424 60.5945 50.6392 58.4323 52.6145 55.5966C54.5899 52.761 55.6489 49.3882 55.649 45.9323C55.6492 42.4765 54.5904 39.1036 52.6152 36.2678C50.6401 33.432 47.8434 31.2696 44.6019 30.0716C43.1535 29.5301 41.6328 29.2065 40.0895 29.1116V27.8754C40.0894 27.6818 40.131 27.4905 40.2115 27.3144C40.292 27.1383 40.4094 26.9816 40.5558 26.855C40.7023 26.7284 40.8742 26.6348 41.0601 26.5805C41.2459 26.5263 41.4412 26.5127 41.6328 26.5407C46.2795 27.2344 50.5225 29.5737 53.5896 33.1326C56.6566 36.6915 58.3437 41.2335 58.3437 45.9316C58.3438 50.6298 56.6567 55.1717 53.5897 58.7307C50.5227 62.2896 46.2796 64.6289 41.633 65.3227L41.633 65.3227ZM56.4334 32.3602C56.67 32.4337 56.9061 32.5114 57.1409 32.5987C59.8665 33.6052 62.2182 35.4229 63.8791 37.807C65.54 40.191 66.4304 43.0268 66.4303 45.9323C66.4302 48.8378 65.5396 51.6736 63.8785 54.0574C62.2174 56.4413 59.8656 58.2589 57.1399 59.2652C56.9054 59.3523 56.6697 59.43 56.4334 59.5032C59.4206 55.6096 61.0397 50.8392 61.0396 45.9317C61.0396 41.0242 59.4205 36.2538 56.4334 32.3602ZM67.0107 58.7948C63.9482 62.3192 59.7277 64.6342 55.1095 65.3227C54.918 65.3507 54.7226 65.3371 54.5368 65.2829C54.3509 65.2287 54.1789 65.1351 54.0325 65.0084C53.886 64.8818 53.7685 64.7251 53.6881 64.549C53.6076 64.3729 53.566 64.1816 53.566 63.988V62.7528C55.109 62.6576 56.6293 62.3339 58.0773 61.7923C61.3189 60.5945 64.1157 58.4322 66.0911 55.5966C68.0664 52.7609 69.1255 49.3881 69.1256 45.9322C69.1257 42.4764 68.0669 39.1035 66.0917 36.2677C64.1166 33.4319 61.3199 31.2694 58.0783 30.0715C56.6301 29.5298 55.1096 29.2061 53.5663 29.1109L53.566 27.8754C53.566 27.6818 53.6076 27.4904 53.6881 27.3144C53.7685 27.1383 53.886 26.9816 54.0324 26.855C54.1788 26.7284 54.3508 26.6347 54.5366 26.5805C54.7225 26.5263 54.9178 26.5127 55.1094 26.5407C58.5854 27.0594 61.858 28.503 64.5848 30.7203C67.3115 32.9377 69.3921 35.8472 70.6087 39.1444C71.8253 42.4416 72.1333 46.0052 71.5003 49.4622C70.8673 52.9192 69.3167 56.1426 67.0108 58.7948L67.0107 58.7948ZM78.527 13.4047C69.9003 4.77806 58.2 -0.0683594 46 -0.0683594C33.8001 -0.0683594 22.0998 4.77806 13.4731 13.4047C4.84642 22.0314 0 33.7317 0 45.9317C0 58.1317 4.84642 69.8319 13.4731 78.4586C22.0998 87.0853 33.8001 91.9317 46 91.9317C58.2 91.9317 69.9003 87.0853 78.527 78.4586C87.1537 69.8319 92.0001 58.1317 92.0001 45.9317C92.0001 33.7317 87.1537 22.0314 78.527 13.4047ZM76.621 76.5528C68.4994 84.6717 57.4853 89.2322 46.0015 89.2313C34.5176 89.2303 23.5044 84.6679 15.3841 76.5476C7.26378 68.4272 2.70142 57.414 2.70047 45.9301C2.69953 34.4463 7.26007 23.4323 15.379 15.3106C23.5007 7.19164 34.5147 2.63114 45.9986 2.63212C57.4825 2.6331 68.4957 7.19549 76.616 15.3158C84.7363 23.4361 89.2987 34.4494 89.2996 45.9333C89.3005 57.4171 84.74 68.4311 76.621 76.5528ZM81.2825 45.9317C81.2825 44.484 81.9267 42.7863 82.5497 41.1443C83.4853 38.6787 84.4527 36.1291 83.66 33.6949C82.834 31.1584 80.4967 29.6437 78.2363 28.1788C76.7427 27.2108 75.332 26.2966 74.5353 25.2031C73.7232 24.0883 73.2806 22.4483 72.812 20.7121C72.1149 18.13 71.3942 15.4597 69.2679 13.9106C67.1623 12.377 64.4126 12.5093 61.7544 12.6377C59.9454 12.7246 58.2371 12.8074 56.9015 12.3722C55.6505 11.965 54.3658 10.9216 53.0055 9.81696C50.8985 8.10607 48.7198 6.33674 46 6.33674C43.2802 6.33674 41.1015 8.10607 38.9946 9.81696C37.6343 10.9216 36.3495 11.965 35.0985 12.3722C33.7629 12.8074 32.0544 12.7248 30.2456 12.6377C27.5872 12.5095 24.8377 12.377 22.7323 13.9106C20.6059 15.4596 19.8852 18.1298 19.1881 20.7123C18.7195 22.4484 18.2768 24.0883 17.4647 25.2031C16.6681 26.2966 15.2573 27.2108 13.7638 28.1788C11.5034 29.6437 9.16604 31.1584 8.34007 33.6949C7.54736 36.1291 8.51476 38.6787 9.4504 41.1443C10.0733 42.7863 10.7176 44.484 10.7176 45.9317C10.7176 47.3794 10.0733 49.0771 9.4504 50.719C8.51477 53.1846 7.54736 55.7343 8.34007 58.1685C9.16604 60.705 11.5034 62.2197 13.7638 63.6846C15.2573 64.6525 16.6681 65.5668 17.4647 66.6603C18.2768 67.7751 18.7195 69.4151 19.1881 71.1513C19.8851 73.7336 20.6058 76.4038 22.7322 77.9526C24.8376 79.4864 27.5872 79.3537 30.2458 79.2258C32.0544 79.1388 33.763 79.0561 35.0986 79.4913C36.3496 79.8986 37.6344 80.942 38.9947 82.0464C41.1016 83.7575 43.2803 85.5266 46 85.5266C48.7198 85.5266 50.8985 83.7573 53.0055 82.0464C54.3658 80.9418 55.6506 79.8984 56.9015 79.4911C58.2371 79.0563 59.9455 79.1381 61.7541 79.2258C64.413 79.3536 67.1624 79.4866 69.2678 77.9527C71.3941 76.4038 72.1149 73.7336 72.812 71.1511C73.2806 69.4149 73.7232 67.7751 74.5353 66.6603C75.332 65.5667 76.7427 64.6525 78.2363 63.6846C80.4967 62.2197 82.834 60.705 83.66 58.1685C84.4527 55.7343 83.4853 53.1846 82.5497 50.719C81.9267 49.0771 81.2825 47.3794 81.2825 45.9317ZM80.0298 51.6752C80.8351 53.7978 81.5958 55.8026 81.0972 57.3339C80.5669 58.9624 78.7228 60.1575 76.7705 61.4227C75.1367 62.4815 73.4473 63.5763 72.3568 65.0733C71.251 66.5914 70.7217 68.5523 70.2098 70.4488C69.608 72.6784 69.0395 74.7843 67.6807 75.7742C66.3432 76.7486 64.1774 76.644 61.8839 76.5337C59.9121 76.4384 57.8728 76.3401 56.067 76.9281C54.3401 77.4905 52.7978 78.7429 51.3063 79.954C49.4843 81.4336 47.7632 82.8313 46 82.8313C44.2369 82.8313 42.5158 81.4338 40.6937 79.9542C39.2023 78.7431 37.6601 77.4907 35.9332 76.9283C34.8062 76.5614 33.5885 76.4617 32.3529 76.4617C31.6085 76.4617 30.8574 76.4979 30.116 76.5337C27.8226 76.6446 25.6568 76.7486 24.3192 75.774C22.9606 74.7845 22.3921 72.6785 21.7903 70.4489C21.2784 68.5523 20.749 66.5914 19.6433 65.0733C18.5528 63.5763 16.8634 62.4815 15.2296 61.4227C13.2773 60.1575 11.4332 58.9624 10.9029 57.334C10.4043 55.8026 11.165 53.7978 11.9703 51.6752C12.6796 49.8062 13.4129 47.8735 13.4129 45.9317C13.4129 43.9899 12.6796 42.0572 11.9703 40.1882C11.165 38.0656 10.4043 36.0608 10.9029 34.5294C11.4332 32.901 13.2773 31.7058 15.2296 30.4407C16.8634 29.3818 18.5528 28.287 19.6433 26.7901C20.749 25.272 21.2784 23.3111 21.7903 21.4145C22.3921 19.1849 22.9606 17.079 24.3193 16.0894C25.6568 15.1153 27.823 15.2192 30.1159 15.3299C32.0877 15.425 34.1272 15.5231 35.9331 14.9353C37.66 14.3729 39.2023 13.1205 40.6937 11.9093C42.5158 10.4297 44.2369 9.03205 46 9.03205C47.7632 9.03205 49.4843 10.4297 51.3064 11.9093C52.7978 13.1205 54.34 14.3728 56.0669 14.9352C57.8729 15.5233 59.9121 15.4254 61.8842 15.3299C64.1776 15.2193 66.3436 15.1149 67.6809 16.0893C69.0395 17.079 69.608 19.1849 70.2098 21.4145C70.7216 23.3111 71.251 25.272 72.3568 26.7901C73.4473 28.287 75.1367 29.3818 76.7705 30.4407C78.7228 31.7058 80.5669 32.901 81.0972 34.5294C81.5958 36.0608 80.8351 38.0656 80.0298 40.1882C79.3205 42.0572 78.5872 43.9899 78.5872 45.9317C78.5872 47.8735 79.3205 49.8062 80.0298 51.6752Z" fill="#313440"/>
</g>
<defs>
<clipPath id="clip0_2636_34206">
<rect width="92" height="92" fill="white"/>
</clipPath>
</defs>
</svg>
