<svg width="92" height="92" viewBox="0 0 92 92" fill="none" xmlns="http://www.w3.org/2000/svg">
<g clip-path="url(#clip0_2636_34173)">
<path d="M82.5664 30.2617H32.6133V90.6525H82.5664V30.2617Z" fill="#FFC166"/>
<path d="M82.5664 30.2616H32.6133L37.7682 13.6799C37.8365 13.4603 37.9733 13.2682 38.1585 13.1318C38.3437 12.9954 38.5677 12.9219 38.7978 12.9219H84.0031C84.1586 12.9219 84.3124 12.9555 84.4537 13.0206C84.5951 13.0856 84.7206 13.1805 84.8219 13.2986C84.9231 13.4168 84.9975 13.5555 85.0401 13.7051C85.0826 13.8548 85.0923 14.0119 85.0684 14.1656L82.5664 30.2616Z" fill="#FFC97A"/>
<path d="M90.6523 27.8535V84.781C90.6523 84.9289 90.6158 85.0745 90.546 85.2049C90.4762 85.3354 90.3753 85.4465 90.2523 85.5286L82.5664 90.6525V30.2617L90.6523 27.8535Z" fill="#FFB74E"/>
<path d="M84.8903 13.3867L90.6523 27.8525L82.5664 30.2606L84.8903 13.3867Z" fill="#FFAE36"/>
<path d="M41.827 49.5781H72.6836C73.1602 49.5781 73.6172 49.7674 73.9542 50.1044C74.2912 50.4414 74.4805 50.8984 74.4805 51.375V67.2187C74.4805 67.6952 74.2912 68.1523 73.9542 68.4893C73.6172 68.8262 73.1602 69.0156 72.6836 69.0156H41.827V49.5781Z" fill="white"/>
<path d="M72.6836 49.5781H64.5977C65.0742 49.5781 65.5313 49.7674 65.8682 50.1044C66.2052 50.4414 66.3945 50.8984 66.3945 51.375V67.2187C66.3945 67.4547 66.3481 67.6884 66.2578 67.9064C66.1675 68.1244 66.0351 68.3225 65.8682 68.4893C65.7014 68.6562 65.5033 68.7885 65.2853 68.8788C65.0673 68.9691 64.8336 69.0156 64.5977 69.0156H72.6836C72.9196 69.0156 73.1532 68.9691 73.3712 68.8788C73.5892 68.7885 73.7873 68.6562 73.9542 68.4893C74.121 68.3225 74.2534 68.1244 74.3437 67.9064C74.434 67.6884 74.4805 67.4547 74.4805 67.2187V51.375C74.4805 50.8984 74.2911 50.4414 73.9542 50.1044C73.6172 49.7674 73.1602 49.5781 72.6836 49.5781Z" fill="#EEEEEE"/>
<path d="M46.3378 34.0508L45.6514 41.2563L45.5993 41.8079L44.9111 49.0259L44.8589 49.5775L42.3721 75.6771L41.6336 83.4469L41.179 88.2122C41.1155 88.8798 40.8055 89.4998 40.3094 89.951C39.8133 90.4022 39.1668 90.6523 38.4962 90.6524H12.6715C12.0007 90.6523 11.354 90.4023 10.8576 89.9511C10.3613 89.4999 10.0508 88.8799 9.98701 88.2122L9.5342 83.4469L8.79386 75.6771L6.30877 49.5775L6.2567 49.0259L5.56848 41.8079L5.51637 41.2563L4.82996 34.0508L46.3378 34.0508Z" fill="#FF6666"/>
<path d="M38.2518 34.0508L37.5654 41.2563L37.5133 41.8079L36.8251 49.0259L36.773 49.5775L34.2862 75.6771L33.5476 83.4469L33.093 88.2122C33.0296 88.8798 32.7195 89.4998 32.2235 89.951C31.7274 90.4022 31.0809 90.6523 30.4103 90.6524H38.4962C39.1668 90.6523 39.8133 90.4022 40.3094 89.951C40.8055 89.4997 41.1155 88.8798 41.1789 88.2122L41.6335 83.4469L42.3721 75.6771L44.8589 49.5775L44.911 49.0259L45.5993 41.8079L45.6514 41.2563L46.3377 34.0508H38.2518Z" fill="#FF4E4E"/>
<path d="M48.0224 26.4727H3.14453C2.15214 26.4727 1.34766 27.2771 1.34766 28.2695V32.2543C1.34766 33.2467 2.15214 34.0512 3.14453 34.0512H48.0224C49.0148 34.0512 49.8193 33.2467 49.8193 32.2543V28.2695C49.8193 27.2771 49.0148 26.4727 48.0224 26.4727Z" fill="#FFE966"/>
<path d="M48.0225 26.4727H39.9365C40.4131 26.4727 40.8701 26.662 41.2071 26.999C41.5441 27.3359 41.7334 27.793 41.7334 28.2695V32.2542C41.7334 32.7308 41.5441 33.1878 41.2071 33.5248C40.8701 33.8618 40.4131 34.0511 39.9365 34.0511H48.0225C48.499 34.0511 48.9561 33.8618 49.293 33.5248C49.63 33.1878 49.8193 32.7308 49.8193 32.2542V28.2695C49.8193 27.793 49.63 27.3359 49.293 26.999C48.9561 26.662 48.499 26.4727 48.0225 26.4727Z" fill="#FFE236"/>
<path d="M44.0238 26.4721H7.14319L9.3806 21.0314C9.51606 20.702 9.74636 20.4203 10.0422 20.2221C10.3381 20.0238 10.6863 19.918 11.0424 19.918H40.1245C40.4807 19.918 40.8288 20.0238 41.1247 20.2221C41.4206 20.4203 41.6509 20.702 41.7864 21.0314L44.0238 26.4721Z" fill="#FF6666"/>
<path d="M41.7863 21.0314C41.6508 20.702 41.4206 20.4203 41.1247 20.2221C40.8288 20.0238 40.4807 19.918 40.1245 19.918H32.0386C32.3947 19.918 32.7429 20.0238 33.0387 20.2221C33.3346 20.4203 33.5649 20.702 33.7004 21.0314L35.9378 26.4721H44.0237L41.7863 21.0314Z" fill="#FF4E4E"/>
<path d="M25.5835 70.1414C29.8855 70.1414 33.373 66.6539 33.373 62.352C33.373 58.05 29.8855 54.5625 25.5835 54.5625C21.2815 54.5625 17.7941 58.05 17.7941 62.352C17.7941 66.6539 21.2815 70.1414 25.5835 70.1414Z" fill="white"/>
<path d="M25.5835 54.5625C24.6638 54.5616 23.7512 54.7239 22.8882 55.0419C24.3828 55.5935 25.6724 56.59 26.5832 57.897C27.4941 59.2041 27.9824 60.7589 27.9824 62.352C27.9824 63.9451 27.4941 65.5 26.5832 66.807C25.6724 68.1141 24.3828 69.1106 22.8882 69.6621C23.9568 70.0561 25.0987 70.2109 26.2336 70.1158C27.3685 70.0206 28.4688 69.6778 29.4568 69.1114C30.4449 68.545 31.2968 67.7689 31.9525 66.8377C32.6081 65.9065 33.0517 64.8429 33.2518 63.7217C33.4519 62.6005 33.4038 61.4491 33.1108 60.3486C32.8178 59.248 32.287 58.2251 31.5559 57.3519C30.8249 56.4786 29.9112 55.7763 28.8793 55.2944C27.8474 54.8124 26.7224 54.5626 25.5835 54.5625V54.5625Z" fill="#EEEEEE"/>
<path d="M25.5834 53.2143C23.7763 53.2143 22.0097 53.7502 20.5071 54.7542C19.0045 55.7582 17.8333 57.1852 17.1418 58.8548C16.4502 60.5243 16.2692 62.3615 16.6217 64.1339C16.9743 65.9064 17.8445 67.5345 19.1223 68.8123C20.4002 70.0902 22.0282 70.9604 23.8007 71.313C25.5731 71.6656 27.4103 71.4847 29.0799 70.7931C30.7495 70.1016 32.1765 68.9304 33.1805 67.4278C34.1845 65.9253 34.7204 64.1587 34.7205 62.3516C34.7177 59.9291 33.7542 57.6066 32.0413 55.8937C30.3283 54.1807 28.0059 53.2171 25.5834 53.2143ZM25.5834 68.7933C24.3093 68.7933 23.0639 68.4155 22.0045 67.7077C20.9451 66.9998 20.1195 65.9938 19.6319 64.8167C19.1443 63.6396 19.0167 62.3443 19.2653 61.0947C19.5138 59.8451 20.1274 58.6973 21.0283 57.7964C21.9292 56.8955 23.077 56.282 24.3266 56.0334C25.5762 55.7849 26.8715 55.9124 28.0485 56.4C29.2256 56.8876 30.2317 57.7133 30.9395 58.7726C31.6474 59.832 32.0252 61.0775 32.0251 62.3516C32.0232 64.0594 31.3439 65.6968 30.1363 66.9044C28.9286 68.112 27.2913 68.7913 25.5834 68.7933ZM91.9982 27.8197C91.9976 27.7937 91.9974 27.7677 91.9952 27.7416C91.9948 27.7361 91.9939 27.7306 91.9934 27.7251C91.9918 27.7075 91.9887 27.6903 91.9864 27.6728C91.9835 27.6511 91.9812 27.6293 91.9771 27.6075L91.9746 27.5952C91.9701 27.5719 91.964 27.5492 91.9583 27.5263C91.954 27.5092 91.9503 27.492 91.9453 27.475C91.9446 27.4729 91.9444 27.4708 91.9437 27.4687L91.9427 27.4657C91.9345 27.4385 91.9246 27.4121 91.9148 27.3856C91.911 27.3753 91.9083 27.3649 91.9043 27.3546L91.8947 27.3306L91.8936 27.3279L86.3575 13.4291C86.2959 13.1748 86.1934 12.9322 86.054 12.7108C86.0394 12.6854 86.0247 12.6599 86.0086 12.6358C86.0043 12.6296 85.9996 12.6238 85.9953 12.6176C85.9709 12.5826 85.9451 12.5488 85.9178 12.5166C85.8934 12.4851 85.8713 12.4523 85.8452 12.4219C85.6176 12.1559 85.3351 11.9424 85.017 11.796C84.699 11.6497 84.353 11.574 84.0029 11.5742H38.7976C38.2797 11.5725 37.7748 11.7373 37.3577 12.0445C36.9406 12.3516 36.6333 12.7847 36.4812 13.2798L34.8364 18.5704H26.9311V9.10999L33.5783 2.28818C33.8277 2.03221 33.9653 1.68764 33.9607 1.33025C33.9561 0.97287 33.8097 0.631955 33.5537 0.382505C33.427 0.25899 33.2771 0.161648 33.1128 0.096037C32.9484 0.0304258 32.7728 -0.0021695 32.5958 0.000112C32.2384 0.00471969 31.8975 0.151109 31.648 0.407075L24.6183 7.62143C24.373 7.87308 24.2358 8.21058 24.2358 8.56198V18.5704H11.0422C10.4186 18.569 9.80877 18.7537 9.29071 19.1009C8.77264 19.448 8.36992 19.9418 8.13407 20.5191L6.24003 25.1246H3.14441C2.31072 25.1256 1.51145 25.4572 0.92194 26.0467C0.332432 26.6362 0.000829088 27.4355 -0.00012207 28.2692V32.2539C0.000829088 33.0876 0.332432 33.8868 0.92194 34.4764C1.51145 35.0659 2.31072 35.3975 3.14441 35.3984H3.60446L8.64542 88.3413C8.73806 89.3439 9.20267 90.2755 9.94778 90.9527C10.6929 91.6298 11.6645 92.0035 12.6714 92.0002H38.4962L38.5 92H82.5646L82.5675 92.0002C82.5712 92.0002 82.5749 91.9994 82.5786 91.9994C82.6317 91.9987 82.6847 91.9949 82.7374 91.988C82.7541 91.9858 82.7707 91.9831 82.7874 91.9803C82.8355 91.9725 82.8831 91.962 82.93 91.9489C82.939 91.9464 82.9481 91.9447 82.9571 91.942C83.0132 91.9247 83.0682 91.9037 83.1217 91.8793C83.1327 91.8743 83.1435 91.8688 83.1545 91.8635C83.2085 91.8376 83.2608 91.8081 83.3109 91.7753L83.3138 91.7736L83.316 91.7722L83.3226 91.7678L91 86.6496C91.3079 86.4447 91.5603 86.1668 91.7347 85.8407C91.9092 85.5147 92.0003 85.1505 91.9999 84.7807V27.8732C91.9999 27.8704 91.9999 27.8676 91.9999 27.8648V27.8533C91.9999 27.8419 91.9985 27.831 91.9982 27.8197ZM85.6791 19.0098L88.8547 26.9826L84.2255 28.3613L85.6791 19.0098ZM10.6269 21.5442C10.6605 21.4617 10.718 21.3912 10.792 21.3416C10.866 21.292 10.9531 21.2656 11.0422 21.2657H35.8194C35.8262 21.2658 35.833 21.2658 35.8397 21.2657H40.1244C40.2135 21.2656 40.3006 21.292 40.3746 21.3416C40.4486 21.3912 40.5061 21.4617 40.5398 21.5442L42.0122 25.1246H9.15442L10.6269 21.5442ZM3.14441 32.7031C3.0253 32.703 2.91111 32.6556 2.82689 32.5714C2.74266 32.4872 2.6953 32.373 2.69519 32.2539V28.2692C2.6953 28.1501 2.74266 28.0359 2.82689 27.9516C2.91111 27.8674 3.0253 27.8201 3.14441 27.82H7.14851C7.15268 27.82 7.15685 27.82 7.16106 27.82H44.0195L44.0242 27.8203C44.0266 27.8203 44.0291 27.82 44.0315 27.82H48.0222C48.1413 27.8201 48.2555 27.8674 48.3398 27.9516C48.424 28.0359 48.4714 28.1501 48.4715 28.2692V32.2539C48.4714 32.373 48.424 32.4872 48.3398 32.5714C48.2555 32.6556 48.1413 32.703 48.0222 32.7031H3.14441ZM41.6654 68.8912L39.8372 88.0851C39.8068 88.4187 39.6527 88.7287 39.4053 88.9544C39.1578 89.1801 38.8349 89.3051 38.4999 89.3047H38.0038L38.0003 89.3049H12.6714C12.3356 89.3059 12.0116 89.1814 11.7631 88.9556C11.5147 88.7298 11.3596 88.4193 11.3286 88.085L6.31184 35.3984H44.8557L41.6677 68.8673C41.6668 68.8752 41.6661 68.8832 41.6654 68.8912ZM46.0841 50.9254L72.6835 50.9258C72.8026 50.9259 72.9168 50.9732 73.001 51.0575C73.0852 51.1417 73.1326 51.2559 73.1327 51.375V67.2186C73.1326 67.3377 73.0852 67.4519 73.001 67.5361C72.9168 67.6203 72.8026 67.6677 72.6835 67.6678L44.4894 67.668L46.0841 50.9254ZM81.2186 89.3047H42.3056C42.416 88.9931 42.4881 88.6693 42.5204 88.3403L44.2327 70.3633L72.6835 70.3631C73.5172 70.3621 74.3164 70.0305 74.906 69.441C75.4955 68.8515 75.8271 68.0522 75.828 67.2186V51.375C75.8271 50.5413 75.4955 49.742 74.906 49.1525C74.3164 48.563 73.5172 48.2314 72.6835 48.2305L46.3408 48.2301L47.563 35.3984H48.0222C48.8559 35.3975 49.6552 35.0659 50.2447 34.4764C50.8342 33.8868 51.1658 33.0876 51.1668 32.2539V31.6092H81.2186V89.3047ZM81.4119 28.9139H51.1668V28.2692C51.1658 27.4355 50.8342 26.6362 50.2447 26.0467C49.6552 25.4572 48.8559 25.1256 48.0222 25.1246H44.9266L43.0326 20.5191C42.7967 19.9418 42.394 19.448 41.8759 19.1009C41.3579 18.7537 40.748 18.569 40.1244 18.5704H37.6591L38.9961 14.2695H83.6883L81.4119 28.9139ZM89.3046 84.5405L83.9139 88.1342V31.2662L89.3046 29.6607V84.5405Z" fill="#272A33"/>
</g>
<defs>
<clipPath id="clip0_2636_34173">
<rect width="92" height="92" fill="white"/>
</clipPath>
</defs>
</svg>
