<svg width="92" height="92" viewBox="0 0 92 92" fill="none" xmlns="http://www.w3.org/2000/svg">
<path d="M82.8359 37.5898H87.2365C88.142 37.5898 89.0103 37.9495 89.6506 38.5898C90.2909 39.2301 90.6506 40.0984 90.6506 41.0039V41.0183C90.6506 41.9237 90.2909 42.7921 89.6506 43.4324C89.0103 44.0726 88.142 44.4323 87.2365 44.4323H79.4219V41.0075C79.4214 40.5589 79.5094 40.1145 79.6807 39.6999C79.8521 39.2853 80.1035 38.9085 80.4206 38.5911C80.7376 38.2737 81.1142 38.0219 81.5286 37.8501C81.9431 37.6783 82.3873 37.5898 82.8359 37.5898Z" fill="#FEE27D"/>
<path d="M87.2329 37.5898H83.6392C84.5446 37.5898 85.413 37.9495 86.0533 38.5898C86.6935 39.2301 87.0532 40.0984 87.0532 41.0039V41.0183C87.0532 41.9237 86.6935 42.7921 86.0533 43.4324C85.413 44.0726 84.5446 44.4323 83.6392 44.4323H87.2329C88.1384 44.4323 89.0068 44.0726 89.647 43.4324C90.2873 42.7921 90.647 41.9237 90.647 41.0183V41.0039C90.647 40.0984 90.2873 39.2301 89.647 38.5898C89.0068 37.9495 88.1384 37.5898 87.2329 37.5898Z" fill="#FDDD5A"/>
<path d="M12.3032 44.4414H79.6968C82.0067 44.4414 84.222 45.359 85.8553 46.9923C87.4886 48.6257 88.4062 50.841 88.4062 53.1509V72.3882C88.4062 73.8179 87.8383 75.189 86.8274 76.2C85.8164 77.2109 84.4453 77.7788 83.0156 77.7788H8.98438C7.55469 77.7788 6.18357 77.2109 5.17263 76.2C4.16169 75.189 3.59375 73.8179 3.59375 72.3882V53.1509C3.59375 50.841 4.51135 48.6257 6.14469 46.9923C7.77803 45.359 9.99331 44.4414 12.3032 44.4414Z" fill="#FEE27D"/>
<path d="M79.6968 44.4414H74.3062C76.616 44.4414 78.8313 45.359 80.4647 46.9923C82.098 48.6257 83.0156 50.841 83.0156 53.1509V72.3882C83.0156 73.8179 82.4477 75.189 81.4367 76.2C80.4258 77.2109 79.0547 77.7788 77.625 77.7788H83.0156C84.4453 77.7788 85.8164 77.2109 86.8273 76.2C87.8383 75.189 88.4062 73.8179 88.4062 72.3882V53.1509C88.4062 50.841 87.4886 48.6257 85.8553 46.9923C84.2219 45.359 82.0067 44.4414 79.6968 44.4414Z" fill="#FDDD5A"/>
<path d="M79.4434 44.4423H12.5566L18.4665 28.2417C19.0114 26.741 20.0046 25.4441 21.3116 24.527C22.6186 23.61 24.176 23.1171 25.7726 23.1152H66.2274C67.824 23.1171 69.3814 23.61 70.6884 24.527C71.9954 25.4441 72.9887 26.741 73.5335 28.2417L79.4434 44.4423Z" fill="#52BBE9"/>
<path d="M73.5335 28.2417C72.9886 26.741 71.9954 25.4441 70.6884 24.527C69.3814 23.61 67.824 23.1171 66.2274 23.1152H60.8368C62.4334 23.1171 63.9908 23.61 65.2978 24.527C66.6047 25.4441 67.598 26.741 68.1429 28.2417L74.0528 44.4423H79.4434L73.5335 28.2417Z" fill="#1CABE1"/>
<path d="M78.8558 53.9023H69.5355C68.1193 53.9023 66.9713 55.0503 66.9713 56.4665V58.1897C66.9713 59.6058 68.1193 60.7538 69.5355 60.7538H78.8558C80.272 60.7538 81.42 59.6058 81.42 58.1897V56.4665C81.42 55.0503 80.272 53.9023 78.8558 53.9023Z" fill="white"/>
<path d="M78.8558 53.9063H75.2621C75.599 53.906 75.9326 53.9722 76.2439 54.1009C76.5552 54.2297 76.8381 54.4185 77.0764 54.6566C77.3147 54.8948 77.5037 55.1775 77.6327 55.4887C77.7616 55.7999 77.828 56.1335 77.828 56.4704V58.1936C77.828 58.5305 77.7616 58.8641 77.6327 59.1753C77.5037 59.4865 77.3147 59.7692 77.0764 60.0074C76.8381 60.2455 76.5552 60.4343 76.2439 60.5631C75.9326 60.6918 75.599 60.758 75.2621 60.7577H78.8558C79.1927 60.758 79.5263 60.6918 79.8376 60.5631C80.1489 60.4343 80.4318 60.2455 80.6701 60.0074C80.9084 59.7692 81.0974 59.4865 81.2264 59.1753C81.3554 58.8641 81.4218 58.5305 81.4218 58.1936V56.4704C81.4218 56.1335 81.3554 55.7999 81.2264 55.4887C81.0974 55.1775 80.9084 54.8948 80.6701 54.6566C80.4318 54.4185 80.1489 54.2297 79.8376 54.1009C79.5263 53.9722 79.1927 53.906 78.8558 53.9063Z" fill="#E1E1E3"/>
<path d="M22.4645 53.9023H13.1442C11.728 53.9023 10.58 55.0503 10.58 56.4665V58.1897C10.58 59.6058 11.728 60.7538 13.1442 60.7538H22.4645C23.8807 60.7538 25.0287 59.6058 25.0287 58.1897V56.4665C25.0287 55.0503 23.8807 53.9023 22.4645 53.9023Z" fill="white"/>
<path d="M22.4609 53.9063H18.8672C19.5472 53.9063 20.1994 54.1764 20.6803 54.6573C21.1612 55.1381 21.4313 55.7903 21.4313 56.4704V58.1936C21.4304 58.873 21.1598 59.5243 20.679 60.0044C20.1983 60.4845 19.5466 60.7541 18.8672 60.7541H22.4609C23.141 60.7541 23.7932 60.484 24.2741 60.0031C24.7549 59.5223 25.0251 58.8701 25.0251 58.19V56.4668C25.0241 55.7874 24.7536 55.1361 24.2728 54.656C23.792 54.1759 23.1404 53.9062 22.4609 53.9063Z" fill="#E1E1E3"/>
<path d="M57.5575 68.3208H34.8019C34.2364 68.3184 33.6779 68.1947 33.1643 67.958C32.6506 67.7213 32.1937 67.3771 31.8245 66.9488C31.4552 66.5204 31.1822 66.0178 31.0238 65.4749C30.8654 64.932 30.8253 64.3614 30.9063 63.8016L31.8586 57.279C31.9975 56.3433 32.4673 55.4884 33.1828 54.8695C33.8982 54.2507 34.8119 53.9089 35.7578 53.9062H56.6016C57.5493 53.9073 58.4651 54.2488 59.1822 54.8685C59.8992 55.4883 60.3697 56.345 60.508 57.2826L61.4604 63.8052C61.5409 64.3653 61.5002 64.9361 61.3411 65.4791C61.182 66.0221 60.9083 66.5246 60.5383 66.9527C60.1683 67.3807 59.7107 67.7244 59.1965 67.9604C58.6823 68.1964 58.1233 68.3193 57.5575 68.3208Z" fill="#C8C5CC"/>
<path d="M61.4621 63.8016L60.5098 57.279C60.3707 56.3417 59.8995 55.4856 59.1822 54.8666C58.4649 54.2476 57.5491 53.9067 56.6016 53.9062H51.2109C52.1587 53.9073 53.0745 54.2488 53.7915 54.8685C54.5085 55.4883 54.9791 56.345 55.1173 57.2826L56.0697 63.8052C56.1508 64.3657 56.1105 64.9371 55.9516 65.4806C55.7927 66.0242 55.5188 66.5272 55.1486 66.9557C54.7783 67.3843 54.3203 67.7282 53.8056 67.9644C53.2908 68.2005 52.7314 68.3233 52.1651 68.3244H57.5557C58.1225 68.3236 58.6825 68.2009 59.1978 67.9647C59.713 67.7285 60.1714 67.3842 60.5419 66.9552C60.9124 66.5263 61.1864 66.0227 61.3451 65.4786C61.5039 64.9344 61.5438 64.3625 61.4621 63.8016Z" fill="#AEADB3"/>
<path d="M10.0625 77.7148H20.6641V85.3516C20.6641 86.7574 20.1056 88.1057 19.1115 89.0998C18.1174 90.0939 16.7691 90.6523 15.3633 90.6523C13.9574 90.6523 12.6092 90.0939 11.6151 89.0998C10.621 88.1057 10.0625 86.7574 10.0625 85.3516V77.7148Z" fill="#8B8893"/>
<path d="M17.0703 77.7148V85.3516C17.07 86.4424 16.7335 87.5066 16.1064 88.3992C15.4794 89.2918 14.5925 89.9694 13.5664 90.3397C14.1429 90.5467 14.7508 90.6525 15.3633 90.6523C16.7691 90.6523 18.1174 90.0939 19.1115 89.0998C20.1056 88.1057 20.6641 86.7574 20.6641 85.3516V77.7148H17.0703Z" fill="#787681"/>
<path d="M71.3359 77.7148H81.9375V85.3516C81.9375 86.7574 81.379 88.1057 80.3849 89.0998C79.3908 90.0939 78.0426 90.6523 76.6367 90.6523C75.2309 90.6523 73.8826 90.0939 72.8885 89.0998C71.8944 88.1057 71.3359 86.7574 71.3359 85.3516V77.7148Z" fill="#8B8893"/>
<path d="M78.3438 77.7148V85.3516C78.3435 86.4424 78.0069 87.5066 77.3799 88.3992C76.7529 89.2918 75.8659 89.9694 74.8398 90.3397C75.4163 90.5467 76.0242 90.6525 76.6367 90.6523C78.0426 90.6523 79.3908 90.0939 80.3849 89.0998C81.379 88.1057 81.9375 86.7574 81.9375 85.3516V77.7148H78.3438Z" fill="#787681"/>
<path d="M57.9402 23.1402H34.0598L35.305 18.2634C35.5215 17.4091 36.0166 16.6513 36.7121 16.1098C37.4075 15.5683 38.2635 15.274 39.1449 15.2734H52.8551C53.7355 15.2736 54.5908 15.5668 55.2861 16.1069C55.9814 16.647 56.4771 17.4032 56.695 18.2562L57.9402 23.1402Z" fill="#AEADB3"/>
<path d="M56.695 18.2652C56.4788 17.4105 55.9839 16.6523 55.2884 16.1105C54.593 15.5686 53.7367 15.2741 52.8551 15.2734H47.4645C48.3451 15.2737 49.2006 15.5672 49.896 16.1076C50.5913 16.6481 51.0868 17.4047 51.3044 18.258L52.5496 23.133H57.9403L56.695 18.2652Z" fill="#8B8893"/>
<path d="M12.5853 44.4414H4.76892C3.86345 44.4414 2.99508 44.0817 2.35481 43.4415C1.71455 42.8012 1.35486 41.9328 1.35486 41.0273V41.013C1.35486 40.1075 1.71455 39.2391 2.35481 38.5989C2.99508 37.9586 3.86345 37.5989 4.76892 37.5989H9.16587C10.0713 37.5989 10.9397 37.9586 11.58 38.5989C12.2202 39.2391 12.5799 40.1075 12.5799 41.013V44.4414H12.5853Z" fill="#FEE27D"/>
<path d="M9.16406 37.5898H5.57031C6.47578 37.5898 7.34416 37.9495 7.98442 38.5898C8.62468 39.2301 8.98437 40.0984 8.98437 41.0039V44.4377H12.5781V41.0075C12.5786 40.5589 12.4906 40.1145 12.3193 39.6999C12.1479 39.2853 11.8965 38.9085 11.5794 38.5911C11.2624 38.2737 10.8858 38.0219 10.4714 37.8501C10.0569 37.6783 9.6127 37.5898 9.16406 37.5898Z" fill="#FDDD5A"/>
<path d="M34.1406 39.7692C33.8739 39.7702 33.6129 39.6919 33.3908 39.5443C33.1687 39.3967 32.9954 39.1864 32.893 38.9402C32.7906 38.694 32.7636 38.4229 32.8155 38.1613C32.8675 37.8997 32.996 37.6594 33.1847 37.471L40.2823 30.3446C40.4063 30.2156 40.5548 30.1126 40.7191 30.0416C40.8833 29.9706 41.06 29.9331 41.239 29.9311C41.4179 29.9291 41.5954 29.9628 41.7612 30.0302C41.9269 30.0976 42.0776 30.1973 42.2044 30.3235C42.3312 30.4497 42.4317 30.5999 42.4998 30.7654C42.568 30.9308 42.6025 31.1082 42.6014 31.2871C42.6002 31.466 42.5635 31.6429 42.4933 31.8075C42.4231 31.9721 42.3208 32.121 42.1924 32.2457L35.0947 39.3739C34.9697 39.4996 34.8211 39.5992 34.6573 39.6671C34.4935 39.735 34.3179 39.7697 34.1406 39.7692ZM30.6978 34.2887C30.4301 34.2904 30.1681 34.2123 29.945 34.0643C29.722 33.9163 29.5482 33.7052 29.4458 33.4579C29.3433 33.2106 29.317 32.9384 29.37 32.6761C29.4231 32.4137 29.5532 32.1732 29.7437 31.9851L32.7301 28.9861C32.9836 28.74 33.3238 28.6033 33.6772 28.6055C34.0306 28.6077 34.3689 28.7486 34.6194 28.9979C34.8699 29.2472 35.0124 29.585 35.0163 29.9383C35.0202 30.2917 34.8851 30.6325 34.6401 30.8872L31.6537 33.8862C31.5291 34.0134 31.3804 34.1146 31.2163 34.1837C31.0521 34.2528 30.8759 34.2885 30.6978 34.2887Z" fill="#83C9EE"/>
</svg>
