<svg width="92" height="92" viewBox="0 0 92 92" fill="none" xmlns="http://www.w3.org/2000/svg">
<path d="M92 15.332H0V76.666H92V15.332Z" fill="#F0F0F0"/>
<path d="M92 23H0V30.666H92V23Z" fill="#D80027"/>
<path d="M92 38.332H0V45.998H92V38.332Z" fill="#D80027"/>
<path d="M92 53.6641H0V61.3301H92V53.6641Z" fill="#D80027"/>
<path d="M92 69H0V76.666H92V69Z" fill="#D80027"/>
<path d="M46 15.332H0V48.3581H46V15.332Z" fill="#2E52B2"/>
<path d="M17.936 28.8633L17.1951 31.1424H14.7988L16.7378 32.5503L15.997 34.8293L17.936 33.4214L19.8737 34.8293L19.1331 32.5503L21.0721 31.1424H18.6756L17.936 28.8633Z" fill="#F0F0F0"/>
<path d="M18.6756 39.3649L17.936 37.0859L17.1951 39.3649H14.7988L16.7378 40.7729L15.997 43.0519L17.936 41.6439L19.8737 43.0519L19.1331 40.7729L21.0721 39.3649H18.6756Z" fill="#F0F0F0"/>
<path d="M8.54881 39.3649L7.80904 37.0859L7.06819 39.3649H4.67188L6.61088 40.7729L5.87003 43.0519L7.80904 41.6439L9.74697 43.0519L9.0063 40.7729L10.9449 39.3649H8.54881Z" fill="#F0F0F0"/>
<path d="M7.80904 28.8633L7.06819 31.1424H4.67188L6.61088 32.5503L5.87003 34.8293L7.80904 33.4214L9.74697 34.8293L9.0063 32.5503L10.9449 31.1424H8.54881L7.80904 28.8633Z" fill="#F0F0F0"/>
<path d="M17.936 20.6367L17.1951 22.9161H14.7988L16.7378 24.3241L15.997 26.6031L17.936 25.195L19.8737 26.6031L19.1331 24.3241L21.0721 22.9161H18.6756L17.936 20.6367Z" fill="#F0F0F0"/>
<path d="M7.80904 20.6367L7.06819 22.9161H4.67188L6.61088 24.3241L5.87003 26.6031L7.80904 25.195L9.74697 26.6031L9.0063 24.3241L10.9449 22.9161H8.54881L7.80904 20.6367Z" fill="#F0F0F0"/>
<path d="M28.0647 28.8633L27.324 31.1424H24.9277L26.8666 32.5503L26.1261 34.8293L28.0647 33.4214L30.0028 34.8293L29.262 32.5503L31.201 31.1424H28.8047L28.0647 28.8633Z" fill="#F0F0F0"/>
<path d="M28.8047 39.3649L28.0647 37.0859L27.324 39.3649H24.9277L26.8666 40.7729L26.1261 43.0519L28.0647 41.6439L30.0028 43.0519L29.262 40.7729L31.201 39.3649H28.8047Z" fill="#F0F0F0"/>
<path d="M38.9314 39.3649L38.1917 37.0859L37.4508 39.3649H35.0547L36.9933 40.7729L36.2527 43.0519L38.1917 41.6439L40.1296 43.0519L39.3888 40.7729L41.3278 39.3649H38.9314Z" fill="#F0F0F0"/>
<path d="M38.1917 28.8633L37.4508 31.1424H35.0547L36.9933 32.5503L36.2527 34.8293L38.1917 33.4214L40.1296 34.8293L39.3888 32.5503L41.3278 31.1424H38.9314L38.1917 28.8633Z" fill="#F0F0F0"/>
<path d="M28.0647 20.6367L27.324 22.9161H24.9277L26.8666 24.3241L26.1261 26.6031L28.0647 25.195L30.0028 26.6031L29.262 24.3241L31.201 22.9161H28.8047L28.0647 20.6367Z" fill="#F0F0F0"/>
<path d="M38.1917 20.6367L37.4508 22.9161H35.0547L36.9933 24.3241L36.2527 26.6031L38.1917 25.195L40.1296 26.6031L39.3888 24.3241L41.3278 22.9161H38.9314L38.1917 20.6367Z" fill="#F0F0F0"/>
</svg>
