<svg width="92" height="92" viewBox="0 0 92 92" fill="none" xmlns="http://www.w3.org/2000/svg">
<g clip-path="url(#clip0_2636_31553)">
<path d="M92 15.334H0V76.668H92V15.334Z" fill="#F0F0F0"/>
<path d="M51.75 15.332H40.25V40.2486H0V51.7486H40.25V76.6651H51.75V51.7486H92V40.2486H51.75V15.332Z" fill="#D80027"/>
<path d="M70.7578 56.666L91.9996 68.4672V56.666H70.7578Z" fill="#0052B4"/>
<path d="M56 56.666L92 76.666V71.0105L66.1802 56.666H56Z" fill="#0052B4"/>
<path d="M82.4108 76.6662L56 61.9922V76.6662H82.4108Z" fill="#0052B4"/>
<path d="M56 56.666L92 76.666V71.0105L66.1802 56.666H56Z" fill="#F0F0F0"/>
<path d="M56 56.666L92 76.666V71.0105L66.1802 56.666H56Z" fill="#D80027"/>
<path d="M16.2331 56.666L0 65.6845V56.666H16.2331Z" fill="#0052B4"/>
<path d="M35.9997 59.209V76.6658H4.58008L35.9997 59.209Z" fill="#0052B4"/>
<path d="M25.8198 56.666L0 71.0105V76.666L36 56.666H25.8198Z" fill="#D80027"/>
<path d="M21.2418 35.3324L0 23.5312V35.3324H21.2418Z" fill="#0052B4"/>
<path d="M36 35.332L0 15.332V20.9875L25.8198 35.332H36Z" fill="#0052B4"/>
<path d="M9.58984 15.332L36.0007 30.006V15.332H9.58984Z" fill="#0052B4"/>
<path d="M36 35.332L0 15.332V20.9875L25.8198 35.332H36Z" fill="#F0F0F0"/>
<path d="M36 35.332L0 15.332V20.9875L25.8198 35.332H36Z" fill="#D80027"/>
<path d="M75.7676 35.333L92.0007 26.3145V35.333H75.7676Z" fill="#0052B4"/>
<path d="M56 32.7889V15.332H87.4196L56 32.7889Z" fill="#0052B4"/>
<path d="M66.1802 35.332L92 20.9875V15.332L56 35.332H66.1802Z" fill="#D80027"/>
</g>
<defs>
<clipPath id="clip0_2636_31553">
<rect width="92" height="92" fill="white"/>
</clipPath>
</defs>
</svg>
