<svg width="92" height="92" viewBox="0 0 92 92" fill="none" xmlns="http://www.w3.org/2000/svg">
<path d="M39.8801 83.2866C40.628 83.2866 41.2344 82.6803 41.2344 81.9324C41.2344 81.1844 40.628 80.5781 39.8801 80.5781C39.1322 80.5781 38.5259 81.1844 38.5259 81.9324C38.5259 82.6803 39.1322 83.2866 39.8801 83.2866Z" fill="#4F4D4D"/>
<path d="M29.0185 78.8784C29.7665 78.8784 30.3728 78.2721 30.3728 77.5242C30.3728 76.7762 29.7665 76.1699 29.0185 76.1699C28.2706 76.1699 27.6643 76.7762 27.6643 77.5242C27.6643 78.2721 28.2706 78.8784 29.0185 78.8784Z" fill="#4F4D4D"/>
<path d="M50.7454 78.8784C51.4933 78.8784 52.0996 78.2721 52.0996 77.5242C52.0996 76.7762 51.4933 76.1699 50.7454 76.1699C49.9974 76.1699 49.3911 76.7762 49.3911 77.5242C49.3911 78.2721 49.9974 78.8784 50.7454 78.8784Z" fill="#4F4D4D"/>
<path d="M33.0998 71.9409C33.8478 71.9409 34.4541 71.3346 34.4541 70.5867C34.4541 69.8387 33.8478 69.2324 33.0998 69.2324C32.3519 69.2324 31.7456 69.8387 31.7456 70.5867C31.7456 71.3346 32.3519 71.9409 33.0998 71.9409Z" fill="#4F4D4D"/>
<path d="M46.6643 71.9409C47.4122 71.9409 48.0185 71.3346 48.0185 70.5867C48.0185 69.8387 47.4122 69.2324 46.6643 69.2324C45.9164 69.2324 45.3101 69.8387 45.3101 70.5867C45.3101 71.3346 45.9164 71.9409 46.6643 71.9409Z" fill="#4F4D4D"/>
<path d="M31.8403 69.3557L31.8358 67.7757C31.8364 67.94 31.9225 68.1056 32.1012 68.2487L37.6239 72.6712L37.6283 74.2512L32.1054 69.8287C31.9269 69.6856 31.8408 69.52 31.8403 69.3557ZM47.7412 69.8287L42.1691 74.2514L42.1647 72.6714L47.7367 68.2487C47.9198 68.1034 48.0078 67.9347 48.0074 67.7676L48.0118 69.3474C48.0122 69.5147 47.9242 69.6834 47.7412 69.8287ZM27.7315 75.3848C27.9683 75.8117 28.759 76.0456 29.4966 75.9064L38.4823 74.2173L38.4867 75.7972L29.5011 77.4863C28.7634 77.6254 27.9728 77.3915 27.7359 76.9646C27.6903 76.8824 27.6684 76.799 27.6682 76.717L27.6638 75.137C27.664 75.2192 27.6859 75.3027 27.7315 75.3848ZM39.85 80.4969C40.2376 80.4969 40.5891 80.406 40.8437 80.2588C41.0986 80.1118 41.2566 79.9085 41.2579 79.684L41.2887 74.2175L50.2548 75.9064C50.7737 76.0043 51.3205 75.9173 51.6828 75.7081C51.8348 75.6203 51.9544 75.511 52.0258 75.385C52.0738 75.3002 52.0966 75.2141 52.0964 75.1294L52.1009 76.7094C52.101 76.7941 52.0784 76.8802 52.0302 76.965C51.9588 77.091 51.8392 77.2003 51.6872 77.2881C51.3249 77.4973 50.7781 77.5843 50.2592 77.4865L41.2931 75.7975L41.2623 81.264C41.261 81.4886 41.103 81.6918 40.8482 81.8388C40.5933 81.9858 40.2421 82.0769 39.8544 82.0769C39.0795 82.0765 38.4536 81.7128 38.4556 81.264L38.4512 79.684C38.449 80.1329 39.0749 80.4967 39.85 80.4969Z" fill="#6D6D6D"/>
<path d="M32.2488 67.1953C31.7678 67.473 31.692 67.9194 32.1012 68.2473L37.6242 72.6697L28.6385 74.3588C28.4203 74.3998 28.2313 74.4688 28.0792 74.5566C27.7167 74.766 27.5647 75.0825 27.7318 75.3833C27.9686 75.8102 28.7592 76.0441 29.4969 75.905L38.4825 74.2158L38.4512 79.6827C38.4492 80.1314 39.0752 80.4952 39.85 80.4956C40.2377 80.4956 40.5891 80.4047 40.8438 80.2575C41.0986 80.1105 41.2567 79.9071 41.258 79.6827L41.2887 74.2162L50.2548 75.9051C50.7737 76.003 51.3206 75.916 51.6829 75.7068C51.8348 75.619 51.9544 75.5097 52.0258 75.3837C52.268 74.9566 51.8672 74.4981 51.1307 74.3592L42.1645 72.6702L47.7366 68.2476C48.194 67.8846 48.0579 67.376 47.4325 67.1123C46.8678 66.8742 46.0975 66.9164 45.6162 67.1944C45.5643 67.2244 45.5159 67.257 45.4714 67.2923L39.8842 71.7269L34.3769 67.2923C33.9237 66.9291 33.0462 66.8487 32.4179 67.1123C32.357 67.1374 32.3005 67.1653 32.2488 67.1953Z" fill="#D7D7D7"/>
<path d="M41.7425 56.9082V73.1059C41.7425 73.544 40.9027 73.9093 39.88 73.9093C38.8577 73.9093 38.0176 73.5442 38.0176 73.1059V56.9082H41.7425Z" fill="#6D6D6D"/>
<path d="M13.8152 53.394L14.4612 55.9938C14.4713 56.03 14.5326 56.065 14.64 56.0905C14.8448 56.1393 15.1622 56.1393 15.3655 56.0905C15.4708 56.0653 15.5308 56.0309 15.5413 55.9952L16.2048 53.3942H13.8152V53.394ZM33.4917 42.3398L34.1378 44.9396C34.1479 44.9758 34.2092 45.0108 34.3166 45.0364C34.5214 45.0851 34.8388 45.0851 35.0421 45.0364C35.1474 45.0112 35.2074 44.9767 35.2179 44.9411L35.8814 42.34H33.4917V42.3398ZM2.61084 47.0427L3.25686 49.6424C3.26698 49.6787 3.32826 49.7136 3.43571 49.7392C3.6405 49.788 3.9579 49.788 4.16122 49.7392C4.26647 49.714 4.32646 49.6796 4.33694 49.6439L5.00045 47.0429H2.61084V47.0427Z" fill="#3D3D3D"/>
<path d="M36.2241 21.209L15.3621 33.2536L15.3198 54.5829L36.2958 42.5383L36.2241 21.209Z" fill="#4F4D4D"/>
<path d="M1.88794 25.4254L15.3623 33.2546L36.2242 21.2099L22.7517 13.3789L1.88794 25.4254Z" fill="#CC673A"/>
<path d="M15.3622 33.255L15.3199 54.5843L1.84009 46.7477L1.88793 25.4258L15.3622 33.255Z" fill="#B8512B"/>
<path d="M14.6907 46.816L14.6778 53.4087L2.48779 46.3192L2.50067 39.7246L14.6907 46.816Z" fill="#CC673A"/>
<path d="M14.7053 40.2204L14.6924 46.8149L2.50244 39.7236L2.51532 33.1309L14.7053 40.2204Z" fill="#CC673A"/>
<path d="M14.72 33.6266L14.7071 40.2212L2.51709 33.1317L2.52997 26.5371L14.72 33.6266Z" fill="#CC673A"/>
<path d="M13.8773 40.5153L13.8681 45.5643L3.32861 39.4371L3.33781 34.3789L13.8773 40.5153Z" fill="#B8512B"/>
<path d="M13.8681 47.1018L13.8589 51.9797L3.30835 45.8414L3.31939 40.9746L13.8681 47.1018Z" fill="#B8512B"/>
<path d="M13.8956 34.0997L13.8864 38.9665L3.34692 32.8375L3.35612 27.9707L13.8956 34.0997Z" fill="#B8512B"/>
<path d="M8.93564 33.5973C8.74815 33.7062 6.98469 32.6245 6.98469 32.6245L7.50173 32.3148L7.50394 31.7715L6.64944 32.2773L6.64834 32.6705L6.30941 32.4749C6.21539 32.4206 6.16828 32.3489 6.16847 32.2771L6.16626 32.8205C6.16608 32.8922 6.21318 32.964 6.30702 33.0183L8.25116 34.1407C8.43995 34.2496 8.74576 34.2496 8.93325 34.1407L9.78793 33.6349L9.79014 33.0915L8.93564 33.5973Z" fill="#4F4D4D"/>
<path d="M9.79022 33.0911L8.93554 33.5969C8.74805 33.7059 8.44224 33.7059 8.25345 33.5969L6.30931 32.4745C6.12218 32.3665 6.12108 32.1893 6.30857 32.0802L7.16325 31.5742L7.50384 31.7709L6.64934 32.2769L8.59349 33.3993L9.44817 32.8933L9.79022 33.0911Z" fill="white"/>
<path d="M8.9357 40.1715C8.74821 40.2805 6.98475 39.1987 6.98475 39.1987L7.50179 38.8891L7.504 38.3457L6.64932 38.8515L6.64822 39.2447L6.30947 39.0491C6.21545 38.9949 6.16834 38.9231 6.16853 38.8513L6.1665 39.3947C6.16632 39.4664 6.21342 39.5382 6.30726 39.5925L8.25141 40.7149C8.44019 40.8238 8.746 40.8238 8.9335 40.7149L9.78818 40.2091L9.79038 39.6657L8.9357 40.1715Z" fill="#4F4D4D"/>
<path d="M9.79022 39.6652L8.93554 40.1711C8.74805 40.2801 8.44224 40.2801 8.25345 40.1711L6.30931 39.0487C6.12218 38.9407 6.12108 38.7635 6.30857 38.6544L7.16325 38.1484L7.50384 38.3451L6.64916 38.8511L8.5933 39.9735L9.44798 39.4675L9.79022 39.6652Z" fill="white"/>
<path d="M8.93564 46.7458C8.74815 46.8547 6.98469 45.7729 6.98469 45.7729L7.50173 45.4633L7.50394 44.9199L6.64926 45.4257L6.64816 45.8189L6.30941 45.6234C6.21539 45.5691 6.16828 45.4973 6.16847 45.4256L6.16626 45.9689C6.16608 46.0407 6.21318 46.1124 6.30702 46.1667L8.25116 47.2891C8.43995 47.398 8.74576 47.398 8.93325 47.2891L9.78793 46.7833L9.79014 46.2399L8.93564 46.7458Z" fill="#4F4D4D"/>
<path d="M9.79022 46.2392L8.93554 46.7452C8.74805 46.8541 8.44224 46.8541 8.25345 46.7452L6.30931 45.6228C6.12218 45.5148 6.12108 45.3376 6.30857 45.2287L7.16325 44.7227L7.50384 44.9194L6.64916 45.4253L8.5933 46.5478L9.44798 46.0419L9.79022 46.2392Z" fill="white"/>
<path d="M66.5083 84.0044L67.1543 86.6042C67.1644 86.6404 67.2257 86.6754 67.3331 86.7009C67.5379 86.7497 67.8553 86.7497 68.0586 86.7009C68.1639 86.6757 68.2239 86.6413 68.2344 86.6056L68.8979 84.0046H66.5083V84.0044ZM86.1593 73.1133L86.8053 75.713C86.8154 75.7493 86.8767 75.7842 86.9841 75.8098C87.1889 75.8586 87.5063 75.8586 87.7097 75.8098C87.8149 75.7846 87.8749 75.7502 87.8854 75.7145L88.5489 73.1135H86.1593V73.1133ZM55.304 77.6529L55.95 80.2527C55.9601 80.2889 56.0214 80.3239 56.1288 80.3494C56.3336 80.3982 56.651 80.3982 56.8543 80.3494C56.9596 80.3242 57.0196 80.2898 57.0301 80.2541L57.6936 77.6531H55.304V77.6529Z" fill="#3D3D3D"/>
<path d="M88.918 51.8184L68.0543 63.8648L68.012 85.1941L88.9898 73.1495L88.918 51.8184Z" fill="#4F4D4D"/>
<path d="M54.5818 56.0329L68.0543 63.864L88.918 51.8175L75.4437 43.9883L54.5818 56.0329Z" fill="#CC673A"/>
<path d="M68.0542 63.8642L68.0119 85.1935L54.5339 77.357L54.5818 56.0332L68.0542 63.8642Z" fill="#B8512B"/>
<path d="M67.3844 77.4235L67.3715 84.0181L55.1797 76.9285L55.1944 70.334L67.3844 77.4235Z" fill="#CC673A"/>
<path d="M67.3992 70.8296L67.3863 77.4224L55.1963 70.3328L55.2092 63.7383L67.3992 70.8296Z" fill="#CC673A"/>
<path d="M67.4138 64.236L67.4009 70.8306L55.2109 63.7392L55.2238 57.1465L67.4138 64.236Z" fill="#CC673A"/>
<path d="M66.5713 71.1246L66.5621 76.1735L56.0208 70.0445L56.03 64.9863L66.5713 71.1246Z" fill="#B8512B"/>
<path d="M66.562 77.7112L66.5509 82.5872L56.0022 76.4508L56.0114 71.584L66.562 77.7112Z" fill="#B8512B"/>
<path d="M66.5896 64.7092L66.5804 69.576L56.0391 63.4488L56.0501 58.582L66.5896 64.7092Z" fill="#B8512B"/>
<path d="M61.6288 64.2067C61.4413 64.3156 59.6778 63.2339 59.6778 63.2339L60.1948 62.9242L60.1971 62.3809L59.3424 62.8869L59.3413 63.2801L59.0025 63.0845C58.9085 63.0302 58.8614 62.9584 58.8616 62.8867L58.8594 63.43C58.8592 63.5018 58.9063 63.5735 59.0001 63.6278L60.9443 64.7502C61.1331 64.8592 61.4389 64.8592 61.6264 64.7502L62.481 64.2444L62.4833 63.7011L61.6288 64.2067Z" fill="#4F4D4D"/>
<path d="M62.4833 63.6999L61.6287 64.2059C61.4412 64.3149 61.1353 64.3149 60.9466 64.2059L59.0024 63.0835C58.8153 62.9755 58.8142 62.7983 59.0017 62.6894L59.8564 62.1836L60.197 62.3803L59.3423 62.8863L61.2864 64.0087L62.1411 63.5027L62.4833 63.6999Z" fill="white"/>
<path d="M61.6288 70.779C61.4413 70.8879 59.6778 69.8062 59.6778 69.8062L60.1948 69.4965L60.1971 68.9531L59.3424 69.4589L59.3413 69.8521L59.0025 69.6566C58.9085 69.6023 58.8614 69.5305 58.8616 69.4588L58.8594 70.0021C58.8592 70.0739 58.9063 70.1456 59.0001 70.1999L60.9443 71.3223C61.1331 71.4312 61.4389 71.4312 61.6264 71.3223L62.481 70.8165L62.4833 70.2731L61.6288 70.779Z" fill="#4F4D4D"/>
<path d="M62.4833 70.2745L61.6287 70.7803C61.4412 70.8893 61.1353 70.8893 60.9466 70.7803L59.0024 69.6579C58.8153 69.5499 58.8142 69.3727 59.0017 69.2638L59.8564 68.7578L60.197 68.9545L59.3423 69.4603L61.2864 70.5827L62.1411 70.0769L62.4833 70.2745Z" fill="white"/>
<path d="M61.6288 77.3551C61.4413 77.4641 59.6778 76.3823 59.6778 76.3823L60.1948 76.0726L60.1971 75.5293L59.3424 76.0351L59.3413 76.4283L59.0025 76.2327C58.9085 76.1785 58.8614 76.1067 58.8616 76.0349L58.8594 76.5783C58.8592 76.65 58.9063 76.7218 59.0001 76.7761L60.9443 77.8985C61.1331 78.0074 61.4389 78.0074 61.6264 77.8985L62.481 77.3927L62.4833 76.8493L61.6288 77.3551Z" fill="#4F4D4D"/>
<path d="M62.4833 76.8484L61.6287 77.3544C61.4412 77.4633 61.1353 77.4633 60.9466 77.3544L59.0024 76.232C58.8153 76.124 58.8142 75.9468 59.0017 75.8378L59.8564 75.332L60.197 75.5287L59.3423 76.0347L61.2864 77.1571L62.1411 76.6511L62.4833 76.8484Z" fill="white"/>
<path d="M9.34379 26.1512C8.5226 26.6285 7.18621 26.6285 6.3595 26.1512C5.94366 25.9111 5.73592 25.5959 5.73684 25.2812L5.70703 25.8596C5.70611 26.1742 5.91385 26.4894 6.32969 26.7295C7.1564 27.2068 8.49279 27.2068 9.31399 26.7295C9.72191 26.4923 9.92615 26.1821 9.92707 25.8712L9.95688 25.2928C9.95615 25.6036 9.75191 25.914 9.34379 26.1512Z" fill="#4F4D4D"/>
<path d="M9.33403 24.4222C10.1607 24.8995 10.165 25.6736 9.34378 26.1509C8.52259 26.6282 7.18619 26.6282 6.35948 26.1509C5.53277 25.6736 5.52891 24.8999 6.3501 24.4226C7.17129 23.9453 8.5075 23.9449 9.33403 24.4222Z" fill="#929393"/>
<path d="M8.58368 20.2451C8.17539 20.4824 7.51078 20.4824 7.09972 20.2451C6.89291 20.1257 6.78968 19.9689 6.79005 19.8125L6.77515 25.0053C6.77478 25.1617 6.878 25.3185 7.08482 25.4379C7.49588 25.6753 8.1603 25.6753 8.56878 25.4379C8.77173 25.32 8.87311 25.1658 8.87367 25.0112L8.88857 19.8184C8.8882 19.9729 8.78663 20.1271 8.58368 20.2451Z" fill="#E8E8E8"/>
<path d="M22.866 18.3172C22.0448 18.7945 20.7084 18.7945 19.8817 18.3172C19.4659 18.0771 19.2581 17.7619 19.2591 17.4473L19.2293 18.0256C19.2283 18.3402 19.4361 18.6554 19.8519 18.8955C20.6786 19.3728 22.015 19.3728 22.8362 18.8955C23.2441 18.6584 23.4484 18.3481 23.4493 18.0372L23.4791 17.4589C23.4782 17.7698 23.2739 18.08 22.866 18.3172Z" fill="#4F4D4D"/>
<path d="M22.8562 16.5883C23.683 17.0656 23.6872 17.8396 22.866 18.3169C22.0448 18.7942 20.7084 18.7942 19.8817 18.3169C19.055 17.8396 19.0511 17.0659 19.8723 16.5886C20.6937 16.1113 22.0297 16.111 22.8562 16.5883Z" fill="#929393"/>
<path d="M22.1059 12.9834C21.6976 13.2207 21.033 13.2207 20.6219 12.9834C20.4151 12.8639 20.3119 12.7072 20.3123 12.5508L20.2974 17.1714C20.297 17.3278 20.4002 17.4846 20.607 17.604C21.0181 17.8413 21.6825 17.8413 22.091 17.604C22.2939 17.486 22.3953 17.3318 22.3959 17.1773L22.4108 12.5567C22.4104 12.7112 22.3089 12.8656 22.1059 12.9834Z" fill="#E8E8E8"/>
<path d="M70.5342 60.4383C69.713 60.9156 68.3766 60.9156 67.5499 60.4383C67.1341 60.1982 66.9264 59.883 66.9273 59.5684L66.8975 60.1467C66.8965 60.4613 67.1043 60.7765 67.5201 61.0166C68.3468 61.4939 69.6832 61.4939 70.5044 61.0166C70.9123 60.7795 71.1166 60.4692 71.1175 60.1583L71.1473 59.58C71.1464 59.8907 70.9423 60.2011 70.5342 60.4383Z" fill="#4F4D4D"/>
<path d="M70.5245 58.7094C71.3512 59.1866 71.3554 59.9607 70.5342 60.438C69.713 60.9153 68.3766 60.9153 67.5499 60.438C66.7232 59.9607 66.7193 59.187 67.5405 58.7097C68.3617 58.2324 69.6979 58.2321 70.5245 58.7094Z" fill="#929393"/>
<path d="M69.7741 54.5322C69.3658 54.7696 68.7012 54.7696 68.2902 54.5322C68.0833 54.4128 67.9801 54.256 67.9805 54.0996L67.9656 59.2925C67.9652 59.4489 68.0684 59.6056 68.2753 59.725C68.6863 59.9624 69.3507 59.9624 69.7592 59.725C69.9622 59.6071 70.0636 59.4529 70.0641 59.2983L70.079 54.1055C70.0786 54.2601 69.9771 54.4142 69.7741 54.5322Z" fill="#E8E8E8"/>
<path d="M84.0564 52.6043C83.2353 53.0816 81.8989 53.0816 81.0721 52.6043C80.6563 52.3642 80.4486 52.049 80.4495 51.7344L80.4197 52.3127C80.4188 52.6273 80.6265 52.9425 81.0423 53.1826C81.8691 53.6599 83.2054 53.6599 84.0266 53.1826C84.4346 52.9455 84.6388 52.6352 84.6397 52.3243L84.6695 51.746C84.6686 52.0567 84.4644 52.3671 84.0564 52.6043Z" fill="#4F4D4D"/>
<path d="M84.0467 50.8754C84.8734 51.3527 84.8776 52.1268 84.0564 52.604C83.2352 53.0813 81.8988 53.0813 81.0721 52.604C80.2454 52.1268 80.2416 51.353 81.0627 50.8757C81.8839 50.3984 83.22 50.3981 84.0467 50.8754Z" fill="#929393"/>
<path d="M83.2963 47.2705C82.888 47.5078 82.2234 47.5078 81.8124 47.2705C81.6056 47.1511 81.5023 46.9943 81.5027 46.8379L81.4878 51.4585C81.4874 51.6149 81.5907 51.7717 81.7975 51.8911C82.2085 52.1284 82.8729 52.1284 83.2814 51.8911C83.4844 51.7731 83.5858 51.6189 83.5863 51.4644L83.6012 46.8438C83.6008 46.9983 83.4993 47.1527 83.2963 47.2705Z" fill="#E8E8E8"/>
<path d="M82.9404 84.9698C81.5856 85.7571 79.3849 85.7571 78.0211 84.9698C77.335 84.5737 76.9922 84.054 76.9937 83.5352L76.9907 84.5716C76.9893 85.0905 77.332 85.6101 78.0182 86.0063C79.3818 86.7936 81.5826 86.7936 82.9374 86.0063C83.6055 85.618 83.9404 85.1087 83.9419 84.5979L83.9448 83.5615C83.9434 84.0724 83.6085 84.5817 82.9404 84.9698Z" fill="#BFBFBF"/>
<path d="M74.7812 77.2227L76.9015 83.1421C76.9526 83.332 76.9784 83.5272 77.0071 83.7219C77.0741 84.178 77.4121 84.6217 78.0209 84.9705C79.3873 85.7536 81.5841 85.7536 82.9396 84.9705C83.5408 84.6217 83.871 84.178 83.9301 83.7219C83.9549 83.5311 83.9785 83.3401 84.0285 83.1543L86.1521 77.2227H74.7812Z" fill="#E8E8E8"/>
<path d="M84.9367 78.2355C82.4883 79.6584 78.5105 79.6586 76.0459 78.2355C74.8057 77.5194 74.1862 76.5802 74.1889 75.6426L74.1836 76.7412C74.181 77.6789 74.8004 78.6181 76.0405 79.3342C78.5052 80.7571 82.4827 80.7571 84.9314 79.3342C86.1388 78.6326 86.7442 77.712 86.7468 76.7889L86.7519 75.6902C86.7495 76.6136 86.1442 77.5339 84.9367 78.2355Z" fill="#BFBFBF"/>
<path d="M84.893 73.0936C87.3577 74.5166 87.3707 76.8205 84.9366 78.2351C82.4879 79.6582 78.5106 79.6582 76.0457 78.2351C73.581 76.812 73.5682 74.5082 76.0167 73.0853C78.451 71.6707 82.4283 71.6707 84.893 73.0936Z" fill="#F1F1F1"/>
<path d="M80.4959 78.5529C79.0022 78.5529 77.6027 78.2202 76.5569 77.616C75.6043 77.0656 75.0788 76.369 75.0779 75.6533C75.077 74.943 75.5925 74.2519 76.5313 73.7062C77.5615 73.1074 78.9492 72.7773 80.4374 72.7773C81.9339 72.7773 83.3343 73.1109 84.382 73.7152C85.3364 74.2655 85.8619 74.9638 85.8629 75.6814C85.8638 76.388 85.3519 77.0754 84.4212 77.6167C83.3836 78.2202 81.9887 78.5529 80.4959 78.5529Z" fill="#603F22"/>
<path d="M82.7215 74.7846L83.8314 74.3132C83.8463 73.5339 83.9506 72.8419 84.1225 72.2261L83.2862 72.3124L84.1992 71.9245C84.3987 71.3107 84.6644 70.7782 84.9694 70.3172L84.2971 70.3866L85.2095 69.9991C86.7423 67.9764 88.9907 67.4941 88.9907 67.4941C86.955 67.551 85.4493 68.1041 84.3151 68.9014L84.4831 69.3078L84.1661 68.9958C83.7355 69.3154 83.3747 69.6766 83.0525 70.0567L83.2505 70.8126L82.7307 70.4449C82.1929 71.1782 81.825 71.9718 81.5669 72.7444L81.8094 73.331L81.4758 73.0029C80.8793 74.9627 80.9978 76.6925 80.9978 76.6925C81.9321 77.1983 82.9465 77.1725 84.0297 76.6925C83.8941 75.9563 83.8465 75.2952 83.8369 74.6692L82.7215 74.7846ZM78.1563 75.1338L77.0015 74.7564C76.9045 73.9818 76.7279 73.3014 76.492 72.7024L77.3336 72.719L76.3838 72.4086C76.1207 71.8139 75.8 71.3059 75.4478 70.8722L76.1245 70.8856L75.1753 70.5754C73.4365 68.6885 71.147 68.3946 71.147 68.3946C73.1798 68.2826 74.7372 68.7085 75.9505 69.4085L75.8259 69.8271L76.1087 69.4902C76.5711 69.7726 76.9684 70.1025 77.3292 70.4541L77.2116 71.2231L77.6904 70.8139C78.3029 71.4995 78.7528 72.259 79.091 73.0068L78.9112 73.611L79.2089 73.2566C80.009 75.1583 80.073 76.8905 80.073 76.8905C79.1961 77.4715 78.1831 77.5299 77.0543 77.1416C77.1119 76.3975 77.0896 75.7353 77.0333 75.1112L78.1563 75.1338Z" fill="#73AE43"/>
<path d="M78.2746 73.3213C78.37 74.6932 78.6301 75.9182 78.8817 76.8508C79.8179 77.9728 81.2186 77.8274 82.9243 76.8508C82.5341 76.0746 82.2123 75.3304 81.955 74.6181L80.6464 75.2483L81.7784 74.1294C81.4255 73.0497 81.2229 72.0524 81.1393 71.1313L80.1584 71.6038L81.0895 70.6836C81.0407 69.7537 81.1117 68.9078 81.265 68.1441L80.4762 68.524L81.4067 67.6044C82.316 64.17 84.8348 62.5547 84.8348 62.5547C82.3736 63.4938 80.7967 64.8926 79.7904 66.4706L80.1895 66.9595L79.6534 66.664C79.2793 67.2862 79.0105 67.9365 78.7978 68.5963L79.4 69.5539L78.5895 69.2672C78.2816 70.5048 78.2103 71.7534 78.2629 72.9268L78.839 73.6322L78.2746 73.3213Z" fill="#A9C838"/>
<path d="M54.0729 50.6778L40.8145 58.4695C40.134 58.8649 39.0297 58.8616 38.3503 58.4695L25.7114 51.1724C25.3667 50.9735 25.1947 50.7135 25.1953 50.4537L25.1831 54.719C25.1824 54.9787 25.3544 55.2386 25.6992 55.4376L38.3382 62.7348C39.0175 63.1269 40.1219 63.1302 40.8023 62.7348L54.0608 54.9431C54.3995 54.7463 54.5686 54.4881 54.5694 54.2301L54.5815 49.9648C54.5808 50.2228 54.4115 50.481 54.0729 50.6778Z" fill="#589441"/>
<path d="M54.0705 49.2482C54.7498 49.6403 54.7533 50.2832 54.0729 50.6788L40.8144 58.4704C40.1339 58.8658 39.0296 58.8625 38.3502 58.4704L25.7113 51.1734C25.0264 50.7779 25.0229 50.1415 25.7032 49.7461L38.9617 41.9544C39.6421 41.559 40.7465 41.5559 41.4313 41.9511L54.0705 49.2482Z" fill="#80BC41"/>
<path d="M90.16 43.2891V45.4511L68.8142 57.8563V55.6943L90.16 43.2891Z" fill="#9F3E22"/>
<path d="M68.8142 55.6952V57.8572L2.94775 19.83V17.668L68.8142 55.6952Z" fill="#B8512B"/>
<path d="M90.1601 43.289L68.8142 55.6943L2.94775 17.667L24.2954 5.26172L90.1601 43.289Z" fill="#CC673A"/>
<path d="M23.3703 27.292C23.4925 27.2209 23.661 27.2299 23.8452 27.3363L27.1745 29.2584C27.3616 29.3664 27.5302 29.377 27.6514 29.3066L23.8627 31.5083C23.7412 31.5788 23.5727 31.5683 23.3857 31.4603L20.0564 29.538C19.8723 29.4317 19.7037 29.4229 19.5815 29.4937L23.3703 27.292Z" fill="#A9C838"/>
<path d="M38.035 35.5282L34.7026 33.6043C34.3364 33.3929 34.04 32.8795 34.0411 32.4521C34.0426 31.9181 34.3272 31.425 34.7889 31.1567L35.1885 30.9245C35.3076 30.8553 35.381 30.7085 35.3815 30.5004L35.3924 26.6616C35.3935 26.241 35.0971 25.7208 34.7252 25.5061L27.1974 21.1598C27.0145 21.0542 26.8485 21.0456 26.7282 21.1155L22.9395 23.3172C23.06 23.2471 23.2259 23.2559 23.4087 23.3616L30.9366 27.7078C31.3085 27.9226 31.6049 28.4425 31.6038 28.8633L31.5963 31.5082C31.5948 32.0421 31.3102 32.5353 30.8485 32.8035L30.4524 33.0337C30.3317 33.104 30.2564 33.2534 30.2558 33.4641L30.2525 34.6538C30.2514 35.0811 30.5479 35.5946 30.9138 35.806L34.2488 37.7316C34.6137 37.9423 34.9114 38.4593 34.9101 38.8807L34.8634 55.8928C34.8628 56.1034 34.7878 56.2529 34.6669 56.323L38.4556 54.1212C38.5763 54.0509 38.6516 53.9015 38.6521 53.691L38.6989 36.6819C38.7 36.2589 38.4013 35.7396 38.035 35.5282Z" fill="#A9C838"/>
<path d="M23.4088 23.361C23.0427 23.1496 22.7442 23.3263 22.7431 23.7469L22.7323 27.5857C22.7312 28.0065 23.0276 28.5198 23.3937 28.7313C23.7656 28.946 24.062 29.466 24.0609 29.8868L24.0576 31.0765C24.0563 31.5038 23.7581 31.6738 23.3862 31.4592L20.0569 29.537C19.6907 29.3256 19.3866 29.4991 19.3855 29.9197L19.3384 46.9289C19.3373 47.3495 19.6394 47.873 20.0056 48.0844L34.1979 56.2783C34.564 56.4897 34.8625 56.313 34.8636 55.8924L34.9103 38.8833C34.9114 38.4626 34.615 37.9425 34.2488 37.7311L30.9138 35.8057C30.5477 35.5943 30.2512 35.0807 30.2523 34.6535L30.2557 33.4637C30.2568 33.0429 30.5552 32.8665 30.9214 33.0777C31.2932 33.2924 31.5917 33.1224 31.5928 32.7016L31.6036 28.8628C31.6047 28.4422 31.3083 27.922 30.9365 27.7073L23.4088 23.361Z" fill="#73AE43"/>
<path d="M28.5543 57.0684L24.7078 59.287C24.5799 59.361 24.4634 59.3674 24.3792 59.3185L29.5249 62.3089C29.609 62.3578 29.7256 62.3512 29.8535 62.2774L33.7 60.0587L28.5543 57.0684Z" fill="#929393"/>
<path d="M28.3585 62.6078L28.3411 44.1329L23.1953 41.1426L23.2128 59.6175C23.2141 60.0859 23.3799 60.4151 23.6467 60.5702L28.7924 63.5606C28.5256 63.4057 28.3598 63.0763 28.3585 62.6078Z" fill="#686868"/>
<path d="M28.3415 44.1331L23.1951 41.1431L24.2255 40.5488L29.3719 43.5388L28.3415 44.1331Z" fill="#BFBFBF"/>
<path d="M29.3722 43.5391L29.3897 62.014C29.3906 62.3061 29.5993 62.4252 29.8535 62.2784L33.7001 60.0599L34.7323 60.6558L29.8569 63.458C29.0338 63.9331 28.3613 63.5551 28.3585 62.6096L28.3411 44.1347L29.3722 43.5391Z" fill="#3D3D3D"/>
<path d="M45.9169 26.0493C45.9732 26.0042 46.0519 26.0155 46.1531 26.0718C46.3443 26.1842 46.5011 26.4416 46.5011 26.6666C46.5011 26.7791 46.456 26.8578 46.3885 26.8917L44.1989 28.1703L43.7161 27.3279L45.9169 26.0493Z" fill="#4F4D4D"/>
<path d="M43.9588 27.3531C44.1487 27.4627 44.3027 27.7288 44.3022 27.9468C44.3016 28.1656 44.1465 28.2534 43.9566 28.1437C43.7667 28.034 43.6127 27.768 43.6133 27.5492C43.614 27.331 43.7691 27.2434 43.9588 27.3531ZM44.9903 27.6821C44.9975 27.6861 45.0058 27.6892 45.0146 27.6913L45.0143 27.5527C45.0143 27.568 45.022 27.5834 45.0354 27.5976L45.0356 27.694C45.0557 27.6949 45.0761 27.6911 45.0914 27.6822L46.3983 26.924C46.4125 26.9159 46.4195 26.9052 46.4195 26.8945L46.4198 27.0447C46.4198 27.0553 46.4128 27.066 46.3987 27.0741L45.0917 27.8324C45.0636 27.8486 45.0183 27.8486 44.9905 27.8324C44.9765 27.8243 44.9697 27.8138 44.9695 27.8031V27.6528C44.9695 27.6633 44.9765 27.674 44.9903 27.6821Z" fill="#3D3D3D"/>
<path d="M45.9299 26.8789V27.1586L46.1452 26.9764L45.9299 26.8789Z" fill="#3D3D3D"/>
<path d="M46.2976 26.8657L46.2446 26.8964L46.0731 26.7969L45.9307 26.8791L46.1025 26.979L45.2151 27.4944C45.1616 27.4771 45.0959 27.4762 45.0502 27.5027C45.0046 27.5292 45.0057 27.5671 45.0355 27.5982L44.9906 27.6241C44.9625 27.6403 44.9625 27.6665 44.9904 27.6828C45.0182 27.699 45.0635 27.699 45.0915 27.6828L46.3984 26.9246C46.4266 26.9084 46.4266 26.8821 46.3986 26.8659C46.371 26.8497 46.3259 26.8495 46.2976 26.8657Z" fill="#929393"/>
<path d="M40.8634 29.5561L40.9524 29.5001C40.9572 29.497 40.9638 29.4974 40.9716 29.5013C40.9866 29.5092 40.9993 29.5296 40.9999 29.5465C41.0003 29.555 40.9975 29.561 40.9927 29.564L40.9037 29.6199C40.8889 29.6293 40.87 29.6275 40.8573 29.6155C40.8396 29.5986 40.8426 29.5693 40.8634 29.5561Z" fill="#3D3D3D"/>
<path d="M43.7093 27.4314C43.7561 27.3938 43.8216 27.4032 43.9058 27.4501C44.0648 27.5436 44.1951 27.7576 44.1951 27.9447C44.1951 28.0382 44.1575 28.1037 44.1014 28.1319L41.7701 29.4925L41.3687 28.792L43.7093 27.4314Z" fill="#E8E8E8"/>
<path d="M41.5704 28.8127C41.7283 28.9037 41.8564 29.1251 41.8558 29.3065C41.8553 29.4885 41.7263 29.5614 41.5686 29.4703C41.4107 29.3792 41.2827 29.1579 41.2832 28.9759C41.2838 28.7945 41.4127 28.7216 41.5704 28.8127Z" fill="#B0AFB0"/>
<path d="M40.9455 29.525L40.9723 29.5703C40.9821 29.582 40.9972 29.5877 41.0121 29.5855L41.6121 29.4889L41.6805 29.445C41.7245 29.4231 41.7538 29.3717 41.7538 29.2985C41.7538 29.152 41.6517 28.9848 41.5275 28.9115C41.4616 28.8749 41.4104 28.8678 41.3736 28.897L41.298 28.941L40.9414 29.4748C40.932 29.4908 40.9335 29.5108 40.9455 29.525Z" fill="#4F4D4D"/>
<path d="M56.7253 33.1496L49.5061 28.9542C49.4621 28.9286 49.4352 28.8733 49.4351 28.7949C49.4347 28.6446 49.5388 28.4589 49.6741 28.3809C50.0099 28.1871 50.2793 27.7154 50.2781 27.3347C50.2776 27.1429 50.2104 27.0084 50.1017 26.9453L57.3209 31.1407C57.4297 31.2038 57.4968 31.3385 57.4974 31.53C57.4985 31.9107 57.2291 32.3825 56.8933 32.5763C56.7581 32.6543 56.6539 32.8399 56.6543 32.9903C56.6545 33.0686 56.6813 33.124 56.7253 33.1496Z" fill="#929393"/>
<path d="M50.4438 26.3568C50.2457 26.2416 49.9711 26.2578 49.6684 26.4326L40.3345 31.8621C40.1993 31.9401 40.0907 32.1283 40.0911 32.2786C40.0912 32.3557 40.1183 32.41 40.1621 32.4354L47.3813 36.6308C47.3375 36.6054 47.3105 36.5511 47.3103 36.474C47.3099 36.3237 47.4185 36.1355 47.5537 36.0575L56.8877 30.628C57.1904 30.4532 57.4649 30.437 57.6631 30.5522L50.4438 26.3568Z" fill="#F1F1F1"/>
<path d="M53.4428 31.346L52.7786 31.7324L47.7241 28.8141L48.3884 28.4277L53.4428 31.346Z" fill="#BFBFBF"/>
<path d="M55.1338 30.3636L54.4695 30.7499L49.415 27.8317L50.0793 27.4453L55.1338 30.3636Z" fill="#BFBFBF"/>
<path d="M47.4628 31.815L46.8004 32.1996L44.3403 30.7791L45.0046 30.3945L47.4628 31.815Z" fill="#BFBFBF"/>
<path d="M51.75 32.3285L51.0857 32.7149L46.0312 29.7967L46.6955 29.4121L51.75 32.3285Z" fill="#BFBFBF"/>
<path d="M56.8875 30.6279C57.4892 30.2805 57.979 30.5596 57.981 31.2511C57.983 31.9424 57.4962 32.7855 56.8947 33.1329C56.7594 33.2109 56.6546 33.1461 56.654 32.9908C56.6536 32.8405 56.7578 32.6548 56.893 32.5768C57.2286 32.3831 57.4982 31.9113 57.4971 31.5306C57.496 31.1448 57.2248 30.9904 56.8892 31.1841L47.5552 36.6134C47.42 36.6914 47.3107 36.6291 47.3103 36.4738C47.3099 36.3234 47.4185 36.1352 47.5537 36.0572L56.8875 30.6279Z" fill="#BFBFBF"/>
</svg>
