<svg width="1604" height="862" viewBox="0 0 1604 862" fill="none" xmlns="http://www.w3.org/2000/svg">
<path d="M866.375 428.211L902.174 426.157L912.666 412.061L920.078 428.091" stroke="#6FC2CD" stroke-width="0.25"/>
<path d="M1546.01 707.304L1549.25 696.932L1558.98 687.207V672.621L1562.87 671V681.373L1569.68 690.449L1546.01 707.304Z" fill="#6FC2CD"/>
<path d="M1536.28 706.008L1487 730.967L1498.35 737.45L1536.28 712.491V706.008Z" fill="#6FC2CD"/>
<path d="M1546.01 707.304L1549.25 696.932L1558.98 687.207V672.621L1562.87 671V681.373L1569.68 690.449L1546.01 707.304Z" stroke="#6FC2CD" stroke-width="0.25" stroke-linejoin="bevel"/>
<path d="M1536.28 706.008L1487 730.967L1498.35 737.45L1536.28 712.491V706.008Z" stroke="#6FC2CD" stroke-width="0.25" stroke-linejoin="bevel"/>
<path d="M894.521 654.126L889.982 658.858H882.331V651.889L888.264 648.064H894.521V654.126ZM907.652 633.705V640.577L901.816 637.076V631.727H907.652V612.376H892.738L857.269 636.136L848.547 626.12V645.795H826.987L839.501 680.057H880.58L912.191 643.494L913.618 633.607L907.652 633.705ZM351.292 246.676L359.462 241.103H369.318L361.18 246.676H351.292ZM425.765 217.091L415.325 226.141H391.138L383.649 231.269H389.42L381.379 236.753H375.641L383.649 231.269H367.859L361.018 236.585L354.048 237.282L355.442 225.272H350.06L343.77 229.45L332.098 246.679H325.224L338.453 225.272L354.048 221.937L353.172 219.01L342.894 218.66L338.031 215.7L331.936 218.66H324.803L327.721 212.355L312.966 205.606H187.136L145.701 249.301V282.883L160.829 298.01L213.742 304.811L220.8 315.514L235.681 314.992L247.963 339.109L270.846 310.386L325.25 310.558L328.849 337.747L337.473 337.974L337.7 304.133L425.758 228.867L431.756 227.83L435.161 217.11H425.758L425.765 217.091ZM477.835 212.439H508.571L502.183 202.268L496.412 200.89V193.594L477.835 212.439ZM249.973 376.975L238.116 351.433L247.96 339.083L235.681 314.96L220.8 315.482L213.742 304.782L160.829 297.981L160.929 298.085L163.183 321.903L179.459 352.697L186.128 347.543L173.292 320.182V304.782H180.862L181.157 319.106L205.474 376.22L245.126 392.751L255.021 390.126L263.73 399.008L268.068 391.293H277.204L275.901 381.277H283.731L293.915 373.692L294.346 362.638L283.209 362.444L274.354 376.966L249.973 376.975ZM688.966 129.361L703.686 122.201V120.184L696.391 112.787L686.178 116.178L673.923 115.919L671.329 119.452L664.358 119.29V125.838L688.966 129.361ZM819.983 284.789L820.016 277.839L812.137 277.631L812.073 282.753L819.983 284.789ZM521.442 62.5547V69.8804L558.014 70.4023L567.384 86.5674V101.186L549.844 111.147L550.362 130.985L561.386 142.126H574.42L594.327 121.092L622.436 112.804L632.974 104.736L654.242 103.423L669.124 99.0308L697.169 54.4608L714.45 50.9276L720.545 44.8013L670.713 39.79L627.656 44.8013H575.522L545.467 55.242L521.442 62.5547ZM1369.6 344.723L1365.35 340.282L1358.38 350.201L1365.35 356.716L1369.6 344.723ZM1302.68 221.775L1304.08 213.943L1289.45 211.593L1283.88 202.456H1256.03L1199.09 188.362L1192.84 202.456L1169.69 195.409L1152.41 208.569L1208.69 241.437L1273.79 242.134L1281.64 226.173L1302.68 221.775ZM1315.03 370.817L1306.67 372.664V377.591L1310.07 381.708L1315.03 375.517V370.817ZM1283.88 202.456L1289.45 211.593L1304.08 213.943L1302.68 221.775L1281.67 226.173L1273.79 242.134L1208.69 241.437L1152.41 208.569L1128.06 227.126L1132.11 245.962L1107.73 255.016L1114.7 272.066L1140.64 283.897L1141.67 304.782L1209.57 328.256L1222.08 316.788L1248.73 328.256L1245.07 338.175L1259.17 361.676L1283.88 349.164L1300.02 362.972L1306.86 359.083L1307.12 365.728L1347.59 351.271L1360.81 321.67L1337.21 282.837L1349.34 269.615H1335.4L1330.92 272.51L1322.17 258.134L1333.32 248.387L1340.97 262.987L1351.7 255.606L1372.29 241.428V213.93L1338.18 205.23L1313.12 180.689H1288.77L1294.32 200.355L1283.88 202.456ZM1424.56 243.817L1434.09 243.687L1438.14 236.77L1416.97 227.895L1417.39 245.382L1421.57 247.862L1424.56 243.817ZM1398.23 284.237L1396.67 289.615L1417.65 286.519L1419.27 294.617L1424.04 292.594L1424.56 286.221L1438.63 282.607L1437.88 264.218L1431.49 253.071L1425.14 251.23L1428.77 267.936L1415.77 279.725L1398.23 284.237ZM1394.53 294.617L1402.12 293.66L1404.58 297.317L1401.86 305.929L1394.53 294.617ZM1414.76 291.051L1411.1 297.706L1406.27 292.224L1414.76 291.051ZM1391.81 404.631L1380.3 403.432L1376.12 398.213L1380.3 388.619L1376.15 379.413L1368.56 379.251L1366.71 395.458L1377.45 408.391L1390.03 409.98L1391.81 404.631ZM1355.56 433.383L1360.65 434.388L1369.7 426.868L1369.5 420.709L1355.56 433.383ZM1395.28 445.02V452.248L1402.83 449.979L1400.27 445.312L1406.37 443.756L1401.18 427.581L1397.35 437.565H1384.84L1395.28 445.02ZM1373 408.943L1378.39 414.226L1376.64 417.468L1372.29 413.221L1373 408.943ZM1378.39 421.876L1382.21 424.469L1386.39 418.148L1380.82 417.468L1378.39 421.876ZM1392.65 415.263L1397.9 422.038H1403.64L1398.16 413.221L1392.65 415.263ZM1392.65 420.968L1395.6 426.122L1393.24 429.266L1389.09 423.01L1392.65 420.968ZM1386.39 426.187L1389.09 430.239L1386.39 433.48L1383.31 429.72L1386.39 426.187ZM1396.61 532.377L1400.14 537.239L1410.06 536.04V532.377H1396.61ZM1316.88 475.198L1317.37 489.201L1325.34 503.139H1350.7L1363.25 487.126V458.083L1354.2 459.023L1346.87 472.864L1322.33 478.342L1317.04 475.133L1316.88 475.198ZM1298.86 511.761V501.065L1257.06 457.726L1242.77 452.248L1291.17 518.147L1298.86 511.761ZM1347.68 530.821L1348.46 534.451L1296.23 525.602L1304.08 519.314L1317.11 524.273L1328.88 521.68L1347.68 530.821ZM1381.08 530.821H1373L1374.56 536.04H1382.28L1385.52 533.414L1381.08 530.821ZM1366.97 539.281L1369.34 542.166H1374.95L1373 537.985L1366.97 539.281ZM1396.61 532.377L1388.53 541.388L1394.66 542.166L1400.14 537.239L1396.61 532.377ZM1369.73 516.461L1375.73 514.614L1373.91 504.047L1377.45 500.124L1380.43 507.969L1387.63 510.465V504.825L1383.57 495.878L1391.26 489.428L1379 489.946L1376.47 486.446L1381.34 481.097L1390.35 484.209L1394.79 483.82L1401.44 475.976L1395.6 475.846L1391.81 478.342L1379.26 475.295L1370.96 482.783L1371.55 494.646L1366.71 501.065L1369.73 516.461ZM1414.76 499.638L1413.37 504.533L1426.95 503.139V499.638H1414.76ZM1417.91 468.034L1413.37 472.507L1411.65 483.658L1417.91 485.181L1416.52 475.295L1420.15 470.757L1417.91 468.034ZM1448.68 497.693L1446.86 488.034L1431.98 490.141L1448.68 497.693ZM1447.67 505.732L1468.42 514.387L1472.15 524.986L1465.25 529.2L1483.01 535.359V500.384L1468.58 492.864L1455.13 503.787L1440.9 498.18L1439.31 506.024L1447.67 505.732ZM1385.88 275.006L1371.87 263.547L1365.68 269.265L1374.04 287.365L1384.16 286.669L1385.88 275.006ZM1371.87 263.547L1365.68 258.478L1373.69 257.434L1372.29 241.424L1351.7 255.602L1357.73 267.045L1365.68 269.265L1371.87 263.547ZM1353.94 448.245L1342.79 463.253L1317.04 475.149L1322.33 478.358L1346.87 472.88L1354.2 459.039L1363.25 458.099V447.467L1353.94 448.245ZM1268.61 448.245L1273.08 462.767L1291.5 478.455L1292.92 472.88L1275.54 447.208L1268.61 448.245ZM1489.46 537.644L1501.82 526.299L1517.83 541.923L1532.46 544.905L1514.36 526.818L1515.24 517.256L1483.01 500.4V535.375L1489.46 537.644ZM1523.38 518.909L1529.89 522.798L1541.15 516.478V509.93L1523.38 518.909ZM1532.46 500.53L1545.59 509.93L1550.84 508.147L1537.51 500.206L1532.46 500.53ZM1259.17 361.666L1245.07 338.165L1248.7 328.247L1240.53 324.746L1229.57 332.623L1224.41 368.246L1232.55 375.053L1235.67 391.325L1241.4 393.043L1245.52 387.889L1253.17 396.512L1257.42 412.265L1256.42 428.537L1263 415.636L1251.16 372.979L1259.17 367.176V361.666ZM1282.84 381.698L1292.31 394.567L1283.46 403.448H1303.3V398.392L1283.97 377.841L1279.69 364.616L1266.27 358.068L1259.17 361.666V367.176L1266.11 371.228V381.698H1282.84ZM1266.11 381.698V371.228L1259.17 367.176L1251.16 372.979L1263 415.636L1256.42 428.537L1256.03 434.955L1267.5 444.68L1268.61 448.245L1275.54 447.208L1264.39 430.774L1266.98 405.361L1279.53 417.775V407.37L1292.31 394.567L1282.84 381.698H1266.11ZM1279.53 407.37V417.775L1285.79 423.999L1292.83 423.027L1303.3 415.182V403.448H1283.46L1279.53 407.37ZM1283.97 377.841L1303.3 398.392V415.182L1292.83 423.027L1293.08 434.242L1313.12 421.017L1312.44 401.341L1291.53 379.267L1292.57 367.176L1300.02 362.963L1283.88 349.154L1266.27 358.068L1279.69 364.616L1283.97 377.841ZM1200.42 335.054L1195.98 337.128L1202.27 356.998L1206.32 353.076L1224.41 368.246L1225.58 360.143L1216.08 351.261L1214.53 340.629L1206.94 343.741L1200.42 335.054ZM1206.94 333.692L1195.98 330.969L1197.5 324.098L1194.36 323.008L1187.65 333.692L1150.78 319.735L1150.88 307.962L1141.67 304.772L1140.64 283.887L1132.6 280.225H1125.17L1114.15 288.056L1113.86 294.724L1120.53 298.506L1123.71 311.54L1109.22 324.876H1099.95V334.73L1106.89 337.355V345.848L1094.37 349.186L1095.44 350.451L1105.78 353.724L1100.95 358.684L1105.52 364.616L1113.73 365.588L1115.19 358.781L1118.43 358.814L1144.79 434.599L1161.52 424.323L1164.11 393.854L1202.27 356.998L1195.98 337.128L1200.42 335.054L1206.94 343.741L1214.53 340.629L1216.08 351.261L1225.58 360.143L1229.57 332.623L1240.53 324.746L1222.08 316.778L1209.57 328.247L1206.94 333.692ZM1150.88 307.962L1150.78 319.735L1187.65 333.692L1194.36 323.008L1150.88 307.962ZM1197.5 324.098L1195.98 330.969L1206.94 333.692L1209.57 328.247L1197.5 324.098ZM988.675 236.027L996.489 242.517L1006.44 239.768L1015.26 247.126L1013.74 228.021L1027.32 224.89L1045.22 237.159L1060.2 234.287L1071.16 248.731L1081.73 248.264L1092.07 239.768L1116.48 238.708L1132.11 245.946L1128.06 227.11L1152.41 208.559L1138.37 200.352L1056.53 171.5L1024.27 178.77V193.35H967.082V212.19L974.733 221.759L991.106 215.146L1000.87 221.759L989.031 227.499L988.675 236.027ZM1051.31 281.019L1045.83 272.147L1024.44 265.359L1011.79 269.573L1011.56 275.204L995.451 275.194L986.567 259.521L965.331 261.619V267.884L991.106 311.612L998.758 312.344L1016.53 330.875L1049.24 340.632H1058.32L1064.9 329.32L1057.6 320.175L1047.16 289.897L1051.31 281.019ZM1015.26 247.146L1006.44 239.787L996.489 242.536L1012.38 255.69L1011.79 269.583L1024.44 265.369L1045.87 272.157L1051.35 281.028L1071.71 270.588L1038.15 243.739H1023.92L1015.26 247.146ZM1099.95 324.876H1109.22L1123.71 311.54L1120.53 298.506L1113.86 294.724L1114.15 288.056L1125.17 280.225H1132.6L1117.13 273.161L1100.66 275.537L1095.44 298.156L1076.41 315.748L1055.98 315.543L1057.6 320.172L1064.9 329.316L1058.32 340.629H1086.85L1094.37 349.186L1106.89 345.848V337.355L1099.95 334.73V324.876ZM1045.22 237.162L1027.32 224.893L1013.74 228.024L1015.26 247.129L1023.92 243.723H1038.15L1071.71 270.572L1082.7 273.512L1077.71 258.828L1093.3 254.355L1094.18 247.716L1071.16 248.734L1060.2 234.29L1045.22 237.162ZM1051.31 281.019L1047.16 289.897L1055.98 315.547L1076.41 315.751L1095.44 298.159L1100.66 275.541L1097.29 266.011L1082.7 273.518L1071.71 270.578L1051.31 281.019ZM1095.89 261.619L1082.8 257.369L1077.71 258.834L1082.7 273.518L1097.29 266.011L1100.66 275.541L1117.13 273.165L1114.7 272.059L1109.9 260.29L1095.89 261.619ZM1092.07 239.778L1081.73 248.274L1094.18 247.723L1093.3 254.361L1082.8 257.369L1095.89 261.619L1109.9 260.29L1107.73 255.009L1132.11 245.956L1116.48 238.718L1092.07 239.778ZM967.082 252.005L976.419 260.523L986.567 259.521L979.499 247.071L971.848 245.178L967.082 252.005ZM947.013 248.481L960.857 252.005H967.082L971.848 245.178L954.178 237.168L947.013 238.718V248.481ZM965.331 261.619L976.419 260.523L967.082 252.005H960.857L965.331 261.619ZM859.798 155.461L856.134 156.327L857.074 157.03L856.037 161.73L845.759 157.03L845.791 163.13L859.798 166.702L869.881 171.315L873.771 167.989L872.377 158.083L867.255 159.639L859.798 155.461ZM845.824 170.103L853.638 172.706L855.777 177.127L857.463 181.843L869.881 171.315L859.798 166.702L845.791 163.13L845.824 170.103ZM885.508 167.989H873.771L857.463 181.843L860.057 188.991L883.433 192.718L898.023 189.535L889.334 186.002L894.554 182.673L885.508 167.989ZM852.957 149.876L851.725 153.007L856.134 156.327L859.798 155.461L867.255 159.639L872.377 158.083L870.789 146.8L867.871 149.539L852.957 149.876ZM883.433 192.728L860.057 189L861.516 193.059L853.151 203.486V209.386H884.763L887.81 215.162L882.331 223.749L887.129 225.755L888.426 221.775H907.166L903.016 226.079L908.787 229.344L916.568 228.734L909.176 219.295L928.629 215.162L933.59 204.025L898.023 189.545L883.433 192.728ZM838.918 101.449L806.172 125.462V146.819L801.665 153.876L813.985 168.057L834.087 150.262L824.685 138.593L845.856 115.458H850.039L844.268 101.449H838.918ZM781.174 155.484L800.336 152.353L801.665 153.879L806.172 146.823V125.465L838.95 101.452H857.074V95.4716L838.496 96.4181L774.787 140.502L781.174 155.484ZM857.074 101.449H844.3L850.039 115.458H853.41L843.23 138.515L855.129 144.518H873.253L883.433 132.771L866.541 94.9757L857.074 95.4554V101.449ZM1406.3 206.472H1412.56L1390.48 183.85L1384.22 183.671L1401.96 205.6L1410.65 221.784H1417.1L1406.3 206.472ZM853.508 172.728L845.694 170.125L845.727 175.322L855.648 177.15L853.508 172.728ZM1320.71 94.5122L1314.71 86.3664L1277.62 80.3049L1267.18 89.7019H1237.16L1224.64 80.3049H1156.75L1152.57 65.3424H1089.9L1034.65 90.0487L1046.74 105.018L1036.3 115.805L1026.87 84.9758L1010.2 83.6566L1018.21 101.883L953.789 103.624L893.581 128.333L885.638 113.202L908.528 114.065L919.681 108.496L875.814 94.5122L866.477 94.9887L883.368 132.784L873.188 144.531L870.724 146.832L872.312 158.116L873.707 168.022H885.443L894.489 182.706L889.269 186.035L897.958 189.568L933.525 204.047L928.565 215.185L930.899 220.75L925.16 222.316L926.165 231.47L946.948 238.747L954.113 237.198L971.783 245.207L979.435 247.1L974.669 238.747V221.797L967.017 212.229V193.389H1024.21V178.809L1056.47 171.539L1138.3 200.391L1152.34 208.592L1169.62 195.431L1192.77 202.478L1199.03 188.385L1255.96 202.478H1283.81L1294.25 200.391L1288.68 180.725H1313.06L1338.12 205.266L1372.23 213.966V241.463L1387.17 238.838L1395.21 226.844V204.569L1372.23 178.466L1349.95 178.119L1353.78 150.625L1399.72 150.972L1404.71 135.367L1424.1 142.703L1424.17 135.51L1428.96 136.006L1437.33 144.009L1429.26 149.503L1428.28 165.934L1461 196.913V166.981L1442.55 149.228L1486.25 135.393L1486.81 130.933L1464.82 124.953L1473.38 118.285L1493.03 122.343L1506.36 122.606L1495.66 111.128L1427.05 97.5429L1320.71 94.5122ZM830.812 211.01L822.739 217.626L834.476 221.985L846.991 219.827L856.912 209.396H852.989V206.929L830.812 211.01ZM824.814 205.337L830.812 211.01L852.989 206.929V203.496L832.887 201.055L832.044 200.725L824.814 205.337ZM782.471 221.47L789.669 221.985L796.186 220.481L793.851 213.431H787.724L783.736 215.269L782.471 221.47ZM810.03 205.337H824.814L832.044 200.725L817.909 195.156L805.264 199.072L810.03 205.337ZM710.689 273.278L713.607 273.499L716.979 245.181L706.02 243.35L705.469 264.056L710.689 273.278ZM882.169 223.749L887.648 215.162L884.6 209.386H875.23L882.169 223.749ZM855.615 177.137L845.694 175.309L835.254 175.652L832.887 173.484L817.909 177.137L816.579 177.12L817.909 195.146L832.077 200.715L832.887 201.046L852.989 203.486L861.354 193.059L859.895 189L857.301 181.853L855.615 177.137ZM856.912 209.386L846.991 219.817L855.875 234.565L878.051 232.04L884.373 233.781L886.967 225.755L882.169 223.749L875.23 209.386H856.912ZM816.547 177.12L797.32 176.9L796.445 173.484H789.701L791.063 176.774L780.947 182.832L780.04 200.287L786.167 203.486L783.736 215.259L787.724 213.422H801.989L803.221 213.062L813.564 210.028L810.03 205.328L805.264 199.062L817.909 195.146L816.547 177.12ZM789.701 173.484H796.445L796.088 172.038L798.293 159.649L792.23 159.565L787.918 169.283L789.701 173.484ZM807.696 169.147L803.902 165.39L800.53 166.774L799.493 172.1L805.783 172.038L807.696 169.147ZM813.564 210.021L801.989 213.415H793.851L796.186 220.465L808.539 217.609H822.739L828.672 212.734L830.812 210.994L824.814 205.321H810.03L813.564 210.021ZM820.632 266.39H808.085V269.525L812.786 272.743L820.632 273.959V266.39ZM787.724 248.727V261.606H793.722V250.468L787.724 248.727ZM782.471 221.441L781.337 226.974L788.599 230.284H797.029L822.966 256.16L824.296 267.171L829.062 264.387L830.553 256.471L836.454 255.288L804.81 227.908L813.791 227.369L808.539 217.596L789.669 221.956L782.471 221.441ZM790.739 239.856V245.165L793.722 246.29L795.051 239.856H790.739ZM730.888 207.311V211.14L741.652 216.955L743.079 236.024L759.03 246.225L763.958 239.856L787.302 240.024L787.983 230.284H788.599L781.337 226.974L786.167 203.467L764.931 192.391L740.031 207.311H730.888ZM770.864 188.848L764.931 192.391L776.83 198.595L780.234 196.76L780.364 193.889L770.864 188.848ZM780.364 193.889L780.947 182.813L770.864 188.848L780.364 193.889ZM776.83 198.595L780.04 200.268L780.202 196.76L776.83 198.595ZM737.859 171.464L737.988 179.467L732.509 182.469L737.34 189.5L727.548 198.783L740.485 196.433L753.648 194.346L754.491 189.516H757.182L757.766 184.125L749.239 182.326L738.572 157.821L730.434 157.571V170.767L737.859 171.464ZM727.548 177.247V172.018L718.016 171.373L723.496 178.683L727.548 177.247ZM708.355 178.456V192.728L713.834 192.692V187.821L724.274 189.257L723.496 178.683L718.016 171.373L708.355 178.456ZM713.607 273.495L736.464 275.204L759.03 246.238L743.079 236.037L706.182 236.303L706.02 243.347L716.979 245.178L713.607 273.495ZM764.25 261.307V255.178L757.182 261.307H764.25ZM847.769 254.18L862.262 249.492L858.922 241.706L846.991 244.04L847.769 254.18ZM838.594 221.246L841.252 236.027L846.991 244.031L858.922 241.697L855.875 234.549L846.991 219.801L838.594 221.246ZM813.791 227.373L815.12 227.295L821.929 223.733L825.009 218.449L822.739 217.6H808.539L813.791 227.373ZM886.157 256.04L875.36 255.953L884.244 273.8L925.063 276.053L965.169 267.875V261.609L960.695 251.995L946.851 248.471L890.955 250.299L886.157 256.04ZM875.328 251.995H885.281L881.261 243.34L875.23 245.288L875.328 251.995ZM830.748 240.423L834.346 241.314L841.252 236.027L839.307 225.156L824.555 227.152L830.748 240.423ZM842.387 255.907L846.991 261.223L855.875 263.706L850.46 266.001L857.625 275.006L862.132 267.875L857.107 256.909L867.093 251.995H875.328L875.23 245.288L842.387 255.907ZM834.476 221.969L825.009 218.459L821.929 223.742L815.12 227.305L817.487 227.162L828.478 239.869L830.748 240.433L824.555 227.162L839.307 225.165L838.594 221.256L834.476 221.969ZM838.659 242.39L843.846 239.632L841.252 236.037L834.346 241.324L838.659 242.39ZM838.659 242.39L841.577 254.97L842.387 255.917L847.769 254.18L846.991 244.04L843.846 239.632L838.659 242.39ZM862.262 249.492L881.261 243.35L884.373 233.775L878.051 232.034L855.875 234.559L862.262 249.492ZM1004.04 340.707L1008.45 343.624L1011.34 340.642L1006.28 333.511L1004.04 340.707ZM916.082 280.643L904.443 284.951L912.775 287.038L916.082 280.643ZM923.572 295.531V316.448L927.948 316.97L934.465 313.923L936.475 302.176L941.566 300.023L941.825 299.913L940.334 293.673L929.861 299.913L923.572 295.531ZM1002.62 339.776L991.106 320.976H986.081L982.482 316.312L972.658 316.279L941.566 300.03L936.443 302.182L934.465 313.929L927.916 316.976L923.572 316.454L964.131 386.923L964.942 389.549L969.157 382.32L983.552 384.136L982.223 389.614L1002.62 378.917L1031.31 371.235V356.292L1016.36 354.185L1011.82 345.854L1002.62 339.776ZM977.943 316.295L982.515 316.312L986.081 320.976H991.106L985.011 311.057H979.273L977.943 316.295ZM948.828 288.61L940.334 293.68L941.89 300.198L972.658 316.279L977.943 316.295L979.273 311.057L990.588 310.989L965.169 267.91L953.497 270.293L948.828 288.61ZM1022.72 347.994L1011.82 345.854L1016.36 354.185L1024.79 355.384L1036.79 343.196L1031.31 338.334L1022.72 347.994ZM1024.79 355.384L1031.31 356.292V371.235L1016.88 375.092V383.779L1024.92 389.225L1051.51 356.292L1036.79 343.196L1024.79 355.384ZM928.305 286.763L923.572 295.518L929.861 299.9L948.828 288.591L953.497 270.267L925.063 276.063L923.15 284.977L928.305 286.763ZM1002.62 378.917L982.223 389.614L983.552 384.136L969.157 382.32L964.942 389.549L972.14 413.017L1024.92 389.225L1016.88 383.779V375.092L1002.62 378.917ZM923.572 295.514L928.305 286.759L923.15 284.973L921.27 293.881L923.572 295.514ZM923.442 316.739L923.572 316.432V295.514L921.27 293.881L917.638 307.284L923.442 316.739ZM966.823 615.407L972.334 628.437L985.53 629.021L1008 556.963H999.99L973.89 584.062L971.264 602.862L966.823 615.407ZM821.767 438.424L817.941 427.111H825.592L816.158 407.079V418.164L802.605 446.235L790.771 446.916L789.118 458.456H794.24L793.981 470.255H826.63L828.089 466.073H828.024L818.265 452.329L821.767 438.424ZM802.962 478.844H793.787L793.495 492.88L805.264 508.601V495.149H820.373L812.656 470.255H802.962V478.844ZM802.962 478.844V470.255H794.013L793.787 478.844H802.962ZM772.323 449.218L774.398 458.456H789.118L790.771 446.916L802.605 446.235L816.158 418.164V407.079H765.417L757.182 447.013L772.323 449.218ZM697.461 441.568L701.189 445.749V463.156L728.813 455.182V429.639L701.838 424.323V437.743L697.461 441.568ZM701.189 463.156V445.749L691.203 434.501L682.352 442.832L701.189 463.156ZM867.482 544.387L857.95 539.686V522.312H847.185L845.013 529.962L834.282 530.319L831.493 520.691L814.439 520.821V558.843L804.713 574.856L805.556 585.294H865.698L855.875 573.106V559.524H867.871L867.482 544.387ZM747.553 449.769L743.079 422.411H728.813V455.182L747.553 449.769ZM812.656 470.255L820.373 495.149H805.264V508.601L811.197 516.51L825.592 509.93L840.733 484.809L843.133 466.073H828.089L826.63 470.255H812.656ZM953.367 401.244L962.283 415.344L965.688 412.492L943.09 373.692L931.418 401.244H953.367ZM682.385 442.832L691.203 434.501L682.158 424.323L673.371 433.14L682.385 442.832ZM964.65 424.55L970.324 420.466L965.688 412.492L958.912 418.164L964.65 424.55ZM922.696 551.161V559.524L930.023 564.419V574.856L923.053 580.95V568.73L916.082 563.025L915.888 563.155L902.724 572.328L915.888 580.95V593.008L907.652 612.262V633.591L913.618 633.494L914.007 630.609L926.36 621.987L925.452 596.023L954.437 572.263L951.552 545.164L922.696 551.161ZM970.324 420.466L964.65 424.55L970.421 431.033L993.408 439.169L957.517 469.055V495.052L1013.77 429.639L1011.47 418.164L972.367 423.967L970.324 420.466ZM826.987 645.682H848.58V590.48H877.241L873.512 585.294H805.556L826.987 645.682ZM933.914 456.738L924.058 458.132L926.879 470.255L925.484 480.53L921.075 488.309L948.05 506.105L957.517 495.052V469.055L967.957 460.336H937.351L933.914 456.738ZM921.075 488.309L919.389 491.259H909.695L912.191 486.98H907.782L897.861 511.551L915.888 536.931H922.696V551.161L951.552 545.164L948.05 506.105L921.075 488.309ZM700.249 334.341H684.233V352.72L678.332 361.666H658.555L657.841 382.314L682.158 399.785V393.529H711.402L708.614 343.676H724.014L700.249 326.14V334.341ZM903.762 496.964L907.782 486.98H899.223L896.499 498.488L903.762 496.964ZM897.861 511.551L903.762 496.964L896.499 498.488L894.521 506.818L897.861 511.551ZM664.001 423.027L673.371 433.14L682.158 424.323L691.203 434.501L697.461 441.568L701.838 437.743V424.323L699.73 414.761H671.88L664.001 423.027ZM711.402 393.529H682.158V399.785L688.772 414.761H699.73L701.838 424.323L715.325 426.981V413.464L767.103 392.492V375.41L724.014 343.676H708.614L711.402 393.529ZM891.377 548.049L901.816 552.231L898.185 559.524L867.482 544.387L867.871 559.524H855.875V573.106L865.698 585.294H884.082L915.888 563.155V536.931L911.9 531.323L894.521 533.949L891.377 548.049ZM848.58 626.006L857.269 636.022L892.738 612.262L877.241 590.48H848.58V626.006ZM715.325 426.981L728.813 429.639V422.411H743.079L759.646 416.317L743.824 401.925L715.325 413.464V426.981ZM915.888 536.931V563.155L916.082 563.025L923.053 568.73V580.95L930.023 574.856V564.419L922.696 559.524V536.931H915.888ZM962.283 415.344L953.367 401.244H931.418L915.888 437.905L937.351 460.336H967.957L993.408 439.169L970.421 431.033L958.912 418.164L962.283 415.344ZM899.223 486.98H912.191L915.888 480.53H925.484L926.879 470.255L924.058 458.132L905.48 460.725L899.223 486.98ZM767.103 375.41V392.492L743.824 401.925L759.679 416.317L763.829 414.793L765.417 407.079H816.158L827.603 383.611L823.096 352.72H800.53L767.103 375.41ZM658.587 361.666H678.332L684.265 352.72V334.341H700.282V323.193H682.644L658.846 354.178L658.587 361.666ZM657.128 402.411L673.112 407.079H656.966L656.674 414.761H688.772L682.158 399.785L657.841 382.314L657.128 402.411ZM673.112 407.079L657.128 402.411L656.966 407.079H673.112ZM827.57 383.611L816.158 407.079L825.592 427.111H817.941L821.767 438.424L859.636 420.531V401.05L868.065 392.751L868.908 373.821L836.032 352.72H823.096L827.57 383.611ZM827.667 306.853L820.762 298.484L805.945 294.928L792.165 309.744L801.114 352.726H836.032L868.908 373.828L872.118 301.09L852.989 298.497L845.078 310.331L827.667 306.853ZM697.493 323.183H700.282V320.814L739.966 299.158V283.618L710.721 286.665L682.644 323.196L697.493 323.183ZM739.966 283.638V299.177L700.282 320.833V326.149L767.103 375.419L800.53 352.729H801.114L784.806 274.383L765.612 273.829L739.966 283.638ZM784.806 274.37L792.165 309.767L805.945 294.95L800.53 293.654L801.211 274.853L784.806 274.37ZM873.512 585.29L892.738 612.259H907.652L915.888 593.005V580.947L902.724 572.325L884.082 585.29H873.512ZM882.331 658.742H889.982L894.521 654.009V647.948H888.264L882.331 651.773V658.742ZM907.652 631.611H901.816V636.959L907.652 640.46V631.611ZM923.345 316.996L923.442 316.723L917.638 307.268L872.118 301.083L869.686 356.253H919.584L929.635 350.515L908.949 314.989L920.265 324.211L923.345 316.996ZM929.635 350.545L919.584 356.282H869.654L868.065 392.748L859.636 401.046V420.527L889.496 454.887L905.48 460.721L933.882 456.734L915.888 437.902L931.418 401.241L943.09 373.689L929.635 350.545ZM894.521 506.815L905.48 460.721L889.496 454.887L844.397 456.151L840.733 484.805L825.592 509.927L811.197 516.507L814.439 520.818L831.493 520.688L834.282 530.315L845.013 529.959L847.185 522.309H857.95V539.683L898.185 559.521L901.816 552.228L891.377 548.046L894.521 533.946L911.9 531.32L894.521 506.815ZM818.265 452.326L828.024 466.07H843.133L844.397 456.151L889.496 454.887L859.636 420.527L821.767 438.42L818.265 452.326ZM763.829 414.79L749.693 419.976L754.329 447.82L757.182 447.01L763.829 414.79ZM749.693 419.976L743.079 422.408L747.553 449.765L754.329 447.82L749.693 419.976ZM664.001 423.023L671.88 414.758H656.707L656.674 415.114L664.001 423.023ZM222.09 97.906L210.256 93.0308L148.298 93.3809L123.236 103.475V114.612L95.0415 114.266L89.6919 121.731L113.486 120.875L82.8541 132.363L68.0535 152.411L80.7661 152.2L56.3945 168.21L65.3041 168.907L111.959 146.635L165.812 144.755L182.172 161.114L188.352 154.463L182.954 148.891H176.865L170.919 142.077L222.113 97.8962L222.09 97.906ZM181.595 201.503L173.065 194.54L169.408 197.675L175.354 205.448H181.595V201.503ZM508.408 212.281L502.021 202.109L496.25 200.731V193.435L477.672 212.281H508.408ZM498.682 94.5511L461.267 79.2741L455.69 79.2158L442.689 89.8931L447.034 79.1509L440.744 79.1023L425.603 95.1961L462.402 93.1961L484.87 113.296L469.762 113.037L462.142 119.277H444.991V124.178H462.402L477.154 136.375L481.174 134.619L477.672 126.872L487.821 131.701L491.128 130.265V115.125L502.799 119.277L509.511 114.8L505.717 107.718L498.974 105.261L498.682 94.5511ZM372.69 231.113H383.487L390.976 225.985H415.163L425.603 216.935H435.005L431.601 227.645L448.298 224.767L437.34 229.985L438.377 234.514L468.14 224.06L453.615 223.37L446.839 217.266L453.551 206.861L450.276 203.736L429.234 213.282V207.801L449.368 198.141L481.628 196.751L505.88 183.847L506.009 177.957L488.339 174.897L486.199 146.016L463.083 155.111L463.245 141.523L452.092 132.038H436.951L396.002 191.616L386.08 191.649L386.275 172.054L351 152.913L386.275 126.81L406.279 123.16L402.097 116.975L432.898 113.582L445.445 100.532L433.676 99.2285L417.497 109.928L419.313 100.794L411.759 100.01L409.975 88.9725L396.877 94.7877L400.281 101.838L382.773 110.188L352.232 104.447L336.086 112.016L296.888 96.3566L221.96 97.9222L170.766 142.103L176.712 148.917H182.801L188.2 154.489L182.02 161.14L175.753 189.814L186.98 199.995V205.477H312.842L327.627 212.222L352.657 206.909L355.802 218.005L360.859 221.739L369.354 221.139L372.69 231.113ZM417.854 119.283L408.257 127.086L427.224 129.092L429.234 124.184L417.854 119.283ZM380.828 99.4359L384.362 103.997L393.311 99.4359L390.652 95.2026L380.828 99.4359ZM387.604 84.1168L393.311 89.8996L405.566 85.8089L408.776 77.245L387.604 84.1168ZM410.98 80.6744L412.537 86.1557L429.234 81.7182L425.862 77.245L410.98 80.6744ZM453.551 69.3196L444.408 65.5336L435.524 73.1024L471.545 75.9387L480.947 69.3196H453.551ZM541.252 49.0897L560.057 38.4805L485.389 44.0169V48.046L510.581 47.5241L507.047 52.2242L480.947 52.7428L484.351 58.7493L473.101 56.9211L477.543 62.6617H458.219L461.105 65.5336H482.244L485.648 68.4055L516.449 54.0492L541.252 49.0897ZM449.887 53.4462L463.796 56.0751L471.772 50.9698L466.001 46.6619L449.887 53.4462ZM302.983 89.9126L335.664 78.7976L328.142 75.3131L297.244 83.1801L302.983 89.9126ZM339.879 80.8268L322.271 86.8137L332.649 91.1832L316.461 95.3063L336.572 103.138L350.416 97.1313L365.817 100.788L377.359 98.1394L366.076 92.9303L374.765 81.7149H366.076L360.856 88.4636L358.749 81.7149L349.541 85.287L339.879 80.8268ZM314.373 355.799H330.412L343.348 364.421L338.42 369.899H360.856L334.043 350.58H319.855L314.373 355.799ZM336.831 379.818L340.203 382.703H349.865V379.299L346.493 375.896H336.831V379.818ZM396.326 377.16L394.348 380.434H399.763L401.74 377.16H396.326ZM277.045 391.163H267.909L263.571 398.878L276.507 405.393L285.271 389.575L283.572 381.147H275.742L277.045 391.163ZM287.229 403.967L285.657 409.51L288.01 410.579L309.62 392.492L283.578 392.751L279.283 400.434L287.229 403.967ZM285.657 409.51L287.229 403.967L279.283 400.434L276.507 405.393L285.657 409.51ZM293.756 373.562L283.572 381.147L285.271 389.575L293.756 373.562ZM296.233 421.665L310.32 423.156L309.62 392.492L288.01 410.579L296.233 421.665ZM318.928 507.045L330.454 512.555L351.01 487.337L330.065 475.376L320.128 487.888L318.928 507.045ZM361.271 417.775L355.695 417.743L344.055 433.464L338.122 433.853L339.808 439.558L336.695 443.966L339.095 451.94L336.825 466.819L330.049 475.376L377.904 502.701V472.037L389.024 471.292V446.948L370.771 445.068L362.827 436.284L361.271 417.775ZM437.268 789.894L444.401 796.442L466.383 797.252L442.65 784.87L437.268 789.894ZM471.052 631.873L461.455 637.708H448.551V626.233L422.192 608.405L420.701 611.128H398.719L392.818 665.909L405.235 720.203L416.453 740.17L416.972 755.146L433.637 780.656L439.7 781.272L436.555 716.021L471.895 700.722L455.878 678.42V653.883L471.473 637.87L471.052 631.873ZM474.943 685.422L482.594 672.164L455.878 653.883V678.42L474.943 685.422ZM400.534 426.463L388.7 418.035L361.271 417.775L362.827 436.284L370.771 445.068L389.024 446.948V471.292L391.942 471.097L395.638 479.363L407.505 475.538L406.532 462.702L422.419 456.867L427.12 433.659L421.771 428.537L400.534 426.463ZM296.2 421.665L305.58 434.339L308.965 435.539L313.718 429.38L310.388 427.532L310.288 423.156L296.2 421.665ZM443.655 449.412L427.088 433.659L422.387 456.867L429.292 454.339L428.352 474.144L444.206 472.362L438.792 458.488L443.655 449.412ZM402.674 545.002L386.495 549.573V586.558L398.686 611.128H420.668L429.228 595.439L445.795 595.342L445.406 582.96L417.199 559.913L402.674 545.002ZM458.44 470.806L469.074 469.606L472.219 460.692L468.037 451.519L459.153 450.773L458.44 470.806ZM445.795 595.342L429.228 595.439L422.16 608.405L448.519 626.233V637.708H461.423L471.019 631.873L470.371 622.797L446.249 609.929L445.795 595.342ZM444.206 472.362L458.44 470.806L459.153 450.773L443.655 449.412L438.792 458.488L444.206 472.362ZM510.834 492.232L498.773 487.013L486.712 494.079L490.635 483.512L482.627 480.044L471.246 488.796L479.514 476.608L472.219 460.692L469.074 469.606L428.352 474.144L429.292 454.339L422.387 456.867L406.5 462.702L407.472 475.538L395.606 479.363L391.91 471.097L377.871 472.037V508.244L363.606 509.995L357.316 530.513L381.178 551.064L402.674 545.002L417.199 559.913L445.406 582.96L446.249 609.929L470.371 622.797L471.441 637.87L455.846 653.883L482.562 672.164L498.124 645.034L501.788 621.533L539.592 604.807L546.628 552.555L562.936 531.226V518.325L536.252 500.951L510.153 499.363L510.834 492.232ZM324.018 428.926L319.589 432.621L313.715 429.38L308.962 435.539L322.945 440.53L326.333 435.474L334.341 436.252L336.676 443.966L339.788 439.558L338.329 434.21L336.579 427.824L324.018 428.926ZM363.606 509.995L377.871 508.244V502.701L350.961 487.337L330.405 512.555L318.879 507.045L318.51 512.944L353.526 572.555L383.775 592.814L386.499 586.558V549.573L381.181 551.064L357.319 530.513L363.606 509.995ZM405.203 720.203L392.785 665.909L398.686 611.128L386.495 586.558L383.772 592.814L388.862 716.799L402.253 727.626L402.869 749.862L426.083 779.878L433.605 780.656L416.94 755.146L416.421 740.17L405.203 720.203ZM388.992 372.719L373.202 370.969V379.688L378.487 375.766H386.917L388.992 372.719ZM373.202 377.549V370.969H363.346L366.556 375.507H360.817V377.549H373.202Z" fill="#6FC2CD"/>
<path d="M383.649 231.269L391.138 226.141H415.325L425.765 217.091L425.758 217.11H435.161L431.756 227.83L425.758 228.867L337.7 304.133L337.473 337.974L328.849 337.747L325.25 310.558L270.846 310.386L247.963 339.109L235.681 314.992L220.8 315.514L213.742 304.811L160.829 298.01L145.701 282.883V249.301L187.136 205.606H312.966L327.721 212.355L324.803 218.66H331.936L338.031 215.7L342.894 218.66L353.172 219.01L354.048 221.937L338.453 225.272L325.224 246.679H332.098L343.77 229.45L350.06 225.272H355.442L354.048 237.282L361.018 236.585L367.859 231.269H383.649ZM383.649 231.269H389.42L381.379 236.753H375.641L383.649 231.269ZM1302.68 221.775L1304.08 213.943L1289.45 211.593L1283.88 202.456M1302.68 221.775L1281.64 226.173L1273.79 242.134M1302.68 221.775L1281.67 226.173L1273.79 242.134M1283.88 202.456H1256.03L1199.09 188.362L1192.84 202.456L1169.69 195.409L1152.41 208.569M1283.88 202.456L1294.32 200.355L1288.77 180.689H1313.12L1338.18 205.23L1372.29 213.93V241.428L1351.7 255.606L1340.97 262.987L1333.32 248.387L1322.17 258.134L1330.92 272.51L1335.4 269.615H1349.34L1337.21 282.837L1360.81 321.67L1347.59 351.271L1307.12 365.728L1306.86 359.083L1300.02 362.972L1283.88 349.164L1259.17 361.676L1245.07 338.175L1248.73 328.256L1222.08 316.788L1209.57 328.256L1141.67 304.782L1140.64 283.897L1114.7 272.066L1107.73 255.016L1132.11 245.962L1128.06 227.126L1152.41 208.569M1152.41 208.569L1208.69 241.437L1273.79 242.134M1396.61 532.377L1400.14 537.239M1396.61 532.377H1410.06V536.04L1400.14 537.239M1396.61 532.377L1388.53 541.388L1394.66 542.166L1400.14 537.239M1371.87 263.547L1385.88 275.006L1384.16 286.669L1374.04 287.365L1365.68 269.265M1371.87 263.547L1365.68 269.265M1371.87 263.547L1365.68 258.478L1373.69 257.434L1372.29 241.424L1351.7 255.602L1357.73 267.045L1365.68 269.265M1268.61 448.245L1273.08 462.767L1291.5 478.455L1292.92 472.88L1275.54 447.208M1268.61 448.245L1275.54 447.208M1268.61 448.245L1267.5 444.68L1256.03 434.955L1256.42 428.537M1275.54 447.208L1264.39 430.774L1266.98 405.361L1279.53 417.775M1259.17 361.666L1245.07 338.165L1248.7 328.247L1240.53 324.746M1259.17 361.666V367.176M1259.17 361.666L1266.27 358.068M1240.53 324.746L1229.57 332.623M1240.53 324.746L1222.08 316.778L1209.57 328.247M1229.57 332.623L1224.41 368.246M1229.57 332.623L1225.58 360.143M1224.41 368.246L1232.55 375.053L1235.67 391.325L1241.4 393.043L1245.52 387.889L1253.17 396.512L1257.42 412.265L1256.42 428.537M1224.41 368.246L1206.32 353.076L1202.27 356.998M1224.41 368.246L1225.58 360.143M1256.42 428.537L1263 415.636L1251.16 372.979L1259.17 367.176M1259.17 367.176L1266.11 371.228V381.698H1282.84L1292.31 394.567M1292.31 394.567L1283.46 403.448M1292.31 394.567L1279.53 407.37M1283.46 403.448H1303.3M1283.46 403.448L1279.53 407.37M1303.3 403.448V398.392M1303.3 403.448V415.182M1303.3 398.392L1283.97 377.841L1279.69 364.616L1266.27 358.068M1303.3 398.392V415.182M1266.27 358.068L1283.88 349.154L1300.02 362.963L1292.57 367.176L1291.53 379.267L1312.44 401.341L1313.12 421.017L1293.08 434.242L1292.83 423.027M1279.53 417.775V407.37M1279.53 417.775L1285.79 423.999L1292.83 423.027M1292.83 423.027L1303.3 415.182M1202.27 356.998L1195.98 337.128L1200.42 335.054L1206.94 343.741L1214.53 340.629L1216.08 351.261L1225.58 360.143M1202.27 356.998L1164.11 393.854L1161.52 424.323L1144.79 434.599L1118.43 358.814L1115.19 358.781L1113.73 365.588L1105.52 364.616L1100.95 358.684L1105.78 353.724L1095.44 350.451L1094.37 349.186M1197.5 324.098L1195.98 330.969L1206.94 333.692L1209.57 328.247M1197.5 324.098L1194.36 323.008M1197.5 324.098L1209.57 328.247M1194.36 323.008L1187.65 333.692L1150.78 319.735L1150.88 307.962M1194.36 323.008L1150.88 307.962M1150.88 307.962L1141.67 304.772L1140.64 283.887L1132.6 280.225M1132.6 280.225H1125.17L1114.15 288.056L1113.86 294.724L1120.53 298.506L1123.71 311.54L1109.22 324.876H1099.95V334.73L1106.89 337.355V345.848L1094.37 349.186M1132.6 280.225L1117.13 273.161L1100.66 275.537L1095.44 298.156L1076.41 315.748L1055.98 315.543L1057.6 320.172L1064.9 329.316L1058.32 340.629H1086.85L1094.37 349.186M1051.31 281.019L1045.83 272.147L1024.44 265.359L1011.79 269.573L1011.56 275.204L995.451 275.194L986.567 259.521M1051.31 281.019L1047.16 289.897M1051.31 281.019L1071.71 270.578L1082.7 273.518M986.567 259.521L965.331 261.619M986.567 259.521L976.419 260.523M986.567 259.521L979.499 247.071L971.848 245.178M965.331 261.619V267.884L991.106 311.612L998.758 312.344L1016.53 330.875L1049.24 340.632H1058.32L1064.9 329.32L1057.6 320.175L1047.16 289.897M965.331 261.619L976.419 260.523M965.331 261.619L960.857 252.005M1047.16 289.897L1055.98 315.547L1076.41 315.751L1095.44 298.159L1100.66 275.541M1100.66 275.541L1097.29 266.011L1082.7 273.518M1100.66 275.541L1117.13 273.165L1114.7 272.059L1109.9 260.29M1082.7 273.518L1077.71 258.834L1082.8 257.369M1082.8 257.369L1095.89 261.619L1109.9 260.29M1082.8 257.369L1093.3 254.361L1094.18 247.723L1081.73 248.274L1092.07 239.778L1116.48 238.718L1132.11 245.956L1107.73 255.009L1109.9 260.29M967.082 252.005L976.419 260.523M967.082 252.005L971.848 245.178M967.082 252.005H960.857M971.848 245.178L954.178 237.168L947.013 238.718V248.481L960.857 252.005M856.134 156.327L859.798 155.461L867.255 159.639L872.377 158.083M856.134 156.327L857.074 157.03L856.037 161.73L845.759 157.03L845.791 163.13M856.134 156.327L851.725 153.007L852.957 149.876L867.871 149.539L870.789 146.8L872.377 158.083M845.791 163.13L859.798 166.702L869.881 171.315M845.791 163.13L845.824 170.103L853.638 172.706L855.777 177.127L857.463 181.843M869.881 171.315L873.771 167.989M869.881 171.315L857.463 181.843M873.771 167.989L872.377 158.083M873.771 167.989H885.508L894.554 182.673L889.334 186.002L898.023 189.535L883.433 192.718L860.057 188.991L857.463 181.843M873.771 167.989L857.463 181.843M850.039 115.458H845.856L824.685 138.593L834.087 150.262L813.985 168.057L801.665 153.876L806.172 146.819V125.462L838.918 101.449H844.268L850.039 115.458ZM850.039 115.458L844.3 101.449H857.074V95.4554L866.541 94.9757L883.433 132.771L873.253 144.518H855.129L843.23 138.515L853.41 115.458H850.039ZM830.812 211.01L822.739 217.626L834.476 221.985L846.991 219.827L856.912 209.396H852.989V206.929M830.812 211.01L852.989 206.929M830.812 211.01L824.814 205.337M852.989 206.929V203.496L832.887 201.055L832.044 200.725M824.814 205.337L832.044 200.725M824.814 205.337H810.03L805.264 199.072L817.909 195.156L832.044 200.725M882.169 223.749L887.648 215.162L884.6 209.386H875.23M882.169 223.749L875.23 209.386M882.169 223.749L886.967 225.755L884.373 233.781L878.051 232.04L855.875 234.565L846.991 219.817L856.912 209.386H875.23M817.909 195.146L816.579 177.12L817.909 177.137L832.887 173.484L835.254 175.652L845.694 175.309L855.615 177.137L857.301 181.853L859.895 189L861.354 193.059L852.989 203.486L832.887 201.046L832.077 200.715L817.909 195.146ZM817.909 195.146L805.264 199.062L810.03 205.328L813.564 210.028L803.221 213.062L801.989 213.422H787.724L783.736 215.259L786.167 203.486L780.04 200.287L780.947 182.832L791.063 176.774L789.701 173.484M817.909 195.146L816.547 177.12L797.32 176.9L796.445 173.484M796.445 173.484H789.701M796.445 173.484L796.088 172.038L798.293 159.649L792.23 159.565L787.918 169.283L789.701 173.484M781.337 226.974L782.471 221.441L789.669 221.956L808.539 217.596L813.791 227.369L804.81 227.908L836.454 255.288L830.553 256.471L829.062 264.387L824.296 267.171L822.966 256.16L797.029 230.284H788.599M781.337 226.974L788.599 230.284M781.337 226.974L786.167 203.467L764.931 192.391M788.599 230.284H787.983L787.302 240.024L763.958 239.856L759.03 246.225L743.079 236.024L741.652 216.955L730.888 211.14V207.311H740.031L764.931 192.391M764.931 192.391L770.864 188.848M764.931 192.391L776.83 198.595M770.864 188.848L780.364 193.889M770.864 188.848L780.947 182.813L780.364 193.889M776.83 198.595L780.234 196.76L780.364 193.889M776.83 198.595L780.04 200.268L780.202 196.76L776.83 198.595ZM718.016 171.373L727.548 172.018V177.247L723.496 178.683M718.016 171.373L723.496 178.683M718.016 171.373L708.355 178.456V192.728L713.834 192.692V187.821L724.274 189.257L723.496 178.683M847.769 254.18L862.262 249.492M847.769 254.18L846.991 244.04M847.769 254.18L842.387 255.917L841.577 254.97L838.659 242.39M862.262 249.492L858.922 241.706L846.991 244.04M862.262 249.492L881.261 243.35L884.373 233.775L878.051 232.034L855.875 234.559L862.262 249.492ZM846.991 244.04L843.846 239.632M841.252 236.027L838.594 221.246L846.991 219.801L855.875 234.549L858.922 241.697L846.991 244.031L841.252 236.027ZM841.252 236.027L834.346 241.314L830.748 240.423L824.555 227.152L839.307 225.156L841.252 236.027ZM875.328 251.995H885.281L881.261 243.34L875.23 245.288M875.328 251.995L875.23 245.288M875.328 251.995H867.093L857.107 256.909L862.132 267.875L857.625 275.006L850.46 266.001L855.875 263.706L846.991 261.223L842.387 255.907L875.23 245.288M838.659 242.39L843.846 239.632M838.659 242.39L834.346 241.324L841.252 236.037L843.846 239.632M991.106 320.976L1002.62 339.776L1011.82 345.854M991.106 320.976H986.081M991.106 320.976L985.011 311.057H979.273M986.081 320.976L982.482 316.312L972.658 316.279M986.081 320.976L982.515 316.312L977.943 316.295M972.658 316.279L941.566 300.03L936.443 302.182L934.465 313.929L927.916 316.976L923.572 316.454L964.131 386.923L964.942 389.549M972.658 316.279L941.89 300.198L940.334 293.68L948.828 288.61L953.497 270.293L965.169 267.91L990.588 310.989L979.273 311.057M972.658 316.279L977.943 316.295M964.942 389.549L969.157 382.32L983.552 384.136L982.223 389.614L1002.62 378.917M964.942 389.549L972.14 413.017L1024.92 389.225M1002.62 378.917L1031.31 371.235M1002.62 378.917L1016.88 375.092M1031.31 371.235V356.292M1031.31 371.235L1016.88 375.092M1031.31 356.292L1016.36 354.185M1031.31 356.292L1024.79 355.384M1016.36 354.185L1011.82 345.854M1016.36 354.185L1024.79 355.384M1011.82 345.854L1022.72 347.994L1031.31 338.334L1036.79 343.196M977.943 316.295L979.273 311.057M1024.79 355.384L1036.79 343.196M1036.79 343.196L1051.51 356.292L1024.92 389.225M1016.88 375.092V383.779L1024.92 389.225M923.572 295.514L928.305 286.759L923.15 284.973L921.27 293.881M923.572 295.514L921.27 293.881M923.572 295.514V316.432L923.442 316.739L917.638 307.284L921.27 293.881M821.767 438.424L817.941 427.111H825.592L816.158 407.079M821.767 438.424L818.265 452.329L828.024 466.073H828.089M821.767 438.424L859.636 420.531V401.05L868.065 392.751L868.908 373.821L836.032 352.72H823.096M816.158 407.079V418.164L802.605 446.235L790.771 446.916L789.118 458.456M816.158 407.079H765.417M816.158 407.079L827.603 383.611L823.096 352.72M816.158 407.079L827.57 383.611L823.096 352.72M789.118 458.456H794.24L793.981 470.255H826.63M789.118 458.456H774.398L772.323 449.218L757.182 447.013L765.417 407.079M826.63 470.255L828.089 466.073M826.63 470.255H812.656M828.089 466.073H843.133L840.733 484.809L825.592 509.93L811.197 516.51L805.264 508.601M793.787 478.844H802.962V470.255M793.787 478.844L793.495 492.88L805.264 508.601M793.787 478.844L794.013 470.255H802.962M805.264 508.601V495.149H820.373L812.656 470.255M812.656 470.255H802.962M765.417 407.079L763.829 414.793L759.679 416.317L743.824 401.925M697.461 441.568L701.189 445.749M697.461 441.568L701.838 437.743V424.323M697.461 441.568L691.203 434.501M701.189 445.749V463.156M701.189 445.749L691.203 434.501M701.189 463.156L728.813 455.182M701.189 463.156L682.352 442.832L691.203 434.501M728.813 455.182V429.639M728.813 455.182V422.411M728.813 455.182L747.553 449.769L743.079 422.411M728.813 429.639L701.838 424.323M728.813 429.639L715.325 426.981M728.813 429.639V422.411M701.838 424.323L699.73 414.761M701.838 424.323L715.325 426.981M691.203 434.501L682.385 442.832L673.371 433.14M691.203 434.501L682.158 424.323L673.371 433.14M867.482 544.387L857.95 539.686V522.312H847.185L845.013 529.962L834.282 530.319L831.493 520.691L814.439 520.821V558.843L804.713 574.856L805.556 585.294M867.482 544.387L867.871 559.524H855.875V573.106L865.698 585.294M867.482 544.387L898.185 559.524L901.816 552.231L891.377 548.049L894.521 533.949L911.9 531.323L915.888 536.931M805.556 585.294H865.698M805.556 585.294H873.512L877.241 590.48M805.556 585.294L826.987 645.682H848.58V590.48M865.698 585.294H884.082L915.888 563.155M743.079 422.411H728.813M743.079 422.411L759.646 416.317L743.824 401.925M962.283 415.344L953.367 401.244H931.418M962.283 415.344L965.688 412.492M962.283 415.344L958.912 418.164M965.688 412.492L943.09 373.692L931.418 401.244M965.688 412.492L970.324 420.466M965.688 412.492L958.912 418.164M931.418 401.244L915.888 437.905L937.351 460.336M673.371 433.14L664.001 423.027L671.88 414.761H699.73M964.65 424.55L970.324 420.466M964.65 424.55L958.912 418.164M964.65 424.55L970.421 431.033M970.324 420.466L972.367 423.967L1011.47 418.164L1013.77 429.639L957.517 495.052M958.912 418.164L970.421 431.033M922.696 551.161V559.524M922.696 551.161L951.552 545.164M922.696 551.161V536.931M922.696 559.524L930.023 564.419V574.856L923.053 580.95V568.73L916.082 563.025L915.888 563.155M922.696 559.524V536.931M915.888 563.155L902.724 572.328L915.888 580.95V593.008L907.652 612.262V633.591L913.618 633.494L914.007 630.609L926.36 621.987L925.452 596.023L954.437 572.263L951.552 545.164M915.888 563.155V536.931M951.552 545.164L948.05 506.105M970.421 431.033L993.408 439.169M993.408 439.169L957.517 469.055M993.408 439.169L967.957 460.336M957.517 469.055V495.052M957.517 469.055L967.957 460.336M957.517 495.052L948.05 506.105M848.58 590.48H877.241M848.58 590.48V626.006L857.269 636.022L892.738 612.262L877.241 590.48M924.058 458.132L933.914 456.738L937.351 460.336M924.058 458.132L926.879 470.255L925.484 480.53M924.058 458.132L905.48 460.725L899.223 486.98M925.484 480.53L921.075 488.309M925.484 480.53H915.888L912.191 486.98M921.075 488.309L948.05 506.105M921.075 488.309L919.389 491.259H909.695L912.191 486.98M967.957 460.336H937.351M912.191 486.98H907.782M912.191 486.98H899.223M907.782 486.98L897.861 511.551M907.782 486.98L903.762 496.964M907.782 486.98H899.223M897.861 511.551L915.888 536.931M897.861 511.551L903.762 496.964M897.861 511.551L894.521 506.818L896.499 498.488M915.888 536.931H922.696M678.332 361.666L684.233 352.72V334.341H700.249V326.14L724.014 343.676M678.332 361.666H658.555L657.841 382.314M678.332 361.666H658.587L658.846 354.178L682.644 323.193H700.282V334.341H684.265V352.72L678.332 361.666ZM657.841 382.314L682.158 399.785M657.841 382.314L657.128 402.411M682.158 399.785V393.529H711.402L708.614 343.676H724.014M682.158 399.785L688.772 414.761M724.014 343.676L767.103 375.41M903.762 496.964L896.499 498.488M899.223 486.98L896.499 498.488M699.73 414.761H688.772M688.772 414.761H656.674L656.966 407.079M715.325 426.981V413.464M715.325 413.464L767.103 392.492M715.325 413.464L743.824 401.925M767.103 392.492V375.41M767.103 392.492L743.824 401.925M767.103 375.41L800.53 352.72H823.096M657.128 402.411L673.112 407.079H656.966M657.128 402.411L656.966 407.079M859.636 420.527V401.046L868.065 392.748L869.654 356.282H919.584L929.635 350.545L943.09 373.689L931.418 401.241L915.888 437.902L933.882 456.734L905.48 460.721M859.636 420.527L889.496 454.887M859.636 420.527L821.767 438.42L818.265 452.326L828.024 466.07H843.133L844.397 456.151M889.496 454.887L905.48 460.721M889.496 454.887L844.397 456.151M905.48 460.721L894.521 506.815L911.9 531.32L894.521 533.946L891.377 548.046L901.816 552.228L898.185 559.521L857.95 539.683V522.309H847.185L845.013 529.959L834.282 530.315L831.493 520.688L814.439 520.818L811.197 516.507L825.592 509.927L840.733 484.805L844.397 456.151M749.693 419.976L763.829 414.79L757.182 447.01L754.329 447.82M749.693 419.976L754.329 447.82M749.693 419.976L743.079 422.408L747.553 449.765L754.329 447.82M276.507 405.393L263.571 398.878L267.909 391.163H277.045L275.742 381.147H283.572M276.507 405.393L285.271 389.575M276.507 405.393L279.283 400.434M276.507 405.393L285.657 409.51M285.271 389.575L283.572 381.147M285.271 389.575L293.756 373.562L283.572 381.147M285.657 409.51L287.229 403.967L279.283 400.434M285.657 409.51L288.01 410.579M288.01 410.579L309.62 392.492M288.01 410.579L296.233 421.665L310.32 423.156L309.62 392.492M309.62 392.492L283.578 392.751L279.283 400.434M361.271 417.775L355.695 417.743L344.055 433.464L338.122 433.853L339.808 439.558L336.695 443.966L339.095 451.94L336.825 466.819L330.049 475.376L377.904 502.701V472.037L389.024 471.292M361.271 417.775L362.827 436.284L370.771 445.068L389.024 446.948V471.292M361.271 417.775L388.7 418.035L400.534 426.463L421.771 428.537L427.12 433.659L422.419 456.867L406.532 462.702L407.505 475.538L395.638 479.363L391.942 471.097L389.024 471.292M455.878 678.42L471.895 700.722L436.555 716.021L439.7 781.272L433.637 780.656L416.972 755.146L416.453 740.17L405.235 720.203L392.818 665.909L398.719 611.128H420.701L422.192 608.405L448.551 626.233V637.708H461.455L471.052 631.873L471.473 637.87L455.878 653.883M455.878 678.42V653.883M455.878 678.42L474.943 685.422L482.594 672.164L455.878 653.883M443.655 449.412L427.088 433.659L422.387 456.867M443.655 449.412L438.792 458.488L444.206 472.362M443.655 449.412L459.153 450.773M422.387 456.867L429.292 454.339L428.352 474.144M422.387 456.867L406.5 462.702L407.472 475.538L395.606 479.363L391.91 471.097L377.871 472.037V508.244M428.352 474.144L444.206 472.362M428.352 474.144L469.074 469.606M444.206 472.362L458.44 470.806M402.674 545.002L386.495 549.573V586.558M402.674 545.002L417.199 559.913L445.406 582.96M402.674 545.002L381.178 551.064L357.316 530.513L363.606 509.995M386.495 586.558L398.686 611.128M386.495 586.558L383.772 592.814L388.862 716.799L402.253 727.626L402.869 749.862L426.083 779.878L433.605 780.656L416.94 755.146L416.421 740.17L405.203 720.203L392.785 665.909L398.686 611.128M398.686 611.128H420.668L429.228 595.439M429.228 595.439L445.795 595.342M429.228 595.439L422.16 608.405L448.519 626.233V637.708H461.423L471.019 631.873L470.371 622.797M445.795 595.342L445.406 582.96M445.795 595.342L446.249 609.929M445.406 582.96L446.249 609.929M458.44 470.806L469.074 469.606M458.44 470.806L459.153 450.773M469.074 469.606L472.219 460.692M472.219 460.692L468.037 451.519L459.153 450.773M472.219 460.692L479.514 476.608L471.246 488.796L482.627 480.044L490.635 483.512L486.712 494.079L498.773 487.013L510.834 492.232L510.153 499.363L536.252 500.951L562.936 518.325V531.226L546.628 552.555L539.592 604.807L501.788 621.533L498.124 645.034L482.562 672.164L455.846 653.883L471.441 637.87L470.371 622.797M470.371 622.797L446.249 609.929M377.871 508.244L363.606 509.995M377.871 508.244V502.701L350.961 487.337L330.405 512.555L318.879 507.045L318.51 512.944L353.526 572.555L383.775 592.814L386.499 586.558V549.573L381.181 551.064L357.319 530.513L363.606 509.995M373.202 370.969L388.992 372.719L386.917 375.766H378.487L373.202 379.688V370.969ZM373.202 370.969V377.549H360.817V375.507H366.556L363.346 370.969H373.202ZM894.521 654.126L889.982 658.858H882.331V651.889L888.264 648.064H894.521V654.126ZM907.652 633.705V640.577L901.816 637.076V631.727H907.652V612.376H892.738L857.269 636.136L848.547 626.12V645.795H826.987L839.501 680.057H880.58L912.191 643.494L913.618 633.607L907.652 633.705ZM351.292 246.676L359.462 241.103H369.318L361.18 246.676H351.292ZM477.835 212.439H508.571L502.183 202.268L496.412 200.89V193.594L477.835 212.439ZM249.973 376.975L238.116 351.433L247.96 339.083L235.681 314.96L220.8 315.482L213.742 304.782L160.829 297.981L160.929 298.085L163.183 321.903L179.459 352.697L186.128 347.543L173.292 320.182V304.782H180.862L181.157 319.106L205.474 376.22L245.126 392.751L255.021 390.126L263.73 399.008L268.068 391.293H277.204L275.901 381.277H283.731L293.915 373.692L294.346 362.638L283.209 362.444L274.354 376.966L249.973 376.975ZM688.966 129.361L703.686 122.201V120.184L696.391 112.787L686.178 116.178L673.923 115.919L671.329 119.452L664.358 119.29V125.838L688.966 129.361ZM819.983 284.789L820.016 277.839L812.137 277.631L812.073 282.753L819.983 284.789ZM521.442 62.5547V69.8804L558.014 70.4023L567.384 86.5674V101.186L549.844 111.147L550.362 130.985L561.386 142.126H574.42L594.327 121.092L622.436 112.804L632.974 104.736L654.242 103.423L669.124 99.0308L697.169 54.4608L714.45 50.9276L720.545 44.8013L670.713 39.79L627.656 44.8013H575.522L545.467 55.242L521.442 62.5547ZM1369.6 344.723L1365.35 340.282L1358.38 350.201L1365.35 356.716L1369.6 344.723ZM1315.03 370.817L1306.67 372.664V377.591L1310.07 381.708L1315.03 375.517V370.817ZM1424.56 243.817L1434.09 243.687L1438.14 236.77L1416.97 227.895L1417.39 245.382L1421.57 247.862L1424.56 243.817ZM1398.23 284.237L1396.67 289.615L1417.65 286.519L1419.27 294.617L1424.04 292.594L1424.56 286.221L1438.63 282.607L1437.88 264.218L1431.49 253.071L1425.14 251.23L1428.77 267.936L1415.77 279.725L1398.23 284.237ZM1394.53 294.617L1402.12 293.66L1404.58 297.317L1401.86 305.929L1394.53 294.617ZM1414.76 291.051L1411.1 297.706L1406.27 292.224L1414.76 291.051ZM1391.81 404.631L1380.3 403.432L1376.12 398.213L1380.3 388.619L1376.15 379.413L1368.56 379.251L1366.71 395.458L1377.45 408.391L1390.03 409.98L1391.81 404.631ZM1355.56 433.383L1360.65 434.388L1369.7 426.868L1369.5 420.709L1355.56 433.383ZM1395.28 445.02V452.248L1402.83 449.979L1400.27 445.312L1406.37 443.756L1401.18 427.581L1397.35 437.565H1384.84L1395.28 445.02ZM1373 408.943L1378.39 414.226L1376.64 417.468L1372.29 413.221L1373 408.943ZM1378.39 421.876L1382.21 424.469L1386.39 418.148L1380.82 417.468L1378.39 421.876ZM1392.65 415.263L1397.9 422.038H1403.64L1398.16 413.221L1392.65 415.263ZM1392.65 420.968L1395.6 426.122L1393.24 429.266L1389.09 423.01L1392.65 420.968ZM1386.39 426.187L1389.09 430.239L1386.39 433.48L1383.31 429.72L1386.39 426.187ZM1316.88 475.198L1317.37 489.201L1325.34 503.139H1350.7L1363.25 487.126V458.083L1354.2 459.023L1346.87 472.864L1322.33 478.342L1317.04 475.133L1316.88 475.198ZM1298.86 511.761V501.065L1257.06 457.726L1242.77 452.248L1291.17 518.147L1298.86 511.761ZM1347.68 530.821L1348.46 534.451L1296.23 525.602L1304.08 519.314L1317.11 524.273L1328.88 521.68L1347.68 530.821ZM1381.08 530.821H1373L1374.56 536.04H1382.28L1385.52 533.414L1381.08 530.821ZM1366.97 539.281L1369.34 542.166H1374.95L1373 537.985L1366.97 539.281ZM1369.73 516.461L1375.73 514.614L1373.91 504.047L1377.45 500.124L1380.43 507.969L1387.63 510.465V504.825L1383.57 495.878L1391.26 489.428L1379 489.946L1376.47 486.446L1381.34 481.097L1390.35 484.209L1394.79 483.82L1401.44 475.976L1395.6 475.846L1391.81 478.342L1379.26 475.295L1370.96 482.783L1371.55 494.646L1366.71 501.065L1369.73 516.461ZM1414.76 499.638L1413.37 504.533L1426.95 503.139V499.638H1414.76ZM1417.91 468.034L1413.37 472.507L1411.65 483.658L1417.91 485.181L1416.52 475.295L1420.15 470.757L1417.91 468.034ZM1448.68 497.693L1446.86 488.034L1431.98 490.141L1448.68 497.693ZM1447.67 505.732L1468.42 514.387L1472.15 524.986L1465.25 529.2L1483.01 535.359V500.384L1468.58 492.864L1455.13 503.787L1440.9 498.18L1439.31 506.024L1447.67 505.732ZM1353.94 448.245L1342.79 463.253L1317.04 475.149L1322.33 478.358L1346.87 472.88L1354.2 459.039L1363.25 458.099V447.467L1353.94 448.245ZM1489.46 537.644L1501.82 526.299L1517.83 541.923L1532.46 544.905L1514.36 526.818L1515.24 517.256L1483.01 500.4V535.375L1489.46 537.644ZM1523.38 518.909L1529.89 522.798L1541.15 516.478V509.93L1523.38 518.909ZM1532.46 500.53L1545.59 509.93L1550.84 508.147L1537.51 500.206L1532.46 500.53ZM988.675 236.027L996.489 242.517L1006.44 239.768L1015.26 247.126L1013.74 228.021L1027.32 224.89L1045.22 237.159L1060.2 234.287L1071.16 248.731L1081.73 248.264L1092.07 239.768L1116.48 238.708L1132.11 245.946L1128.06 227.11L1152.41 208.559L1138.37 200.352L1056.53 171.5L1024.27 178.77V193.35H967.082V212.19L974.733 221.759L991.106 215.146L1000.87 221.759L989.031 227.499L988.675 236.027ZM1015.26 247.146L1006.44 239.787L996.489 242.536L1012.38 255.69L1011.79 269.583L1024.44 265.369L1045.87 272.157L1051.35 281.028L1071.71 270.588L1038.15 243.739H1023.92L1015.26 247.146ZM1045.22 237.162L1027.32 224.893L1013.74 228.024L1015.26 247.129L1023.92 243.723H1038.15L1071.71 270.572L1082.7 273.512L1077.71 258.828L1093.3 254.355L1094.18 247.716L1071.16 248.734L1060.2 234.29L1045.22 237.162ZM883.433 192.728L860.057 189L861.516 193.059L853.151 203.486V209.386H884.763L887.81 215.162L882.331 223.749L887.129 225.755L888.426 221.775H907.166L903.016 226.079L908.787 229.344L916.568 228.734L909.176 219.295L928.629 215.162L933.59 204.025L898.023 189.545L883.433 192.728ZM781.174 155.484L800.336 152.353L801.665 153.879L806.172 146.823V125.465L838.95 101.452H857.074V95.4716L838.496 96.4181L774.787 140.502L781.174 155.484ZM1406.3 206.472H1412.56L1390.48 183.85L1384.22 183.671L1401.96 205.6L1410.65 221.784H1417.1L1406.3 206.472ZM853.508 172.728L845.694 170.125L845.727 175.322L855.648 177.15L853.508 172.728ZM1320.71 94.5122L1314.71 86.3664L1277.62 80.3049L1267.18 89.7019H1237.16L1224.64 80.3049H1156.75L1152.57 65.3424H1089.9L1034.65 90.0487L1046.74 105.018L1036.3 115.805L1026.87 84.9758L1010.2 83.6566L1018.21 101.883L953.789 103.624L893.581 128.333L885.638 113.202L908.528 114.065L919.681 108.496L875.814 94.5122L866.477 94.9887L883.368 132.784L873.188 144.531L870.724 146.832L872.312 158.116L873.707 168.022H885.443L894.489 182.706L889.269 186.035L897.958 189.568L933.525 204.047L928.565 215.185L930.899 220.75L925.16 222.316L926.165 231.47L946.948 238.747L954.113 237.198L971.783 245.207L979.435 247.1L974.669 238.747V221.797L967.017 212.229V193.389H1024.21V178.809L1056.47 171.539L1138.3 200.391L1152.34 208.592L1169.62 195.431L1192.77 202.478L1199.03 188.385L1255.96 202.478H1283.81L1294.25 200.391L1288.68 180.725H1313.06L1338.12 205.266L1372.23 213.966V241.463L1387.17 238.838L1395.21 226.844V204.569L1372.23 178.466L1349.95 178.119L1353.78 150.625L1399.72 150.972L1404.71 135.367L1424.1 142.703L1424.17 135.51L1428.96 136.006L1437.33 144.009L1429.26 149.503L1428.28 165.934L1461 196.913V166.981L1442.55 149.228L1486.25 135.393L1486.81 130.933L1464.82 124.953L1473.38 118.285L1493.03 122.343L1506.36 122.606L1495.66 111.128L1427.05 97.5429L1320.71 94.5122ZM782.471 221.47L789.669 221.985L796.186 220.481L793.851 213.431H787.724L783.736 215.269L782.471 221.47ZM710.689 273.278L713.607 273.499L716.979 245.181L706.02 243.35L705.469 264.056L710.689 273.278ZM807.696 169.147L803.902 165.39L800.53 166.774L799.493 172.1L805.783 172.038L807.696 169.147ZM813.564 210.021L801.989 213.415H793.851L796.186 220.465L808.539 217.609H822.739L828.672 212.734L830.812 210.994L824.814 205.321H810.03L813.564 210.021ZM820.632 266.39H808.085V269.525L812.786 272.743L820.632 273.959V266.39ZM787.724 248.727V261.606H793.722V250.468L787.724 248.727ZM790.739 239.856V245.165L793.722 246.29L795.051 239.856H790.739ZM737.859 171.464L737.988 179.467L732.509 182.469L737.34 189.5L727.548 198.783L740.485 196.433L753.648 194.346L754.491 189.516H757.182L757.766 184.125L749.239 182.326L738.572 157.821L730.434 157.571V170.767L737.859 171.464ZM713.607 273.495L736.464 275.204L759.03 246.238L743.079 236.037L706.182 236.303L706.02 243.347L716.979 245.178L713.607 273.495ZM764.25 261.307V255.178L757.182 261.307H764.25ZM813.791 227.373L815.12 227.295L821.929 223.733L825.009 218.449L822.739 217.6H808.539L813.791 227.373ZM886.157 256.04L875.36 255.953L884.244 273.8L925.063 276.053L965.169 267.875V261.609L960.695 251.995L946.851 248.471L890.955 250.299L886.157 256.04ZM834.476 221.969L825.009 218.459L821.929 223.742L815.12 227.305L817.487 227.162L828.478 239.869L830.748 240.433L824.555 227.162L839.307 225.165L838.594 221.256L834.476 221.969ZM1004.04 340.707L1008.45 343.624L1011.34 340.642L1006.28 333.511L1004.04 340.707ZM916.082 280.643L904.443 284.951L912.775 287.038L916.082 280.643ZM923.572 295.531V316.448L927.948 316.97L934.465 313.923L936.475 302.176L941.566 300.023L941.825 299.913L940.334 293.673L929.861 299.913L923.572 295.531ZM928.305 286.763L923.572 295.518L929.861 299.9L948.828 288.591L953.497 270.267L925.063 276.063L923.15 284.977L928.305 286.763ZM966.823 615.407L972.334 628.437L985.53 629.021L1008 556.963H999.99L973.89 584.062L971.264 602.862L966.823 615.407ZM827.667 306.853L820.762 298.484L805.945 294.928L792.165 309.744L801.114 352.726H836.032L868.908 373.828L872.118 301.09L852.989 298.497L845.078 310.331L827.667 306.853ZM697.493 323.183H700.282V320.814L739.966 299.158V283.618L710.721 286.665L682.644 323.196L697.493 323.183ZM739.966 283.638V299.177L700.282 320.833V326.149L767.103 375.419L800.53 352.729H801.114L784.806 274.383L765.612 273.829L739.966 283.638ZM784.806 274.37L792.165 309.767L805.945 294.95L800.53 293.654L801.211 274.853L784.806 274.37ZM873.512 585.29L892.738 612.259H907.652L915.888 593.005V580.947L902.724 572.325L884.082 585.29H873.512ZM882.331 658.742H889.982L894.521 654.009V647.948H888.264L882.331 651.773V658.742ZM907.652 631.611H901.816V636.959L907.652 640.46V631.611ZM923.345 316.996L923.442 316.723L917.638 307.268L872.118 301.083L869.686 356.253H919.584L929.635 350.515L908.949 314.989L920.265 324.211L923.345 316.996ZM664.001 423.023L671.88 414.758H656.707L656.674 415.114L664.001 423.023ZM222.09 97.906L210.256 93.0308L148.298 93.3809L123.236 103.475V114.612L95.0415 114.266L89.6919 121.731L113.486 120.875L82.8541 132.363L68.0535 152.411L80.7661 152.2L56.3945 168.21L65.3041 168.907L111.959 146.635L165.812 144.755L182.172 161.114L188.352 154.463L182.954 148.891H176.865L170.919 142.077L222.113 97.8962L222.09 97.906ZM181.595 201.503L173.065 194.54L169.408 197.675L175.354 205.448H181.595V201.503ZM508.408 212.281L502.021 202.109L496.25 200.731V193.435L477.672 212.281H508.408ZM498.682 94.5511L461.267 79.2741L455.69 79.2158L442.689 89.8931L447.034 79.1509L440.744 79.1023L425.603 95.1961L462.402 93.1961L484.87 113.296L469.762 113.037L462.142 119.277H444.991V124.178H462.402L477.154 136.375L481.174 134.619L477.672 126.872L487.821 131.701L491.128 130.265V115.125L502.799 119.277L509.511 114.8L505.717 107.718L498.974 105.261L498.682 94.5511ZM372.69 231.113H383.487L390.976 225.985H415.163L425.603 216.935H435.005L431.601 227.645L448.298 224.767L437.34 229.985L438.377 234.514L468.14 224.06L453.615 223.37L446.839 217.266L453.551 206.861L450.276 203.736L429.234 213.282V207.801L449.368 198.141L481.628 196.751L505.88 183.847L506.009 177.957L488.339 174.897L486.199 146.016L463.083 155.111L463.245 141.523L452.092 132.038H436.951L396.002 191.616L386.08 191.649L386.275 172.054L351 152.913L386.275 126.81L406.279 123.16L402.097 116.975L432.898 113.582L445.445 100.532L433.676 99.2285L417.497 109.928L419.313 100.794L411.759 100.01L409.975 88.9725L396.877 94.7877L400.281 101.838L382.773 110.188L352.232 104.447L336.086 112.016L296.888 96.3566L221.96 97.9222L170.766 142.103L176.712 148.917H182.801L188.2 154.489L182.02 161.14L175.753 189.814L186.98 199.995V205.477H312.842L327.627 212.222L352.657 206.909L355.802 218.005L360.859 221.739L369.354 221.139L372.69 231.113ZM417.854 119.283L408.257 127.086L427.224 129.092L429.234 124.184L417.854 119.283ZM380.828 99.4359L384.362 103.997L393.311 99.4359L390.652 95.2026L380.828 99.4359ZM387.604 84.1168L393.311 89.8996L405.566 85.8089L408.776 77.245L387.604 84.1168ZM410.98 80.6744L412.537 86.1557L429.234 81.7182L425.862 77.245L410.98 80.6744ZM453.551 69.3196L444.408 65.5336L435.524 73.1024L471.545 75.9387L480.947 69.3196H453.551ZM541.252 49.0897L560.057 38.4805L485.389 44.0169V48.046L510.581 47.5241L507.047 52.2242L480.947 52.7428L484.351 58.7493L473.101 56.9211L477.543 62.6617H458.219L461.105 65.5336H482.244L485.648 68.4055L516.449 54.0492L541.252 49.0897ZM449.887 53.4462L463.796 56.0751L471.772 50.9698L466.001 46.6619L449.887 53.4462ZM302.983 89.9126L335.664 78.7976L328.142 75.3131L297.244 83.1801L302.983 89.9126ZM339.879 80.8268L322.271 86.8137L332.649 91.1832L316.461 95.3063L336.572 103.138L350.416 97.1313L365.817 100.788L377.359 98.1394L366.076 92.9303L374.765 81.7149H366.076L360.856 88.4636L358.749 81.7149L349.541 85.287L339.879 80.8268ZM314.373 355.799H330.412L343.348 364.421L338.42 369.899H360.856L334.043 350.58H319.855L314.373 355.799ZM336.831 379.818L340.203 382.703H349.865V379.299L346.493 375.896H336.831V379.818ZM396.326 377.16L394.348 380.434H399.763L401.74 377.16H396.326ZM318.928 507.045L330.454 512.555L351.01 487.337L330.065 475.376L320.128 487.888L318.928 507.045ZM437.268 789.894L444.401 796.442L466.383 797.252L442.65 784.87L437.268 789.894ZM296.2 421.665L305.58 434.339L308.965 435.539L313.718 429.38L310.388 427.532L310.288 423.156L296.2 421.665ZM324.018 428.926L319.589 432.621L313.715 429.38L308.962 435.539L322.945 440.53L326.333 435.474L334.341 436.252L336.676 443.966L339.788 439.558L338.329 434.21L336.579 427.824L324.018 428.926Z" stroke="#00E0FF" stroke-width="0.25" stroke-linejoin="bevel"/>
<path d="M1296.55 619.118L1338.05 599.669L1368.85 565.634L1385.71 573.089L1393.17 557.53L1421.38 556.882L1414.24 569.848L1437.59 589.945L1453.15 574.386V552.668L1460.28 554.937L1468.39 593.834L1493.68 629.49L1491.08 656.394L1445.05 704.044L1405.17 701.775L1400.3 674.871L1386.69 680.705L1373.72 669.36L1294.93 686.54L1290.07 680.705L1296.55 665.146V619.118Z" fill="#001384" stroke="#6FC2CD" stroke-width="0.25" stroke-linejoin="bevel"/>
<rect x="903" y="473" width="28" height="28" fill="#6FC2CD"/>
</svg>
