<svg width="168" height="168" viewBox="0 0 168 168" fill="none" xmlns="http://www.w3.org/2000/svg">
<rect width="168" height="168" rx="4" fill="#F0F2F5"/>
<mask id="mask0_1551_9676" style="mask-type:alpha" maskUnits="userSpaceOnUse" x="0" y="0" width="168" height="168">
<rect width="168" height="168" rx="4" fill="white"/>
</mask>
<g mask="url(#mask0_1551_9676)">
<path fill-rule="evenodd" clip-rule="evenodd" d="M66 63H102C103.657 63 105 64.3431 105 66V102C105 103.657 103.657 105 102 105H66C64.3431 105 63 103.657 63 102V66C63 64.3431 64.3431 63 66 63ZM102 65H66C65.4477 65 65 65.4477 65 66V102C65 102.552 65.4477 103 66 103H102C102.552 103 103 102.552 103 102V66C103 65.4477 102.552 65 102 65ZM97.2929 81.2929C97.6834 80.9024 98.3166 80.9024 98.7071 81.2929C99.0676 81.6534 99.0953 82.2206 98.7903 82.6129L98.7071 82.7071L86 95.4142L78 87.415L70.7071 94.7071C70.3466 95.0676 69.7794 95.0953 69.3871 94.7903L69.2929 94.7071C68.9324 94.3466 68.9047 93.7794 69.2097 93.3871L69.2929 93.2929L78 84.5858L86 92.585L97.2929 81.2929ZM78 70C75.2386 70 73 72.2386 73 75C73 77.7614 75.2386 80 78 80C80.7614 80 83 77.7614 83 75C83 72.2386 80.7614 70 78 70ZM78 72C79.6569 72 81 73.3431 81 75C81 76.6569 79.6569 78 78 78C76.3431 78 75 76.6569 75 75C75 73.3431 76.3431 72 78 72Z" fill="#B8BCC5"/>
</g>
</svg>
