<svg width="30" height="29" viewBox="0 0 30 29" fill="none" xmlns="http://www.w3.org/2000/svg">
<path fill-rule="evenodd" clip-rule="evenodd" d="M5.82422 11.6439C5.82422 7.7469 8.86146 4.65039 12.5322 4.65039C16.203 4.65039 19.2402 7.7469 19.2402 11.6439C19.2402 15.5409 16.203 18.6374 12.5322 18.6374C8.86146 18.6374 5.82422 15.5409 5.82422 11.6439ZM12.5322 2.65039C7.68896 2.65039 3.82422 6.71151 3.82422 11.6439C3.82422 16.5763 7.68896 20.6374 12.5322 20.6374C14.5837 20.6374 16.4596 19.9088 17.9406 18.694L23.3736 24.3283C23.757 24.7258 24.39 24.7374 24.7876 24.354C25.1852 23.9706 25.1967 23.3376 24.8133 22.94L19.3347 17.2585C20.5291 15.7151 21.2402 13.7597 21.2402 11.6439C21.2402 6.71151 17.3755 2.65039 12.5322 2.65039Z" fill="#73CBA3"/>
</svg>
