<svg width="21" height="21" viewBox="0 0 21 21" fill="none" xmlns="http://www.w3.org/2000/svg">
<g clip-path="url(#clip0_683_10565)">
<path d="M20.0527 4.19719C19.309 4.52344 18.5165 4.73969 17.6902 4.84469C18.5402 4.33719 19.189 3.53969 19.494 2.57844C18.7015 3.05094 17.8265 3.38469 16.894 3.57094C16.1415 2.76969 15.069 2.27344 13.899 2.27344C11.629 2.27344 9.80148 4.11594 9.80148 6.37469C9.80148 6.69969 9.82898 7.01219 9.89648 7.30969C6.48773 7.14344 3.47148 5.50969 1.44523 3.02094C1.09148 3.63469 0.883984 4.33719 0.883984 5.09344C0.883984 6.51344 1.61523 7.77219 2.70523 8.50094C2.04648 8.48844 1.40023 8.29719 0.852734 7.99594C0.852734 8.00844 0.852734 8.02469 0.852734 8.04094C0.852734 10.0334 2.27398 11.6884 4.13773 12.0697C3.80398 12.1609 3.44023 12.2047 3.06273 12.2047C2.80023 12.2047 2.53523 12.1897 2.28648 12.1347C2.81773 13.7584 4.32523 14.9522 6.11773 14.9909C4.72273 16.0822 2.95148 16.7397 1.03398 16.7397C0.697734 16.7397 0.375234 16.7247 0.0527344 16.6834C1.86898 17.8547 4.02148 18.5234 6.34273 18.5234C13.8877 18.5234 18.0127 12.2734 18.0127 6.85594C18.0127 6.67469 18.0065 6.49969 17.9977 6.32594C18.8115 5.74844 19.4952 5.02719 20.0527 4.19719Z" fill="white"/>
</g>
<defs>
<clipPath id="clip0_683_10565">
<rect width="20" height="20" fill="white" transform="translate(0.0527344 0.398438)"/>
</clipPath>
</defs>
</svg>
