<svg width="21" height="21" viewBox="0 0 21 21" fill="none" xmlns="http://www.w3.org/2000/svg">
<g clip-path="url(#clip0_683_10570)">
<path d="M2.9418 1.41406C1.5669 1.41406 0.667969 2.31689 0.667969 3.50352C0.667969 4.66395 1.54012 5.59253 2.88904 5.59253H2.91513C4.31692 5.59253 5.1893 4.66395 5.1893 3.50352C5.16309 2.31689 4.31692 1.41406 2.9418 1.41406Z" fill="white"/>
<path d="M0.90625 7.24219H4.92564V19.3347H0.90625V7.24219Z" fill="white"/>
<path d="M14.7902 6.96094C12.6219 6.96094 11.168 8.99845 11.168 8.99845V7.24475H7.14844V19.3373H11.1677V12.5843C11.1677 12.2228 11.1939 11.8619 11.3001 11.6034C11.5907 10.8815 12.2519 10.1336 13.3624 10.1336C14.8168 10.1336 15.3985 11.2425 15.3985 12.8682V19.3373H19.4176V12.4036C19.4176 8.68934 17.4345 6.96094 14.7902 6.96094Z" fill="white"/>
</g>
<defs>
<clipPath id="clip0_683_10570">
<rect width="20" height="20" fill="white" transform="translate(0.0527344 0.398438)"/>
</clipPath>
</defs>
</svg>
