<svg width="21" height="21" viewBox="0 0 21 21" fill="none" xmlns="http://www.w3.org/2000/svg">
<g clip-path="url(#clip0_683_10561)">
<path d="M5.32453 11.0504H7.51686V20.0759C7.51686 20.254 7.66124 20.3984 7.83944 20.3984H11.5566C11.7348 20.3984 11.8792 20.254 11.8792 20.0759V11.093H14.3994C14.5633 11.093 14.7012 10.97 14.7199 10.8072L15.1027 7.4845C15.1132 7.39308 15.0842 7.30153 15.023 7.23295C14.9618 7.16431 14.8742 7.12502 14.7823 7.12502H11.8793V5.04218C11.8793 4.41431 12.2174 4.09592 12.8842 4.09592C12.9792 4.09592 14.7823 4.09592 14.7823 4.09592C14.9605 4.09592 15.1049 3.95147 15.1049 3.77334V0.723405C15.1049 0.545212 14.9605 0.400825 14.7823 0.400825H12.1665C12.148 0.399921 12.107 0.398438 12.0467 0.398438C11.5928 0.398438 10.0152 0.487534 8.76898 1.63399C7.38821 2.90444 7.58015 4.4256 7.62602 4.68934V7.12495H5.32453C5.14634 7.12495 5.00195 7.26934 5.00195 7.44753V10.7278C5.00195 10.906 5.14634 11.0504 5.32453 11.0504Z" fill="white"/>
</g>
<defs>
<clipPath id="clip0_683_10561">
<rect width="20" height="20" fill="white" transform="translate(0.0527344 0.398438)"/>
</clipPath>
</defs>
</svg>
