<svg width="465" height="228" viewBox="0 0 465 228" fill="none" xmlns="http://www.w3.org/2000/svg">
<path d="M8.16283 214.311C9.50449 214.556 10.7433 215.194 11.7228 216.143C12.7023 217.092 13.3786 218.31 13.6663 219.644C13.9539 220.977 13.84 222.366 13.3389 223.634C12.8379 224.903 11.9721 225.994 10.8511 226.771C9.72996 227.548 8.40379 227.975 7.04004 227.999C5.6763 228.023 4.33614 227.642 3.18881 226.904C2.04148 226.166 1.13843 225.105 0.593728 223.855C0.049023 222.605 -0.112911 221.221 0.128371 219.878C0.469049 218.082 1.50242 216.491 3.00551 215.449C4.50861 214.408 6.36094 213.999 8.16283 214.311Z" fill="#8596CC"/>
<path d="M8.16475 160.669C9.50731 160.916 10.7465 161.556 11.7255 162.507C12.7046 163.458 13.3795 164.679 13.6649 166.014C13.9504 167.348 13.8335 168.738 13.329 170.007C12.8246 171.275 11.9553 172.365 10.8311 173.14C9.70691 173.914 8.37832 174.338 7.01337 174.357C5.64842 174.376 4.30845 173.99 3.16296 173.247C2.01747 172.505 1.11793 171.439 0.578119 170.185C0.0383059 168.932 -0.117522 167.546 0.130341 166.203C0.478606 164.413 1.51515 162.83 3.01737 161.796C4.51959 160.761 6.36768 160.357 8.16475 160.669Z" fill="#8596CC"/>
<path d="M8.16475 107.33C9.50731 107.576 10.7465 108.216 11.7255 109.167C12.7046 110.119 13.3795 111.339 13.6649 112.674C13.9504 114.009 13.8335 115.398 13.329 116.667C12.8246 117.935 11.9553 119.026 10.8311 119.8C9.70691 120.574 8.37832 120.998 7.01337 121.017C5.64842 121.036 4.30845 120.65 3.16296 119.907C2.01747 119.165 1.11793 118.099 0.578119 116.846C0.0383059 115.592 -0.117522 114.206 0.130341 112.864C0.47063 111.069 1.50537 109.481 3.00974 108.445C4.51412 107.408 6.3666 107.008 8.16475 107.33Z" fill="#8596CC"/>
<path d="M8.16475 53.6889C9.50731 53.9358 10.7465 54.5754 11.7255 55.5266C12.7046 56.4779 13.3795 57.6982 13.6649 59.0331C13.9504 60.368 13.8335 61.7576 13.329 63.026C12.8246 64.2945 11.9553 65.3849 10.8311 66.1592C9.70691 66.9336 8.37832 67.3571 7.01337 67.3763C5.64842 67.3954 4.30845 67.0093 3.16296 66.2668C2.01747 65.5243 1.11793 64.4588 0.578119 63.2049C0.0383059 61.9511 -0.117522 60.5654 0.130341 59.223C0.47063 57.4282 1.50537 55.8403 3.00974 54.8041C4.51412 53.7679 6.3666 53.3671 8.16475 53.6889Z" fill="#8596CC"/>
<path d="M8.1651 0.114278C9.05821 0.278453 9.91024 0.616951 10.6725 1.11041C11.4348 1.60386 12.0925 2.24263 12.6079 2.99024C13.1234 3.73785 13.4865 4.57966 13.6766 5.46761C13.8667 6.35556 13.88 7.27226 13.7159 8.16537C13.5517 9.05848 13.2132 9.91051 12.7197 10.6728C12.2263 11.4351 11.5875 12.0928 10.8399 12.6082C10.0923 13.1236 9.25048 13.4868 8.36252 13.6769C7.47457 13.867 6.55786 13.8803 5.66475 13.7161C3.86103 13.3846 2.26289 12.3501 1.22192 10.8402C0.180951 9.33032 -0.217586 7.46875 0.11398 5.66503C0.445546 3.86132 1.48006 2.26321 2.98993 1.22224C4.49981 0.181275 6.36137 -0.217286 8.1651 0.114278Z" fill="#8596CC"/>
<path d="M53.1023 214.311C54.4439 214.556 55.6828 215.194 56.6623 216.143C57.6418 217.092 58.3181 218.31 58.6057 219.644C58.8934 220.977 58.7795 222.366 58.2784 223.634C57.7773 224.903 56.9116 225.994 55.7905 226.771C54.6694 227.548 53.3432 227.975 51.9795 227.999C50.6158 228.023 49.2756 227.642 48.1283 226.904C46.9809 226.166 46.0779 225.105 45.5332 223.855C44.9885 222.605 44.8265 221.221 45.0678 219.878C45.4085 218.082 46.4419 216.491 47.945 215.449C49.4481 214.408 51.3004 213.999 53.1023 214.311Z" fill="#8596CC"/>
<path d="M53.1042 160.669C54.4468 160.916 55.686 161.556 56.6651 162.507C57.6441 163.458 58.319 164.679 58.6045 166.014C58.8899 167.348 58.773 168.738 58.2686 170.007C57.7642 171.275 56.8949 172.365 55.7706 173.14C54.6464 173.914 53.3178 174.338 51.9529 174.357C50.5879 174.376 49.2479 173.99 48.1024 173.247C46.9569 172.505 46.0574 171.439 45.5176 170.185C44.9778 168.932 44.8219 167.546 45.0698 166.203C45.4181 164.413 46.4546 162.83 47.9568 161.796C49.4591 160.761 51.3072 160.357 53.1042 160.669Z" fill="#8596CC"/>
<path d="M53.1042 107.33C54.4468 107.576 55.686 108.216 56.6651 109.167C57.6441 110.119 58.319 111.339 58.6045 112.674C58.8899 114.009 58.773 115.398 58.2686 116.667C57.7642 117.935 56.8949 119.026 55.7706 119.8C54.6464 120.574 53.3178 120.998 51.9529 121.017C50.5879 121.036 49.2479 120.65 48.1024 119.907C46.9569 119.165 46.0574 118.099 45.5176 116.846C44.9778 115.592 44.8219 114.206 45.0698 112.864C45.4101 111.069 46.4448 109.481 47.9492 108.445C49.4536 107.408 51.3061 107.008 53.1042 107.33Z" fill="#8596CC"/>
<path d="M53.1042 53.6889C54.4468 53.9358 55.686 54.5754 56.6651 55.5266C57.6441 56.4779 58.319 57.6982 58.6045 59.0331C58.8899 60.368 58.773 61.7576 58.2686 63.026C57.7642 64.2945 56.8949 65.3849 55.7706 66.1592C54.6464 66.9336 53.3178 67.3571 51.9529 67.3763C50.5879 67.3954 49.2479 67.0093 48.1024 66.2668C46.9569 65.5243 46.0574 64.4588 45.5176 63.2049C44.9778 61.9511 44.8219 60.5654 45.0698 59.223C45.4101 57.4282 46.4448 55.8403 47.9492 54.8041C49.4536 53.7679 51.3061 53.3671 53.1042 53.6889Z" fill="#8596CC"/>
<path d="M53.1045 0.114278C53.9977 0.278453 54.8497 0.616951 55.612 1.11041C56.3743 1.60386 57.0319 2.24263 57.5474 2.99024C58.0628 3.73785 58.4259 4.57966 58.616 5.46761C58.8061 6.35556 58.8195 7.27226 58.6553 8.16537C58.4911 9.05848 58.1527 9.91051 57.6592 10.6728C57.1657 11.4351 56.527 12.0928 55.7794 12.6082C55.0317 13.1236 54.1899 13.4868 53.302 13.6769C52.414 13.867 51.4973 13.8803 50.6042 13.7161C48.8005 13.3846 47.2024 12.3501 46.1614 10.8402C45.1204 9.33032 44.7219 7.46875 45.0534 5.66503C45.385 3.86132 46.4195 2.26321 47.9294 1.22224C49.4393 0.181275 51.3008 -0.217286 53.1045 0.114278Z" fill="#8596CC"/>
<path d="M98.1784 214.311C99.5201 214.556 100.759 215.194 101.738 216.143C102.718 217.092 103.394 218.31 103.682 219.644C103.97 220.977 103.856 222.366 103.355 223.634C102.854 224.903 101.988 225.994 100.867 226.771C99.7456 227.548 98.4194 227.975 97.0557 227.999C95.6919 228.023 94.3518 227.642 93.2044 226.904C92.0571 226.166 91.1541 225.105 90.6094 223.855C90.0647 222.605 89.9027 221.221 90.144 219.878C90.4847 218.082 91.5181 216.491 93.0212 215.449C94.5242 214.408 96.3766 213.999 98.1784 214.311Z" fill="#8596CC"/>
<path d="M98.1764 160.669C99.519 160.916 100.758 161.556 101.737 162.507C102.716 163.458 103.391 164.679 103.677 166.014C103.962 167.348 103.845 168.738 103.341 170.007C102.836 171.275 101.967 172.365 100.843 173.14C99.7186 173.914 98.39 174.338 97.0251 174.357C95.6601 174.376 94.3201 173.99 93.1747 173.247C92.0292 172.505 91.1297 171.439 90.5899 170.185C90.05 168.932 89.8942 167.546 90.1421 166.203C90.4903 164.413 91.5269 162.83 93.0291 161.796C94.5313 160.761 96.3794 160.357 98.1764 160.669Z" fill="#8596CC"/>
<path d="M98.1764 107.33C99.519 107.576 100.758 108.216 101.737 109.167C102.716 110.119 103.391 111.339 103.677 112.674C103.962 114.009 103.845 115.398 103.341 116.667C102.836 117.935 101.967 119.026 100.843 119.8C99.7186 120.574 98.39 120.998 97.0251 121.017C95.6601 121.036 94.3201 120.65 93.1747 119.907C92.0292 119.165 91.1297 118.099 90.5899 116.846C90.05 115.592 89.8942 114.206 90.1421 112.864C90.4823 111.069 91.5171 109.481 93.0214 108.445C94.5258 107.408 96.3783 107.008 98.1764 107.33Z" fill="#8596CC"/>
<path d="M98.1764 53.6889C99.519 53.9358 100.758 54.5754 101.737 55.5266C102.716 56.4779 103.391 57.6982 103.677 59.0331C103.962 60.368 103.845 61.7576 103.341 63.026C102.836 64.2945 101.967 65.3849 100.843 66.1592C99.7186 66.9336 98.39 67.3571 97.0251 67.3763C95.6601 67.3954 94.3201 67.0093 93.1747 66.2668C92.0292 65.5243 91.1297 64.4588 90.5899 63.2049C90.05 61.9511 89.8942 60.5654 90.1421 59.223C90.4823 57.4282 91.5171 55.8403 93.0214 54.8041C94.5258 53.7679 96.3783 53.3671 98.1764 53.6889Z" fill="#8596CC"/>
<path d="M98.1768 0.114278C99.0699 0.278453 99.922 0.616951 100.684 1.11041C101.447 1.60386 102.104 2.24263 102.62 2.99024C103.135 3.73785 103.498 4.57966 103.688 5.46761C103.878 6.35556 103.892 7.27226 103.728 8.16537C103.563 9.05848 103.225 9.91051 102.731 10.6728C102.238 11.4351 101.599 12.0928 100.852 12.6082C100.104 13.1236 99.2622 13.4868 98.3742 13.6769C97.4863 13.867 96.5696 13.8803 95.6765 13.7161C93.8727 13.3846 92.2746 12.3501 91.2336 10.8402C90.1927 9.33032 89.7941 7.46875 90.1257 5.66503C90.4573 3.86132 91.4918 2.26321 93.0017 1.22224C94.5115 0.181275 96.3731 -0.217286 98.1768 0.114278Z" fill="#8596CC"/>
<path d="M143.315 214.311C144.657 214.556 145.896 215.194 146.875 216.143C147.855 217.092 148.531 218.31 148.819 219.644C149.106 220.977 148.992 222.366 148.491 223.634C147.99 224.903 147.124 225.994 146.003 226.771C144.882 227.548 143.556 227.975 142.192 227.999C140.829 228.023 139.488 227.642 138.341 226.904C137.194 226.166 136.291 225.105 135.746 223.855C135.201 222.605 135.039 221.221 135.281 219.878C135.621 218.082 136.655 216.491 138.158 215.449C139.661 214.408 141.513 213.999 143.315 214.311Z" fill="#8596CC"/>
<path d="M143.317 160.669C144.66 160.916 145.899 161.556 146.878 162.507C147.857 163.458 148.532 164.679 148.817 166.014C149.103 167.348 148.986 168.738 148.481 170.007C147.977 171.275 147.108 172.365 145.983 173.14C144.859 173.914 143.531 174.338 142.166 174.357C140.801 174.376 139.461 173.99 138.315 173.247C137.17 172.505 136.27 171.439 135.73 170.185C135.191 168.932 135.035 167.546 135.283 166.203C135.631 164.413 136.667 162.83 138.17 161.796C139.672 160.761 141.52 160.357 143.317 160.669Z" fill="#8596CC"/>
<path d="M143.317 107.33C144.66 107.576 145.899 108.216 146.878 109.167C147.857 110.119 148.532 111.339 148.817 112.674C149.103 114.009 148.986 115.398 148.481 116.667C147.977 117.935 147.108 119.026 145.983 119.8C144.859 120.574 143.531 120.998 142.166 121.017C140.801 121.036 139.461 120.65 138.315 119.907C137.17 119.165 136.27 118.099 135.73 116.846C135.191 115.592 135.035 114.206 135.283 112.864C135.623 111.069 136.658 109.481 138.162 108.445C139.666 107.408 141.519 107.008 143.317 107.33Z" fill="#8596CC"/>
<path d="M143.317 53.6889C144.66 53.9358 145.899 54.5754 146.878 55.5266C147.857 56.4779 148.532 57.6982 148.817 59.0331C149.103 60.368 148.986 61.7576 148.481 63.026C147.977 64.2945 147.108 65.3849 145.983 66.1592C144.859 66.9336 143.531 67.3571 142.166 67.3763C140.801 67.3954 139.461 67.0093 138.315 66.2668C137.17 65.5243 136.27 64.4588 135.73 63.2049C135.191 61.9511 135.035 60.5654 135.283 59.223C135.623 57.4282 136.658 55.8403 138.162 54.8041C139.666 53.7679 141.519 53.3671 143.317 53.6889Z" fill="#8596CC"/>
<path d="M143.315 0.114278C144.209 0.278453 145.061 0.616951 145.823 1.11041C146.585 1.60386 147.243 2.24263 147.758 2.99024C148.274 3.73785 148.637 4.57966 148.827 5.46761C149.017 6.35556 149.03 7.27226 148.866 8.16537C148.702 9.05848 148.364 9.91051 147.87 10.6728C147.377 11.4351 146.738 12.0928 145.99 12.6082C145.243 13.1236 144.401 13.4868 143.513 13.6769C142.625 13.867 141.708 13.8803 140.815 13.7161C139.011 13.3846 137.413 12.3501 136.372 10.8402C135.331 9.33032 134.933 7.46875 135.264 5.66503C135.596 3.86132 136.63 2.26321 138.14 1.22224C139.65 0.181275 141.512 -0.217286 143.315 0.114278Z" fill="#8596CC"/>
<path d="M188.423 214.311C189.764 214.556 191.003 215.194 191.983 216.143C192.962 217.092 193.638 218.31 193.926 219.644C194.214 220.977 194.1 222.366 193.599 223.634C193.098 224.903 192.232 225.994 191.111 226.771C189.99 227.548 188.664 227.975 187.3 227.999C185.936 228.023 184.596 227.642 183.449 226.904C182.301 226.166 181.398 225.105 180.853 223.855C180.309 222.605 180.147 221.221 180.388 219.878C180.729 218.082 181.762 216.491 183.265 215.449C184.768 214.408 186.621 213.999 188.423 214.311Z" fill="#8596CC"/>
<path d="M188.421 160.669C189.763 160.916 191.002 161.556 191.981 162.507C192.96 163.458 193.635 164.679 193.921 166.014C194.206 167.348 194.089 168.738 193.585 170.007C193.08 171.275 192.211 172.365 191.087 173.14C189.963 173.914 188.634 174.338 187.269 174.357C185.904 174.376 184.564 173.99 183.419 173.247C182.273 172.505 181.374 171.439 180.834 170.185C180.294 168.932 180.138 167.546 180.386 166.203C180.734 164.413 181.771 162.83 183.273 161.796C184.775 160.761 186.623 160.357 188.421 160.669Z" fill="#8596CC"/>
<path d="M188.421 107.33C189.763 107.576 191.002 108.216 191.981 109.167C192.96 110.119 193.635 111.339 193.921 112.674C194.206 114.009 194.089 115.398 193.585 116.667C193.08 117.935 192.211 119.026 191.087 119.8C189.963 120.574 188.634 120.998 187.269 121.017C185.904 121.036 184.564 120.65 183.419 119.907C182.273 119.165 181.374 118.099 180.834 116.846C180.294 115.592 180.138 114.206 180.386 112.864C180.726 111.069 181.761 109.481 183.266 108.445C184.77 107.408 186.622 107.008 188.421 107.33Z" fill="#8596CC"/>
<path d="M188.421 53.6889C189.763 53.9358 191.002 54.5754 191.981 55.5266C192.96 56.4779 193.635 57.6982 193.921 59.0331C194.206 60.368 194.089 61.7576 193.585 63.026C193.08 64.2945 192.211 65.3849 191.087 66.1592C189.963 66.9336 188.634 67.3571 187.269 67.3763C185.904 67.3954 184.564 67.0093 183.419 66.2668C182.273 65.5243 181.374 64.4588 180.834 63.2049C180.294 61.9511 180.138 60.5654 180.386 59.223C180.726 57.4282 181.761 55.8403 183.266 54.8041C184.77 53.7679 186.622 53.3671 188.421 53.6889Z" fill="#8596CC"/>
<path d="M188.423 0.114278C189.316 0.278453 190.168 0.616951 190.93 1.11041C191.693 1.60386 192.35 2.24263 192.866 2.99024C193.381 3.73785 193.744 4.57966 193.934 5.46761C194.125 6.35556 194.138 7.27226 193.974 8.16537C193.81 9.05848 193.471 9.91051 192.978 10.6728C192.484 11.4351 191.845 12.0928 191.098 12.6082C190.35 13.1236 189.508 13.4868 188.62 13.6769C187.732 13.867 186.816 13.8803 185.923 13.7161C184.119 13.3846 182.521 12.3501 181.48 10.8402C180.439 9.33032 180.04 7.46875 180.372 5.66503C180.703 3.86132 181.738 2.26321 183.248 1.22224C184.758 0.181275 186.619 -0.217286 188.423 0.114278Z" fill="#8596CC"/>
<path d="M233.53 214.311C234.872 214.556 236.111 215.194 237.09 216.143C238.07 217.092 238.746 218.31 239.034 219.644C239.321 220.977 239.207 222.366 238.706 223.634C238.205 224.903 237.339 225.994 236.218 226.771C235.097 227.548 233.771 227.975 232.407 227.999C231.044 228.023 229.703 227.642 228.556 226.904C227.409 226.166 226.506 225.105 225.961 223.855C225.416 222.605 225.254 221.221 225.496 219.878C225.828 218.077 226.86 216.481 228.365 215.438C229.87 214.395 231.727 213.99 233.53 214.311Z" fill="#8596CC"/>
<path d="M233.528 160.669C234.871 160.916 236.11 161.556 237.089 162.507C238.068 163.458 238.743 164.679 239.028 166.014C239.314 167.348 239.197 168.738 238.692 170.007C238.188 171.275 237.319 172.365 236.194 173.14C235.07 173.914 233.742 174.338 232.377 174.357C231.012 174.376 229.672 173.99 228.526 173.247C227.381 172.505 226.481 171.439 225.941 170.185C225.402 168.932 225.246 167.546 225.494 166.203C225.834 164.409 226.869 162.821 228.373 161.785C229.877 160.748 231.73 160.348 233.528 160.669Z" fill="#8596CC"/>
<path d="M233.528 107.33C234.871 107.576 236.11 108.216 237.089 109.167C238.068 110.119 238.743 111.339 239.028 112.674C239.314 114.009 239.197 115.398 238.692 116.667C238.188 117.935 237.319 119.026 236.194 119.8C235.07 120.574 233.742 120.998 232.377 121.017C231.012 121.036 229.672 120.65 228.526 119.907C227.381 119.165 226.481 118.099 225.941 116.846C225.402 115.592 225.246 114.206 225.494 112.864C225.826 111.065 226.859 109.471 228.365 108.433C229.872 107.396 231.729 106.999 233.528 107.33Z" fill="#8596CC"/>
<path d="M233.528 53.6889C234.871 53.9358 236.11 54.5753 237.089 55.5266C238.068 56.4779 238.743 57.6982 239.028 59.0331C239.314 60.368 239.197 61.7576 238.692 63.026C238.188 64.2945 237.319 65.3849 236.194 66.1592C235.07 66.9336 233.742 67.3571 232.377 67.3763C231.012 67.3954 229.672 67.0093 228.526 66.2668C227.381 65.5243 226.481 64.4588 225.941 63.2049C225.402 61.9511 225.246 60.5654 225.494 59.223C225.826 57.424 226.859 55.8305 228.365 54.7928C229.872 53.7551 231.729 53.358 233.528 53.6889Z" fill="#8596CC"/>
<path d="M233.53 0.115532C234.872 0.361072 236.111 0.998697 237.09 1.94786C238.07 2.89701 238.746 4.11515 239.034 5.44842C239.321 6.78169 239.207 8.17028 238.706 9.43886C238.205 10.7074 237.339 11.7991 236.218 12.576C235.097 13.3528 233.771 13.78 232.407 13.8037C231.044 13.8273 229.703 13.4463 228.556 12.7087C227.409 11.9712 226.506 10.9101 225.961 9.65969C225.416 8.40923 225.254 7.02542 225.496 5.68298C225.828 3.8821 226.86 2.28592 228.365 1.24285C229.87 0.199788 231.727 -0.205479 233.53 0.115532Z" fill="#8596CC"/>
<path d="M278.633 214.311C279.975 214.556 281.214 215.194 282.193 216.143C283.173 217.092 283.849 218.31 284.137 219.644C284.424 220.977 284.311 222.366 283.809 223.634C283.308 224.903 282.443 225.994 281.322 226.771C280.201 227.548 278.874 227.975 277.511 227.999C276.147 228.023 274.807 227.642 273.659 226.904C272.512 226.166 271.609 225.105 271.064 223.855C270.52 222.605 270.358 221.221 270.599 219.878C270.932 218.077 271.963 216.481 273.468 215.438C274.974 214.395 276.83 213.99 278.633 214.311Z" fill="#8596CC"/>
<path d="M278.634 160.669C279.976 160.916 281.215 161.556 282.194 162.507C283.174 163.458 283.848 164.679 284.134 166.014C284.419 167.348 284.302 168.738 283.798 170.007C283.294 171.275 282.424 172.365 281.3 173.14C280.176 173.914 278.847 174.338 277.482 174.357C276.117 174.376 274.777 173.99 273.632 173.247C272.486 172.505 271.587 171.439 271.047 170.185C270.507 168.932 270.351 167.546 270.599 166.203C270.939 164.409 271.974 162.821 273.479 161.785C274.983 160.748 276.835 160.348 278.634 160.669Z" fill="#8596CC"/>
<path d="M278.634 107.33C279.976 107.576 281.215 108.216 282.194 109.167C283.174 110.119 283.848 111.339 284.134 112.674C284.419 114.009 284.302 115.398 283.798 116.667C283.294 117.935 282.424 119.026 281.3 119.8C280.176 120.574 278.847 120.998 277.482 121.017C276.117 121.036 274.777 120.65 273.632 119.907C272.486 119.165 271.587 118.099 271.047 116.846C270.507 115.592 270.351 114.206 270.599 112.864C270.931 111.065 271.964 109.471 273.471 108.433C274.977 107.396 276.834 106.999 278.634 107.33Z" fill="#8596CC"/>
<path d="M278.634 53.6889C279.976 53.9358 281.215 54.5753 282.194 55.5266C283.174 56.4779 283.848 57.6982 284.134 59.0331C284.419 60.368 284.302 61.7576 283.798 63.026C283.294 64.2945 282.424 65.3849 281.3 66.1592C280.176 66.9336 278.847 67.3571 277.482 67.3763C276.117 67.3954 274.777 67.0093 273.632 66.2668C272.486 65.5243 271.587 64.4588 271.047 63.2049C270.507 61.9511 270.351 60.5654 270.599 59.223C270.931 57.424 271.964 55.8305 273.471 54.7928C274.977 53.7551 276.834 53.358 278.634 53.6889Z" fill="#8596CC"/>
<path d="M284.304 6.94866C284.304 3.13737 281.214 0.0477157 277.403 0.0477158C273.592 0.047716 270.502 3.13737 270.502 6.94866C270.502 10.76 273.592 13.8496 277.403 13.8496C281.214 13.8496 284.304 10.76 284.304 6.94866Z" fill="#8596CC"/>
<path d="M323.741 214.311C325.083 214.556 326.321 215.194 327.301 216.143C328.28 217.092 328.957 218.31 329.244 219.644C329.532 220.977 329.418 222.366 328.917 223.634C328.416 224.903 327.55 225.994 326.429 226.771C325.308 227.548 323.982 227.975 322.618 227.999C321.254 228.023 319.914 227.642 318.767 226.904C317.62 226.166 316.717 225.105 316.172 223.855C315.627 222.605 315.465 221.221 315.706 219.878C316.039 218.077 317.071 216.481 318.576 215.438C320.081 214.395 321.938 213.99 323.741 214.311Z" fill="#8596CC"/>
<path d="M323.741 160.669C325.084 160.916 326.323 161.556 327.302 162.507C328.281 163.458 328.956 164.679 329.241 166.014C329.527 167.348 329.41 168.738 328.905 170.007C328.401 171.275 327.532 172.365 326.407 173.14C325.283 173.914 323.955 174.338 322.59 174.357C321.225 174.376 319.885 173.99 318.739 173.247C317.594 172.505 316.694 171.439 316.154 170.185C315.614 168.932 315.459 167.546 315.707 166.203C316.047 164.409 317.082 162.821 318.586 161.785C320.09 160.748 321.943 160.348 323.741 160.669Z" fill="#8596CC"/>
<path d="M323.741 107.33C325.084 107.576 326.323 108.216 327.302 109.167C328.281 110.119 328.956 111.339 329.241 112.674C329.527 114.009 329.41 115.398 328.905 116.667C328.401 117.935 327.532 119.026 326.407 119.8C325.283 120.574 323.955 120.998 322.59 121.017C321.225 121.036 319.885 120.65 318.739 119.907C317.594 119.165 316.694 118.099 316.154 116.846C315.614 115.592 315.459 114.206 315.707 112.864C316.039 111.065 317.072 109.471 318.578 108.433C320.085 107.396 321.942 106.999 323.741 107.33Z" fill="#8596CC"/>
<path d="M323.741 53.6889C325.084 53.9358 326.323 54.5753 327.302 55.5266C328.281 56.4779 328.956 57.6982 329.241 59.0331C329.527 60.368 329.41 61.7576 328.905 63.026C328.401 64.2945 327.532 65.3849 326.407 66.1592C325.283 66.9336 323.955 67.3571 322.59 67.3763C321.225 67.3954 319.885 67.0093 318.739 66.2668C317.594 65.5243 316.694 64.4588 316.154 63.2049C315.614 61.9511 315.459 60.5654 315.707 59.223C316.039 57.424 317.072 55.8305 318.578 54.7928C320.085 53.7551 321.942 53.358 323.741 53.6889Z" fill="#8596CC"/>
<path d="M329.408 6.94866C329.408 3.13737 326.318 0.0477157 322.507 0.0477158C318.695 0.047716 315.605 3.13737 315.605 6.94866C315.605 10.76 318.695 13.8496 322.507 13.8496C326.318 13.8496 329.408 10.76 329.408 6.94866Z" fill="#8596CC"/>
<path d="M368.846 214.311C370.188 214.556 371.427 215.194 372.406 216.143C373.386 217.092 374.062 218.31 374.35 219.644C374.638 220.977 374.524 222.366 374.023 223.634C373.521 224.903 372.656 225.994 371.535 226.771C370.414 227.548 369.087 227.975 367.724 227.999C366.36 228.023 365.02 227.642 363.872 226.904C362.725 226.166 361.822 225.105 361.277 223.855C360.733 222.605 360.571 221.221 360.812 219.878C361.145 218.077 362.176 216.481 363.681 215.438C365.187 214.395 367.043 213.99 368.846 214.311Z" fill="#8596CC"/>
<path d="M368.848 160.669C370.191 160.916 371.43 161.556 372.409 162.507C373.388 163.458 374.063 164.679 374.349 166.014C374.634 167.348 374.517 168.738 374.013 170.007C373.508 171.275 372.639 172.365 371.515 173.14C370.391 173.914 369.062 174.338 367.697 174.357C366.332 174.376 364.992 173.99 363.847 173.247C362.701 172.505 361.802 171.439 361.262 170.185C360.722 168.932 360.566 167.546 360.814 166.203C361.154 164.409 362.189 162.821 363.693 161.785C365.198 160.748 367.05 160.348 368.848 160.669Z" fill="#8596CC"/>
<path d="M368.848 107.33C370.191 107.576 371.43 108.216 372.409 109.167C373.388 110.119 374.063 111.339 374.349 112.674C374.634 114.009 374.517 115.398 374.013 116.667C373.508 117.935 372.639 119.026 371.515 119.8C370.391 120.574 369.062 120.998 367.697 121.017C366.332 121.036 364.992 120.65 363.847 119.907C362.701 119.165 361.802 118.099 361.262 116.846C360.722 115.592 360.566 114.206 360.814 112.864C361.146 111.065 362.179 109.471 363.686 108.433C365.192 107.396 367.049 106.999 368.848 107.33Z" fill="#8596CC"/>
<path d="M368.848 53.6889C370.191 53.9358 371.43 54.5753 372.409 55.5266C373.388 56.4779 374.063 57.6982 374.349 59.0331C374.634 60.368 374.517 61.7576 374.013 63.026C373.508 64.2945 372.639 65.3849 371.515 66.1592C370.391 66.9336 369.062 67.3571 367.697 67.3763C366.332 67.3954 364.992 67.0093 363.847 66.2668C362.701 65.5243 361.802 64.4588 361.262 63.2049C360.722 61.9511 360.566 60.5654 360.814 59.223C361.146 57.424 362.179 55.8305 363.686 54.7928C365.192 53.7551 367.049 53.358 368.848 53.6889Z" fill="#8596CC"/>
<path d="M374.515 6.94866C374.515 3.13737 371.425 0.0477157 367.614 0.0477158C363.803 0.047716 360.713 3.13737 360.713 6.94866C360.713 10.76 363.803 13.8496 367.614 13.8496C371.425 13.8496 374.515 10.76 374.515 6.94866Z" fill="#8596CC"/>
<path d="M413.952 214.311C415.294 214.556 416.532 215.194 417.512 216.143C418.491 217.092 419.168 218.31 419.455 219.644C419.743 220.977 419.629 222.366 419.128 223.634C418.627 224.903 417.761 225.994 416.64 226.771C415.519 227.548 414.193 227.975 412.829 227.999C411.465 228.023 410.125 227.642 408.978 226.904C407.831 226.166 406.927 225.105 406.383 223.855C405.838 222.605 405.676 221.221 405.917 219.878C406.25 218.077 407.282 216.481 408.787 215.438C410.292 214.395 412.149 213.99 413.952 214.311Z" fill="#8596CC"/>
<path d="M413.952 160.669C415.294 160.916 416.534 161.556 417.513 162.507C418.492 163.458 419.167 164.679 419.452 166.014C419.738 167.348 419.621 168.738 419.116 170.007C418.612 171.275 417.742 172.365 416.618 173.14C415.494 173.914 414.165 174.338 412.801 174.357C411.436 174.376 410.096 173.99 408.95 173.247C407.805 172.505 406.905 171.439 406.365 170.185C405.825 168.932 405.67 167.546 405.917 166.203C406.258 164.409 407.292 162.821 408.797 161.785C410.301 160.748 412.154 160.348 413.952 160.669Z" fill="#8596CC"/>
<path d="M413.952 107.33C415.294 107.576 416.534 108.216 417.513 109.167C418.492 110.119 419.167 111.339 419.452 112.674C419.738 114.009 419.621 115.398 419.116 116.667C418.612 117.935 417.742 119.026 416.618 119.8C415.494 120.574 414.165 120.998 412.801 121.017C411.436 121.036 410.096 120.65 408.95 119.907C407.805 119.165 406.905 118.099 406.365 116.846C405.825 115.592 405.67 114.206 405.917 112.864C406.25 111.065 407.283 109.471 408.789 108.433C410.296 107.396 412.153 106.999 413.952 107.33Z" fill="#8596CC"/>
<path d="M413.952 53.6889C415.294 53.9358 416.534 54.5753 417.513 55.5266C418.492 56.4779 419.167 57.6982 419.452 59.0331C419.738 60.368 419.621 61.7576 419.116 63.026C418.612 64.2945 417.742 65.3849 416.618 66.1592C415.494 66.9336 414.165 67.3571 412.801 67.3763C411.436 67.3954 410.096 67.0093 408.95 66.2668C407.805 65.5243 406.905 64.4588 406.365 63.2049C405.825 61.9511 405.67 60.5654 405.917 59.223C406.25 57.424 407.283 55.8305 408.789 54.7928C410.296 53.7551 412.153 53.358 413.952 53.6889Z" fill="#8596CC"/>
<path d="M419.62 6.94866C419.62 3.13737 416.531 0.0477157 412.719 0.0477158C408.908 0.047716 405.818 3.13737 405.818 6.94866C405.818 10.76 408.908 13.8496 412.719 13.8496C416.531 13.8496 419.62 10.76 419.62 6.94866Z" fill="#8596CC"/>
<path d="M459.059 214.311C460.401 214.556 461.64 215.194 462.619 216.143C463.599 217.092 464.275 218.31 464.563 219.644C464.85 220.977 464.736 222.366 464.235 223.634C463.734 224.903 462.868 225.994 461.747 226.771C460.626 227.548 459.3 227.975 457.936 227.999C456.573 228.023 455.233 227.642 454.085 226.904C452.938 226.166 452.035 225.105 451.49 223.855C450.946 222.605 450.784 221.221 451.025 219.878C451.357 218.077 452.389 216.481 453.894 215.438C455.4 214.395 457.256 213.99 459.059 214.311Z" fill="#8596CC"/>
<path d="M459.061 160.669C460.404 160.916 461.643 161.556 462.622 162.507C463.601 163.458 464.276 164.679 464.562 166.014C464.847 167.348 464.73 168.738 464.226 170.007C463.721 171.275 462.852 172.365 461.728 173.14C460.603 173.914 459.275 174.338 457.91 174.357C456.545 174.376 455.205 173.99 454.059 173.247C452.914 172.505 452.014 171.439 451.475 170.185C450.935 168.932 450.779 167.546 451.027 166.203C451.367 164.409 452.402 162.821 453.906 161.785C455.411 160.748 457.263 160.348 459.061 160.669Z" fill="#8596CC"/>
<path d="M459.061 107.33C460.404 107.576 461.643 108.216 462.622 109.167C463.601 110.119 464.276 111.339 464.562 112.674C464.847 114.009 464.73 115.398 464.226 116.667C463.721 117.935 462.852 119.026 461.728 119.8C460.603 120.574 459.275 120.998 457.91 121.017C456.545 121.036 455.205 120.65 454.059 119.907C452.914 119.165 452.014 118.099 451.475 116.846C450.935 115.592 450.779 114.206 451.027 112.864C451.359 111.065 452.392 109.471 453.898 108.433C455.405 107.396 457.262 106.999 459.061 107.33Z" fill="#8596CC"/>
<path d="M459.061 53.6889C460.404 53.9358 461.643 54.5753 462.622 55.5266C463.601 56.4779 464.276 57.6982 464.562 59.0331C464.847 60.368 464.73 61.7576 464.226 63.026C463.721 64.2945 462.852 65.3849 461.728 66.1592C460.603 66.9336 459.275 67.3571 457.91 67.3763C456.545 67.3954 455.205 67.0093 454.059 66.2668C452.914 65.5243 452.014 64.4588 451.475 63.2049C450.935 61.9511 450.779 60.5654 451.027 59.223C451.359 57.424 452.392 55.8305 453.898 54.7928C455.405 53.7551 457.262 53.358 459.061 53.6889Z" fill="#8596CC"/>
<path d="M464.728 6.94866C464.728 3.13737 461.638 0.0477157 457.827 0.0477158C454.015 0.047716 450.926 3.13737 450.926 6.94866C450.926 10.76 454.015 13.8496 457.827 13.8496C461.638 13.8496 464.728 10.76 464.728 6.94866Z" fill="#8596CC"/>
</svg>
