<svg width="140" height="350" viewBox="0 0 140 350" fill="none" xmlns="http://www.w3.org/2000/svg">
<path d="M10.3081 6.14765C10.1232 7.15795 9.64309 8.09079 8.92836 8.82838C8.21363 9.56597 7.29636 10.0752 6.29239 10.2918C5.28842 10.5084 4.24278 10.4226 3.28752 10.0453C2.33226 9.66804 1.51024 9.01613 0.925256 8.17193C0.340273 7.32772 0.0185724 6.3291 0.000780097 5.30218C-0.0170122 4.27526 0.2699 3.2661 0.825288 2.40214C1.38068 1.53818 2.17962 0.858174 3.12124 0.448004C4.06285 0.037833 5.1049 -0.0841055 6.11577 0.0975832C7.4687 0.354119 8.66654 1.13226 9.45085 2.26411C10.2352 3.39597 10.5431 4.7908 10.3081 6.14765Z" fill="#E2E2E2"/>
<path d="M50.7019 6.14813C50.5159 7.1591 50.0344 8.09223 49.318 8.82946C48.6017 9.5667 47.6828 10.0749 46.6776 10.2899C45.6724 10.5048 44.626 10.4168 43.6708 10.0369C42.7157 9.65709 41.8946 9.00249 41.3115 8.15595C40.7284 7.30941 40.4095 6.30895 40.395 5.28113C40.3806 4.2533 40.6714 3.24428 41.2305 2.38171C41.7896 1.51914 42.592 0.841773 43.5361 0.435286C44.4803 0.028798 45.5237 -0.0885431 46.5346 0.0981018C47.8829 0.360351 49.0746 1.14088 49.8538 2.27208C50.6329 3.40327 50.9374 4.79491 50.7019 6.14813Z" fill="#E2E2E2"/>
<path d="M90.8659 6.14813C90.68 7.1591 90.1984 8.09223 89.4821 8.82946C88.7657 9.5667 87.8469 10.0749 86.8417 10.2899C85.8364 10.5048 84.7901 10.4168 83.8349 10.0369C82.8797 9.65709 82.0586 9.00249 81.4755 8.15595C80.8924 7.30941 80.5735 6.30895 80.5591 5.28113C80.5447 4.2533 80.8354 3.24428 81.3945 2.38171C81.9536 1.51914 82.756 0.841773 83.7002 0.435286C84.6443 0.028798 85.6878 -0.0885431 86.6986 0.0981018C88.0501 0.354345 89.2459 1.13352 90.0262 2.26633C90.8064 3.39915 91.1082 4.7941 90.8659 6.14813Z" fill="#E2E2E2"/>
<path d="M131.26 6.14813C131.074 7.1591 130.593 8.09223 129.877 8.82946C129.16 9.5667 128.241 10.0749 127.236 10.2899C126.231 10.5048 125.185 10.4168 124.229 10.0369C123.274 9.65709 122.453 9.00249 121.87 8.15595C121.287 7.30941 120.968 6.30895 120.954 5.28113C120.939 4.2533 121.23 3.24428 121.789 2.38171C122.348 1.51914 123.151 0.841773 124.095 0.435286C125.039 0.028798 126.082 -0.0885431 127.093 0.0981018C128.445 0.354345 129.64 1.13352 130.421 2.26633C131.201 3.39915 131.503 4.7941 131.26 6.14813Z" fill="#E2E2E2"/>
<path d="M10.3081 39.9875C10.1232 40.9978 9.64309 41.9306 8.92836 42.6682C8.21363 43.4058 7.29636 43.9151 6.29239 44.1317C5.28842 44.3483 4.24278 44.2625 3.28752 43.8852C2.33226 43.5079 1.51024 42.856 0.925256 42.0118C0.340273 41.1676 0.0185724 40.1689 0.000780097 39.142C-0.0170122 38.1151 0.2699 37.1059 0.825288 36.242C1.38068 35.378 2.17962 34.698 3.12124 34.2878C4.06285 33.8777 5.1049 33.7557 6.11577 33.9374C7.4687 34.194 8.66654 34.9721 9.45085 36.104C10.2352 37.2358 10.5431 38.6306 10.3081 39.9875Z" fill="#E2E2E2"/>
<path d="M50.7019 39.988C50.5159 40.999 50.0344 41.9321 49.318 42.6694C48.6017 43.4066 47.6828 43.9148 46.6776 44.1298C45.6724 44.3447 44.626 44.2567 43.6708 43.8768C42.7157 43.497 41.8946 42.8424 41.3115 41.9959C40.7284 41.1493 40.4095 40.1488 40.395 39.121C40.3806 38.0932 40.6714 37.0841 41.2305 36.2216C41.7896 35.359 42.592 34.6816 43.5361 34.2751C44.4803 33.8686 45.5237 33.7513 46.5346 33.9379C47.8829 34.2002 49.0746 34.9807 49.8538 36.1119C50.6329 37.2431 50.9374 38.6348 50.7019 39.988Z" fill="#E2E2E2"/>
<path d="M90.8659 39.988C90.68 40.999 90.1984 41.9321 89.4821 42.6694C88.7657 43.4066 87.8469 43.9148 86.8417 44.1298C85.8364 44.3447 84.7901 44.2567 83.8349 43.8768C82.8797 43.497 82.0586 42.8424 81.4755 41.9959C80.8924 41.1493 80.5735 40.1488 80.5591 39.121C80.5447 38.0932 80.8354 37.0841 81.3945 36.2216C81.9536 35.359 82.756 34.6816 83.7002 34.2751C84.6443 33.8686 85.6878 33.7513 86.6986 33.9379C88.0501 34.1942 89.2459 34.9734 90.0262 36.1062C90.8064 37.239 91.1082 38.634 90.8659 39.988Z" fill="#E2E2E2"/>
<path d="M131.26 39.988C131.074 40.999 130.593 41.9321 129.877 42.6694C129.16 43.4066 128.241 43.9148 127.236 44.1298C126.231 44.3447 125.185 44.2567 124.229 43.8768C123.274 43.497 122.453 42.8424 121.87 41.9959C121.287 41.1493 120.968 40.1488 120.954 39.121C120.939 38.0932 121.23 37.0841 121.789 36.2216C122.348 35.359 123.151 34.6816 124.095 34.2751C125.039 33.8686 126.082 33.7513 127.093 33.9379C128.445 34.1942 129.64 34.9734 130.421 36.1062C131.201 37.239 131.503 38.634 131.26 39.988Z" fill="#E2E2E2"/>
<path d="M10.3081 73.9289C10.1232 74.9392 9.64309 75.872 8.92836 76.6096C8.21363 77.3472 7.29636 77.8565 6.29239 78.0731C5.28842 78.2897 4.24278 78.2039 3.28752 77.8266C2.33226 77.4493 1.51024 76.7974 0.925256 75.9532C0.340273 75.109 0.0185724 74.1104 0.000780097 73.0834C-0.0170122 72.0565 0.2699 71.0473 0.825288 70.1834C1.38068 69.3194 2.17962 68.6394 3.12124 68.2293C4.06285 67.8191 5.1049 67.6971 6.11577 67.8788C7.4687 68.1354 8.66654 68.9135 9.45085 70.0454C10.2352 71.1772 10.5431 72.572 10.3081 73.9289Z" fill="#E2E2E2"/>
<path d="M50.7019 73.9294C50.5159 74.9403 50.0344 75.8734 49.318 76.6107C48.6017 77.3479 47.6828 77.8561 46.6776 78.071C45.6724 78.286 44.626 78.198 43.6708 77.8181C42.7157 77.4383 41.8946 76.7837 41.3115 75.9372C40.7284 75.0906 40.4095 74.0902 40.395 73.0624C40.3806 72.0345 40.6714 71.0255 41.2305 70.163C41.7896 69.3004 42.592 68.623 43.5361 68.2165C44.4803 67.8101 45.5237 67.6927 46.5346 67.8793C47.8829 68.1416 49.0746 68.9221 49.8538 70.0533C50.6329 71.1845 50.9374 72.5761 50.7019 73.9294Z" fill="#E2E2E2"/>
<path d="M90.8659 73.9294C90.68 74.9403 90.1984 75.8734 89.4821 76.6107C88.7657 77.3479 87.8469 77.8561 86.8417 78.071C85.8364 78.286 84.7901 78.198 83.8349 77.8181C82.8797 77.4383 82.0586 76.7837 81.4755 75.9372C80.8924 75.0906 80.5735 74.0902 80.5591 73.0624C80.5447 72.0345 80.8354 71.0255 81.3945 70.163C81.9536 69.3004 82.756 68.623 83.7002 68.2165C84.6443 67.8101 85.6878 67.6927 86.6986 67.8793C88.0501 68.1356 89.2459 68.9148 90.0262 70.0476C90.8064 71.1804 91.1082 72.5753 90.8659 73.9294Z" fill="#E2E2E2"/>
<path d="M131.26 73.9294C131.074 74.9403 130.593 75.8734 129.877 76.6107C129.16 77.3479 128.241 77.8561 127.236 78.071C126.231 78.286 125.185 78.198 124.229 77.8181C123.274 77.4383 122.453 76.7837 121.87 75.9372C121.287 75.0906 120.968 74.0902 120.954 73.0624C120.939 72.0345 121.23 71.0255 121.789 70.163C122.348 69.3004 123.151 68.623 124.095 68.2165C125.039 67.8101 126.082 67.6927 127.093 67.8793C128.445 68.1356 129.64 68.9148 130.421 70.0476C131.201 71.1804 131.503 72.5753 131.26 73.9294Z" fill="#E2E2E2"/>
<path d="M10.3081 107.919C10.1232 108.929 9.64309 109.862 8.92836 110.6C8.21363 111.337 7.29636 111.847 6.29239 112.063C5.28842 112.28 4.24278 112.194 3.28752 111.817C2.33226 111.44 1.51024 110.788 0.925256 109.943C0.340273 109.099 0.0185724 108.101 0.000780097 107.074C-0.0170122 106.047 0.2699 105.038 0.825288 104.174C1.38068 103.31 2.17962 102.63 3.12124 102.219C4.06285 101.809 5.1049 101.687 6.11577 101.869C7.4687 102.126 8.66654 102.904 9.45085 104.036C10.2352 105.167 10.5431 106.562 10.3081 107.919Z" fill="#E2E2E2"/>
<path d="M50.7019 107.92C50.5159 108.931 50.0344 109.864 49.318 110.601C48.6017 111.338 47.6828 111.846 46.6776 112.061C45.6724 112.276 44.626 112.188 43.6708 111.808C42.7157 111.429 41.8946 110.774 41.3115 109.927C40.7284 109.081 40.4095 108.08 40.395 107.053C40.3806 106.025 40.6714 105.016 41.2305 104.153C41.7896 103.291 42.592 102.613 43.5361 102.207C44.4803 101.8 45.5237 101.683 46.5346 101.87C47.8829 102.132 49.0746 102.912 49.8538 104.044C50.6329 105.175 50.9374 106.566 50.7019 107.92Z" fill="#E2E2E2"/>
<path d="M90.8659 107.92C90.68 108.931 90.1984 109.864 89.4821 110.601C88.7657 111.338 87.8469 111.846 86.8417 112.061C85.8364 112.276 84.7901 112.188 83.8349 111.808C82.8797 111.429 82.0586 110.774 81.4755 109.927C80.8924 109.081 80.5735 108.08 80.5591 107.053C80.5447 106.025 80.8354 105.016 81.3945 104.153C81.9536 103.291 82.756 102.613 83.7002 102.207C84.6443 101.8 85.6878 101.683 86.6986 101.87C88.0501 102.126 89.2459 102.905 90.0262 104.038C90.8064 105.171 91.1082 106.566 90.8659 107.92Z" fill="#E2E2E2"/>
<path d="M131.26 107.92C131.074 108.931 130.593 109.864 129.877 110.601C129.16 111.338 128.241 111.846 127.236 112.061C126.231 112.276 125.185 112.188 124.229 111.808C123.274 111.429 122.453 110.774 121.87 109.927C121.287 109.081 120.968 108.08 120.954 107.053C120.939 106.025 121.23 105.016 121.789 104.153C122.348 103.291 123.151 102.613 124.095 102.207C125.039 101.8 126.082 101.683 127.093 101.87C128.445 102.126 129.64 102.905 130.421 104.038C131.201 105.171 131.503 106.566 131.26 107.92Z" fill="#E2E2E2"/>
<path d="M10.3081 141.886C10.1232 142.896 9.64309 143.829 8.92836 144.567C8.21363 145.304 7.29636 145.814 6.29239 146.03C5.28842 146.247 4.24278 146.161 3.28752 145.784C2.33226 145.406 1.51024 144.754 0.925256 143.91C0.340273 143.066 0.0185724 142.067 0.000780097 141.04C-0.0170122 140.014 0.2699 139.004 0.825288 138.14C1.38068 137.276 2.17962 136.596 3.12124 136.186C4.06285 135.776 5.1049 135.654 6.11577 135.836C7.4687 136.092 8.66654 136.871 9.45085 138.002C10.2352 139.134 10.5431 140.529 10.3081 141.886Z" fill="#E2E2E2"/>
<path d="M50.7019 141.884C50.5159 142.895 50.0344 143.829 49.318 144.566C48.6017 145.303 47.6828 145.811 46.6776 146.026C45.6724 146.241 44.626 146.153 43.6708 145.773C42.7157 145.393 41.8946 144.739 41.3115 143.892C40.7284 143.046 40.4095 142.045 40.395 141.017C40.3806 139.99 40.6714 138.981 41.2305 138.118C41.7896 137.255 42.592 136.578 43.5361 136.172C44.4803 135.765 45.5237 135.648 46.5346 135.834C47.8829 136.097 49.0746 136.877 49.8538 138.008C50.6329 139.14 50.9374 140.531 50.7019 141.884Z" fill="#E2E2E2"/>
<path d="M90.8659 141.884C90.68 142.895 90.1984 143.829 89.4821 144.566C88.7657 145.303 87.8469 145.811 86.8417 146.026C85.8364 146.241 84.7901 146.153 83.8349 145.773C82.8797 145.393 82.0586 144.739 81.4755 143.892C80.8924 143.046 80.5735 142.045 80.5591 141.017C80.5447 139.99 80.8354 138.981 81.3945 138.118C81.9536 137.255 82.756 136.578 83.7002 136.172C84.6443 135.765 85.6878 135.648 86.6986 135.834C88.0501 136.091 89.2459 136.87 90.0262 138.003C90.8064 139.135 91.1082 140.53 90.8659 141.884Z" fill="#E2E2E2"/>
<path d="M131.26 141.884C131.074 142.895 130.593 143.829 129.877 144.566C129.16 145.303 128.241 145.811 127.236 146.026C126.231 146.241 125.185 146.153 124.229 145.773C123.274 145.393 122.453 144.739 121.87 143.892C121.287 143.046 120.968 142.045 120.954 141.017C120.939 139.99 121.23 138.981 121.789 138.118C122.348 137.255 123.151 136.578 124.095 136.172C125.039 135.765 126.082 135.648 127.093 135.834C128.445 136.091 129.64 136.87 130.421 138.003C131.201 139.135 131.503 140.53 131.26 141.884Z" fill="#E2E2E2"/>
<path d="M10.3081 175.851C10.1232 176.861 9.6431 177.794 8.92837 178.532C8.21364 179.269 7.29636 179.778 6.29239 179.995C5.28842 180.212 4.24278 180.126 3.28752 179.749C2.33226 179.371 1.51024 178.719 0.925256 177.875C0.340273 177.031 0.0185724 176.032 0.000780098 175.005C-0.0170122 173.978 0.2699 172.969 0.825288 172.105C1.38068 171.241 2.17962 170.561 3.12124 170.151C4.06285 169.741 5.1049 169.619 6.11577 169.801C7.47186 170.051 8.6738 170.828 9.45924 171.961C10.2447 173.095 10.5499 174.493 10.3081 175.851Z" fill="#E2E2E2"/>
<path d="M50.7019 175.851C50.5159 176.862 50.0344 177.795 49.318 178.533C48.6017 179.27 47.6828 179.778 46.6776 179.993C45.6724 180.208 44.626 180.12 43.6708 179.74C42.7157 179.36 41.8946 178.706 41.3115 177.859C40.7284 177.013 40.4095 176.012 40.395 174.984C40.3806 173.956 40.6714 172.947 41.2305 172.085C41.7896 171.222 42.592 170.545 43.5361 170.138C44.4803 169.732 45.5238 169.615 46.5346 169.801C47.8861 170.057 49.0818 170.837 49.8621 171.969C50.6424 173.102 50.9442 174.497 50.7019 175.851Z" fill="#E2E2E2"/>
<path d="M90.8659 175.851C90.68 176.862 90.1984 177.795 89.4821 178.533C88.7657 179.27 87.8469 179.778 86.8417 179.993C85.8364 180.208 84.7901 180.12 83.8349 179.74C82.8797 179.36 82.0586 178.706 81.4755 177.859C80.8924 177.013 80.5735 176.012 80.5591 174.984C80.5447 173.956 80.8354 172.947 81.3945 172.085C81.9536 171.222 82.756 170.545 83.7002 170.138C84.6443 169.732 85.6878 169.615 86.6986 169.801C88.0533 170.051 89.2532 170.829 90.0346 171.964C90.8161 173.098 91.1151 174.496 90.8659 175.851Z" fill="#E2E2E2"/>
<path d="M131.26 175.851C131.075 176.862 130.593 177.795 129.877 178.533C129.16 179.27 128.241 179.778 127.236 179.993C126.231 180.208 125.185 180.12 124.229 179.74C123.274 179.36 122.453 178.706 121.87 177.859C121.287 177.013 120.968 176.012 120.954 174.984C120.939 173.956 121.23 172.947 121.789 172.085C122.348 171.222 123.151 170.545 124.095 170.138C125.039 169.732 126.082 169.615 127.093 169.801C128.448 170.051 129.648 170.829 130.429 171.964C131.211 173.098 131.51 174.496 131.26 175.851Z" fill="#E2E2E2"/>
<path d="M10.3081 209.816C10.1232 210.826 9.6431 211.759 8.92837 212.496C8.21364 213.234 7.29636 213.743 6.29239 213.96C5.28842 214.176 4.24278 214.09 3.28752 213.713C2.33226 213.336 1.51024 212.684 0.925256 211.84C0.340273 210.996 0.0185724 209.997 0.000780098 208.97C-0.0170122 207.943 0.2699 206.934 0.825288 206.07C1.38068 205.206 2.17962 204.526 3.12124 204.116C4.06285 203.706 5.1049 203.584 6.11577 203.766C7.47186 204.016 8.6738 204.793 9.45924 205.926C10.2447 207.06 10.5499 208.458 10.3081 209.816Z" fill="#E2E2E2"/>
<path d="M50.7019 209.816C50.5159 210.827 50.0344 211.76 49.318 212.498C48.6017 213.235 47.6828 213.743 46.6776 213.958C45.6724 214.173 44.626 214.085 43.6708 213.705C42.7157 213.325 41.8946 212.671 41.3115 211.824C40.7284 210.978 40.4095 209.977 40.395 208.949C40.3806 207.921 40.6714 206.912 41.2305 206.05C41.7896 205.187 42.592 204.51 43.5361 204.103C44.4803 203.697 45.5238 203.579 46.5346 203.766C47.8861 204.022 49.0818 204.801 49.8621 205.934C50.6424 207.067 50.9442 208.462 50.7019 209.816Z" fill="#E2E2E2"/>
<path d="M90.8659 209.816C90.68 210.827 90.1984 211.76 89.4821 212.498C88.7657 213.235 87.8469 213.743 86.8417 213.958C85.8364 214.173 84.7901 214.085 83.8349 213.705C82.8797 213.325 82.0586 212.671 81.4755 211.824C80.8924 210.978 80.5735 209.977 80.5591 208.949C80.5447 207.921 80.8354 206.912 81.3945 206.05C81.9536 205.187 82.756 204.51 83.7002 204.103C84.6443 203.697 85.6878 203.579 86.6986 203.766C88.0533 204.016 89.2532 204.794 90.0346 205.928C90.8161 207.063 91.1151 208.461 90.8659 209.816Z" fill="#E2E2E2"/>
<path d="M131.26 209.816C131.075 210.827 130.593 211.76 129.877 212.498C129.16 213.235 128.241 213.743 127.236 213.958C126.231 214.173 125.185 214.085 124.229 213.705C123.274 213.325 122.453 212.671 121.87 211.824C121.287 210.978 120.968 209.977 120.954 208.949C120.939 207.921 121.23 206.912 121.789 206.05C122.348 205.187 123.151 204.51 124.095 204.103C125.039 203.697 126.082 203.579 127.093 203.766C128.448 204.016 129.648 204.794 130.429 205.928C131.211 207.063 131.51 208.461 131.26 209.816Z" fill="#E2E2E2"/>
<path d="M10.3081 243.782C10.1232 244.793 9.6431 245.726 8.92837 246.463C8.21364 247.201 7.29636 247.71 6.29239 247.927C5.28842 248.143 4.24278 248.057 3.28752 247.68C2.33226 247.303 1.51024 246.651 0.925256 245.807C0.340273 244.962 0.0185724 243.964 0.000780098 242.937C-0.0170122 241.91 0.2699 240.901 0.825288 240.037C1.38068 239.173 2.17962 238.493 3.12124 238.083C4.06285 237.673 5.1049 237.551 6.11577 237.732C7.47186 237.983 8.6738 238.76 9.45924 239.893C10.2447 241.027 10.5499 242.425 10.3081 243.782Z" fill="#E2E2E2"/>
<path d="M50.7019 243.781C50.5159 244.792 50.0344 245.725 49.318 246.462C48.6017 247.2 47.6828 247.708 46.6776 247.923C45.6724 248.138 44.626 248.05 43.6708 247.67C42.7157 247.29 41.8946 246.635 41.3115 245.789C40.7284 244.942 40.4095 243.942 40.395 242.914C40.3806 241.886 40.6714 240.877 41.2305 240.015C41.7896 239.152 42.592 238.475 43.5361 238.068C44.4803 237.662 45.5238 237.544 46.5346 237.731C47.8861 237.987 49.0818 238.766 49.8621 239.899C50.6424 241.032 50.9442 242.427 50.7019 243.781Z" fill="#E2E2E2"/>
<path d="M90.8659 243.781C90.68 244.792 90.1984 245.725 89.4821 246.462C88.7657 247.2 87.8469 247.708 86.8417 247.923C85.8364 248.138 84.7901 248.05 83.8349 247.67C82.8797 247.29 82.0586 246.635 81.4755 245.789C80.8924 244.942 80.5735 243.942 80.5591 242.914C80.5447 241.886 80.8354 240.877 81.3945 240.015C81.9536 239.152 82.756 238.475 83.7002 238.068C84.6443 237.662 85.6878 237.544 86.6986 237.731C88.0533 237.981 89.2532 238.759 90.0346 239.893C90.8161 241.028 91.1151 242.426 90.8659 243.781Z" fill="#E2E2E2"/>
<path d="M131.26 243.781C131.075 244.792 130.593 245.725 129.877 246.462C129.16 247.2 128.241 247.708 127.236 247.923C126.231 248.138 125.185 248.05 124.229 247.67C123.274 247.29 122.453 246.635 121.87 245.789C121.287 244.942 120.968 243.942 120.954 242.914C120.939 241.886 121.23 240.877 121.789 240.015C122.348 239.152 123.151 238.475 124.095 238.068C125.039 237.662 126.082 237.544 127.093 237.731C128.448 237.981 129.648 238.759 130.429 239.893C131.211 241.028 131.51 242.426 131.26 243.781Z" fill="#E2E2E2"/>
<path d="M10.3081 277.747C10.1232 278.758 9.6431 279.69 8.92837 280.428C8.21364 281.166 7.29636 281.675 6.29239 281.891C5.28842 282.108 4.24278 282.022 3.28752 281.645C2.33226 281.268 1.51024 280.616 0.925256 279.772C0.340273 278.927 0.0185724 277.929 0.000780098 276.902C-0.0170122 275.875 0.2699 274.866 0.825288 274.002C1.38068 273.138 2.17962 272.458 3.12124 272.048C4.06285 271.637 5.1049 271.516 6.11577 271.697C7.47186 271.948 8.6738 272.724 9.45924 273.858C10.2447 274.991 10.5499 276.39 10.3081 277.747Z" fill="#E2E2E2"/>
<path d="M50.7019 277.748C50.5159 278.759 50.0344 279.692 49.318 280.429C48.6017 281.167 47.6828 281.675 46.6776 281.89C45.6724 282.105 44.626 282.017 43.6708 281.637C42.7157 281.257 41.8946 280.602 41.3115 279.756C40.7284 278.909 40.4095 277.909 40.395 276.881C40.3806 275.853 40.6714 274.844 41.2305 273.981C41.7896 273.119 42.592 272.441 43.5361 272.035C44.4803 271.628 45.5238 271.511 46.5346 271.698C47.8861 271.954 49.0818 272.733 49.8621 273.866C50.6424 274.999 50.9442 276.394 50.7019 277.748Z" fill="#E2E2E2"/>
<path d="M90.8659 277.748C90.68 278.759 90.1984 279.692 89.4821 280.429C88.7657 281.167 87.8469 281.675 86.8417 281.89C85.8364 282.105 84.7901 282.017 83.8349 281.637C82.8797 281.257 82.0586 280.602 81.4755 279.756C80.8924 278.909 80.5735 277.909 80.5591 276.881C80.5447 275.853 80.8354 274.844 81.3945 273.981C81.9536 273.119 82.756 272.441 83.7002 272.035C84.6443 271.628 85.6878 271.511 86.6986 271.698C88.0533 271.948 89.2532 272.726 90.0346 273.86C90.8161 274.995 91.1151 276.393 90.8659 277.748Z" fill="#E2E2E2"/>
<path d="M131.26 277.748C131.075 278.759 130.593 279.692 129.877 280.429C129.16 281.167 128.241 281.675 127.236 281.89C126.231 282.105 125.185 282.017 124.229 281.637C123.274 281.257 122.453 280.602 121.87 279.756C121.287 278.909 120.968 277.909 120.954 276.881C120.939 275.853 121.23 274.844 121.789 273.981C122.348 273.119 123.151 272.441 124.095 272.035C125.039 271.628 126.082 271.511 127.093 271.698C128.448 271.948 129.648 272.726 130.429 273.86C131.211 274.995 131.51 276.393 131.26 277.748Z" fill="#E2E2E2"/>
<path d="M10.3081 311.714C10.1232 312.724 9.6431 313.657 8.92837 314.395C8.21364 315.132 7.29636 315.642 6.29239 315.858C5.28842 316.075 4.24278 315.989 3.28752 315.612C2.33226 315.234 1.51024 314.583 0.925256 313.738C0.340273 312.894 0.0185724 311.895 0.000780098 310.869C-0.0170122 309.842 0.2699 308.832 0.825288 307.969C1.38068 307.105 2.17962 306.425 3.12124 306.014C4.06285 305.604 5.1049 305.482 6.11577 305.664C7.47186 305.914 8.6738 306.691 9.45924 307.825C10.2447 308.958 10.5499 310.356 10.3081 311.714Z" fill="#E2E2E2"/>
<path d="M50.7019 311.713C50.5159 312.724 50.0344 313.657 49.318 314.394C48.6017 315.131 47.6828 315.639 46.6776 315.854C45.6724 316.069 44.626 315.981 43.6708 315.601C42.7157 315.222 41.8946 314.567 41.3115 313.72C40.7284 312.874 40.4095 311.873 40.395 310.846C40.3806 309.818 40.6714 308.809 41.2305 307.946C41.7896 307.084 42.592 306.406 43.5361 306C44.4803 305.593 45.5238 305.476 46.5346 305.663C47.8861 305.919 49.0818 306.698 49.8621 307.831C50.6424 308.964 50.9442 310.359 50.7019 311.713Z" fill="#E2E2E2"/>
<path d="M90.8659 311.713C90.68 312.724 90.1984 313.657 89.4821 314.394C88.7657 315.131 87.8469 315.639 86.8417 315.854C85.8364 316.069 84.7901 315.981 83.8349 315.601C82.8797 315.222 82.0586 314.567 81.4755 313.72C80.8924 312.874 80.5735 311.873 80.5591 310.846C80.5447 309.818 80.8354 308.809 81.3945 307.946C81.9536 307.084 82.756 306.406 83.7002 306C84.6443 305.593 85.6878 305.476 86.6986 305.663C88.0533 305.913 89.2532 306.69 90.0346 307.825C90.8161 308.959 91.1151 310.358 90.8659 311.713Z" fill="#E2E2E2"/>
<path d="M131.26 311.713C131.075 312.724 130.593 313.657 129.877 314.394C129.16 315.131 128.241 315.639 127.236 315.854C126.231 316.069 125.185 315.981 124.229 315.601C123.274 315.222 122.453 314.567 121.87 313.72C121.287 312.874 120.968 311.873 120.954 310.846C120.939 309.818 121.23 308.809 121.789 307.946C122.348 307.084 123.151 306.406 124.095 306C125.039 305.593 126.082 305.476 127.093 305.663C128.448 305.913 129.648 306.69 130.429 307.825C131.211 308.959 131.51 310.358 131.26 311.713Z" fill="#E2E2E2"/>
<path d="M10.3081 345.679C10.1232 346.689 9.6431 347.622 8.92837 348.36C8.21364 349.097 7.29636 349.606 6.29239 349.823C5.28842 350.04 4.24278 349.954 3.28752 349.576C2.33226 349.199 1.51024 348.547 0.925256 347.703C0.340273 346.859 0.0185724 345.86 0.000780098 344.833C-0.0170122 343.806 0.2699 342.797 0.825288 341.933C1.38068 341.069 2.17962 340.389 3.12124 339.979C4.06285 339.569 5.1049 339.447 6.11577 339.629C7.47186 339.879 8.6738 340.656 9.45924 341.79C10.2447 342.923 10.5499 344.321 10.3081 345.679Z" fill="#E2E2E2"/>
<path d="M50.7019 345.679C50.5159 346.69 50.0344 347.624 49.318 348.361C48.6017 349.098 47.6828 349.606 46.6776 349.821C45.6724 350.036 44.626 349.948 43.6708 349.568C42.7157 349.188 41.8946 348.534 41.3115 347.687C40.7284 346.841 40.4095 345.84 40.395 344.812C40.3806 343.785 40.6714 342.776 41.2305 341.913C41.7896 341.05 42.592 340.373 43.5361 339.967C44.4803 339.56 45.5238 339.443 46.5346 339.629C47.8861 339.886 49.0818 340.665 49.8621 341.798C50.6424 342.93 50.9442 344.325 50.7019 345.679Z" fill="#E2E2E2"/>
<path d="M90.8659 345.679C90.68 346.69 90.1984 347.624 89.4821 348.361C88.7657 349.098 87.8469 349.606 86.8417 349.821C85.8364 350.036 84.7901 349.948 83.8349 349.568C82.8797 349.188 82.0586 348.534 81.4755 347.687C80.8924 346.841 80.5735 345.84 80.5591 344.812C80.5447 343.785 80.8354 342.776 81.3945 341.913C81.9536 341.05 82.756 340.373 83.7002 339.967C84.6443 339.56 85.6878 339.443 86.6986 339.629C88.0533 339.879 89.2532 340.657 90.0346 341.792C90.8161 342.926 91.1151 344.325 90.8659 345.679Z" fill="#E2E2E2"/>
<path d="M131.26 345.679C131.075 346.69 130.593 347.624 129.877 348.361C129.16 349.098 128.241 349.606 127.236 349.821C126.231 350.036 125.185 349.948 124.229 349.568C123.274 349.188 122.453 348.534 121.87 347.687C121.287 346.841 120.968 345.84 120.954 344.812C120.939 343.785 121.23 342.776 121.789 341.913C122.348 341.05 123.151 340.373 124.095 339.967C125.039 339.56 126.082 339.443 127.093 339.629C128.448 339.879 129.648 340.657 130.429 341.792C131.211 342.926 131.51 344.325 131.26 345.679Z" fill="#E2E2E2"/>
</svg>
