<svg width="24" height="24" viewBox="0 0 24 24" fill="none" xmlns="http://www.w3.org/2000/svg">
<path d="M9.70828 8.66672H3.45828C2.65414 8.66672 2 8.01257 2 7.20828V3.45828C2 2.65414 2.65414 2 3.45828 2H9.70828C10.5126 2 11.1667 2.65414 11.1667 3.45828V7.20828C11.1667 8.01257 10.5126 8.66672 9.70828 8.66672ZM3.45828 3.25C3.34338 3.25 3.25 3.34338 3.25 3.45828V7.20828C3.25 7.32333 3.34338 7.41672 3.45828 7.41672H9.70828C9.82333 7.41672 9.91672 7.32333 9.91672 7.20828V3.45828C9.91672 3.34338 9.82333 3.25 9.70828 3.25H3.45828Z" fill="black"/>
<path d="M9.70828 22.0007H3.45828C2.65414 22.0007 2 21.3466 2 20.5424V11.7924C2 10.9881 2.65414 10.334 3.45828 10.334H9.70828C10.5126 10.334 11.1667 10.9881 11.1667 11.7924V20.5424C11.1667 21.3466 10.5126 22.0007 9.70828 22.0007ZM3.45828 11.584C3.34338 11.584 3.25 11.6774 3.25 11.7924V20.5424C3.25 20.6573 3.34338 20.7507 3.45828 20.7507H9.70828C9.82333 20.7507 9.91672 20.6573 9.91672 20.5424V11.7924C9.91672 11.6774 9.82333 11.584 9.70828 11.584H3.45828Z" fill="black"/>
<path d="M20.5405 22.0007H14.2905C13.4862 22.0007 12.832 21.3466 12.832 20.5424V16.7924C12.832 15.9881 13.4862 15.334 14.2905 15.334H20.5405C21.3446 15.334 21.9987 15.9881 21.9987 16.7924V20.5424C21.9987 21.3466 21.3446 22.0007 20.5405 22.0007ZM14.2905 16.584C14.1754 16.584 14.082 16.6774 14.082 16.7924V20.5424C14.082 20.6573 14.1754 20.7507 14.2905 20.7507H20.5405C20.6554 20.7507 20.7487 20.6573 20.7487 20.5424V16.7924C20.7487 16.6774 20.6554 16.584 20.5405 16.584H14.2905Z" fill="black"/>
<path d="M20.5405 13.6667H14.2905C13.4862 13.6667 12.832 13.0126 12.832 12.2083V3.45828C12.832 2.65414 13.4862 2 14.2905 2H20.5405C21.3446 2 21.9987 2.65414 21.9987 3.45828V12.2083C21.9987 13.0126 21.3446 13.6667 20.5405 13.6667ZM14.2905 3.25C14.1754 3.25 14.082 3.34338 14.082 3.45828V12.2083C14.082 12.3233 14.1754 12.4167 14.2905 12.4167H20.5405C20.6554 12.4167 20.7487 12.3233 20.7487 12.2083V3.45828C20.7487 3.34338 20.6554 3.25 20.5405 3.25H14.2905Z" fill="black"/>
</svg>
