<svg width="160" height="465" viewBox="0 0 160 465" fill="none" xmlns="http://www.w3.org/2000/svg">
<path d="M52.6705 8.16475C52.4235 9.50731 51.784 10.7465 50.8327 11.7255C49.8815 12.7046 48.6612 13.3795 47.3263 13.6649C45.9914 13.9504 44.6018 13.8335 43.3333 13.329C42.0648 12.8246 40.9745 11.9553 40.2001 10.8311C39.4258 9.70691 39.0023 8.37832 38.9831 7.01337C38.964 5.64842 39.35 4.30845 40.0925 3.16296C40.835 2.01747 41.9006 1.11793 43.1544 0.578119C44.4082 0.0383061 45.794 -0.117522 47.1364 0.130341C48.9311 0.47063 50.5191 1.50537 51.5553 3.00974C52.5915 4.51412 52.9922 6.3666 52.6705 8.16475Z" fill="white"/>
<path d="M106.313 8.16475C106.066 9.50731 105.427 10.7465 104.475 11.7255C103.524 12.7046 102.304 13.3795 100.969 13.6649C99.634 13.9504 98.2444 13.8335 96.9759 13.329C95.7074 12.8246 94.6171 11.9553 93.8427 10.8311C93.0684 9.70691 92.6448 8.37832 92.6257 7.01337C92.6065 5.64842 92.9926 4.30845 93.7351 3.16296C94.4776 2.01747 95.5432 1.11793 96.797 0.578119C98.0508 0.0383061 99.4366 -0.117522 100.779 0.130341C102.574 0.47063 104.162 1.50537 105.198 3.00974C106.234 4.51412 106.635 6.3666 106.313 8.16475Z" fill="white"/>
<path d="M159.886 8.1651C159.722 9.05821 159.383 9.91024 158.89 10.6725C158.396 11.4348 157.757 12.0925 157.01 12.6079C156.262 13.1234 155.42 13.4865 154.532 13.6766C153.644 13.8667 152.728 13.88 151.835 13.7159C150.942 13.5517 150.089 13.2132 149.327 12.7197C148.565 12.2263 147.907 11.5875 147.392 10.8399C146.876 10.0923 146.513 9.25048 146.323 8.36252C146.133 7.47457 146.12 6.55786 146.284 5.66475C146.615 3.86103 147.65 2.26289 149.16 1.22192C150.67 0.180951 152.531 -0.217586 154.335 0.11398C156.139 0.445547 157.737 1.48006 158.778 2.98993C159.819 4.49981 160.217 6.36138 159.886 8.1651Z" fill="white"/>
<path d="M52.6705 53.1042C52.4235 54.4468 51.784 55.686 50.8327 56.6651C49.8815 57.6441 48.6612 58.319 47.3263 58.6045C45.9914 58.8899 44.6018 58.773 43.3333 58.2686C42.0648 57.7642 40.9745 56.8949 40.2001 55.7706C39.4258 54.6464 39.0023 53.3178 38.9831 51.9529C38.964 50.5879 39.35 49.2479 40.0925 48.1024C40.835 46.9569 41.9006 46.0574 43.1544 45.5176C44.4082 44.9778 45.794 44.8219 47.1364 45.0698C48.9311 45.4101 50.5191 46.4448 51.5553 47.9492C52.5915 49.4536 52.9922 51.3061 52.6705 53.1042Z" fill="white"/>
<path d="M106.313 53.1042C106.066 54.4468 105.427 55.686 104.475 56.6651C103.524 57.6441 102.304 58.319 100.969 58.6045C99.634 58.8899 98.2444 58.773 96.9759 58.2686C95.7074 57.7642 94.6171 56.8949 93.8427 55.7706C93.0684 54.6464 92.6448 53.3178 92.6257 51.9529C92.6065 50.5879 92.9926 49.2479 93.7351 48.1024C94.4776 46.9569 95.5432 46.0574 96.797 45.5176C98.0508 44.9778 99.4366 44.8219 100.779 45.0698C102.574 45.4101 104.162 46.4448 105.198 47.9492C106.234 49.4536 106.635 51.3061 106.313 53.1042Z" fill="white"/>
<path d="M159.886 53.1045C159.722 53.9977 159.383 54.8497 158.89 55.612C158.396 56.3743 157.757 57.0319 157.01 57.5474C156.262 58.0628 155.42 58.4259 154.532 58.616C153.644 58.8061 152.728 58.8195 151.835 58.6553C150.942 58.4911 150.089 58.1527 149.327 57.6592C148.565 57.1657 147.907 56.527 147.392 55.7794C146.876 55.0317 146.513 54.1899 146.323 53.302C146.133 52.414 146.12 51.4973 146.284 50.6042C146.615 48.8005 147.65 47.2024 149.16 46.1614C150.67 45.1204 152.531 44.7219 154.335 45.0534C156.139 45.385 157.737 46.4195 158.778 47.9294C159.819 49.4393 160.217 51.3008 159.886 53.1045Z" fill="white"/>
<path d="M52.6705 98.1764C52.4235 99.519 51.784 100.758 50.8327 101.737C49.8815 102.716 48.6612 103.391 47.3263 103.677C45.9914 103.962 44.6018 103.845 43.3333 103.341C42.0648 102.836 40.9745 101.967 40.2001 100.843C39.4258 99.7186 39.0023 98.39 38.9831 97.0251C38.964 95.6601 39.35 94.3201 40.0925 93.1747C40.835 92.0292 41.9006 91.1297 43.1544 90.5899C44.4082 90.05 45.794 89.8942 47.1364 90.1421C48.9311 90.4823 50.5191 91.5171 51.5553 93.0215C52.5915 94.5258 52.9922 96.3783 52.6705 98.1764Z" fill="white"/>
<path d="M106.313 98.1764C106.066 99.519 105.427 100.758 104.475 101.737C103.524 102.716 102.304 103.391 100.969 103.677C99.634 103.962 98.2444 103.845 96.9759 103.341C95.7074 102.836 94.6171 101.967 93.8427 100.843C93.0684 99.7186 92.6448 98.39 92.6257 97.0251C92.6065 95.6601 92.9926 94.3201 93.7351 93.1747C94.4776 92.0292 95.5432 91.1297 96.797 90.5899C98.0508 90.05 99.4366 89.8942 100.779 90.1421C102.574 90.4823 104.162 91.5171 105.198 93.0215C106.234 94.5258 106.635 96.3783 106.313 98.1764Z" fill="white"/>
<path d="M159.886 98.1768C159.722 99.0699 159.383 99.922 158.89 100.684C158.396 101.447 157.757 102.104 157.01 102.62C156.262 103.135 155.42 103.498 154.532 103.688C153.644 103.878 152.728 103.892 151.835 103.728C150.942 103.563 150.089 103.225 149.327 102.731C148.565 102.238 147.907 101.599 147.392 100.852C146.876 100.104 146.513 99.2622 146.323 98.3742C146.133 97.4863 146.12 96.5696 146.284 95.6765C146.615 93.8727 147.65 92.2746 149.16 91.2336C150.67 90.1927 152.531 89.7941 154.335 90.1257C156.139 90.4573 157.737 91.4918 158.778 93.0017C159.819 94.5115 160.217 96.3731 159.886 98.1768Z" fill="white"/>
<path d="M52.6705 143.317C52.4235 144.66 51.784 145.899 50.8327 146.878C49.8815 147.857 48.6612 148.532 47.3263 148.817C45.9914 149.103 44.6018 148.986 43.3333 148.481C42.0648 147.977 40.9745 147.108 40.2001 145.983C39.4258 144.859 39.0023 143.531 38.9831 142.166C38.964 140.801 39.35 139.461 40.0925 138.315C40.835 137.17 41.9006 136.27 43.1544 135.73C44.4082 135.191 45.794 135.035 47.1364 135.283C48.9311 135.623 50.5191 136.658 51.5553 138.162C52.5915 139.666 52.9922 141.519 52.6705 143.317Z" fill="white"/>
<path d="M106.313 143.317C106.066 144.66 105.427 145.899 104.475 146.878C103.524 147.857 102.304 148.532 100.969 148.817C99.634 149.103 98.2444 148.986 96.9759 148.481C95.7074 147.977 94.6171 147.108 93.8427 145.983C93.0684 144.859 92.6448 143.531 92.6257 142.166C92.6065 140.801 92.9926 139.461 93.7351 138.315C94.4776 137.17 95.5432 136.27 96.797 135.73C98.0508 135.191 99.4366 135.035 100.779 135.283C102.574 135.623 104.162 136.658 105.198 138.162C106.234 139.666 106.635 141.519 106.313 143.317Z" fill="white"/>
<path d="M159.886 143.315C159.722 144.209 159.383 145.061 158.89 145.823C158.396 146.585 157.757 147.243 157.01 147.758C156.262 148.274 155.42 148.637 154.532 148.827C153.644 149.017 152.728 149.03 151.835 148.866C150.942 148.702 150.089 148.364 149.327 147.87C148.565 147.377 147.907 146.738 147.392 145.99C146.876 145.243 146.513 144.401 146.323 143.513C146.133 142.625 146.12 141.708 146.284 140.815C146.615 139.011 147.65 137.413 149.16 136.372C150.67 135.331 152.531 134.933 154.335 135.264C156.139 135.596 157.737 136.63 158.778 138.14C159.819 139.65 160.217 141.512 159.886 143.315Z" fill="white"/>
<path d="M52.6705 188.423C52.4235 189.765 51.784 191.004 50.8327 191.983C49.8815 192.962 48.6612 193.637 47.3263 193.923C45.9914 194.208 44.6018 194.091 43.3333 193.587C42.0648 193.082 40.9745 192.213 40.2001 191.089C39.4258 189.965 39.0023 188.636 38.9831 187.271C38.964 185.906 39.35 184.566 40.0925 183.421C40.835 182.275 41.9006 181.376 43.1544 180.836C44.4082 180.296 45.794 180.14 47.1364 180.388C48.9311 180.728 50.5191 181.763 51.5553 183.268C52.5915 184.772 52.9922 186.624 52.6705 188.423Z" fill="white"/>
<path d="M106.313 188.423C106.066 189.765 105.427 191.004 104.475 191.983C103.524 192.962 102.304 193.637 100.969 193.923C99.634 194.208 98.2444 194.091 96.9759 193.587C95.7074 193.082 94.6171 192.213 93.8427 191.089C93.0684 189.965 92.6448 188.636 92.6257 187.271C92.6065 185.906 92.9926 184.566 93.7351 183.421C94.4776 182.275 95.5432 181.376 96.797 180.836C98.0508 180.296 99.4366 180.14 100.779 180.388C102.574 180.728 104.162 181.763 105.198 183.268C106.234 184.772 106.635 186.624 106.313 188.423Z" fill="white"/>
<path d="M159.886 188.423C159.722 189.316 159.383 190.168 158.89 190.93C158.396 191.693 157.757 192.35 157.01 192.866C156.262 193.381 155.42 193.744 154.532 193.934C153.644 194.125 152.728 194.138 151.835 193.974C150.942 193.81 150.089 193.471 149.327 192.978C148.565 192.484 147.907 191.845 147.392 191.098C146.876 190.35 146.513 189.508 146.323 188.62C146.133 187.732 146.12 186.816 146.284 185.923C146.615 184.119 147.65 182.521 149.16 181.48C150.67 180.439 152.531 180.04 154.335 180.372C156.139 180.703 157.737 181.738 158.778 183.248C159.819 184.758 160.217 186.619 159.886 188.423Z" fill="white"/>
<path d="M52.6705 233.528C52.4236 234.871 51.784 236.11 50.8328 237.089C49.8815 238.068 48.6612 238.743 47.3263 239.028C45.9914 239.314 44.6018 239.197 43.3333 238.692C42.0648 238.188 40.9745 237.319 40.2001 236.194C39.4258 235.07 39.0023 233.742 38.9831 232.377C38.964 231.012 39.35 229.672 40.0925 228.526C40.835 227.381 41.9006 226.481 43.1544 225.941C44.4082 225.402 45.794 225.246 47.1364 225.494C48.9353 225.826 50.5288 226.859 51.5666 228.365C52.6043 229.872 53.0014 231.729 52.6705 233.528Z" fill="white"/>
<path d="M106.313 233.528C106.066 234.871 105.427 236.11 104.475 237.089C103.524 238.068 102.304 238.743 100.969 239.028C99.634 239.314 98.2444 239.197 96.9759 238.692C95.7074 238.188 94.6171 237.319 93.8427 236.194C93.0684 235.07 92.6448 233.742 92.6257 232.377C92.6065 231.012 92.9926 229.672 93.7351 228.526C94.4776 227.381 95.5432 226.481 96.797 225.941C98.0508 225.402 99.4366 225.246 100.779 225.494C102.578 225.826 104.171 226.859 105.209 228.365C106.247 229.872 106.644 231.729 106.313 233.528Z" fill="white"/>
<path d="M159.884 233.53C159.639 234.872 159.001 236.111 158.052 237.09C157.103 238.07 155.885 238.746 154.552 239.034C153.218 239.321 151.83 239.207 150.561 238.706C149.293 238.205 148.201 237.339 147.424 236.218C146.647 235.097 146.22 233.771 146.196 232.407C146.173 231.044 146.554 229.703 147.291 228.556C148.029 227.409 149.09 226.506 150.34 225.961C151.591 225.416 152.975 225.254 154.317 225.496C156.118 225.828 157.714 226.86 158.757 228.365C159.8 229.87 160.205 231.727 159.884 233.53Z" fill="white"/>
<path d="M52.6705 278.634C52.4236 279.976 51.784 281.215 50.8328 282.194C49.8815 283.174 48.6612 283.848 47.3263 284.134C45.9914 284.419 44.6018 284.302 43.3333 283.798C42.0648 283.294 40.9745 282.424 40.2001 281.3C39.4258 280.176 39.0023 278.847 38.9831 277.482C38.964 276.117 39.35 274.777 40.0925 273.632C40.835 272.486 41.9006 271.587 43.1544 271.047C44.4082 270.507 45.794 270.351 47.1364 270.599C48.9353 270.931 50.5288 271.964 51.5666 273.471C52.6043 274.977 53.0014 276.834 52.6705 278.634Z" fill="white"/>
<path d="M106.313 278.634C106.066 279.976 105.427 281.215 104.475 282.194C103.524 283.174 102.304 283.848 100.969 284.134C99.634 284.419 98.2444 284.302 96.9759 283.798C95.7074 283.294 94.6171 282.424 93.8427 281.3C93.0684 280.176 92.6448 278.847 92.6257 277.482C92.6065 276.117 92.9926 274.777 93.7351 273.632C94.4776 272.486 95.5432 271.587 96.797 271.047C98.0508 270.507 99.4366 270.351 100.779 270.599C102.578 270.931 104.171 271.964 105.209 273.471C106.247 274.977 106.644 276.834 106.313 278.634Z" fill="white"/>
<path d="M153.051 284.302C156.863 284.302 159.952 281.212 159.952 277.401C159.952 273.59 156.863 270.5 153.051 270.5C149.24 270.5 146.15 273.59 146.15 277.401C146.15 281.212 149.24 284.302 153.051 284.302Z" fill="white"/>
<path d="M52.6705 323.741C52.4236 325.084 51.784 326.323 50.8328 327.302C49.8815 328.281 48.6612 328.956 47.3263 329.241C45.9914 329.527 44.6018 329.41 43.3333 328.905C42.0648 328.401 40.9745 327.532 40.2001 326.407C39.4258 325.283 39.0023 323.955 38.9831 322.59C38.964 321.225 39.35 319.885 40.0925 318.739C40.835 317.594 41.9006 316.694 43.1544 316.154C44.4082 315.614 45.794 315.459 47.1364 315.707C48.9353 316.039 50.5288 317.072 51.5666 318.578C52.6043 320.085 53.0014 321.942 52.6705 323.741Z" fill="white"/>
<path d="M106.313 323.741C106.066 325.084 105.427 326.323 104.475 327.302C103.524 328.281 102.304 328.956 100.969 329.241C99.634 329.527 98.2444 329.41 96.9759 328.905C95.7074 328.401 94.6171 327.532 93.8427 326.407C93.0684 325.283 92.6448 323.955 92.6257 322.59C92.6065 321.225 92.9926 319.885 93.7351 318.739C94.4776 317.594 95.5432 316.694 96.797 316.154C98.0508 315.614 99.4366 315.459 100.779 315.707C102.578 316.039 104.171 317.072 105.209 318.578C106.247 320.085 106.644 321.942 106.313 323.741Z" fill="white"/>
<path d="M153.051 329.408C156.863 329.408 159.952 326.318 159.952 322.507C159.952 318.695 156.863 315.605 153.051 315.605C149.24 315.605 146.15 318.695 146.15 322.507C146.15 326.318 149.24 329.408 153.051 329.408Z" fill="white"/>
<path d="M52.6705 368.849C52.4236 370.191 51.784 371.43 50.8328 372.409C49.8815 373.388 48.6612 374.063 47.3263 374.349C45.9914 374.634 44.6018 374.517 43.3333 374.013C42.0648 373.508 40.9745 372.639 40.2001 371.515C39.4258 370.391 39.0023 369.062 38.9831 367.697C38.964 366.332 39.35 364.992 40.0925 363.847C40.835 362.701 41.9006 361.802 43.1544 361.262C44.4082 360.722 45.794 360.566 47.1364 360.814C48.9353 361.146 50.5288 362.179 51.5666 363.686C52.6043 365.192 53.0014 367.049 52.6705 368.849Z" fill="white"/>
<path d="M106.313 368.849C106.066 370.191 105.427 371.43 104.475 372.409C103.524 373.388 102.304 374.063 100.969 374.349C99.634 374.634 98.2444 374.517 96.9759 374.013C95.7074 373.508 94.6171 372.639 93.8427 371.515C93.0684 370.391 92.6448 369.062 92.6257 367.697C92.6065 366.332 92.9926 364.992 93.7351 363.847C94.4776 362.701 95.5432 361.802 96.797 361.262C98.0508 360.722 99.4366 360.566 100.779 360.814C102.578 361.146 104.171 362.179 105.209 363.686C106.247 365.192 106.644 367.049 106.313 368.849Z" fill="white"/>
<path d="M153.051 374.515C156.863 374.515 159.952 371.425 159.952 367.614C159.952 363.803 156.863 360.713 153.051 360.713C149.24 360.713 146.15 363.803 146.15 367.614C146.15 371.425 149.24 374.515 153.051 374.515Z" fill="white"/>
<path d="M52.6705 413.952C52.4236 415.294 51.784 416.534 50.8328 417.513C49.8815 418.492 48.6612 419.167 47.3263 419.452C45.9914 419.738 44.6018 419.621 43.3333 419.116C42.0648 418.612 40.9745 417.742 40.2001 416.618C39.4258 415.494 39.0023 414.165 38.9831 412.801C38.964 411.436 39.35 410.096 40.0925 408.95C40.835 407.805 41.9006 406.905 43.1544 406.365C44.4082 405.825 45.794 405.67 47.1364 405.917C48.9353 406.25 50.5288 407.283 51.5666 408.789C52.6043 410.296 53.0014 412.153 52.6705 413.952Z" fill="white"/>
<path d="M106.313 413.952C106.066 415.294 105.427 416.534 104.475 417.513C103.524 418.492 102.304 419.167 100.969 419.452C99.634 419.738 98.2444 419.621 96.9759 419.116C95.7074 418.612 94.6171 417.742 93.8427 416.618C93.0684 415.494 92.6448 414.165 92.6257 412.801C92.6065 411.436 92.9926 410.096 93.7351 408.95C94.4776 407.805 95.5432 406.905 96.797 406.365C98.0508 405.825 99.4366 405.67 100.779 405.917C102.578 406.25 104.171 407.283 105.209 408.789C106.247 410.296 106.644 412.153 106.313 413.952Z" fill="white"/>
<path d="M153.051 419.62C156.863 419.62 159.952 416.531 159.952 412.719C159.952 408.908 156.863 405.818 153.051 405.818C149.24 405.818 146.15 408.908 146.15 412.719C146.15 416.531 149.24 419.62 153.051 419.62Z" fill="white"/>
<path d="M52.6705 459.059C52.4236 460.402 51.784 461.641 50.8328 462.62C49.8815 463.599 48.6612 464.274 47.3263 464.56C45.9914 464.845 44.6018 464.728 43.3333 464.224C42.0648 463.719 40.9745 462.85 40.2001 461.726C39.4258 460.601 39.0023 459.273 38.9831 457.908C38.964 456.543 39.35 455.203 40.0925 454.058C40.835 452.912 41.9006 452.012 43.1544 451.473C44.4082 450.933 45.794 450.777 47.1364 451.025C48.9353 451.357 50.5288 452.39 51.5666 453.897C52.6043 455.403 53.0014 457.26 52.6705 459.059Z" fill="white"/>
<path d="M106.313 459.059C106.066 460.402 105.427 461.641 104.475 462.62C103.524 463.599 102.304 464.274 100.969 464.56C99.634 464.845 98.2444 464.728 96.9759 464.224C95.7074 463.719 94.6171 462.85 93.8427 461.726C93.0684 460.601 92.6448 459.273 92.6257 457.908C92.6065 456.543 92.9926 455.203 93.7351 454.058C94.4776 452.912 95.5432 452.012 96.797 451.473C98.0508 450.933 99.4366 450.777 100.779 451.025C102.578 451.357 104.171 452.39 105.209 453.897C106.247 455.403 106.644 457.26 106.313 459.059Z" fill="white"/>
<path d="M153.051 464.728C156.863 464.728 159.952 461.638 159.952 457.827C159.952 454.015 156.863 450.926 153.051 450.926C149.24 450.926 146.15 454.015 146.15 457.827C146.15 461.638 149.24 464.728 153.051 464.728Z" fill="white"/>
</svg>
