<svg width="92" height="92" viewBox="0 0 92 92" fill="none" xmlns="http://www.w3.org/2000/svg">
<path d="M87.957 11.9492H4.04297C2.55439 11.9492 1.34766 13.156 1.34766 14.6445V69.0898C1.34766 70.5784 2.55439 71.7852 4.04297 71.7852H87.957C89.4456 71.7852 90.6523 70.5784 90.6523 69.0898V14.6445C90.6523 13.156 89.4456 11.9492 87.957 11.9492Z" fill="#575A96"/>
<path d="M9.43359 58.3086V25.4258C10.8633 25.4258 12.2344 24.8578 13.2453 23.8469C14.2563 22.836 14.8242 21.4648 14.8242 20.0352H77.1758C77.1758 21.4648 77.7437 22.836 78.7547 23.8469C79.7656 24.8578 81.1367 25.4258 82.5664 25.4258V58.3086C81.1367 58.3086 79.7656 58.8765 78.7547 59.8875C77.7437 60.8984 77.1758 62.2695 77.1758 63.6992H14.8242C14.8242 62.2695 14.2563 60.8984 13.2453 59.8875C12.2344 58.8765 10.8633 58.3086 9.43359 58.3086Z" fill="#F7F7F7"/>
<path d="M63.6992 29.4688H28.3008C27.9434 29.4688 27.6006 29.3268 27.3478 29.074C27.0951 28.8213 26.9531 28.4785 26.9531 28.1211C26.9531 27.7637 27.0951 27.4209 27.3478 27.1682C27.6006 26.9154 27.9434 26.7734 28.3008 26.7734H63.6992C64.0566 26.7734 64.3994 26.9154 64.6522 27.1682C64.9049 27.4209 65.0469 27.7637 65.0469 28.1211C65.0469 28.4785 64.9049 28.8213 64.6522 29.074C64.3994 29.3268 64.0566 29.4688 63.6992 29.4688ZM25.9648 40.25H17.5195C17.1621 40.25 16.8193 40.108 16.5666 39.8553C16.3139 39.6026 16.1719 39.2598 16.1719 38.9023C16.1719 38.5449 16.3139 38.2021 16.5666 37.9494C16.8193 37.6967 17.1621 37.5547 17.5195 37.5547H25.9648C26.3223 37.5547 26.665 37.6967 26.9178 37.9494C27.1705 38.2021 27.3125 38.5449 27.3125 38.9023C27.3125 39.2598 27.1705 39.6026 26.9178 39.8553C26.665 40.108 26.3223 40.25 25.9648 40.25ZM74.4805 40.25H33.6914C33.334 40.25 32.9912 40.108 32.7385 39.8553C32.4857 39.6026 32.3438 39.2598 32.3438 38.9023C32.3438 38.5449 32.4857 38.2021 32.7385 37.9494C32.9912 37.6967 33.334 37.5547 33.6914 37.5547H74.4805C74.8379 37.5547 75.1807 37.6967 75.4334 37.9494C75.6861 38.2021 75.8281 38.5449 75.8281 38.9023C75.8281 39.2598 75.6861 39.6026 75.4334 39.8553C75.1807 40.108 74.8379 40.25 74.4805 40.25ZM54.0859 45.6406H17.5195C17.1621 45.6406 16.8193 45.4986 16.5666 45.2459C16.3139 44.9932 16.1719 44.6504 16.1719 44.293C16.1719 43.9356 16.3139 43.5928 16.5666 43.34C16.8193 43.0873 17.1621 42.9453 17.5195 42.9453H54.0859C54.4434 42.9453 54.7861 43.0873 55.0389 43.34C55.2916 43.5928 55.4336 43.9356 55.4336 44.293C55.4336 44.6504 55.2916 44.9932 55.0389 45.2459C54.7861 45.4986 54.4434 45.6406 54.0859 45.6406ZM54.0859 51.0313H17.5195C17.1621 51.0313 16.8193 50.8893 16.5666 50.6365C16.3139 50.3838 16.1719 50.041 16.1719 49.6836C16.1719 49.3262 16.3139 48.9834 16.5666 48.7307C16.8193 48.4779 17.1621 48.3359 17.5195 48.3359H54.0859C54.4434 48.3359 54.7861 48.4779 55.0389 48.7307C55.2916 48.9834 55.4336 49.3262 55.4336 49.6836C55.4336 50.041 55.2916 50.3838 55.0389 50.6365C54.7861 50.8893 54.4434 51.0313 54.0859 51.0313ZM43.4089 60.1666C42.3428 60.17 41.2811 60.031 40.2518 59.7533C39.289 59.48 38.3592 59.1016 37.4792 58.6249C36.6562 58.2188 35.9573 57.8594 34.9097 57.6797C33.0571 57.3796 31.0482 57.8055 28.9441 58.9483C28.7884 59.0349 28.6172 59.0897 28.4402 59.1097C28.2632 59.1296 28.084 59.1143 27.913 59.0646C27.742 59.0149 27.5825 58.9318 27.4438 58.8201C27.3051 58.7084 27.1899 58.5703 27.1049 58.4138C27.0199 58.2573 26.9667 58.0855 26.9485 57.9084C26.9303 57.7312 26.9473 57.5522 26.9987 57.3817C27.0501 57.2111 27.1348 57.0525 27.2479 56.9149C27.3609 56.7773 27.5002 56.6635 27.6575 56.58C30.3007 55.1425 32.8846 54.6196 35.3427 55.0203C36.8018 55.2575 37.7649 55.7391 38.6957 56.2152C39.4141 56.6079 40.1733 56.9206 40.9598 57.1478C43.0909 57.7282 45.5328 57.5072 48.2227 56.5027C48.5488 56.4082 48.8985 56.4401 49.202 56.5922C49.5055 56.7443 49.7404 57.0053 49.8598 57.3231C49.9792 57.6408 49.9742 57.992 49.846 58.3063C49.7177 58.6206 49.4755 58.8749 49.1679 59.0184C47.1536 59.7874 45.2255 60.1666 43.4089 60.1666Z" fill="#CECECE"/>
<path d="M76.858 90.4444L71.3092 86.7895C71.1038 86.6543 70.8633 86.5822 70.6174 86.5822C70.3715 86.5822 70.131 86.6543 69.9256 86.7895L64.3769 90.4426C64.1872 90.5675 63.9672 90.6387 63.7403 90.6487C63.5134 90.6587 63.288 90.607 63.0881 90.4992C62.8882 90.3915 62.7212 90.2316 62.6049 90.0365C62.4885 89.8415 62.4271 89.6185 62.4272 89.3914V64.1992H78.8076V89.3932C78.8077 89.6203 78.7463 89.8433 78.63 90.0383C78.5136 90.2334 78.3466 90.3933 78.1467 90.501C77.9468 90.6088 77.7214 90.6605 77.4945 90.6505C77.2676 90.6405 77.0476 90.5693 76.858 90.4444Z" fill="#66C1FF"/>
<path d="M85.8331 53.7087C85.4881 53.2739 85.0964 52.7834 84.976 52.4959C84.8395 52.1688 84.764 51.5417 84.6921 50.9344C84.5124 49.452 84.2914 47.6084 82.8737 46.1888C81.4559 44.7693 79.6105 44.5501 78.1281 44.3722C77.5226 44.2985 76.8937 44.223 76.5666 44.0865C76.2809 43.9679 75.7886 43.5762 75.3537 43.2294C74.2307 42.3309 72.6926 41.1055 70.6172 41.1055C68.5418 41.1055 67.0037 42.3327 65.8788 43.2294C65.4458 43.5762 64.9534 43.9679 64.6677 44.0865C64.3407 44.223 63.7118 44.2985 63.1063 44.3722C61.6238 44.5519 59.7784 44.7711 58.3607 46.1888C56.943 47.6066 56.7202 49.452 56.5423 50.9344C56.4704 51.5417 56.3949 52.1688 56.2584 52.4959C56.138 52.7834 55.7463 53.2739 55.4013 53.7087C54.5028 54.8318 53.2773 56.3717 53.2773 58.4453C53.2773 60.5189 54.5046 62.0606 55.4013 63.1837C55.7463 63.6167 56.138 64.1091 56.2584 64.3948C56.3949 64.7236 56.4704 65.3507 56.5423 65.958C56.722 67.4405 56.943 69.2841 58.3607 70.7036C58.8179 71.1561 59.3537 71.5214 59.942 71.7817H81.2924C81.8806 71.5214 82.4165 71.1561 82.8737 70.7036C84.2914 69.2841 84.5142 67.4405 84.6921 65.958C84.764 65.3507 84.8395 64.7236 84.976 64.3948C85.0964 64.1091 85.4881 63.6167 85.8331 63.1837C86.7316 62.0606 87.957 60.5207 87.957 58.4453C87.957 56.3699 86.7298 54.8318 85.8331 53.7087Z" fill="#FFE236"/>
<path d="M78.1281 44.3722C77.5226 44.2985 76.8937 44.223 76.5666 44.0865C76.2809 43.9679 75.7886 43.5762 75.3537 43.2294C74.2307 42.3309 72.6926 41.1055 70.6172 41.1055C68.5418 41.1055 67.0037 42.3327 65.8788 43.2294C65.4458 43.5762 64.9534 43.9679 64.6677 44.0865C64.3407 44.223 63.7118 44.2985 63.1063 44.3722C61.6238 44.5519 59.7784 44.7711 58.3607 46.1888C56.943 47.6066 56.7202 49.452 56.5423 50.9344C56.4704 51.5417 56.3949 52.1688 56.2584 52.4959C56.138 52.7834 55.7463 53.2739 55.4013 53.7087C54.5028 54.8318 53.2773 56.3717 53.2773 58.4453C53.2773 60.5189 54.5046 62.0606 55.4013 63.1837C55.5342 63.3526 55.6762 63.5287 55.8055 63.6994H77.1758C77.1758 62.2697 77.7437 60.8986 78.7547 59.8876C79.7656 58.8767 81.1367 58.3088 82.5664 58.3088V45.9103C81.1954 44.7423 79.5063 44.5375 78.1281 44.3722Z" fill="#F2F2F2"/>
<path d="M62.4272 72.4343C62.659 72.4666 62.8872 72.4954 63.1065 72.5205C63.712 72.5942 64.3409 72.6697 64.6679 72.8062C64.9537 72.9248 65.446 73.3166 65.879 73.6634C67.0039 74.5618 68.542 75.7855 70.6174 75.7855C72.6928 75.7855 74.2309 74.5582 75.3558 73.6634C75.7888 73.3166 76.2811 72.9248 76.5669 72.8062C76.8939 72.6697 77.5228 72.5942 78.1283 72.5205C78.3476 72.4954 78.5758 72.4666 78.8076 72.4343V64.1992H62.4272V72.4343Z" fill="#4EB7FF"/>
<path d="M70.6172 73.0898C68.7556 73.0898 67.3235 70.9911 65.7027 70.3173C64.0245 69.6183 61.5322 70.0621 60.2672 68.7971C59.0022 67.5321 59.4442 65.0398 58.747 63.3616C58.0732 61.7444 55.9727 60.3069 55.9727 58.4453C55.9727 56.5838 58.0732 55.1516 58.747 53.5309C59.4442 51.8526 59.0004 49.3621 60.2672 48.0953C61.534 46.8285 64.0245 47.2723 65.7027 46.5752C67.3199 45.9013 68.7574 43.8008 70.6172 43.8008C72.477 43.8008 73.9109 45.9013 75.5316 46.5752C77.2099 47.2723 79.7022 46.8285 80.9672 48.0953C82.2322 49.3621 81.7902 51.8526 82.4873 53.5309C83.1612 55.148 85.2617 56.5855 85.2617 58.4453C85.2617 60.3051 83.1612 61.7408 82.4873 63.3616C81.7902 65.0398 82.234 67.5303 80.9672 68.7971C79.7004 70.0639 77.2099 69.6183 75.5316 70.3173C73.9109 70.9911 72.4788 73.0898 70.6172 73.0898Z" fill="#FFF099"/>
<path d="M70.6172 73.0898C68.7556 73.0898 67.3235 70.9911 65.7027 70.3173C64.0245 69.6183 61.5322 70.0621 60.2672 68.7971C59.0022 67.5321 59.4442 65.0398 58.747 63.3616C58.0732 61.7444 55.9727 60.3069 55.9727 58.4453C55.9727 56.5838 58.0732 55.1516 58.747 53.5309C59.4442 51.8526 59.0004 49.3621 60.2672 48.0953C61.534 46.8285 64.0245 47.2723 65.7027 46.5752C67.3199 45.9013 68.7574 43.8008 70.6172 43.8008C72.477 43.8008 73.9109 45.9013 75.5316 46.5752C77.2099 47.2723 79.7022 46.8285 80.9672 48.0953C82.2322 49.3621 81.7902 51.8526 82.4873 53.5309C83.1612 55.148 85.2617 56.5855 85.2617 58.4453C85.2617 60.3051 83.1612 61.7408 82.4873 63.3616C81.7902 65.0398 82.234 67.5303 80.9672 68.7971C79.7004 70.0639 77.2099 69.6183 75.5316 70.3173C73.9109 70.9911 72.4788 73.0898 70.6172 73.0898Z" fill="#FF6666"/>
<path d="M82.4873 53.5309C81.7902 51.8526 82.234 49.3621 80.9672 48.0953C79.7004 46.8285 77.2099 47.2723 75.5316 46.5752C73.9145 45.9013 72.477 43.8008 70.6172 43.8008C69.6289 43.8008 68.761 44.3937 67.9219 45.0586C68.6622 45.639 69.3809 46.2679 70.141 46.5841C71.8193 47.2813 74.3116 46.8375 75.5766 48.1043C76.8416 49.3711 76.3995 51.8616 77.0967 53.5398C77.7705 55.157 79.8711 56.5945 79.8711 58.4543C79.8711 60.3141 77.7705 61.7498 77.0967 63.3705C76.3995 65.0488 76.8434 67.5393 75.5766 68.8061C74.3098 70.0729 71.8193 69.6273 70.141 70.3263C69.3809 70.6425 68.6622 71.2714 67.9219 71.85C68.761 72.5077 69.6289 73.0988 70.6172 73.0988C72.4787 73.0988 73.9109 71.0001 75.5316 70.3263C77.2099 69.6273 79.7022 70.0711 80.9672 68.8061C82.2322 67.5411 81.7902 65.0488 82.4873 63.3705C83.1612 61.7534 85.2617 60.3159 85.2617 58.4543C85.2617 56.5927 83.1612 55.1516 82.4873 53.5309Z" fill="#FF4E4E"/>
<path d="M70.6172 65.0039C74.2394 65.0039 77.1758 62.0675 77.1758 58.4453C77.1758 54.8231 74.2394 51.8867 70.6172 51.8867C66.995 51.8867 64.0586 54.8231 64.0586 58.4453C64.0586 62.0675 66.995 65.0039 70.6172 65.0039Z" fill="#FFE966"/>
<path d="M70.6172 51.8867C69.8525 51.8893 69.0942 52.0256 68.3765 52.2892C69.6416 52.75 70.7344 53.5888 71.5066 54.6918C72.2788 55.7949 72.693 57.1087 72.693 58.4552C72.693 59.8017 72.2788 61.1155 71.5066 62.2186C70.7344 63.3216 69.6416 64.1604 68.3765 64.6212C69.276 64.9443 70.2354 65.067 71.1873 64.9806C72.1392 64.8942 73.0608 64.6009 73.8875 64.1211C74.7142 63.6412 75.4261 62.9866 75.9733 62.2029C76.5205 61.4192 76.8899 60.5253 77.0555 59.5839C77.2212 58.6426 77.1791 57.6763 76.9323 56.7529C76.6854 55.8295 76.2398 54.9711 75.6265 54.238C75.0132 53.5048 74.2471 52.9145 73.3819 52.5083C72.5166 52.1022 71.573 51.89 70.6172 51.8867Z" fill="#FFE236"/>
</svg>
