<svg width="92" height="92" viewBox="0 0 92 92" fill="none" xmlns="http://www.w3.org/2000/svg">
<path d="M71.0452 38.3165C71.0433 37.9202 70.8741 37.5427 70.5783 37.2796C70.2809 37.0163 69.8834 36.8935 69.4924 36.939L22.2891 42.4969C21.5903 42.5791 21.0625 43.1727 21.0625 43.8769V56.382C21.0625 61.8659 36.7835 63.3296 46.0727 63.3296C55.3615 63.3296 71.0829 61.8659 71.0829 56.382C71.0829 56.382 71.0829 56.38 71.0829 56.3793L71.0452 38.3165Z" fill="#0B4870"/>
<path d="M71.0438 42.4863H46.0332V63.328C46.0461 63.328 46.0587 63.3282 46.0714 63.3282C55.1177 63.3282 70.257 61.9386 71.0438 56.8015V42.4863Z" fill="#0B4870"/>
<path d="M87.4875 30.6437L51.9302 18.4523C48.1524 17.1565 43.9922 17.1565 40.2144 18.4523L4.65826 30.6437C2.94752 31.2298 1.83984 32.7772 1.83984 34.5868C1.83984 36.3956 2.94729 37.9432 4.65826 38.5293L40.2147 50.7202C42.1036 51.3679 44.0869 51.6919 46.0725 51.6919C48.0577 51.6919 50.0416 51.3683 51.9302 50.7202L87.4879 38.5293C89.1991 37.9432 90.305 36.3958 90.305 34.5868C90.3045 32.7772 89.1987 31.2298 87.4875 30.6437Z" fill="#0E538C"/>
<path d="M72.4344 64.7176C71.6664 64.7176 71.0452 64.0955 71.0452 63.3282V45.1729C71.0452 44.5791 70.6678 44.0505 70.1063 43.858L45.5842 35.4508C44.8585 35.2018 44.4715 34.4119 44.7196 33.6858C44.9694 32.9599 45.7578 32.5715 46.4851 32.8224L71.007 41.2301C72.6922 41.8078 73.824 43.3918 73.824 45.1732V63.3284C73.824 64.0955 73.2026 64.7176 72.4344 64.7176Z" fill="#2A94F4"/>
<path d="M73.8245 74.445H71.0457C70.2779 74.445 69.6562 73.8229 69.6562 73.0554V64.7185C69.6562 63.1838 70.9001 61.9395 72.4349 61.9395C73.9701 61.9395 75.2137 63.1838 75.2137 64.7185V73.0554C75.2137 73.8229 74.5918 74.445 73.8245 74.445Z" fill="#FFBE55"/>
<path d="M71.0449 53.3069C71.0546 53.3009 71.0665 53.2954 71.0762 53.2894L71.0682 49.4863C71.0665 49.5079 71.0486 49.5326 71.0449 49.5539V53.3069Z" fill="#5C546A"/>
<path d="M46.0714 36.9288C49.1408 36.9288 51.6291 35.6847 51.6291 34.15C51.6291 32.6152 49.1408 31.3711 46.0714 31.3711C43.0019 31.3711 40.5137 32.6152 40.5137 34.15C40.5137 35.6847 43.0019 36.9288 46.0714 36.9288Z" fill="#D3D3D3"/>
</svg>
