<svg width="193" height="150" viewBox="0 0 193 150" fill="none" xmlns="http://www.w3.org/2000/svg">
<path d="M193 11.5074C179.125 21.2579 166.622 19.0794 156.669 17.3226C147.349 15.6887 139.963 14.4062 130.872 20.8363C121.78 27.2663 120.532 34.5573 118.879 43.8862C117.12 53.8826 114.975 66.3212 101.1 76.0717C87.2253 85.8222 74.7222 83.6261 64.7866 81.8869C55.4489 80.253 48.0807 78.9529 38.9892 85.4006C29.8977 91.8482 28.614 99.1567 26.9961 108.486C25.2376 118.482 23.0922 130.921 9.21752 140.671C-4.65717 150.422 -17.1602 148.226 -27.0958 146.486C-36.4335 144.852 -43.8017 143.552 -52.8932 150L-61 138.493C-47.1253 128.76 -34.6223 130.938 -24.6691 132.695C-15.3314 134.329 -7.96317 135.611 1.12835 129.181C10.2199 122.751 11.5036 115.425 13.1214 106.096C14.8799 96.0998 17.0253 83.6613 30.8824 73.9108C44.7395 64.1602 57.2602 66.3563 67.2134 68.1131C76.5511 69.747 83.9193 71.0295 93.0108 64.5994C102.102 58.1694 103.386 50.8433 105.004 41.5144C106.762 31.5179 108.908 19.0794 122.782 9.32888C136.657 -0.421646 149.16 1.77442 159.096 3.5137C168.434 5.14758 175.802 6.44765 184.911 0L193 11.5074Z" fill="#6FCDC7"/>
</svg>
