<svg width="1920" height="1247" viewBox="0 0 1920 1247" fill="none" xmlns="http://www.w3.org/2000/svg">
<path d="M2689 0H-1083V1247H2689V0Z" fill="#EDF9F8"/>
<path opacity="0.2" d="M833 617V635H748V617" fill="#B0D5D4"/>
<path opacity="0.2" d="M748 934V925H833V934" fill="#B0D5D4"/>
<path opacity="0.2" d="M813.773 635C813.773 635 845.784 781.392 813.773 916H767.227C735.216 781.392 767.227 635 767.227 635H813.773Z" fill="#FDFDFD"/>
<path opacity="0.2" d="M767.111 635C767.111 635 735.361 781.392 767.111 916H813.278C815.967 904.619 818.169 893.152 820 881.685C812.706 914.387 790.91 901.191 779.954 853.277C769.342 806.573 769.514 726.794 776.636 635H767.111Z" fill="#B0D5D4"/>
<path opacity="0.2" d="M813 635C820.495 670.959 825.174 707.391 827 744" stroke="#A5D0D1" stroke-linecap="round" stroke-linejoin="round"/>
<path opacity="0.2" d="M748 635V617" stroke="#A5D0D1" stroke-linecap="round" stroke-linejoin="round"/>
<path opacity="0.2" d="M833 617V635H790" stroke="#A5D0D1" stroke-linecap="round" stroke-linejoin="round"/>
<path opacity="0.2" d="M768 916C734.25 781.392 768 635 768 635" stroke="#A5D0D1" stroke-linecap="round" stroke-linejoin="round"/>
<path opacity="0.2" d="M827 824C825.202 854.986 820.518 885.768 813 916" stroke="#A5D0D1" stroke-linecap="round" stroke-linejoin="round"/>
<path opacity="0.2" d="M785 916H833V934" stroke="#A5D0D1" stroke-linecap="round" stroke-linejoin="round"/>
<path opacity="0.2" d="M748 934V916H767" stroke="#A5D0D1" stroke-linecap="round" stroke-linejoin="round"/>
<path opacity="0.2" d="M1014 916H930V934H1014V916Z" fill="#FDFDFD"/>
<path opacity="0.2" d="M994.963 635C994.963 635 1026.55 781.392 994.963 916H949.037C917.453 781.392 949.037 635 949.037 635H994.963Z" fill="#FDFDFD"/>
<path opacity="0.2" d="M949.322 635C949.322 635 917.098 781.392 949.322 916H996.178C998.907 904.619 1001.14 893.152 1003 881.685C995.597 914.387 973.476 901.191 962.357 853.277C951.586 806.573 951.76 726.794 958.989 635H949.322Z" fill="#B0D5D4"/>
<path opacity="0.2" d="M994.963 635C994.963 635 1026.55 781.392 994.963 916H949.037C917.453 781.392 949.037 635 949.037 635" stroke="#A5D0D1" stroke-linecap="round" stroke-linejoin="round"/>
<path opacity="0.2" d="M930 617V635H1014V617" fill="#B0D5D4"/>
<path opacity="0.2" d="M995 635H1015V617" stroke="#A5D0D1" stroke-linecap="round" stroke-linejoin="round"/>
<path opacity="0.2" d="M930 617V635H968" stroke="#A5D0D1" stroke-linecap="round" stroke-linejoin="round"/>
<path opacity="0.2" d="M930 934V925H1014V934" fill="#B0D5D4"/>
<path opacity="0.2" d="M930 934V916H1014V934" stroke="#A5D0D1" stroke-linecap="round" stroke-linejoin="round"/>
<path opacity="0.2" d="M1169 916H1085V934H1169V916Z" fill="#FDFDFD"/>
<path opacity="0.2" d="M1150.78 635C1150.78 635 1182.77 781.392 1150.78 916H1104.22C1072.23 781.392 1104.22 635 1104.22 635H1150.78Z" fill="#FDFDFD"/>
<path opacity="0.2" d="M1104.31 635C1104.31 635 1072.11 781.392 1104.31 916H1151.18C1153.91 904.619 1156.14 893.152 1158 881.685C1150.6 914.387 1128.5 901.191 1117.39 853.277C1106.63 806.573 1106.8 726.794 1114.03 635H1104.31Z" fill="#B0D5D4"/>
<path opacity="0.2" d="M1104 916C1092.9 868.487 1089.63 819.501 1090.03 776" stroke="#A5D0D1" stroke-linecap="round" stroke-linejoin="round"/>
<path opacity="0.2" d="M1091 743.389C1092.73 706.986 1097.14 670.759 1104.18 635H1150.77C1150.77 635 1182.78 781.392 1150.77 916" stroke="#A5D0D1" stroke-linecap="round" stroke-linejoin="round"/>
<path opacity="0.2" d="M1169 617V635H1085V617" fill="#B0D5D4"/>
<path opacity="0.2" d="M1154 635H1085V617" stroke="#A5D0D1" stroke-linecap="round" stroke-linejoin="round"/>
<path opacity="0.2" d="M1169 617V635" stroke="#A5D0D1" stroke-linecap="round" stroke-linejoin="round"/>
<path opacity="0.2" d="M1085 934V925H1169V934" fill="#B0D5D4"/>
<path opacity="0.2" d="M1138 916H1169V934" stroke="#A5D0D1" stroke-linecap="round" stroke-linejoin="round"/>
<path opacity="0.2" d="M1085 934V916H1104" stroke="#A5D0D1" stroke-linecap="round" stroke-linejoin="round"/>
<path opacity="0.2" d="M1229 617H716V567.245L972.5 430L1229 567.245V617Z" fill="#FDFDFD"/>
<path opacity="0.2" d="M1229 607H716V617H1229V607Z" fill="#B0D5D4"/>
<path opacity="0.2" d="M725 617H716V568.092L725 563V617Z" fill="#B0D5D4"/>
<path opacity="0.2" d="M1210 589H734V598H1210V589Z" fill="#B0D5D4"/>
<path opacity="0.2" d="M744 598H734V577.247L744 572V598Z" fill="#B0D5D4"/>
<path opacity="0.2" d="M1126.95 512.629L1229 567.245V617H716V567.245L972.5 430L1058.92 476.218" stroke="#A5D0D1" stroke-linecap="round" stroke-linejoin="round"/>
<path opacity="0.2" d="M734 578.141L972 451L1210 578.141V598H891.212" stroke="#A5D0D1" stroke-linecap="round" stroke-linejoin="round"/>
<path opacity="0.2" d="M935 533.349C935.003 539.951 936.728 546.436 940.003 552.155C943.278 557.874 947.987 562.625 953.659 565.932C959.331 569.24 965.767 570.987 972.32 571C978.874 571.012 985.316 569.289 991 566.004C989.484 566.212 987.957 566.318 986.427 566.322C978.192 566.316 970.19 563.572 963.663 558.515C957.135 553.459 952.447 546.373 950.326 538.358C948.205 530.342 948.769 521.846 951.932 514.187C955.095 506.528 960.679 500.135 967.818 496C958.768 497.124 950.437 501.54 944.393 508.418C938.349 515.297 935.009 524.163 935 533.349Z" fill="#B0D5D4"/>
<path opacity="0.2" d="M1002.06 510.423C1007.28 517.105 1010.07 525.357 1010 533.834C1009.92 542.311 1006.98 550.512 1001.64 557.1C996.308 563.688 988.898 568.274 980.622 570.11C972.346 571.946 963.692 570.924 956.072 567.21C948.452 563.496 942.314 557.31 938.661 549.661C935.008 542.011 934.054 533.35 935.956 525.089C937.857 516.828 942.501 509.454 949.131 504.172C955.761 498.889 963.985 496.009 972.462 496" stroke="#A5D0D1" stroke-linecap="round" stroke-linejoin="round"/>
<path opacity="0.2" d="M1217 934H727V958H1217V934Z" fill="#FDFDFD"/>
<path opacity="0.2" d="M1217 948H727V958H1217V948Z" fill="#B0D5D4"/>
<path opacity="0.2" d="M727 958V934H851" stroke="#A5D0D1" stroke-linecap="round" stroke-linejoin="round"/>
<path opacity="0.2" d="M1241 981H704V1004H1241V981Z" fill="#FDFDFD"/>
<path opacity="0.2" d="M1241 995H704V1004H1241V995Z" fill="#B0D5D4"/>
<path opacity="0.2" d="M946 1004H736" stroke="#A5D0D1" stroke-linecap="round" stroke-linejoin="round"/>
<path opacity="0.2" d="M1241 981V1004H995" stroke="#A5D0D1" stroke-linecap="round" stroke-linejoin="round"/>
<path opacity="0.2" d="M704 1004V981H1209" stroke="#A5D0D1" stroke-linecap="round" stroke-linejoin="round"/>
<path opacity="0.2" d="M1229 972H716V981H1229V972Z" fill="#B0D5D4"/>
<path opacity="0.2" d="M1229 958V981H716" stroke="#A5D0D1" stroke-linecap="round" stroke-linejoin="round"/>
<path opacity="0.2" d="M716 972V957.765H1217V934H911.738" stroke="#A5D0D1" stroke-linecap="round" stroke-linejoin="round"/>
<path opacity="0.2" d="M1113 609C1098.51 391.468 1041.24 229 972.777 229C920.103 229 874.014 325.235 849 468.725" stroke="#B7DCD9" stroke-linecap="round" stroke-linejoin="round"/>
<path opacity="0.2" d="M1082 1033C1103.22 947.788 1116 837.466 1116 716.801C1116 700.999 1115.78 685.399 1115.34 670" stroke="#B7DCD9" stroke-linecap="round" stroke-linejoin="round"/>
<path opacity="0.2" d="M907 522.088C729.689 441.324 581.778 417.899 550.115 472.94C523.839 518.553 584.07 606.618 695.648 700" stroke="#B7DCD9" stroke-linecap="round" stroke-linejoin="round"/>
<path opacity="0.2" d="M1211 703C1157.82 662.637 1102.07 625.757 1044.08 592.595C1032.36 585.872 1020.67 579.341 1009 573" stroke="#B7DCD9" stroke-linecap="round" stroke-linejoin="round"/>
<path opacity="0.2" d="M1270.39 987.188C1334.39 996.615 1379.91 988.797 1395.88 961.063C1422.35 915.078 1361.08 826.212 1248 732" stroke="#B7DCD9" stroke-linecap="round" stroke-linejoin="round"/>
<path opacity="0.2" d="M1036 522.974C1214.67 441.495 1364.01 417.706 1395.87 472.926C1427.34 527.514 1334.98 642.435 1178.93 755" stroke="#B7DCD9" stroke-linecap="round" stroke-linejoin="round"/>
<path opacity="0.2" d="M681.609 986.248C614.473 997.075 566.535 989.694 550.088 961.09C510.603 892.422 667.311 727.429 900.295 592.62C912.558 585.536 924.793 578.663 937 572" stroke="#B7DCD9" stroke-linecap="round" stroke-linejoin="round"/>
<path opacity="0.2" d="M1571 810.14L1343.7 769C1343.7 769 1323.17 774.71 1317.38 814.423C1317.38 814.423 1315.03 837.52 1322 840.917L1557.87 883C1559.41 858.29 1563.81 833.84 1571 810.14Z" fill="#B0D5D4"/>
<path opacity="0.2" d="M1571 810.14L1343.7 769C1343.7 769 1323.17 774.71 1317.38 814.423C1317.38 814.423 1315.03 837.52 1322 840.917L1557.87 883C1559.41 858.29 1563.81 833.84 1571 810.14V810.14Z" stroke="#A5D0D1" stroke-linecap="round" stroke-linejoin="round"/>
<path opacity="0.2" d="M1568.39 832.372L1331.52 790.07C1325.77 789.067 1322.25 798.904 1319.75 812.87C1317.24 826.837 1316.87 839.628 1322.43 840.632L1559.35 882.934C1564.96 883.937 1571.53 873.441 1574.03 859.474C1576.54 845.507 1574 833.376 1568.39 832.372Z" fill="white"/>
<path opacity="0.2" d="M1328.24 828L1323 840.886L1558.55 882.936C1562.41 883.62 1566.77 878.802 1570 871.133L1328.24 828Z" fill="#B0D5D4"/>
<path opacity="0.2" d="M1331.82 790.022C1330.78 789.934 1329.73 790.114 1328.77 790.547C1327.81 790.98 1326.96 791.652 1326.31 792.505C1331.66 793.545 1334.05 805.76 1331.66 819.795C1330.03 829.238 1326.67 837.121 1323 840.933C1328.35 841.944 1334.66 831.375 1337.06 817.311C1339.46 803.248 1337.11 791.032 1331.82 790.022Z" fill="#B0D5D4"/>
<path opacity="0.2" d="M1445.07 862.934C1450.76 863.926 1457.46 853.555 1460.01 839.754C1462.56 825.954 1460.01 813.967 1454.33 812.975L1437.11 810C1442.97 810.963 1445.37 822.95 1442.97 836.751C1440.56 850.551 1433.71 860.951 1428 859.959L1445.07 862.934Z" fill="white"/>
<path opacity="0.2" d="M1456.33 813C1458.59 820.246 1458.91 827.953 1457.26 835.359C1454.7 849.391 1448.07 859.966 1442.4 858.957L1433.82 857.43C1433.13 858.285 1432.24 858.958 1431.22 859.39C1430.21 859.823 1429.1 860 1428 859.908L1445.07 862.933C1450.74 863.942 1457.4 853.396 1459.93 839.364C1462.29 827.032 1460.6 816.141 1456.33 813Z" fill="#B0D5D4"/>
<path opacity="0.2" d="M1333.06 820.583C1333.61 817.493 1333.93 814.365 1334 811.226L1321.35 809C1313.2 829.884 1322.49 840.932 1322.49 840.932C1328 841.806 1330.56 834.196 1333.06 820.583Z" fill="#B0D5D4"/>
<path opacity="0.2" d="M1337.04 817.298C1337.63 814.132 1337.95 810.923 1338 807.705L1328.5 806C1325.04 811.052 1322.79 816.825 1321.93 822.874C1320.6 828.833 1320.7 835.02 1322.22 840.933C1327.86 841.944 1334.51 831.369 1337.04 817.298Z" fill="white"/>
<path opacity="0.2" d="M1338 807.714L1328.28 806C1327.49 806.989 1326.81 808.049 1326.23 809.166C1328.43 809.557 1330.38 810.772 1331.68 812.552C1332.97 814.332 1333.5 816.536 1333.15 818.693C1333.15 819.187 1333.01 819.68 1332.92 820.145C1331.85 827.737 1328.78 834.926 1324 841C1329.23 839.49 1334.76 829.788 1337.02 817.357C1337.62 814.175 1337.95 810.949 1338 807.714Z" fill="#B0D5D4"/>
<path opacity="0.2" d="M1337.04 817.298C1337.63 814.132 1337.95 810.923 1338 807.705L1328.5 806C1325.04 811.052 1322.79 816.825 1321.93 822.874C1320.6 828.833 1320.7 835.02 1322.22 840.933C1327.86 841.944 1334.51 831.369 1337.04 817.298Z" stroke="#A5D0D1" stroke-linecap="round" stroke-linejoin="round"/>
<path opacity="0.2" d="M1331.51 790C1337.04 791.011 1339.52 803.232 1337.04 817.301C1334.56 831.371 1328.04 841.944 1322.51 840.933C1316.99 839.922 1314.48 827.701 1316.96 813.661" stroke="#A5D0D1" stroke-linecap="round" stroke-linejoin="round"/>
<path opacity="0.2" d="M1445 863C1450.46 863 1456.62 852.987 1459 840" stroke="#A5D0D1" stroke-linecap="round" stroke-linejoin="round"/>
<path opacity="0.2" d="M1331 790L1437.3 809.028C1443.09 810.01 1445.46 822.224 1443.09 836.285C1440.71 850.347 1433.94 860.944 1428.3 859.933" stroke="#A5D0D1" stroke-linecap="round" stroke-linejoin="round"/>
<path opacity="0.2" d="M1551 830L1454 813" stroke="#A5D0D1" stroke-linecap="round" stroke-linejoin="round"/>
<path opacity="0.2" d="M1574.3 841C1575.32 847.081 1575.22 853.297 1574.01 859.342C1571.5 873.387 1564.92 883.943 1559.29 882.933L1323 841.317" stroke="#A5D0D1" stroke-linecap="round" stroke-linejoin="round"/>
<path opacity="0.2" d="M1434.57 861L1425 884.971L1433.7 883.01L1442 888L1441.36 862.211L1434.57 861Z" fill="white"/>
<g opacity="0.2">
<path d="M1442.79 861.493L1442.48 865.255L1436.56 864.192L1438.71 884.24L1432.19 883.149L1426.48 888.06L1415.28 878.438L1426.25 854.973L1442.79 861.493Z" fill="#B0D5D4"/>
</g>
<path opacity="0.2" d="M1434.57 861L1425 884.971L1433.7 883.01L1442 888L1441.36 862.211L1434.57 861Z" stroke="#A5D0D1" stroke-linecap="round" stroke-linejoin="round"/>
<path opacity="0.2" d="M537.714 1102L556 1155.43L526.343 1153.9L503.314 1174L485 1120.57L537.714 1102Z" fill="white"/>
<g opacity="0.2">
<path d="M546.872 1103.01C546.872 1103.01 546.096 1121.77 531.333 1132.45C523.802 1137.99 518.256 1145.81 515.519 1154.75C512.782 1163.69 513 1173.28 516.139 1182.09C516.139 1182.09 470.874 1185.79 469.696 1185.22C468.519 1184.64 469.323 1118.52 469.323 1118.52C469.323 1118.52 548.624 1082.77 546.211 1084.75C543.799 1086.73 546.872 1103.01 546.872 1103.01Z" fill="#B0D5D4"/>
</g>
<path opacity="0.2" d="M537.714 1102L556 1155.43L526.343 1153.9L503.314 1174L485 1120.57L537.714 1102Z" stroke="#A5D0D1" stroke-linecap="round" stroke-linejoin="round"/>
<path opacity="0.2" d="M535.639 1014.55L532.248 1004.89C531.567 1002.94 530.506 1001.14 529.124 999.602C527.743 998.063 526.069 996.811 524.198 995.918C522.328 995.025 520.299 994.509 518.227 994.4C516.156 994.291 514.083 994.591 512.128 995.282L502.384 998.683C500.44 999.36 498.38 999.647 496.323 999.53C494.266 999.412 492.253 998.891 490.399 997.997L481.086 993.538C477.335 991.748 473.023 991.511 469.095 992.877C465.168 994.243 461.945 997.102 460.133 1000.83L455.649 1010.09C453.833 1013.81 450.609 1016.67 446.682 1018.03L436.967 1021.44C435.007 1022.11 433.201 1023.17 431.654 1024.54C430.106 1025.92 428.847 1027.58 427.949 1029.44C427.051 1031.3 426.533 1033.32 426.423 1035.38C426.313 1037.44 426.614 1039.5 427.309 1041.44L430.73 1051.11C432.09 1055.02 431.842 1059.32 430.04 1063.05L425.556 1072.29C424.661 1074.13 424.141 1076.14 424.025 1078.18C423.909 1080.23 424.199 1082.28 424.88 1084.21C425.561 1086.15 426.618 1087.93 427.992 1089.46C429.365 1090.99 431.028 1092.23 432.885 1093.12L442.198 1097.58C445.941 1099.39 448.814 1102.6 450.188 1106.5L453.781 1116.13C454.458 1118.08 455.518 1119.88 456.899 1121.42C458.28 1122.96 459.955 1124.21 461.827 1125.11C463.699 1126 465.731 1126.51 467.803 1126.61C469.876 1126.72 471.948 1126.41 473.901 1125.71L483.616 1122.34C485.563 1121.65 487.627 1121.36 489.689 1121.47C491.75 1121.59 493.769 1122.1 495.63 1122.99L504.914 1127.45C506.771 1128.34 508.786 1128.86 510.844 1128.98C512.902 1129.09 514.963 1128.8 516.909 1128.12C518.854 1127.45 520.647 1126.4 522.184 1125.03C523.721 1123.66 524.973 1122.01 525.867 1120.16L530.351 1110.93C531.244 1109.08 532.497 1107.42 534.035 1106.06C535.574 1104.69 537.369 1103.63 539.318 1102.96L549.062 1099.58C551.019 1098.9 552.822 1097.85 554.366 1096.47C555.911 1095.1 557.167 1093.43 558.062 1091.57C558.957 1089.71 559.473 1087.69 559.581 1085.64C559.689 1083.58 559.386 1081.52 558.69 1079.57L555.299 1069.89C554.614 1067.95 554.32 1065.91 554.433 1063.86C554.547 1061.81 555.066 1059.81 555.96 1057.97L560.444 1048.7C561.339 1046.86 561.859 1044.85 561.975 1042.81C562.091 1040.76 561.801 1038.71 561.12 1036.78C560.439 1034.84 559.382 1033.06 558.008 1031.53C556.635 1030 554.972 1028.76 553.115 1027.87L543.831 1023.41C541.943 1022.54 540.248 1021.32 538.841 1019.79C537.435 1018.27 536.347 1016.49 535.639 1014.55Z" fill="white"/>
<path opacity="0.2" d="M533 1004.98C532.315 1003.01 531.246 1001.2 529.855 999.655C528.464 998.105 526.778 996.844 524.895 995.945C523.012 995.046 520.968 994.527 518.882 994.417C516.796 994.307 514.709 994.609 512.741 995.305L502.929 998.73C500.971 999.411 498.897 999.701 496.825 999.582C494.754 999.464 492.727 998.939 490.86 998.039L481.483 993.549C477.705 991.747 473.364 991.507 469.409 992.883C465.454 994.259 462.209 997.138 460.384 1000.89L455.869 1010.21C454.04 1013.96 450.794 1016.84 446.839 1018.22L437.057 1021.64C435.084 1022.32 433.265 1023.39 431.707 1024.77C430.148 1026.15 428.881 1027.83 427.977 1029.7C427.073 1031.57 426.55 1033.61 426.44 1035.68C426.329 1037.76 426.633 1039.83 427.332 1041.79L430.777 1051.52C432.146 1055.46 431.896 1059.79 430.082 1063.55L425.567 1072.85C424.666 1074.71 424.142 1076.72 424.025 1078.79C423.908 1080.85 424.201 1082.91 424.886 1084.86C425.572 1086.81 426.636 1088.6 428.019 1090.14C429.402 1091.68 431.077 1092.93 432.947 1093.83L442.324 1098.32C446.094 1100.14 448.986 1103.37 450.37 1107.3L453.93 1117" stroke="#A5D0D1" stroke-linecap="round" stroke-linejoin="round"/>
<path opacity="0.2" d="M505 1127.44C506.854 1128.34 508.866 1128.86 510.921 1128.98C512.976 1129.09 515.034 1128.8 516.977 1128.12C518.92 1127.43 520.71 1126.37 522.244 1125C523.779 1123.62 525.029 1121.95 525.921 1120.09L530.398 1110.78C531.291 1108.91 532.541 1107.24 534.078 1105.86C535.614 1104.48 537.407 1103.42 539.353 1102.73L549.081 1099.33C551.036 1098.65 552.836 1097.58 554.378 1096.19C555.92 1094.81 557.174 1093.13 558.068 1091.25C558.961 1089.37 559.477 1087.34 559.585 1085.26C559.692 1083.19 559.39 1081.11 558.696 1079.15L555.309 1069.38C554.625 1067.43 554.332 1065.36 554.445 1063.3C554.558 1061.24 555.076 1059.22 555.969 1057.36L560.446 1048.02C561.34 1046.15 561.859 1044.13 561.975 1042.07C562.091 1040 561.801 1037.94 561.121 1035.99C560.442 1034.03 559.386 1032.24 558.014 1030.69C556.643 1029.15 554.982 1027.9 553.128 1027" stroke="#A5D0D1" stroke-linecap="round" stroke-linejoin="round"/>
<path opacity="0.2" d="M452.467 1074.27C455.32 1082.29 460.512 1089.29 467.387 1094.39C474.261 1099.49 482.51 1102.46 491.093 1102.93C499.675 1103.4 508.206 1101.35 515.609 1097.03C523.011 1092.71 528.954 1086.32 532.686 1078.67C536.418 1071.02 537.772 1062.44 536.578 1054.03C535.384 1045.61 531.695 1037.74 525.976 1031.39C520.257 1025.05 512.765 1020.52 504.446 1018.38C496.127 1016.25 487.354 1016.59 479.234 1019.38C473.823 1021.24 468.836 1024.13 464.559 1027.9C460.283 1031.66 456.801 1036.23 454.314 1041.33C451.827 1046.43 450.384 1051.97 450.067 1057.62C449.75 1063.27 450.565 1068.93 452.467 1074.27Z" fill="white"/>
<g opacity="0.2">
<path d="M466.996 1026.24C465.387 1034.85 466.44 1043.75 470.013 1051.74C473.587 1059.74 479.512 1066.45 486.999 1070.99C494.486 1075.54 503.18 1077.69 511.921 1077.17C520.663 1076.64 529.037 1073.47 535.928 1068.06C534.648 1074.91 531.726 1081.35 527.412 1086.82C523.098 1092.29 517.522 1096.64 511.16 1099.48C504.799 1102.32 497.843 1103.58 490.889 1103.15C483.935 1102.71 477.19 1100.6 471.233 1096.98C465.275 1093.37 460.284 1088.36 456.685 1082.4C453.087 1076.43 450.99 1069.68 450.573 1062.72C450.157 1055.77 451.433 1048.82 454.294 1042.46C457.154 1036.11 461.513 1030.54 466.996 1026.24Z" fill="#B0D5D4"/>
</g>
<path opacity="0.2" d="M537 1060C536.887 1051.23 534.049 1042.7 528.867 1035.55C523.685 1028.4 516.405 1022.98 508 1020" stroke="#A5D0D1" stroke-linecap="round" stroke-linejoin="round"/>
<path opacity="0.2" d="M492 1102.98C500.31 1103.2 508.507 1101.06 515.604 1096.8C522.701 1092.55 528.395 1086.36 532 1079" stroke="#A5D0D1" stroke-linecap="round" stroke-linejoin="round"/>
<path opacity="0.2" d="M478 1020C470.103 1022.95 463.237 1028.2 458.263 1035.1C453.29 1042 450.431 1050.23 450.045 1058.78C449.659 1067.32 451.762 1075.79 456.092 1083.13C460.422 1090.46 466.785 1096.33 474.383 1100" stroke="#A5D0D1" stroke-linecap="round" stroke-linejoin="round"/>
<path opacity="0.2" d="M470.967 1025.88L476.845 1042.7L474.809 1043.41L469.677 1028.73L469.579 1028.76L466.427 1032.92L465.704 1030.85L468.931 1026.59L470.967 1025.88Z" fill="#A5D0D1"/>
<path opacity="0.2" d="M616.751 233L488.01 318.674C486.947 382.119 574.345 514.751 615.316 509.869L744 423.994C720.83 424.913 636.074 324.246 616.751 233Z" fill="white"/>
<path opacity="0.2" d="M707 397C680.511 367.622 658.291 334.628 641 299" stroke="#A5D0D1" stroke-linecap="round" stroke-linejoin="round"/>
<path opacity="0.2" d="M574.895 261L488.01 318.628C486.942 382.088 574.809 514.753 616 509.869" stroke="#A5D0D1" stroke-linecap="round" stroke-linejoin="round"/>
<path opacity="0.2" d="M631 325.526L543.865 384C543.234 382.844 542.603 381.659 542 380.474L629.135 322C629.738 323.185 630.369 324.37 631 325.526Z" fill="#B0D5D4"/>
<path opacity="0.2" d="M636 333.444L548.977 392L547 388.556L634.023 330C634.653 331.158 635.341 332.316 636 333.444Z" fill="#B0D5D4"/>
<path opacity="0.2" d="M640 341.39L553.117 400C552.402 398.87 551.687 397.74 551 396.61L637.883 338C638.57 339.159 639.285 340.347 640 341.39Z" fill="#B0D5D4"/>
<path opacity="0.2" d="M646 350.254L559.256 408L557 404.746L643.744 347L646 350.254Z" fill="#B0D5D4"/>
<path opacity="0.2" d="M651 357.08L564.395 416L562 412.775L648.605 354C649.403 354.988 650.173 356.005 651 357.08Z" fill="#B0D5D4"/>
<path opacity="0.2" d="M657 364.115L570.506 423L568 419.885L654.494 361L657 364.115Z" fill="#B0D5D4"/>
<path opacity="0.2" d="M640 387.076L576.606 430L574 427.125L637.394 384L640 387.076Z" fill="#B0D5D4"/>
<path opacity="0.2" d="M677 384.736L589.869 443L587 440.264L673.988 382L677 384.736Z" fill="#B0D5D4"/>
<path opacity="0.2" d="M684 391.653L596.869 450L594 447.347L681.131 389L684 391.653Z" fill="#B0D5D4"/>
<path opacity="0.2" d="M645 428.493L604.098 456L601 453.478L641.93 426L645 428.493Z" fill="#B0D5D4"/>
<path opacity="0.2" d="M558 308.504L565.564 303.423C565.989 304.993 566.442 306.535 566.895 308.105L565.224 309.218C566.612 313.871 568.057 318.438 569.841 322.976L573.751 320.35C572.079 315.812 570.55 311.245 569.133 306.592L567.462 307.705L566.102 303.052L573.666 298C574.091 299.541 574.544 301.111 574.997 302.653L573.042 303.966C574.544 308.904 576.187 313.814 578 318.609C577.405 320.521 576.839 322.434 576.272 324.318L570.776 328L566.272 326.516C564.459 321.692 562.788 316.811 561.314 311.844L559.36 313.157C558.878 311.616 558.425 310.046 558 308.504Z" fill="#A5D0D1"/>
<path opacity="0.2" d="M578.302 326C579.644 328.272 578.638 330 578.638 330C578.638 330 577.463 329.68 578.302 326Z" fill="#A5D0D1"/>
<path opacity="0.2" d="M582 330.872C580.244 327.871 578.009 329.371 578.009 329.401C578.009 329.431 577.61 331.532 582 330.872Z" fill="#A5D0D1"/>
<path opacity="0.2" d="M579.226 324C582.146 325.382 580.581 327 580.581 327C580.581 327 578.287 327.104 579.226 324Z" fill="#A5D0D1"/>
<path opacity="0.2" d="M584 328.541C582.381 325.729 581 327.626 581 327.626C581 327.626 581.106 329.964 584 328.541Z" fill="#A5D0D1"/>
<path opacity="0.2" d="M581.012 322C582.492 323.01 581.87 324.971 581.87 324.971C581.87 324.971 580.879 325.506 581.012 322Z" fill="#A5D0D1"/>
<path opacity="0.2" d="M585 325.039C583.134 322.701 582 325.039 582 325.039C582 325.039 582.378 327.201 585 325.039Z" fill="#A5D0D1"/>
<path opacity="0.2" d="M582 320C584.571 320.447 583.929 322.885 583.929 322.885C583.929 322.885 582.309 323.882 582 320Z" fill="#A5D0D1"/>
<path opacity="0.2" d="M587 321.615C584.878 319.917 584 322.274 584 322.274C584 322.274 584.634 324.284 587 321.615Z" fill="#A5D0D1"/>
<path opacity="0.2" d="M582 318.013C585.5 317.821 584.972 319.795 584.972 319.795C584.972 319.795 582.891 320.891 582 318.013Z" fill="#A5D0D1"/>
<path opacity="0.2" d="M588 318.237C585.541 317.276 585 319.549 585 319.549C585 319.549 585.861 321.181 588 318.237Z" fill="#A5D0D1"/>
<path opacity="0.2" d="M582 316.101C585.236 315.662 584.996 316.792 584.996 316.792C584.996 316.792 583.348 317.576 582 316.101Z" fill="#A5D0D1"/>
<path opacity="0.2" d="M588 315.022C585.479 314.771 585 316.778 585 316.778C585 316.778 586.109 317.921 588 315.022Z" fill="#A5D0D1"/>
<path opacity="0.2" d="M582 313.565C584.866 311.947 585 314.323 585 314.288C585 314.254 583.634 316.32 582 313.565Z" fill="#A5D0D1"/>
<path opacity="0.2" d="M588 312C585.134 312.259 585 313.954 585 313.93C585 313.907 586.393 314.613 588 312Z" fill="#A5D0D1"/>
<path opacity="0.2" d="M582 312.023C584.542 309.721 584.974 312.023 585 312.023C585.025 312.023 583.932 314.221 582 312.023Z" fill="#A5D0D1"/>
<path opacity="0.2" d="M588 309C584.764 309.917 585.004 311.959 585.004 311.959C585.004 311.959 586.682 312.58 588 309Z" fill="#A5D0D1"/>
<path opacity="0.2" d="M583.092 306C586.022 307.098 584.705 308.983 584.705 308.983C584.705 308.983 582.533 309.406 583.092 306Z" fill="#A5D0D1"/>
<path opacity="0.2" d="M571 330C571 333.745 573.834 332.924 573.834 332.924C573.834 332.924 575.031 330.624 571 330Z" fill="#A5D0D1"/>
<path opacity="0.2" d="M573.483 337C572.015 333.992 574.363 333 574.363 333C574.363 333 576.271 333.962 573.483 337Z" fill="#A5D0D1"/>
<path opacity="0.2" d="M570.035 330C569.796 334.473 570.862 333.984 570.862 333.984C570.862 333.984 571.499 331.504 570.035 330Z" fill="#A5D0D1"/>
<path opacity="0.2" d="M570.069 337C569.719 334.527 570.819 334 570.819 334C570.819 334 571.552 335.076 570.069 337Z" fill="#A5D0D1"/>
<path opacity="0.2" d="M568.168 330C567.575 334.034 568.743 334 568.743 334C568.743 334 569.606 332 568.168 330Z" fill="#A5D0D1"/>
<path opacity="0.2" d="M567 338C567 334.378 568.84 334 568.84 334C568.84 334 569.803 335.512 567 338Z" fill="#A5D0D1"/>
<path opacity="0.2" d="M565.781 330C563.822 333.625 566.165 334 566.165 334C566.165 334 568.278 332.375 565.781 330Z" fill="#A5D0D1"/>
<path opacity="0.2" d="M564 337C564.428 333.974 565.949 334 565.949 334C565.949 334 566.496 335.538 564 337Z" fill="#A5D0D1"/>
<path opacity="0.2" d="M563.636 330C562.354 333.278 563.406 334 563.406 334C563.406 334 564.573 332.737 563.636 330Z" fill="#A5D0D1"/>
<path opacity="0.2" d="M561 337C562.108 333.494 563.995 334.029 563.995 334.029C563.995 334.029 564.264 335.841 561 337Z" fill="#A5D0D1"/>
<path opacity="0.2" d="M562.714 329C559.784 331.985 561.499 333 561.499 333C561.499 333 563.786 332.075 562.714 329Z" fill="#A5D0D1"/>
<path opacity="0.2" d="M558 335C559.514 332.487 561 333.055 561 333.055C561 333.055 561.11 334.607 558 335Z" fill="#A5D0D1"/>
<path opacity="0.2" d="M560.974 327C559.529 329.586 560.119 331 560.119 331C560.119 331 561.176 330.398 560.974 327Z" fill="#A5D0D1"/>
<path opacity="0.2" d="M557 333.996C558.81 329.753 560 331.26 560 331.26C560 331.26 559.69 334.115 557 333.996Z" fill="#A5D0D1"/>
<path opacity="0.2" d="M561 326C557.069 328.222 558.13 330 558.13 330C558.13 330 560.646 329.873 561 326Z" fill="#A5D0D1"/>
<path opacity="0.2" d="M555 330.852C557.083 327.841 558 329.407 558 329.407C558 329.407 557.405 331.575 555 330.852Z" fill="#A5D0D1"/>
<path opacity="0.2" d="M556.192 323C555.55 327.067 556.725 327 556.725 327C556.848 326.682 556.933 326.319 556.973 325.935C557.014 325.552 557.008 325.157 556.958 324.777C556.907 324.398 556.813 324.043 556.681 323.736C556.549 323.429 556.382 323.178 556.192 323Z" fill="#A5D0D1"/>
<path opacity="0.2" d="M674 438C675.863 433.396 677.105 428.571 677.694 423.648C678.292 418.7 677.826 413.682 676.327 408.923C676.555 415.12 677.531 421.268 679.235 427.236C679.297 427.759 679.474 428.261 679.756 428.708C680.038 429.155 680.416 429.534 680.864 429.819C681.589 429.021 682.037 428.016 682.144 426.949C682.488 425.172 682.615 423.36 682.522 421.553C681.97 423.849 681.853 427.121 682.348 427.121C683.131 426.557 683.744 425.793 684.122 424.911C684.733 425.543 685.809 425.141 686.449 424.567C687.097 423.951 687.551 423.163 687.758 422.299C688.194 422.615 688.659 422.069 688.863 421.581C689.416 422.184 689.765 421.983 690.114 421.782C690.257 421.666 690.366 421.514 690.433 421.343C690.499 421.172 690.519 420.988 690.492 420.806C690.276 416.672 688.995 412.661 686.769 409.153C686.328 408.301 685.691 407.563 684.907 407C684.623 407.416 684.429 407.887 684.339 408.381C684.249 408.875 684.264 409.382 684.384 409.87C684.947 414.851 686.149 419.741 687.961 424.423C688.253 425.238 688.654 426.01 689.154 426.719C689.437 427.136 689.876 427.426 690.375 427.523C691.132 427.523 691.742 426.863 692.091 426.145C693.72 422.73 692.877 417.534 695 416.443" stroke="#A5D0D1" stroke-width="0.5" stroke-linecap="round" stroke-linejoin="round"/>
<path opacity="0.2" d="M599 484.689C602.765 482.193 609.576 485.809 614.231 492.782C618.887 499.755 619.605 507.417 615.869 510L744.643 424.11C748.408 421.614 747.517 413.951 743.005 406.892C738.493 399.833 731.51 396.303 727.803 398.799L599 484.689Z" fill="#B0D5D4"/>
<path opacity="0.2" d="M664 441L599 485" stroke="#A5D0D1" stroke-linecap="round" stroke-linejoin="round"/>
<path opacity="0.2" d="M663 479L744.639 424.303C748.411 421.788 747.518 414.07 742.997 406.958C738.476 399.846 731.478 396.29 727.764 398.805" stroke="#A5D0D1" stroke-linecap="round" stroke-linejoin="round"/>
<path opacity="0.2" d="M599 484.804C602.701 482.264 609.396 485.942 613.972 493.037C618.548 500.132 619.17 507.08 616.119 510" stroke="#A5D0D1" stroke-linecap="round" stroke-linejoin="round"/>
<path opacity="0.2" d="M904.272 271.36C903.752 270.193 903.59 268.89 903.805 267.625C904.02 266.36 904.603 265.193 905.476 264.278C904.054 264.359 902.648 263.927 901.5 263.056C900.352 262.185 899.534 260.929 899.186 259.503C898.838 258.077 898.982 256.571 899.593 255.243C900.204 253.915 901.244 252.847 902.534 252.224L920.691 243.552C921.992 242.952 923.455 242.837 924.829 243.228C926.203 243.619 927.402 244.491 928.22 245.694C929.039 246.898 929.426 248.358 929.315 249.823C929.204 251.289 928.602 252.669 927.612 253.727C929.033 253.667 930.431 254.118 931.565 255.003C932.699 255.888 933.501 257.152 933.832 258.579C934.163 260.006 934.003 261.508 933.379 262.827C932.756 264.145 931.708 265.2 930.414 265.81L912.257 274.482C910.794 275.133 909.142 275.172 907.652 274.589C906.161 274.007 904.949 272.848 904.272 271.36Z" fill="white"/>
<path opacity="0.2" d="M921.559 265.101C915.85 266.824 912.682 261.887 917.677 258.09L904.803 264.107C903.776 265.172 903.145 266.572 903.022 268.064C902.899 269.555 903.291 271.044 904.129 272.27C904.968 273.497 906.2 274.383 907.612 274.776C909.023 275.169 910.524 275.042 911.854 274.419L930.351 265.656C931.859 264.944 933.03 263.65 933.608 262.056C934.185 260.463 934.123 258.701 933.434 257.155C932.762 255.701 931.565 254.57 930.095 254C933.863 258.557 928.382 263.027 921.559 265.101Z" fill="#B0D5D4"/>
<path opacity="0.2" d="M922.87 166.764C919.817 160.05 915.13 154.213 909.24 149.79C903.35 145.366 896.445 142.498 889.161 141.448C881.877 140.398 874.447 141.201 867.552 143.782C860.658 146.363 854.522 150.64 849.706 156.22C844.891 161.8 841.551 168.503 839.994 175.715C838.437 182.927 838.713 190.416 840.795 197.493C842.878 204.57 846.701 211.009 851.913 216.218C857.125 221.427 863.559 225.239 870.624 227.304C872.48 227.791 874.207 228.678 875.686 229.904C877.164 231.129 878.358 232.664 879.184 234.4L885.69 248.705C886.187 249.795 886.895 250.775 887.773 251.589C888.651 252.403 889.68 253.034 890.803 253.446C891.925 253.859 893.118 254.044 894.312 253.991C895.506 253.939 896.678 253.649 897.76 253.14L924.81 240.751C926.977 239.722 928.65 237.874 929.463 235.612C930.276 233.349 930.162 230.856 929.147 228.678L922.67 214.372C921.909 212.712 921.515 210.906 921.515 209.079C921.515 207.252 921.909 205.447 922.67 203.786C925.393 198.003 926.822 191.693 926.857 185.297C926.891 178.902 925.53 172.576 922.87 166.764Z" fill="white"/>
<path opacity="0.2" d="M903.861 245.316C902.776 245.813 901.604 246.092 900.411 246.136C899.219 246.181 898.029 245.989 896.91 245.574C895.792 245.158 894.766 244.527 893.892 243.715C893.019 242.903 892.314 241.927 891.819 240.843L885.312 226.597C884.488 224.867 883.294 223.338 881.815 222.118C880.337 220.897 878.608 220.014 876.751 219.531C870.218 217.632 864.22 214.236 859.232 209.615C854.245 204.993 850.407 199.273 848.024 192.909C845.641 186.546 844.779 179.715 845.505 172.96C846.232 166.205 848.528 159.713 852.21 154C845.841 160.27 841.52 168.316 839.814 177.082C838.108 185.848 839.097 194.925 842.651 203.12C845.222 208.967 849.049 214.177 853.863 218.382C858.676 222.587 864.356 225.684 870.502 227.452C872.358 227.937 874.085 228.82 875.564 230.041C877.043 231.261 878.237 232.789 879.063 234.518L885.569 248.764C886.074 249.852 886.791 250.83 887.679 251.638C888.566 252.447 889.606 253.072 890.738 253.475C891.869 253.878 893.07 254.052 894.27 253.987C895.47 253.921 896.644 253.618 897.726 253.094L924.778 240.757C926.215 240.094 927.453 239.066 928.369 237.776C929.285 236.487 929.848 234.98 930 233.407L903.861 245.316Z" fill="#B0D5D4"/>
<path opacity="0.2" d="M862.342 146C852.588 151.227 845.135 160.011 841.477 170.593C837.818 181.175 838.225 192.773 842.616 203.063C845.155 208.947 848.935 214.192 853.688 218.424C858.441 222.655 864.051 225.772 870.12 227.551C871.953 228.039 873.659 228.928 875.119 230.157C876.58 231.385 877.759 232.923 878.575 234.663L885 249" stroke="#A5D0D1" stroke-linecap="round" stroke-linejoin="round"/>
<path opacity="0.2" d="M928.6 238C929.394 236.708 929.867 235.224 929.976 233.685C930.084 232.146 929.825 230.604 929.22 229.2L923.093 214.868C922.373 213.205 922 211.396 922 209.566C922 207.735 922.373 205.926 923.093 204.263C925.706 198.452 927.085 192.103 927.132 185.663C927.178 179.224 925.892 172.853 923.363 167" stroke="#A5D0D1" stroke-linecap="round" stroke-linejoin="round"/>
<path opacity="0.2" d="M906.251 250L902.45 251.861C901.19 252.489 900.175 253.563 899.578 254.899C898.982 256.236 898.842 257.751 899.181 259.186C899.521 260.62 900.319 261.884 901.44 262.761C902.56 263.638 903.933 264.072 905.322 263.99L917 258.173C907.072 263.147 903.352 253.927 906.251 250Z" fill="#B0D5D4"/>
<path opacity="0.2" d="M904 271.364C904.68 272.865 905.922 274.032 907.452 274.608C908.982 275.184 910.676 275.123 912.162 274.438L930.399 265.9C931.698 265.3 932.751 264.262 933.377 262.963C934.003 261.665 934.163 260.187 933.831 258.782C933.498 257.377 932.694 256.133 931.554 255.261C930.415 254.39 929.012 253.946 927.584 254.005" stroke="#A5D0D1" stroke-linecap="round" stroke-linejoin="round"/>
<path opacity="0.2" d="M929 246.648C928.666 245.901 928.188 245.229 927.595 244.67C927.003 244.111 926.306 243.676 925.546 243.39C924.786 243.104 923.978 242.973 923.167 243.005C922.357 243.036 921.561 243.229 920.824 243.572L902.556 252.115C901.257 252.729 900.211 253.781 899.596 255.089C898.982 256.398 898.837 257.882 899.187 259.286C899.537 260.691 900.36 261.928 901.515 262.787C902.67 263.645 904.085 264.071 905.516 263.99" stroke="#A5D0D1" stroke-linecap="round" stroke-linejoin="round"/>
<path opacity="0.2" d="M928.028 274.205L919.361 278.697C918.842 278.959 918.269 279.054 917.705 278.971C917.141 278.888 916.609 278.63 916.167 278.226L912 274.425L930 265L929.833 271.032C929.83 271.7 929.658 272.353 929.338 272.915C929.019 273.477 928.564 273.924 928.028 274.205Z" fill="#B0D5D4"/>
<path opacity="0.2" d="M928.028 274.205L919.361 278.697C918.842 278.959 918.269 279.054 917.705 278.971C917.141 278.888 916.609 278.63 916.167 278.226L912 274.425L930 265L929.833 271.032C929.83 271.7 929.658 272.353 929.338 272.915C929.019 273.477 928.564 273.924 928.028 274.205V274.205Z" stroke="#A5D0D1" stroke-linecap="round" stroke-linejoin="round"/>
<path opacity="0.2" d="M913 261L920 257" stroke="#A5D0D1" stroke-linecap="round" stroke-linejoin="round"/>
<path opacity="0.2" d="M906 244L902 237" stroke="#A5D0D1" stroke-linecap="round" stroke-linejoin="round"/>
<path opacity="0.2" d="M899.707 230.955L893.497 217.598C892.988 216.534 892.172 215.643 891.149 215.036C890.127 214.43 888.945 214.135 887.753 214.19C886.562 214.245 885.413 214.647 884.453 215.345C883.493 216.044 882.764 217.007 882.359 218.113C881.953 219.219 881.89 220.419 882.176 221.56C882.463 222.702 883.086 223.734 883.967 224.527C884.849 225.32 885.949 225.838 887.128 226.014C888.308 226.191 889.514 226.02 890.595 225.521L908.384 217.398C909.473 216.899 910.387 216.092 911.011 215.079C911.634 214.067 911.938 212.895 911.885 211.712C911.832 210.529 911.423 209.389 910.711 208.435C909.999 207.481 909.015 206.757 907.885 206.355C906.755 205.953 905.53 205.891 904.364 206.176C903.198 206.462 902.144 207.082 901.336 207.959C900.529 208.835 900.003 209.929 899.827 211.1C899.65 212.271 899.831 213.468 900.345 214.538L915 246" stroke="#A5D0D1" stroke-linecap="round" stroke-linejoin="round"/>
<path opacity="0.2" d="M1400.65 365L1233.75 357.849L1081 289.911L1082.35 284L1247.87 297.063L1402 359.089L1400.65 365Z" fill="#B0D5D4"/>
<path opacity="0.2" d="M1312 360.6L1306.25 385.055C1306.25 385.055 1283.24 395.398 1227.6 382.59C1171.96 369.781 1156 350.427 1156 350.427L1161.75 326L1312 360.6Z" fill="#B0D5D4"/>
<path opacity="0.2" d="M1402 359L1234.92 351.886L1082 284L1249.08 291.143L1402 359Z" fill="#FDFDFD"/>
<g opacity="0.2">
<path d="M1249.12 291.166C1242.29 291.71 1235.79 294.37 1230.54 298.777C1225.29 303.183 1221.54 309.116 1219.82 315.751C1218.1 322.386 1218.49 329.393 1220.93 335.797C1223.38 342.201 1227.76 347.683 1233.46 351.482L1265.72 373.195C1265.72 373.195 1054.67 300.988 1055.02 299.581C1055.36 298.174 1067.88 242.367 1067.88 242.367C1067.88 242.367 1266.06 265.345 1267.33 264.11C1268.59 262.875 1249.12 291.166 1249.12 291.166Z" fill="#B0D5D4"/>
</g>
<path opacity="0.2" d="M1227 348L1156 316" stroke="#A5D0D1" stroke-linecap="round" stroke-linejoin="round"/>
<path opacity="0.2" d="M1355.78 338L1402 359L1244 352.089" stroke="#A5D0D1" stroke-linecap="round" stroke-linejoin="round"/>
<path opacity="0.2" d="M1172 288L1249.41 291.281L1333 328" stroke="#A5D0D1" stroke-linecap="round" stroke-linejoin="round"/>
<path opacity="0.2" d="M1143.76 312L1082 284L1162 287.485" stroke="#A5D0D1" stroke-linecap="round" stroke-linejoin="round"/>
<path opacity="0.2" d="M1157.61 344L1162 325.553L1087 293" stroke="#A5D0D1" stroke-linecap="round" stroke-linejoin="round"/>
<path opacity="0.2" d="M1310 368.453L1306.16 384.984C1306.16 384.984 1283.25 395.513 1227.82 382.474C1188.33 373.156 1168.91 360.52 1161 354" stroke="#A5D0D1" stroke-linecap="round" stroke-linejoin="round"/>
<path opacity="0.2" d="M1242 321L1321.59 352.512C1324.31 353.567 1326.71 355.31 1328.57 357.573C1330.42 359.835 1331.66 362.54 1332.17 365.424C1333.76 374.584 1333.06 383.996 1330.15 392.821C1327.23 401.646 1322.19 409.609 1315.46 416" stroke="#A5D0D1" stroke-linecap="round" stroke-linejoin="round"/>
<path opacity="0.2" d="M1317.42 418.294C1317.93 419.205 1318.11 420.265 1317.93 421.293C1317.75 422.321 1317.21 423.254 1316.41 423.93C1315.62 424.606 1314.61 424.984 1313.57 425C1312.52 425.015 1311.5 424.666 1310.69 424.014C1309.87 423.361 1309.31 422.445 1309.1 421.423C1308.88 420.401 1309.03 419.336 1309.51 418.411C1310 417.486 1310.79 416.758 1311.75 416.353C1312.72 415.947 1313.79 415.889 1314.79 416.189" fill="#FDFDFD"/>
<path opacity="0.2" d="M1317.42 418.294C1317.93 419.205 1318.11 420.265 1317.93 421.293C1317.75 422.321 1317.21 423.254 1316.41 423.93C1315.62 424.606 1314.61 424.984 1313.57 425C1312.52 425.015 1311.5 424.666 1310.69 424.014C1309.87 423.361 1309.31 422.445 1309.1 421.423C1308.88 420.401 1309.03 419.336 1309.51 418.411C1310 417.486 1310.79 416.758 1311.75 416.353C1312.72 415.947 1313.79 415.889 1314.79 416.189" stroke="#A5D0D1" stroke-linecap="round" stroke-linejoin="round"/>
<path opacity="0.2" d="M1340 451.247L1326.51 459L1313.02 434.775C1312 432.963 1311.73 430.814 1312.27 428.8C1312.81 426.787 1314.12 425.073 1315.9 424.037C1317.68 423.002 1319.79 422.728 1321.77 423.277C1323.75 423.826 1325.43 425.151 1326.45 426.963L1340 451.247Z" fill="#FDFDFD"/>
<path opacity="0.2" d="M1340 451.247L1326.51 459L1313.02 434.775C1312 432.963 1311.73 430.814 1312.27 428.8C1312.81 426.787 1314.12 425.073 1315.9 424.037V424.037C1317.68 423.002 1319.79 422.728 1321.77 423.277C1323.75 423.826 1325.43 425.151 1326.45 426.963L1340 451.247Z" stroke="#A5D0D1" stroke-linecap="round" stroke-linejoin="round"/>
<path opacity="0.2" d="M1320 436L1330 456" stroke="#A5D0D1" stroke-linecap="round" stroke-linejoin="round"/>
<path opacity="0.2" d="M1323 434L1335 454" stroke="#A5D0D1" stroke-linecap="round" stroke-linejoin="round"/>
<path opacity="0.2" d="M1292 619.97L1330.95 628L1514.88 615.29C1515.94 615.161 1516.96 614.825 1517.88 614.301C1518.81 613.777 1519.62 613.075 1520.28 612.236C1520.93 611.396 1521.42 610.435 1521.7 609.408C1521.99 608.381 1522.07 607.307 1521.94 606.249L1521.65 601.973C1521.6 599.82 1520.7 597.775 1519.15 596.283C1517.61 594.79 1515.53 593.97 1513.38 594.001L1329.45 606.711L1292 619.97Z" fill="white"/>
<g opacity="0.2">
<path d="M1531.17 604.146L1333.93 617.761C1333.93 617.761 1335.46 624.74 1331.58 627.325V628.244L1529.93 614.573L1531.17 604.146Z" fill="#B0D5D4"/>
<path d="M1504.25 624.107L1501.73 588.119C1501.73 588.119 1521.54 583.552 1521.83 586.711C1522.12 589.871 1530.45 625.486 1530.45 625.486L1504.25 624.107Z" fill="#B0D5D4"/>
</g>
<path opacity="0.2" d="M1490 596L1329.53 606.962L1292 620.064L1331.03 628L1414.93 622.262" stroke="#A5D0D1" stroke-linecap="round" stroke-linejoin="round"/>
<path opacity="0.2" d="M1502 594.813L1513.44 594.001C1515.58 593.969 1517.64 594.822 1519.17 596.376C1520.71 597.929 1521.6 600.058 1521.65 602.299L1521.94 606.748C1522.07 607.85 1521.99 608.967 1521.71 610.036C1521.42 611.105 1520.94 612.105 1520.29 612.979C1519.64 613.853 1518.83 614.584 1517.91 615.129C1516.99 615.674 1515.98 616.024 1514.93 616.158L1503.49 617L1502.6 603.682" stroke="#A5D0D1" stroke-linecap="round" stroke-linejoin="round"/>
<path opacity="0.2" d="M1482.99 991L1489.32 1037.82L1530 1057.81L1489.15 1079.84L1482.42 1127L1450.84 1093.79L1406 1102.97L1427.34 1060.42L1406.34 1018.92L1451.1 1025.81L1482.99 991Z" fill="white"/>
<g opacity="0.2">
<path d="M1484.24 973.969C1484.24 973.969 1497.39 1046.43 1421.91 1114.5L1531.89 1148.97L1577.09 1004.76L1484.24 973.969Z" fill="#B0D5D4"/>
</g>
<path opacity="0.2" d="M1427.09 1060L1406 1018.75L1450.96 1025.6L1483 991" stroke="#A5D0D1" stroke-linecap="round" stroke-linejoin="round"/>
<path opacity="0.2" d="M1513.74 1050L1530 1057.96L1489.15 1079.94L1482.42 1127L1450.84 1093.87L1406 1103.03" stroke="#A5D0D1" stroke-linecap="round" stroke-linejoin="round"/>
<path opacity="0.2" d="M668 789L650.766 768.784L470.848 686.619C468.737 685.77 466.378 685.795 464.285 686.688C462.192 687.58 460.535 689.268 459.675 691.384L457.894 695.485C456.89 697.525 456.725 699.881 457.434 702.043C458.144 704.204 459.671 705.999 461.685 707.037L641.518 789H668Z" fill="white"/>
<g opacity="0.2">
<path d="M450.309 689.42L668.48 788.769L651.218 768.578L456.656 680.373L450.309 689.42Z" fill="#B0D5D4"/>
<path d="M474.779 679.712L459.126 714.178C459.126 714.178 438.073 708.434 439.452 705.246C440.83 702.058 450.94 665.035 450.94 665.035L474.779 679.712Z" fill="#B0D5D4"/>
</g>
<path opacity="0.2" d="M470 710.946L641.634 789L668 788.857L650.814 768.683L493.22 697" stroke="#A5D0D1" stroke-linecap="round" stroke-linejoin="round"/>
<path opacity="0.2" d="M461.717 707C459.689 705.963 458.151 704.172 457.437 702.014C456.723 699.856 456.889 697.505 457.9 695.468L459.751 691.374C460.617 689.263 462.286 687.578 464.393 686.687C466.5 685.796 468.875 685.771 471 686.618V686.618L465.448 698.87" stroke="#A5D0D1" stroke-linecap="round" stroke-linejoin="round"/>
<path opacity="0.2" d="M476.134 695.921L472.449 704.059L528.677 729.518L532.362 721.38L476.134 695.921Z" stroke="#A5D0D1" stroke-linecap="round" stroke-linejoin="round"/>
<path opacity="0.2" d="M649 772L644 785" stroke="#A5D0D1" stroke-linecap="round" stroke-linejoin="round"/>
<path opacity="0.2" d="M512.118 824.386L452.046 860.367C450.739 861.15 449.174 861.382 447.697 861.011C446.219 860.641 444.949 859.698 444.166 858.391L424.98 826.359C424.197 825.052 423.966 823.488 424.336 822.01C424.707 820.532 425.649 819.262 426.956 818.479L487.029 782.498C490.95 780.15 495.643 779.455 500.076 780.567C504.51 781.679 508.32 784.506 510.668 788.427L518.047 800.747C520.396 804.668 521.091 809.362 519.979 813.795C518.867 818.228 516.039 822.038 512.118 824.386Z" fill="white"/>
<g opacity="0.2">
<path d="M520.818 834.809L484.973 775.039L412.422 818.553C412.422 818.553 452.115 880.391 450.162 881.568C448.209 882.746 520.818 834.809 520.818 834.809Z" fill="#B0D5D4"/>
</g>
<path opacity="0.2" d="M510.15 788.471L517.558 800.995C519.898 804.952 520.591 809.688 519.486 814.162C518.381 818.636 515.568 822.483 511.666 824.855L451.829 861.182C450.527 861.968 448.971 862.199 447.502 861.824C446.033 861.449 444.77 860.499 443.991 859.181L424.827 826.653C424.437 826 424.178 825.276 424.065 824.522C423.952 823.768 423.987 822.998 424.167 822.257C424.348 821.517 424.671 820.819 425.118 820.206C425.565 819.592 426.127 819.073 426.772 818.68L486.61 782.354C490.116 780.289 494.23 779.55 498.223 780.266" stroke="#A5D0D1" stroke-linecap="round" stroke-linejoin="round"/>
<path opacity="0.2" d="M458.462 862.249L506.978 833.19C509.7 831.56 510.585 828.032 508.955 825.31L484.677 784.777C483.047 782.056 479.519 781.171 476.797 782.801L428.281 811.86C425.559 813.491 424.674 817.018 426.305 819.74L450.582 860.273C452.212 862.995 455.74 863.88 458.462 862.249Z" fill="white"/>
<g opacity="0.2">
<path d="M481.787 866.835C466.105 840.698 465.617 808.587 480.466 784.059L489.973 768.176L397 823.925L438.934 893.92L481.787 866.835Z" fill="#B0D5D4"/>
</g>
<path opacity="0.2" d="M484.178 784L484.597 784.635L508.211 825.411C508.969 826.725 509.192 828.296 508.831 829.779C508.469 831.263 507.553 832.537 506.283 833.323L473 854" stroke="#A5D0D1" stroke-linecap="round" stroke-linejoin="round"/>
<path opacity="0.2" d="M471 786L476.882 782.732C478.02 782.095 479.369 781.863 480.678 782.079C481.987 782.295 483.167 782.944 484 783.906" stroke="#A5D0D1" stroke-linecap="round" stroke-linejoin="round"/>
<path opacity="0.2" d="M460 861.471L458.801 862.186C457.506 862.964 455.955 863.196 454.49 862.832C453.024 862.467 451.762 861.536 450.98 860.242L426.831 819.888C426.438 819.242 426.178 818.524 426.065 817.776C425.951 817.029 425.987 816.266 426.17 815.532C426.354 814.798 426.68 814.109 427.132 813.502C427.583 812.896 428.15 812.385 428.8 812" stroke="#A5D0D1" stroke-linecap="round" stroke-linejoin="round"/>
</svg>
