<svg width="36" height="52" viewBox="0 0 36 52" fill="none" xmlns="http://www.w3.org/2000/svg">
<path fill-rule="evenodd" clip-rule="evenodd" d="M26.5119 15.8249C26.1648 15.7482 25.8364 15.7076 25.5287 15.7042C24.9287 15.695 24.3997 15.8347 23.9526 16.1363C23.6036 16.3718 23.1297 16.2794 22.8943 15.9306C22.6588 15.5815 22.751 15.1076 23.1 14.8722C23.8119 14.3921 24.6301 14.1731 25.5408 14.1835C25.8387 14.1835 26.1456 14.2151 26.4606 14.2667C26.35 14.123 26.236 13.9906 26.1181 13.8697C25.7 13.4419 25.2307 13.1657 24.7042 13.0636C24.291 12.9844 24.0199 12.5855 24.0989 12.1722C24.1779 11.7589 24.577 11.4878 24.9903 11.5668C25.8361 11.7311 26.5718 12.1558 27.2095 12.8081C27.4162 13.0197 27.6122 13.2557 27.7978 13.5147C27.8215 13.3362 27.8345 13.1634 27.8361 12.9966C27.8441 12.3967 27.7056 11.8676 27.4041 11.4205C27.1686 11.0715 27.2608 10.5976 27.6098 10.3622C27.9588 10.1266 28.4327 10.2191 28.6681 10.5683C29.1482 11.2801 29.3672 12.0987 29.3568 13.0089C29.3488 13.4374 29.2957 13.8842 29.1924 14.3479C29.6555 14.2441 30.1014 14.1885 30.5287 14.1836C31.4395 14.1744 32.2578 14.3924 32.9694 14.8726C33.3184 15.1081 33.4106 15.5819 33.1752 15.9309C32.9398 16.2799 32.4659 16.3721 32.1169 16.1366C31.6709 15.8357 31.1434 15.6983 30.5451 15.7043C30.3774 15.7043 30.2037 15.7197 30.0242 15.7433C30.2832 15.9288 30.5191 16.125 30.7307 16.3317C31.3831 16.9694 31.8078 17.705 31.9721 18.5508C32.0511 18.9642 31.78 19.3633 31.3666 19.4423C30.9534 19.5216 30.5541 19.2504 30.4752 18.8369C30.3731 18.3105 30.097 17.841 29.6692 17.4231C29.5484 17.3051 29.4158 17.191 29.2721 17.0808C29.3234 17.3959 29.3519 17.7027 29.3554 18.0004C29.3659 18.9108 29.1469 19.7292 28.6667 20.4411C28.4313 20.7901 27.9574 20.8823 27.6084 20.6472C27.2594 20.4116 27.1672 19.9378 27.4027 19.5888C27.7043 19.1418 27.8414 18.6126 27.8348 18.0128C27.8268 17.6465 27.7728 17.2511 27.6667 16.8291C26.3867 18.0199 25.3511 19.3961 24.5458 20.946C23.6456 22.6788 23.0311 24.6283 22.6832 26.7793C23.8579 27.2581 24.9145 27.967 25.7974 28.8499C27.506 30.5587 28.5633 32.9196 28.5633 35.5269C28.5633 35.9484 28.2215 36.2902 27.7999 36.2902C27.3784 36.2902 27.0365 35.9484 27.0365 35.5269C27.0365 33.3409 26.1503 31.3614 24.718 29.9291C23.2858 28.497 21.3064 27.6107 19.1203 27.6107C16.9342 27.6107 14.9548 28.497 13.5226 29.9291C12.0903 31.3614 11.2041 33.3409 11.2041 35.5269C11.2041 35.9484 10.8622 36.2902 10.4407 36.2902C10.0192 36.2902 9.67732 35.9484 9.67732 35.5269C9.67732 32.9196 10.7345 30.5587 12.4432 28.8499C13.5905 27.7026 15.0314 26.8493 16.6436 26.4122C16.1009 22.9025 15.1149 19.7265 13.652 16.9114C12.2665 14.2451 10.4509 11.9022 8.1774 9.90503C7.88133 10.8496 7.72082 11.7261 7.71153 12.5267C7.70014 13.5504 7.93723 14.4573 8.45823 15.2295C8.6936 15.5785 8.60149 16.0523 8.25241 16.2877C7.90342 16.5232 7.42956 16.4308 7.19418 16.082C6.49439 15.0451 6.17545 13.8489 6.19076 12.5145C6.1997 11.7598 6.31561 10.9636 6.53031 10.1296C5.92809 10.4917 5.4079 10.8823 4.97689 11.3039C4.24573 12.0181 3.77319 12.8251 3.5962 13.7364C3.51721 14.1497 3.11803 14.4208 2.70469 14.3419C2.29143 14.2627 2.0203 13.8636 2.09929 13.4504C2.33835 12.2194 2.95962 11.1461 3.91539 10.2124C4.45261 9.68727 5.09718 9.20757 5.8394 8.76985C5.15734 8.60003 4.51473 8.50765 3.91489 8.50089C2.89119 8.48861 1.98436 8.72661 1.21209 9.24761C0.863085 9.48315 0.389228 9.39069 0.153767 9.04153C-0.0815999 8.69253 0.010597 8.21871 0.359583 7.9833C1.39647 7.28351 2.5926 6.96453 3.92702 6.97989C4.77129 6.9891 5.66752 7.13343 6.61052 7.39964C6.34459 6.45649 6.20052 5.56022 6.19074 4.7161C6.17536 3.38169 6.49439 2.18561 7.19416 1.14873C7.42952 0.799726 7.9034 0.707513 8.2524 0.942649C8.60148 1.17818 8.69359 1.652 8.45821 2.00098C7.9372 2.77327 7.69978 3.68012 7.71151 4.70382C7.71953 5.30369 7.81039 5.94601 7.98043 6.62808C8.41812 5.88595 8.89785 5.24151 9.42301 4.70429C10.3567 3.74876 11.4299 3.12753 12.6612 2.88846C13.0744 2.80923 13.4737 3.08037 13.5526 3.49386C13.6316 3.90711 13.3604 4.30636 12.9472 4.38538C12.0356 4.56226 11.2287 5.03491 10.5145 5.76581C10.0932 6.19683 9.70237 6.71725 9.34034 7.31895C10.1743 7.1043 10.9703 6.98839 11.7251 6.9797C13.0595 6.96435 14.2554 7.28335 15.2925 7.98302C15.6415 8.21855 15.7337 8.69234 15.4983 9.04135C15.2629 9.39044 14.789 9.48247 14.44 9.24733C13.6678 8.7263 12.7609 8.48912 11.7372 8.50061C11.0002 8.50982 10.1985 8.64592 9.33886 8.89852C11.6868 10.9931 13.5663 13.4372 15.0056 16.2073C16.5369 19.1545 17.5703 22.4724 18.1407 26.1337C18.4627 26.1003 18.7897 26.0833 19.1203 26.0833C19.8408 26.0833 20.5425 26.1641 21.2169 26.3173C21.5976 24.0864 22.2494 22.0563 23.1921 20.2418C24.0518 18.5877 25.1532 17.1115 26.5102 15.8253L26.5119 15.8249ZM2.69164 40.6679C2.31292 40.4854 2.15434 40.0298 2.33695 39.651C2.51964 39.2724 2.97508 39.1138 3.35372 39.2964C4.86903 40.0271 6.34802 40.1979 7.79231 39.856C9.27391 39.5053 10.7416 38.617 12.1952 37.2412C12.4908 36.9618 12.9523 36.9662 13.2425 37.2505C15.128 39.034 17.0358 39.9978 18.9668 40.0331C20.8997 40.0681 22.912 39.1725 25.0109 37.2377C25.3045 36.9674 25.7542 36.9717 26.0426 37.2377C27.6205 38.6927 29.149 39.5596 30.6302 39.884C32.0757 40.2004 33.4964 40.0014 34.8931 39.3319C35.2718 39.151 35.7258 39.3103 35.9069 39.6895C36.088 40.0682 35.9281 40.5221 35.5492 40.7033C33.839 41.5235 32.0925 41.7655 30.3083 41.3748C28.7289 41.0291 27.1351 40.1886 25.5265 38.8166C23.3022 40.7138 21.1081 41.5929 18.943 41.5537C16.7961 41.5147 14.7228 40.5721 12.7169 38.824C11.228 40.1218 9.70231 40.9759 8.13805 41.3464C6.3534 41.7689 4.5382 41.5641 2.69164 40.6734V40.6679ZM2.69164 50.3069C2.31292 50.1241 2.15434 49.6688 2.33695 49.2901C2.51964 48.9114 2.97508 48.7528 3.35372 48.9354C4.86903 49.6662 6.34802 49.8369 7.79231 49.495C9.27391 49.1443 10.7418 48.2556 12.1952 46.8801C12.4908 46.6006 12.9523 46.6052 13.2425 46.8801C15.128 48.6635 17.0358 49.6274 18.9668 49.6628C20.8997 49.6978 22.912 48.8024 25.0109 46.8674C25.3045 46.5972 25.7542 46.6015 26.0426 46.8674C27.6205 48.3225 29.149 49.1893 30.6302 49.5137C32.0757 49.8302 33.4964 49.6315 34.8931 48.9617C35.2718 48.7805 35.7258 48.9402 35.9069 49.3193C36.088 49.698 35.9281 50.152 35.5492 50.3331C33.8387 51.1534 32.0924 51.3952 30.3083 51.0045C28.7292 50.6589 27.1351 49.8184 25.5265 48.4463C23.3022 50.3434 21.1081 51.2228 18.943 51.1835C16.7961 51.1445 14.7228 50.2017 12.7169 48.4536C11.2282 49.7515 9.70231 50.6057 8.13805 50.9762C6.3534 51.3987 4.5382 51.1939 2.69164 50.3032V50.3069Z" fill="black"/>
</svg>
