<svg width="80" height="80" viewBox="0 0 80 80" fill="none" xmlns="http://www.w3.org/2000/svg">
<path d="M5.90625 22.0937L39.5313 1.45312C39.8281 1.28125 40.1719 1.28125 40.4688 1.45312L74.1875 22.1094L50.4531 24.4531L5.90625 22.0937Z" fill="#8B8893"/>
<path d="M40.4688 1.45312C40.1719 1.28125 39.8281 1.28125 39.5313 1.45312L37.6562 2.60937L69.5 22.1094H74.1875L40.4688 1.45312Z" fill="#787681"/>
<path d="M19.2969 33.0156H12.5781V67.7656H19.2969V33.0156Z" fill="#DADADC"/>
<path d="M67.4219 33.0156H60.7031V67.7656H67.4219V33.0156Z" fill="#DADADC"/>
<path d="M43.4375 33.0156H36.7188V67.7656H43.4375V33.0156Z" fill="#DADADC"/>
<path d="M67.4219 33.0156H63.9844V67.7656H67.4219V33.0156Z" fill="#C8C5CC"/>
<path d="M43.4375 33.0156H40V67.7656H43.4375V33.0156Z" fill="#C8C5CC"/>
<path d="M58.0469 27.875H69.9219V30.6719C69.9219 31.9687 68.875 33.0156 67.5781 33.0156H60.3906C59.0938 33.0156 58.0469 31.9687 58.0469 30.6719V27.875Z" fill="#787681"/>
<path d="M34.0625 27.875H45.9375V30.6719C45.9375 31.9687 44.8906 33.0156 43.5938 33.0156H36.4062C35.1094 33.0156 34.0625 31.9687 34.0625 30.6719V27.875Z" fill="#787681"/>
<path d="M65.2344 27.875V30.6719C65.2344 31.9687 64.1875 33.0156 62.8906 33.0156H67.5781C68.875 33.0156 69.9219 31.9687 69.9219 30.6719V27.875H65.2344Z" fill="#57565C"/>
<path d="M41.25 27.875V30.6719C41.25 31.9687 40.2031 33.0156 38.9062 33.0156H43.5938C44.8906 33.0156 45.9375 31.9687 45.9375 30.6719V27.875H41.25Z" fill="#57565C"/>
<path d="M10.0781 27.875H21.9531V30.6719C21.9531 31.9688 20.9062 33.0156 19.6094 33.0156H12.4219C11.125 33.0156 10.0781 31.9688 10.0781 30.6719V27.875Z" fill="#787681"/>
<path d="M17.2656 27.875V30.6719C17.2656 31.9688 16.2188 33.0156 14.9219 33.0156H19.6094C20.9062 33.0156 21.9531 31.9688 21.9531 30.6719V27.875H17.2656Z" fill="#57565C"/>
<path d="M60.3906 64.2344H67.5781C68.875 64.2344 69.9219 65.2813 69.9219 66.5781V69.375H58.0469V66.5781C58.0469 65.2813 59.0938 64.2344 60.3906 64.2344Z" fill="#787681"/>
<path d="M36.4062 64.2344H43.5938C44.8906 64.2344 45.9375 65.2813 45.9375 66.5781V69.375H34.0625V66.5781C34.0625 65.2813 35.1094 64.2344 36.4062 64.2344Z" fill="#787681"/>
<path d="M67.5781 64.2344H62.8906C64.1875 64.2344 65.2344 65.2813 65.2344 66.5781V69.375H69.9219V66.5781C69.9219 65.2813 68.875 64.2344 67.5781 64.2344Z" fill="#57565C"/>
<path d="M43.5938 64.2344H38.9062C40.2031 64.2344 41.25 65.2813 41.25 66.5781V69.375H45.9375V66.5781C45.9375 65.2813 44.8906 64.2344 43.5938 64.2344Z" fill="#57565C"/>
<path d="M12.4219 64.2344H19.6094C20.9062 64.2344 21.9531 65.2812 21.9531 66.5781V69.375H10.0781V66.5781C10.0781 65.2812 11.125 64.2344 12.4219 64.2344Z" fill="#787681"/>
<path d="M19.6094 64.2344H14.9219C16.2188 64.2344 17.2656 65.2812 17.2656 66.5781V69.375H21.9531V66.5781C21.9531 65.2812 20.9062 64.2344 19.6094 64.2344Z" fill="#57565C"/>
<path d="M40 16.3281C41.9416 16.3281 43.5156 14.7541 43.5156 12.8125C43.5156 10.8709 41.9416 9.29688 40 9.29688C38.0584 9.29688 36.4844 10.8709 36.4844 12.8125C36.4844 14.7541 38.0584 16.3281 40 16.3281Z" fill="white"/>
<path d="M40 9.29688C39.5937 9.29688 39.2031 9.35937 38.8281 9.5C40.6562 10.1406 41.6094 12.1563 40.9687 13.9844C40.6094 14.9844 39.8281 15.7656 38.8281 16.125C40.6562 16.7656 42.6719 15.8125 43.3125 13.9844C43.9531 12.1563 43 10.1406 41.1719 9.5C40.7969 9.35937 40.4062 9.29688 40 9.29688Z" fill="#E1E1E3"/>
<path d="M71.7969 27.8906H8.20312C6.90625 27.8906 5.85938 26.8438 5.85938 25.5469L5.90625 22.0938H74.1875L74.1406 25.5469C74.1406 26.8438 73.0938 27.8906 71.7969 27.8906Z" fill="#AEADB3"/>
<path d="M69.5 22.0938L69.4531 25.5469C69.4531 26.8438 68.4063 27.8906 67.1094 27.8906H71.7969C73.0938 27.8906 74.1406 26.8438 74.1406 25.5469L74.1875 22.0938H69.5Z" fill="#8B8893"/>
<path d="M78.8281 78.8281H1.17188L2.875 75.4375C3.26562 74.6406 4.07812 74.1406 4.96875 74.1406H75.0469C75.9375 74.1406 76.75 74.6406 77.1406 75.4375L78.8281 78.8281Z" fill="#AEADB3"/>
<path d="M77.125 75.4375C76.7344 74.6406 75.9219 74.1406 75.0313 74.1406H70.3438C71.2344 74.1406 72.0469 74.6406 72.4375 75.4375L74.1406 78.8281H78.8281L77.125 75.4375Z" fill="#8B8893"/>
<path d="M74.1406 74.1406H5.85938L7.54687 70.75C7.9375 69.9531 8.75 69.4531 9.64062 69.4531H70.3438C71.2344 69.4531 72.0469 69.9531 72.4375 70.75L74.1406 74.1406Z" fill="#DADADC"/>
<path d="M72.4375 70.75C72.0469 69.9531 71.2344 69.4531 70.3438 69.4531H65.6562C66.5469 69.4531 67.3594 69.9531 67.75 70.75L69.4531 74.1406H74.1406L72.4375 70.75Z" fill="#C8C5CC"/>
</svg>
