<svg width="72" height="80" viewBox="0 0 72 80" fill="none" xmlns="http://www.w3.org/2000/svg">
<g clip-path="url(#clip0_683_11326)">
<path fill-rule="evenodd" clip-rule="evenodd" d="M39.1162 0.964716L67.6468 17.4364C69.88 18.7226 71.1663 20.9558 71.1663 23.5284V56.4716C71.1663 59.0621 69.88 61.2774 67.6468 62.5636L39.1162 79.0353C36.8831 80.3216 34.3105 80.3216 32.0774 79.0353L3.54677 62.5636C1.31363 61.2774 0.0273438 59.0442 0.0273438 56.4716V23.5284C0.0273438 20.9379 1.31363 18.7226 3.54677 17.4364L32.0774 0.964716C34.3105 -0.321572 36.8831 -0.321572 39.1162 0.964716Z" fill="#6B7F9E"/>
<path d="M35.596 66.7273C50.1789 66.7273 62.0007 65.7915 62.0007 64.6371C62.0007 63.4827 50.1789 62.5469 35.596 62.5469C21.0132 62.5469 9.19141 63.4827 9.19141 64.6371C9.19141 65.7915 21.0132 66.7273 35.596 66.7273Z" fill="#5D718F"/>
<path fill-rule="evenodd" clip-rule="evenodd" d="M8.06677 13.291H63.1271C64.9314 13.291 66.4143 14.7738 66.4143 16.5782V50.5041H4.76172V16.5782C4.76172 14.7738 6.24452 13.291 8.0489 13.291H8.06677Z" fill="#596366"/>
<path fill-rule="evenodd" clip-rule="evenodd" d="M6.99486 48.2721H64.1811V16.5794C64.1811 16.0077 63.6988 15.5254 63.1271 15.5254H8.06677C7.49508 15.5254 7.01272 16.0077 7.01272 16.5794V48.2721H6.99486ZM66.4143 50.5053V54.0962C66.4143 55.9005 64.7885 57.3834 62.7876 57.3834H8.38834C6.38744 57.3834 4.76172 55.9005 4.76172 54.0962V50.5053H66.4143Z" fill="white"/>
<path d="M35.5962 54.917C36.2178 54.917 36.7217 54.4131 36.7217 53.7915C36.7217 53.1699 36.2178 52.666 35.5962 52.666C34.9746 52.666 34.4707 53.1699 34.4707 53.7915C34.4707 54.4131 34.9746 54.917 35.5962 54.917Z" fill="#C6CBD6"/>
<path fill-rule="evenodd" clip-rule="evenodd" d="M42.7071 62.5637L47.9237 64.243H23.252L27.4681 62.5637V57.3828H42.7071V62.5637Z" fill="#E4E7ED"/>
<path fill-rule="evenodd" clip-rule="evenodd" d="M27.4681 62.5625H42.7071L47.9237 64.2418V64.9564H35.5967H23.252V64.2418L27.4681 62.5625Z" fill="#ECF0F1"/>
<path fill-rule="evenodd" clip-rule="evenodd" d="M27.4668 57.3828H42.7057V62.5637L27.4668 57.3828Z" fill="#C6CBD6"/>
<path fill-rule="evenodd" clip-rule="evenodd" d="M53.0312 40.6426H61.1777V41.3036H53.0312V40.6426Z" fill="#83CF8F"/>
<path fill-rule="evenodd" clip-rule="evenodd" d="M53.0312 42.752H61.1777V43.3951H53.0312V42.752Z" fill="#FFE356"/>
<path fill-rule="evenodd" clip-rule="evenodd" d="M53.0312 44.8418H61.1777V45.5028H53.0312V44.8418Z" fill="#FF7069"/>
<path fill-rule="evenodd" clip-rule="evenodd" d="M52.2453 40.6426H51.4414V41.3036H52.2453V40.6426Z" fill="#83CF8F"/>
<path fill-rule="evenodd" clip-rule="evenodd" d="M52.2453 42.752H51.4414V43.3951H52.2453V42.752Z" fill="#FFE356"/>
<path fill-rule="evenodd" clip-rule="evenodd" d="M52.2453 44.8418H51.4414V45.5028H52.2453V44.8418Z" fill="#FF7069"/>
<path fill-rule="evenodd" clip-rule="evenodd" d="M51.1568 18.9903C52.0143 18.9903 51.7106 19.294 52.1394 19.4191C52.4788 19.5263 52.2466 19.3476 52.6575 19.3297C52.7825 19.3119 52.9076 19.3655 53.0327 19.3476C53.39 19.3119 53.1934 19.294 53.3185 19.2404C53.5686 19.1154 54.4797 19.1332 54.712 19.2225C54.9264 19.294 54.8906 19.3476 55.2479 19.4191C55.6946 19.5084 56.1948 19.3297 56.5878 19.5263C56.8379 19.6692 56.7307 19.7049 57.1238 19.7049C57.4453 19.7049 57.749 19.6334 58.0528 19.7049C58.4101 19.7942 58.1778 19.687 58.5887 19.6334C58.7138 19.6156 58.8031 19.6334 58.9281 19.6692C59.214 19.7585 59.1604 19.83 59.5534 19.8121C60.2323 19.7764 60.6611 20.0979 61.2685 20.1873C61.6972 20.2409 62.126 20.1515 62.0903 20.6696C61.6436 20.7232 61.2863 20.3302 60.8754 20.5803C60.8933 20.9733 61.1077 20.7232 61.3221 21.0269C61.3042 21.0269 61.2863 21.0448 61.2685 21.0448C60.9469 21.1163 60.804 21.2234 60.5717 21.5271C60.2502 21.5271 60.0179 21.4557 59.6785 21.6343C59.6249 22.1703 60.3038 22.0274 60.2323 22.8134C60.2323 22.9564 60.2323 23.2065 60.1966 23.403C59.9107 23.3673 59.214 22.6348 59.0711 22.4204C58.821 22.0274 59.5356 21.1341 59.1247 21.152C58.9817 21.1698 59.0711 21.2413 58.9103 21.4021C58.4994 21.3842 58.6959 21.0805 58.1778 21.2592C58.0528 21.7058 58.3386 21.6522 58.1242 21.7773C57.892 21.9023 57.7312 21.7237 57.5525 21.6879C57.5168 21.6701 56.427 21.7415 56.3734 21.7594C56.2484 21.9023 56.034 22.474 55.9804 22.5991C56.3377 22.8134 56.5878 22.7598 56.7129 22.7598C56.8915 22.7598 56.9451 22.867 57.088 22.9028C57.4989 23.01 57.1059 22.7777 57.4275 22.9028C57.6776 23.1707 57.9277 23.4387 58.1778 23.7067C58.1242 23.8139 58.0885 23.9032 58.0528 24.0104C57.7848 23.8139 57.749 23.3851 57.4096 23.2601C57.356 23.6888 57.8026 23.4923 57.5525 24.5285C57.3382 25.4217 57.1774 25.0823 56.8022 25.1895C56.7129 25.2431 56.4806 25.8505 56.4628 25.9398C56.7486 26.2078 57.088 26.3329 57.0702 26.8688C56.9094 26.9581 56.8022 27.0296 56.5878 26.976C56.3556 26.047 56.427 26.5115 56.1591 26.2435C55.8732 25.9577 56.2305 25.6719 55.4266 25.9934C55.3015 25.8148 55.373 25.8326 55.3194 25.6361C55.1229 25.6719 54.837 25.922 54.7656 26.1363C54.9442 26.2257 55.0871 26.3507 55.1586 26.3686C55.3194 26.3865 55.4087 26.2614 55.641 26.4043C55.5159 26.6544 55.4266 26.6008 55.3194 26.8688C55.498 27.1725 55.8196 27.3869 55.9447 27.7978C55.9447 27.8157 55.9625 27.8335 55.9625 27.8514C56.034 28.0658 56.0697 27.905 56.0876 28.1908C56.0876 28.4052 55.9804 28.5303 55.9089 28.7447C55.5338 29.7272 54.98 29.6022 54.2296 29.9595C54.2475 30.2275 54.4797 30.6741 53.9259 30.5669C53.8902 30.1203 54.1224 30.3525 54.0688 29.9238C53.7115 29.7987 53.515 29.9773 53.3542 30.3347C53.4972 30.9957 54.2832 31.0493 54.0688 32.0497C53.8187 32.2462 53.5865 32.4606 53.3364 32.6571C53.122 32.5142 53.3542 32.6214 53.1398 32.3534C52.9255 32.0854 52.6575 31.9068 52.4074 31.6924C52.3895 31.7281 52.3716 31.7639 52.3538 31.7996C52.2645 32.014 52.1751 32.2462 52.2287 32.4606C52.2466 32.5678 52.4431 32.9787 52.5324 33.0501C52.7111 33.2109 52.8897 33.2467 52.9433 33.5146C52.9612 33.604 53.0505 34.2828 53.0505 34.3186C52.3359 34.0506 52.5503 33.5682 52.2823 33.1037C52.1751 32.8894 52.1394 32.943 51.9965 32.7464C51.9786 32.3713 52.1037 32.0676 52.0143 31.6745C51.9608 31.4423 51.8536 31.1207 51.7821 30.8885C51.5141 30.9421 51.2819 31.2994 51.2283 30.9599C51.2104 30.8885 51.2104 30.8349 51.1926 30.7813C51.0496 30.1203 50.8174 30.2989 50.603 29.6736C50.2457 29.7808 50.2278 29.7987 49.8169 29.8702V29.888C49.6561 30.1203 49.8169 30.0131 49.5311 30.2632C49.1738 30.549 48.9594 30.9421 48.5664 31.1743C48.5128 31.5852 48.6021 31.6745 48.4949 32.1569C48.4592 32.3355 48.2448 32.8179 48.0126 32.7822C47.9411 32.7643 47.6195 31.9961 47.5481 31.7817C47.423 31.4244 47.2801 31.1564 47.1729 30.7277C47.1193 30.4954 47.0836 30.0845 47.03 29.9238C46.7799 29.9595 46.7977 30.1203 46.5476 29.9595C46.3868 29.8344 46.4583 29.763 46.369 29.5843C46.1725 29.4057 45.9759 29.227 45.7616 29.0305C45.6008 28.9769 44.9934 29.0662 44.7432 29.0305C44.2787 28.9948 44.243 29.0126 43.975 28.6553C43.4927 28.6732 43.5284 28.8518 43.0639 28.4588C42.7602 28.2087 42.8138 27.7978 42.3672 28.0301C42.3493 28.4052 42.528 28.4767 42.7066 28.6553C42.8317 28.7804 42.9746 28.8697 43.0461 29.0484C43.0461 29.0484 43.0818 29.227 43.0818 29.2449C43.5105 29.2806 43.6177 29.0662 43.8679 28.8876C44.1001 29.102 43.8679 29.1377 44.2073 29.2985C44.4753 29.4235 44.4217 29.3521 44.6003 29.5665C44.6896 29.8523 43.9929 30.6384 43.7785 30.7813C43.5999 30.8885 43.5105 30.8349 43.3498 30.9599C43.1175 31.1564 43.3855 31.1207 42.9746 31.2636C42.5458 31.4244 42.0992 31.746 41.6526 31.7817C41.5454 31.5137 41.4561 31.2458 41.3489 30.9778C41.063 30.0667 41.063 30.424 40.7772 29.9416C40.6343 29.7451 40.6879 29.6022 40.5985 29.4235C40.5271 29.2806 40.4377 29.227 40.3484 29.0662C40.2055 28.7983 40.0626 28.4052 39.741 28.4409L39.5981 27.6906C39.6338 27.6906 39.6874 27.6906 39.741 27.6727C39.8125 27.5477 40.277 26.3865 39.6695 26.5294C39.4909 26.583 39.616 26.6366 39.348 26.583C39.08 26.5115 39.3301 26.4579 39.0443 26.5115C38.7584 26.5472 38.4011 26.7974 38.1689 25.9398C38.0796 25.6361 37.9188 25.3681 37.5615 25.8326C37.6508 25.9934 37.7223 26.0113 37.8294 26.1542C37.7937 26.2078 37.7044 26.315 37.6687 26.3507C37.4721 26.5472 37.758 26.4579 37.4364 26.4937C37.2578 26.3686 37.2935 26.2078 37.1327 25.9756C36.829 25.5468 37.0255 25.7433 36.8826 25.3503C36.7575 25.2431 36.561 25.1716 36.4002 25.0644H36.3824C36.3466 25.0287 36.293 25.0108 36.2573 24.9751C36.0072 24.7607 35.9536 24.5464 35.6678 24.5999C35.6678 24.8143 35.6856 24.8143 35.7928 24.9573C36.1859 25.4396 36.0608 25.2788 36.3824 25.4575H36.4002C36.4717 25.4932 36.561 25.5468 36.6682 25.6361C36.2752 25.9756 36.6325 26.0113 36.4002 26.1185H36.3824C36.3645 26.1185 36.3288 26.1363 36.3109 26.1542C36.2216 25.9577 36.4181 26.047 36.2037 25.7612C36.0787 25.6183 35.9715 25.5647 35.7928 25.4753C35.3462 25.261 35.3998 25.1002 35.1139 24.8322C34.7924 24.8501 34.8638 24.9394 34.6494 25.0466C34.3815 25.1716 34.4172 25.0287 34.1135 25.0466C33.8634 25.4932 34.2207 25.118 33.7562 25.4753C33.2024 25.9041 33.649 26.3329 32.7557 26.4758C32.6843 26.4937 32.6664 26.4758 32.6128 26.4937C32.452 26.5472 32.5414 26.5115 32.452 26.583H32.3091C32.2913 26.4043 32.0769 26.3686 31.8625 26.3507C31.7374 25.9398 31.7374 26.047 31.8268 25.6719C31.8804 25.4575 31.8268 25.3681 31.8804 25.1538C32.0054 24.6357 32.9165 25.1538 33.1666 24.9394C33.2917 24.725 33.3096 24.4928 33.1666 24.2784C33.0237 24.064 32.8272 24.0997 32.7379 23.8853C32.9523 23.7424 32.7915 23.8675 32.988 23.8317C33.2202 23.7782 33.1845 23.7246 33.4525 23.671C33.6847 23.6174 33.8455 23.403 34.0778 23.2601C34.4172 23.0457 34.2564 22.867 34.6494 22.7956C35.2926 22.6884 34.8817 22.7062 34.9532 22.1167C35.0603 22.081 35.1497 22.0452 35.239 21.9916C35.4355 22.2596 35.1854 22.1524 35.4355 22.3132C35.507 22.2775 35.5784 22.2418 35.6499 22.206C35.6142 21.9202 35.4891 21.9738 35.3998 21.6343C35.0782 21.6879 34.971 21.9559 34.703 21.8487C34.4529 21.7594 34.4351 21.4021 34.4529 21.1163C34.5423 20.9019 35.0068 20.7768 35.1854 20.7232C35.4712 20.6339 35.4355 20.4374 35.7035 20.1694C36.0608 19.83 35.7928 20.1694 35.9715 19.7406C36.3466 19.7228 36.168 19.7049 36.4002 19.5977H36.4181H36.436C36.5789 19.5441 36.7397 19.5263 36.9183 19.4727C37.5615 19.2583 37.8116 19.3655 38.2939 19.562C38.6512 19.7049 39.741 19.7049 39.8303 20.1515C39.5624 20.4195 39.3122 20.223 38.9371 20.2409C39.0085 20.5803 39.0443 20.5803 39.348 20.6875C39.4016 20.5267 39.3301 20.5803 39.4194 20.491C39.5266 20.5088 39.6338 20.5267 39.741 20.5446C39.8482 20.1873 39.9733 20.2409 40.3306 20.2051C40.277 19.955 40.2055 20.0265 40.3484 19.8478C40.7236 19.8836 40.4199 19.8478 40.5985 20.1337C40.8486 20.0979 41.0988 19.83 41.4561 19.7942C41.6704 19.7764 41.6704 19.8478 41.9741 19.83C42.2243 19.7942 42.2243 19.7049 42.4744 19.8121C42.5637 19.6513 42.4744 19.6513 42.7066 19.6156C43.0639 19.562 43.3498 19.7585 43.6892 19.8121C43.4391 19.5084 43.2068 19.562 43.5105 19.0618C43.9036 18.9903 43.9393 19.0439 44.1001 19.3297C44.2252 19.2583 44.243 19.2047 44.3145 19.1868C44.4931 19.1511 44.5467 19.294 44.9219 19.0796C45.1541 18.9546 44.779 19.026 45.2077 18.9188C45.3685 18.8831 45.3685 18.9546 45.5293 18.8295C45.8687 18.7045 46.2082 18.5794 46.5476 18.4543C46.9228 18.4543 46.7263 18.5615 47.155 18.4008C47.7267 18.2042 47.8875 18.4186 48.3163 18.4365C49.3167 18.4722 48.9594 19.0439 50.5494 19.0439C50.7995 19.0439 50.7817 18.9546 51.139 18.9367C51.1568 18.9367 51.1747 18.9367 51.1926 18.9367L51.1568 18.9903ZM57.3024 27.2797C57.3382 27.4941 57.4453 27.6549 57.6419 27.7442C57.8384 27.4405 57.5883 27.4226 58.3207 27.1904C58.3743 27.1725 58.4101 27.1547 58.4637 27.1368C59.0889 26.7974 58.6602 27.0475 59.1247 26.851C59.1247 26.5651 59.0532 26.3865 59.0353 26.0828C59.0175 25.7433 58.9103 25.6004 58.6066 25.5468C58.5708 26.1721 59.0175 25.9756 58.3029 26.6366C57.9277 26.9939 57.6776 26.583 57.3382 27.2619L57.3024 27.2797ZM53.247 35.8907C53.2828 35.6942 53.3185 35.4619 53.4078 35.319C53.6758 35.319 53.4257 35.5334 53.8366 35.4977C53.908 35.3369 53.908 35.2654 53.8723 35.0868C53.6937 35.051 53.6401 35.0868 53.4972 35.194C53.4614 35.1404 53.4078 35.1046 53.3721 35.051C53.1756 34.9081 53.2113 35.2297 53.0148 34.8724C52.8183 34.4972 53.0327 34.4972 52.6218 34.2471C52.3716 34.0863 52.2823 33.997 52.0679 33.7826C51.7106 33.4075 52.0322 33.5682 51.4248 33.3896C51.4069 33.8005 51.5141 33.5504 51.8178 34.0327C51.9429 34.265 52.0858 34.4794 52.2109 34.7116C52.4074 35.0332 52.6039 35.8907 53.2113 35.855L53.247 35.8907ZM54.176 35.3012C54.6941 35.3726 55.0693 35.5691 55.2122 35.4619C55.373 35.2833 55.3194 35.1582 55.4802 34.9081C55.6946 34.5687 55.5516 34.6759 55.8196 34.3722C55.6767 33.8362 55.6052 34.0685 55.8911 33.5146C55.8375 33.336 55.7124 33.1395 55.5695 33.0323C55.4087 33.1395 55.5516 33.0144 55.4266 33.1752C55.2301 33.3896 55.0157 33.6218 54.8192 33.8362C54.6405 33.997 54.712 33.8719 54.444 34.0863C54.3725 34.1221 54.3011 34.1757 54.2118 34.2114C54.0867 34.265 53.9974 34.1042 53.9795 34.4972C53.9616 34.6759 54.1403 35.051 54.1939 35.2833L54.176 35.3012ZM41.7776 24.7071C41.8134 25.261 42.1528 25.4753 42.4029 25.7255C42.3672 25.9934 42.3136 25.922 42.3136 26.2971C42.5994 26.4937 42.8138 26.6187 43.189 26.5294C43.2426 26.0828 43.0997 26.1006 42.9567 25.7969C42.9746 25.7612 43.0461 25.7076 43.0639 25.7076C43.1711 25.5647 43.1175 25.7612 43.1711 25.5289C42.9031 25.4396 42.4565 25.1716 42.4208 24.8143C42.5458 24.7071 42.5101 24.7786 42.6173 24.7071C42.8317 24.5642 42.6709 24.7786 42.7959 24.5464C42.6888 24.332 42.5637 24.2962 42.2957 24.4034C42.1707 24.457 41.867 24.6714 41.8134 24.7071H41.7776ZM39.4016 24.8501C39.2229 24.5999 39.2408 24.4749 38.8835 24.4749C38.7406 24.6178 38.5798 24.8322 38.5083 25.0644C38.3833 25.4039 38.4726 25.1716 38.4905 25.5289C38.4905 25.5468 38.4905 25.5647 38.4905 25.5825C38.4905 25.7969 38.4369 25.5468 38.4726 25.7433C38.7406 25.6897 38.544 25.6897 38.7406 25.6361C38.9371 25.5647 39.5266 25.4039 39.6874 25.4396C40.0804 25.5289 40.4199 25.8326 40.8844 25.5289C40.8665 25.1359 40.3663 24.9751 40.0269 24.8143C40.0447 24.457 40.1519 24.7429 40.1162 24.3856C39.9911 24.3856 39.9375 24.3677 39.8125 24.4034C39.5445 24.5106 39.6874 24.5464 39.6874 24.5821C39.7053 24.7786 39.9554 24.5464 39.6874 24.7786C39.616 24.8501 39.4909 24.8501 39.4016 24.8501ZM32.6128 22.081C32.595 22.7241 32.8272 22.5097 33.0416 22.8134C32.9344 23.0814 32.9165 22.867 32.8093 23.1529C32.7022 23.3851 32.8272 23.1707 32.7736 23.5816C32.9344 23.5995 33.1845 23.528 33.4168 23.5102C33.7383 23.4744 33.7205 23.4566 33.8277 23.135C33.649 22.9206 33.4704 22.7241 33.2917 22.5097C33.0595 22.1703 33.2917 22.4025 33.2202 22.1167C33.1666 22.0095 33.113 21.9202 33.0773 21.813C32.7736 21.9202 32.8093 21.8845 32.595 22.0631L32.6128 22.081Z" fill="#83CF8F"/>
<path fill-rule="evenodd" clip-rule="evenodd" d="M39.7584 28.495C39.6869 28.6915 40.0442 29.3882 40.1335 29.5669C40.2229 29.7277 40.3658 29.817 40.4015 30.0492C40.4551 30.3887 40.3836 30.3351 40.5802 30.5673C40.9732 31.0318 40.5623 30.9425 41.1697 31.3891C41.6163 31.7286 41.5091 31.8179 41.7057 32.2824C42.0094 32.3717 42.8848 31.9787 43.0455 32.0859C43.2242 32.4074 42.8312 32.9076 42.7418 33.1756C42.4203 34.0867 41.8486 34.0689 41.4019 34.7835C41.1697 35.1587 41.0446 35.2122 40.8303 35.6589C40.5802 36.177 41.3305 37.6062 40.8839 38.1957C40.7767 38.3386 40.473 38.4101 40.0621 38.821C39.6333 39.2676 40.0799 39.1962 39.9191 39.9465C39.7941 40.1252 39.6333 40.1252 39.4725 40.2502C39.4189 40.4289 39.4547 40.5718 39.3653 40.7862C39.2581 41.0541 39.2403 40.9112 39.0973 41.1256C38.9902 41.2864 38.9902 41.3579 38.8651 41.5186C38.7579 41.6616 38.7043 41.6973 38.5971 41.7866C38.0969 42.2332 37.0071 42.2511 36.9178 42.1975C36.6677 41.9831 36.8285 41.9295 36.7749 41.6258C36.7213 41.3579 36.5784 41.1435 36.4533 40.9291L36.4354 40.9112C36.3819 40.804 36.3283 40.7147 36.2925 40.6254C36.0781 39.9822 36.1675 39.482 35.7923 38.8389C35.3278 37.9992 36.0424 37.5526 36.0245 37.0702C36.0067 36.9452 35.971 36.8737 35.9531 36.7665C35.8638 36.2306 35.8102 35.7661 35.4529 35.3552C35.0598 34.9085 35.1134 35.0693 35.2385 34.319C35.3993 33.4615 35.0241 33.6937 34.506 33.658C34.2559 32.8898 33.7557 33.265 33.2555 33.4972C32.9339 33.6401 32.8267 33.4615 32.4694 33.5151C31.6833 33.6223 32.3086 33.9438 31.2367 33.1399C30.7901 32.8005 31.0938 32.9791 30.8258 32.5503C30.7365 32.3896 30.4685 32.193 30.3434 32.0323C29.9504 31.532 30.4149 31.0497 30.3434 30.478C30.2184 29.4239 30.0397 30.3351 30.6471 29.0666C30.9687 28.3878 31.4332 28.3878 31.5583 28.0841C31.6655 27.8161 31.594 27.6196 31.7905 27.3873C31.9692 27.1908 32.2193 27.2265 32.3086 26.905C32.3443 26.8156 32.3443 26.7442 32.3443 26.6906H32.4873L32.4694 26.7085C32.5409 26.8871 32.4337 26.8514 32.7374 26.8871C33.2912 26.9586 33.3626 26.6191 33.7557 26.5477C33.9522 26.5119 35.1849 26.4583 35.2742 26.4762C35.5422 26.762 35.3278 26.9764 35.3278 27.2265C35.6137 27.3695 36.0245 27.4052 36.2032 27.566C36.3997 27.7446 36.3104 27.7089 36.3997 27.7446H36.4176C36.4533 27.7625 36.5069 27.7804 36.5962 27.7982C36.8285 27.8697 36.8106 27.9233 37.0607 27.9411C37.293 27.1908 37.0607 27.2801 38.1505 27.6196C39.2939 27.9769 38.7758 27.6553 39.2581 27.7089C39.4547 27.7268 39.4547 27.7804 39.6154 27.7804L39.7584 28.5307V28.495ZM42.6168 37.3918C42.3667 37.5169 42.3309 37.8027 42.1344 37.9813C41.92 38.16 41.6521 38.0885 41.5627 38.428C41.4555 38.8567 41.7414 38.7317 41.4377 39.2855C41.3305 39.4999 41.3126 40.018 41.4913 40.1788C41.9915 40.6611 42.2773 39.4463 42.3845 39.0711C42.4739 38.8031 42.5453 38.4994 42.6525 38.2493C42.7418 37.9813 42.8848 37.7491 42.6346 37.3918H42.6168Z" fill="#FFE356"/>
<path fill-rule="evenodd" clip-rule="evenodd" d="M22.4306 38.6786C22.2698 38.4285 21.8947 38.3034 21.5731 38.1069C21.5552 38.1069 21.5374 38.0891 21.5374 38.0891C21.1086 37.8032 20.7156 36.6598 20.3761 36.2311C20.2153 36.0346 20.126 36.1239 20.0546 35.8023C19.9831 35.4986 20.0903 35.5522 20.1975 35.3021C19.6794 34.3731 20.8585 34.391 20.6262 33.2655C20.5726 33.069 20.4297 32.7653 20.2868 32.6759C20.0367 32.7831 20.1617 32.8367 20.0367 33.0332C19.8402 32.926 19.6437 32.8188 19.4471 32.7117C18.8397 32.14 19.1613 32.5509 19.0005 32.1936C18.6432 31.4254 18.3038 31.8541 17.8572 31.4611C17.6606 31.3003 17.6249 31.0502 17.3033 31.1038C16.821 31.1753 17.089 31.2467 16.5887 31.0145C16.16 30.818 15.7133 30.5857 15.4275 30.3356C15.4096 29.9247 15.5704 29.9068 15.3024 29.5317C15.1774 29.3351 14.9987 29.1744 14.8915 29.0136C14.7129 28.7099 14.9809 28.9778 14.5164 28.4062C14.2127 28.0131 14.57 27.9774 14.2127 27.7094C13.7482 27.9238 14.4806 28.5312 14.695 29.5138C14.4985 29.4781 14.3556 29.3351 14.2841 29.1208C14.1591 28.7635 14.2841 28.8528 13.9268 28.7099C13.9447 28.0846 14.0697 28.6384 13.8018 28.031C13.7124 27.7987 13.766 27.7094 13.6767 27.4772C13.6053 27.2807 13.7124 27.4593 13.5874 27.3521C13.5338 27.2092 13.6231 27.3343 13.5159 27.2449C13.4087 27.1377 13.5159 27.2271 13.4087 27.1556C13.1765 26.9948 13.1229 26.7983 13.0872 26.4767C12.9621 25.4406 13.3194 25.3512 13.7124 24.6009C14.0162 24.0649 13.9626 24.1543 13.7124 23.7076C13.766 23.4933 13.8554 23.4754 13.8375 23.1895C13.8196 22.8322 13.8018 22.993 13.8732 22.7251C13.8554 22.7072 13.8375 22.7072 13.8375 22.6893C13.8196 22.6893 13.8018 22.6715 13.8018 22.6715C13.7839 22.6715 13.766 22.6536 13.7482 22.6536C13.6767 22.6357 13.6231 22.6179 13.5517 22.5821C13.5874 22.0283 13.6767 21.7067 13.0157 21.6353C12.7299 21.5996 12.5512 21.4924 12.4619 21.4924C12.4083 21.4924 12.1403 21.6174 11.9438 21.671C11.5865 21.7603 11.783 21.7603 11.4436 21.7067C11.2649 21.671 10.7647 21.7246 10.3359 21.6174L10.3895 21.01C10.6396 20.9743 10.8898 20.9564 11.0505 20.8135C10.8898 20.6706 10.7111 20.7778 10.461 20.6884C10.5146 20.2418 11.1935 20.4026 11.4972 20.4026C11.5329 20.0632 11.3542 20.081 11.515 19.956C11.6044 19.8845 13.4087 19.42 13.8554 19.5093C14.5342 19.6344 15.2131 19.7594 15.8741 19.8666C16.285 19.9024 16.946 19.6344 17.3748 19.6523C17.6964 19.6701 17.4105 19.7416 17.8036 19.7594C18.0715 19.7773 18.0894 19.7058 18.3931 19.7952C18.6789 19.8845 18.536 19.9024 18.8755 19.9024C18.9291 19.7237 18.9827 19.5451 19.0362 19.3664C18.7504 19.42 18.5718 19.5093 18.2859 19.4557C18.3038 19.1878 18.6432 19.0806 18.8397 18.9912C19.465 18.6697 19.9116 19.1878 20.5905 19.2414C20.8406 19.2592 21.0371 19.0806 21.323 19.0806C21.2158 19.2592 21.1622 19.2235 21.0193 19.4736C21.1443 19.813 20.9657 19.3664 21.1265 19.6701C21.1443 19.7058 21.1622 19.7058 21.1979 19.7952C20.7156 19.9024 21.0193 19.956 20.3583 19.9202C20.4476 20.0274 20.2868 19.9738 20.5369 20.081C20.7513 20.1882 21.055 20.1346 21.2873 20.1167C21.3587 19.9738 21.4123 19.8666 21.5374 19.813C21.591 19.7952 21.6624 19.7952 21.7339 19.7952C21.7517 19.8666 21.7696 19.9381 21.7875 19.9917C21.7875 19.9917 21.8053 20.0453 21.7875 20.0274C21.7875 20.0096 21.8053 20.0632 21.8053 20.0632C22.1805 19.8488 21.8589 19.8488 22.0555 19.4736C21.7517 19.42 21.7875 19.4557 21.591 19.2592C21.7696 19.0627 22.1448 18.9912 22.4128 19.0091C22.3949 19.1878 22.3056 19.1878 22.377 19.3485C22.5914 19.2235 22.7343 18.8841 23.0738 18.9376C23.1452 18.9912 23.2167 19.027 23.2881 19.0627C23.1095 19.2235 22.8594 19.2235 22.6271 19.3307C22.5199 20.3133 22.9487 19.4915 22.8058 20.1703C23.0559 20.1525 23.306 19.9738 23.3953 19.7952C23.306 19.6701 23.1631 19.6701 23.0916 19.5272C23.1452 19.3485 23.2703 19.2056 23.4489 19.1163C23.574 19.0627 23.7169 19.027 23.8777 19.027C25.7357 19.0448 24.8424 19.1163 25.4141 19.3843C25.5391 19.4379 25.7714 19.4736 25.8429 19.5808C25.9679 19.7594 25.8429 19.9202 26.0394 20.0632C26.2002 20.1882 26.218 20.0632 26.4324 20.3311C26.3788 20.474 26.2716 20.6348 26.0572 20.6348C25.7357 20.6348 25.9322 20.4383 25.5927 20.4562C25.5927 20.7599 25.9143 20.8849 25.6285 21.0457C25.3784 21.1887 25.5391 20.9921 25.3426 21.0993C25.3426 21.0993 25.3248 21.1172 25.3069 21.1172C25.289 21.1172 25.289 21.1351 25.2712 21.1529C25.2354 21.1887 25.1997 21.2244 25.1818 21.2601C24.7174 21.1351 24.8067 21.1887 24.5208 20.8849C24.4136 20.7778 24.3958 20.742 24.2171 20.7599C24.0921 20.7599 23.9492 20.8135 23.842 20.7063C24.0742 20.4205 24.1814 20.6884 24.503 20.5276C24.5566 20.4919 24.9317 20.2239 24.9853 20.1525C24.8781 19.9381 24.9675 20.1167 24.8245 19.9738C24.503 19.6523 24.4136 19.7237 23.967 19.7237C23.7526 19.956 23.6097 20.2418 23.3775 20.3669C23.2345 20.4383 23.0738 20.4562 22.8594 20.3669C22.9666 20.7599 23.2167 20.4562 23.2345 20.9385C23.0738 20.9028 22.9844 20.8314 22.8058 20.8849C22.4306 21.0279 22.7701 21.01 22.7879 21.0815C22.7879 21.0815 22.9666 21.0993 22.7879 21.1708C22.5914 21.2422 22.7522 21.1351 22.3949 20.9207C22.4485 20.8314 22.5021 20.742 22.5557 20.6348C22.252 20.7242 21.8768 20.8671 21.5195 21.0457C21.1265 21.2422 20.7334 21.4566 20.5191 21.671C20.5191 22.0104 20.5726 21.7782 20.6084 22.1891C21.1443 22.2248 20.9835 22.3856 21.5195 22.5285C21.6267 22.5643 21.7517 22.5821 21.9125 22.6179C21.9125 22.868 21.6803 23.0645 21.8411 23.3325C22.2162 23.6004 22.2341 23.0824 22.3234 22.7608C23.6097 22.4928 22.9844 22.1355 23.3239 21.4388C23.3775 21.3316 23.4489 21.2244 23.5383 21.0993C23.6454 21.0993 24.0385 21.1529 24.1278 21.1708C24.4136 21.2244 24.2707 21.2958 24.5744 21.4209C24.5744 21.671 24.4315 21.9926 24.8067 21.9211C25.0925 21.8675 25.0211 21.6531 25.3784 21.5996C25.5391 21.9569 25.5034 22.1176 25.557 22.5464C26.3967 22.868 26.0215 23.1181 25.8607 23.7255C25.9679 23.7791 26.0751 23.8148 26.1823 23.8684C26.1823 24.0471 26.1644 24.2079 26.1644 24.3865C26.1466 24.3865 25.2712 24.2079 25.2176 24.19C25.3426 23.8148 25.5927 23.8148 25.7535 23.4218C25.432 23.4754 25.4677 23.5647 25.2354 23.6362C25.0389 23.6898 24.8781 23.654 24.6638 23.6898C24.5923 23.9399 24.6638 23.4754 24.6816 23.797C24.6995 23.922 24.7531 23.797 24.6638 23.922C24.3779 23.797 24.4672 23.4754 23.9313 23.7612C24.0563 23.8148 24.1814 23.8684 24.3065 23.922C24.2886 24.2793 24.2529 24.0113 24.1814 24.2436C24.0027 24.8331 24.6816 24.4758 24.8603 24.4401C24.8067 24.7617 24.6102 24.7617 24.3422 24.8331C24.0385 24.9225 23.9492 25.0475 23.699 25.1011C23.699 24.7259 23.6454 25.0475 23.8062 24.7795C23.5561 24.7974 23.3775 24.9046 23.1452 25.0118H23.1274C22.8237 25.1368 22.7879 25.1547 22.7522 25.5299C22.5021 25.6013 22.1984 25.6907 22.0197 25.8693C21.8411 26.0301 21.6624 26.2088 21.4838 26.3695C21.4659 26.3874 21.448 26.4053 21.448 26.4053C21.5195 26.8698 21.448 26.8876 21.1622 27.0663C20.9121 27.2271 20.8406 27.2092 20.6084 27.4057C19.8759 28.0489 20.2332 27.7452 20.2689 28.8528C20.126 28.7992 19.9652 28.7635 19.8402 28.7099C19.733 27.9774 19.8759 28.2275 19.2864 28.0489C18.6432 27.8702 18.7325 28.1739 18.4646 28.2275C18.1609 28.299 18.0179 27.9595 17.5892 28.2454C17.3569 28.4062 17.1247 28.5134 17.0711 28.7992C16.9996 29.1386 16.8388 29.3887 16.8746 29.7639C16.9103 30.7822 17.875 30.8537 18.1073 30.3713C18.268 30.0498 18.2323 29.8711 18.7504 29.9604C18.804 30.2284 18.7147 30.4249 18.6432 30.6393C18.5896 30.7644 18.4646 30.9787 18.536 31.1574C18.9112 31.3003 18.9291 31.0323 19.4293 31.3182C19.465 31.8005 19.197 32.3544 19.5901 32.6402C19.8938 32.8546 19.9116 32.6581 20.1617 32.6223C20.4476 32.5687 20.394 32.7474 20.662 32.7831C20.8049 32.6045 20.7513 32.7117 20.8406 32.4973C21.0193 32.1042 21.055 32.3008 21.4659 32.0506C21.5016 32.0328 21.5374 31.9971 21.591 31.9792C21.6446 32.0685 21.6981 32.1578 21.7339 32.265C22.0376 31.9077 22.0733 32.2472 22.4128 32.3544C22.5557 32.3901 22.6629 32.4079 22.7522 32.4079C23.0023 32.4079 23.038 32.2829 23.3775 32.4079C23.4132 32.4258 23.4668 32.4437 23.5204 32.4615L23.5383 32.4794C23.5383 32.4794 23.5561 32.4973 23.574 32.4973C23.6276 32.5687 23.6454 32.6223 23.6812 32.6938C23.9134 32.926 24.1635 33.1404 24.3958 33.3548C24.8603 33.5335 24.8603 33.194 25.3784 33.6942C25.5927 33.8908 25.5034 33.8908 25.6285 34.1587C25.6463 34.1945 25.6821 34.2481 25.6999 34.2838C25.7535 34.4088 25.8071 34.5339 25.8429 34.6411C26.0751 34.9448 26.4145 34.7483 26.7361 35.0699C26.9326 35.2485 26.7897 35.1949 27.2006 35.2664C27.8616 35.3736 27.5936 35.32 28.0939 35.6773C28.2904 35.8202 28.3261 35.7309 28.5048 35.8559C28.7549 36.1954 28.6834 36.5705 28.4869 36.8742C27.8438 37.7853 28.0581 37.6424 28.0403 38.3749C28.0224 38.7858 27.8973 39.6612 27.4864 39.7684C26.0215 40.1614 26.879 40.4473 26.486 41.144C26.3788 41.3405 26.2895 41.3941 26.218 41.5549C25.9322 42.2159 26.1287 42.4481 25.2712 42.2874C25.3605 42.4303 25.3069 42.341 25.3784 42.466C25.6285 42.859 25.6821 43.1449 25.1461 43.2342C24.7174 43.3235 24.896 43.2342 24.8603 43.7166C24.6995 43.788 24.6102 43.7166 24.503 43.8238C24.6459 44.0917 24.5208 43.8774 24.7709 44.0203C24.7174 44.1632 24.6816 44.324 24.6459 44.4669C24.5387 44.8242 24.5208 44.5026 24.4851 44.9135C24.628 44.985 24.7352 44.9671 24.8781 45.1458C24.8603 45.2887 24.7174 45.6639 24.6816 45.8782C24.896 46.1998 25.0747 46.5214 25.5391 46.5571C25.5391 46.8251 25.5927 46.7894 25.3605 46.843C25.164 46.8966 24.7352 46.7 24.5744 46.6107C24.2707 46.4499 23.9849 46.2355 23.7884 45.9497C23.6633 45.7889 23.7169 45.8604 23.5919 45.6996C23.3775 45.4138 23.4668 45.2887 23.3953 45.11C23.3596 45.0029 23.181 44.8778 23.2524 44.5205C23.2703 44.4133 23.4311 43.9488 23.2345 44.0203C23.038 44.0917 23.3775 44.0739 23.1095 44.1989C23.038 44.0203 22.9844 43.7702 22.9666 43.5558C22.8951 43.1985 22.8058 43.1806 22.7701 42.9662C22.6807 42.466 22.913 42.4124 22.6629 41.5549C22.5021 41.0011 22.5735 39.6791 22.3949 39.0002C22.377 38.9109 22.3413 38.8037 22.2877 38.7322L22.4306 38.6786Z" fill="#FF7069"/>
</g>
<defs>
<clipPath id="clip0_683_11326">
<rect width="71.1927" height="80" fill="white"/>
</clipPath>
</defs>
</svg>
