<svg width="80" height="80" viewBox="0 0 80 80" fill="none" xmlns="http://www.w3.org/2000/svg">
<path d="M60.2823 7.81445L58.6348 8.67945L61.0185 10.2657L60.2823 7.81445Z" fill="#BC9833"/>
<path d="M66.2367 42.0875C65.621 40.6756 64.1335 37.1309 63.5367 35.7625C63.4405 35.5369 63.2803 35.3445 63.076 35.209C62.8716 35.0734 62.6319 35.0008 62.3867 35H59.8867C59.6411 34.9991 59.4008 35.0711 59.1961 35.2068C58.9914 35.3425 58.8315 35.5359 58.7367 35.7625L57.7868 37.975L56.0368 42.0375C54.3571 46.9197 60.1071 48.1993 63.6868 47.1998C64.2148 47.0704 64.7084 46.8276 65.1331 46.4882C65.5578 46.1488 65.9035 45.7209 66.1461 45.2344C66.3888 44.7479 66.5226 44.2144 66.5382 43.671C66.5539 43.1275 66.451 42.5872 66.2367 42.0875Z" fill="#F5D51E"/>
<path d="M46.1113 42.5V49.2625L39.8613 55.5125L33.6113 49.2625V42.5H46.1113Z" fill="#FFC490"/>
<path d="M40.0206 2.56415L13.3547 11.4528C13.1058 11.5357 12.8894 11.6949 12.7359 11.9077C12.5825 12.1206 12.5 12.3763 12.5 12.6386C12.5 12.901 12.5825 13.1567 12.7359 13.3695C12.8894 13.5824 13.1058 13.7415 13.3547 13.8245L39.1887 22.4349C39.4452 22.5204 39.7226 22.5204 39.9792 22.4349L66.6447 13.5463C66.8935 13.4633 67.11 13.3041 67.2634 13.0913C67.4168 12.8785 67.4994 12.6228 67.4994 12.3604C67.4994 12.0981 67.4168 11.8424 67.2634 11.6295C67.11 11.4167 66.8935 11.2575 66.6447 11.1746L40.8111 2.56414C40.5546 2.47862 40.2772 2.47862 40.0206 2.56415Z" fill="#565468"/>
<path opacity="0.1" d="M46.1113 42.5V46.45C42.083 47.9685 37.6396 47.9685 33.6113 46.45V42.5H46.1113Z" fill="black"/>
<path d="M38.6108 45C36.8545 44.9851 35.1206 44.6052 33.519 43.8842C31.9175 43.1633 30.4835 42.1172 29.3079 40.8123C28.1324 39.5074 27.2411 37.9723 26.6907 36.3044C26.1403 34.6366 25.9428 32.8725 26.1108 31.1243C18.856 29.5529 19.8533 18.8685 27.3609 18.75H52.3608C53.9019 18.763 55.3841 19.3444 56.523 20.3828C57.6618 21.4212 58.3773 22.8434 58.5322 24.3769C58.6871 25.9103 58.2705 27.4469 57.3623 28.6921C56.4541 29.9373 55.1182 30.8033 53.6108 31.1243C53.7787 32.8725 53.5812 34.6366 53.0308 36.3045C52.4803 37.9723 51.5891 39.5074 50.4135 40.8123C49.238 42.1172 47.8039 43.1633 46.2024 43.8843C44.6008 44.6052 42.8668 44.9851 41.1106 44.9999L38.6108 45Z" fill="#FFC490"/>
<path opacity="0.1" d="M53.6113 10H26.1113C25.421 10 24.8613 10.5596 24.8613 11.25V22.5C24.8613 23.1904 25.421 23.75 26.1113 23.75H53.6113C54.3017 23.75 54.8613 23.1904 54.8613 22.5V11.25C54.8613 10.5596 54.3017 10 53.6113 10Z" fill="black"/>
<path opacity="0.1" d="M53.6113 15H26.1113C25.421 15 24.8613 15.5596 24.8613 16.25V27.5C24.8613 28.1904 25.421 28.75 26.1113 28.75H53.6113C54.3017 28.75 54.8613 28.1904 54.8613 27.5V16.25C54.8613 15.5596 54.3017 15 53.6113 15Z" fill="black"/>
<path d="M53.6113 12.5H26.1113C25.421 12.5 24.8613 13.0596 24.8613 13.75V25C24.8613 25.6904 25.421 26.25 26.1113 26.25H53.6113C54.3017 26.25 54.8613 25.6904 54.8613 25V13.75C54.8613 13.0596 54.3017 12.5 53.6113 12.5Z" fill="#565468"/>
<path d="M61.1113 32.5C60.9472 32.5 60.7846 32.4677 60.6329 32.4049C60.4812 32.3421 60.3434 32.2501 60.2273 32.134C60.1113 32.0179 60.0192 31.8801 59.9564 31.7284C59.8936 31.5767 59.8613 31.4142 59.8613 31.25V8.75C59.8613 8.41848 59.993 8.10054 60.2274 7.86612C60.4619 7.6317 60.7798 7.5 61.1113 7.5C61.4428 7.5 61.7608 7.6317 61.9952 7.86612C62.2296 8.10054 62.3613 8.41848 62.3613 8.75V31.25C62.3614 31.4142 62.3291 31.5767 62.2663 31.7284C62.2035 31.8801 62.1114 32.0179 61.9953 32.134C61.8792 32.2501 61.7414 32.3421 61.5897 32.4049C61.4381 32.4677 61.2755 32.5 61.1113 32.5Z" fill="#F5D51E"/>
<path opacity="0.1" d="M63.537 35.7625C63.4409 35.5369 63.2807 35.3445 63.0763 35.209C62.8719 35.0734 62.6323 35.0008 62.387 35H59.887C59.6414 34.9991 59.4011 35.0711 59.1964 35.2068C58.9917 35.3425 58.8318 35.5359 58.737 35.7625L57.7871 37.975C58.1114 38.581 58.5951 39.0868 59.186 39.4377C59.7769 39.7887 60.4525 39.9715 61.1397 39.9663C61.827 39.9612 62.4997 39.7683 63.0853 39.4085C63.6709 39.0487 64.1469 38.5358 64.4621 37.925L63.537 35.7625Z" fill="black"/>
<path d="M61.1123 37.5C60.125 37.4889 59.182 37.0889 58.4878 36.3868C57.7936 35.6848 57.4043 34.7373 57.4043 33.7499C57.4043 32.7626 57.7937 31.8152 58.4879 31.1131C59.1821 30.4111 60.1251 30.0111 61.1124 30C62.0996 30.0111 63.0427 30.4111 63.7369 31.1132C64.431 31.8153 64.8204 32.7627 64.8204 33.7501C64.8204 34.7374 64.431 35.6849 63.7368 36.3869C63.0426 37.0889 62.0995 37.4889 61.1123 37.5Z" fill="#F5D51E"/>
<path d="M46.1113 56.25H33.6113V48.75C35.5479 49.7336 37.6893 50.2462 39.8613 50.2462C42.0334 50.2462 44.1747 49.7336 46.1113 48.75V56.25Z" fill="#F2D1D4"/>
<path d="M32.3613 77.4996V62.7462C37.2744 64.0651 42.4483 64.0651 47.3613 62.7462V77.4996H32.3613ZM27.3613 60.5871V77.4996H17.3613C17.0298 77.4996 16.7119 77.3679 16.4774 77.1335C16.243 76.8991 16.1113 76.5811 16.1113 76.2496V63.7496C16.1124 59.7214 17.6091 55.837 20.3113 52.8496C21.7645 56.1222 24.2377 58.8366 27.3613 60.5871ZM63.6113 63.7496V76.2496C63.6113 76.5812 63.4796 76.8991 63.2452 77.1335C63.0108 77.3679 62.6928 77.4996 62.3613 77.4996H52.3613V60.5871C55.4771 58.842 57.9455 56.1368 59.3988 52.8746C62.1228 55.8396 63.6272 59.7234 63.6113 63.7496Z" fill="#565468"/>
<path d="M44.8613 77.5007V63.3125C48.4574 62.6026 51.8642 61.1454 54.8613 59.0352V77.5007H44.8613ZM24.8613 77.5007V59.0352C27.8584 61.1454 31.2653 62.6026 34.8613 63.3125V77.5007H24.8613Z" fill="#F2D1D4"/>
<path opacity="0.1" d="M62.4484 57.7121C53.0435 72.485 26.6651 72.4404 17.2734 57.7246C18.1828 55.436 19.6024 53.385 21.4241 51.7279C23.2458 50.0708 25.4217 48.8513 27.7859 48.1621C28.1797 48.5909 28.4704 49.1039 28.6359 49.6621C29.2234 51.9371 33.4359 54.9996 39.8609 54.9996C46.2859 54.9996 50.4984 51.9371 51.0609 49.7246C51.2472 49.1514 51.5445 48.6204 51.9359 48.1621C54.297 48.854 56.47 50.0731 58.2911 51.7275C60.1121 53.3818 61.5337 55.4282 62.4484 57.7121Z" fill="black"/>
<path d="M60.749 54.5499C59.7723 53.1126 54.7626 47.2896 53.4865 50.3497C52.5865 53.8623 47.249 57.4998 39.8615 57.4998C32.4741 57.4998 27.1365 53.8623 26.2365 50.3498C25.0145 47.5458 21.1219 52.1825 20.3115 52.8497C19.7247 53.6808 18.4291 54.5388 18.999 55.6998C25.7021 67.3029 43.3948 69.0602 54.274 62.35C56.9676 60.7342 59.1913 58.4415 60.7241 55.6999C60.8204 55.5243 60.8729 55.3281 60.8772 55.1279C60.8816 54.9277 60.8376 54.7294 60.749 54.5499Z" fill="#F5D51E"/>
<path d="M56.1493 50.0493C53.4943 63.2439 26.2189 63.2305 23.5742 50.0493C26.5808 48.1934 30.0839 47.3035 33.6117 47.4993L39.8617 54.9993L46.1117 47.4993C49.6396 47.3032 53.1428 48.1931 56.1493 50.0493Z" fill="#C62A38"/>
</svg>
