<svg width="960" height="1080" viewBox="0 0 960 1080" fill="none" xmlns="http://www.w3.org/2000/svg">
<rect width="960" height="1080" fill="#77C7A2"/>
<g clip-path="url(#clip0_2560_15645)">
<path d="M825.129 535.363L835.912 524.58C837.819 522.673 840.405 521.602 843.101 521.602C845.798 521.602 848.384 522.673 850.29 524.58L875.451 549.741C874.021 548.311 872.082 547.508 870.06 547.508C868.037 547.508 866.098 548.311 864.668 549.741L852.087 562.322L825.129 535.363Z" stroke="white" stroke-width="2" stroke-linecap="round" stroke-linejoin="round"/>
<path d="M861.074 499.418L850.29 510.202C848.384 512.108 847.313 514.694 847.313 517.391C847.313 520.087 848.384 522.673 850.29 524.58L875.452 549.741C874.022 548.311 873.218 546.371 873.218 544.349C873.218 542.327 874.022 540.387 875.452 538.957L888.032 526.377L861.074 499.418Z" stroke="white" stroke-width="2" stroke-linecap="round" stroke-linejoin="round"/>
</g>
<g clip-path="url(#clip1_2560_15645)">
<path d="M40.2207 668.342L51.0041 657.558C52.9107 655.652 55.4966 654.581 58.193 654.581C60.8894 654.581 63.4753 655.652 65.3819 657.558L90.5431 682.72C89.1132 681.29 87.1737 680.486 85.1514 680.486C83.1292 680.486 81.1897 681.29 79.7598 682.72L67.1791 695.3L40.2207 668.342Z" stroke="white" stroke-width="2" stroke-linecap="round" stroke-linejoin="round"/>
<path d="M76.1657 632.397L65.3823 643.18C63.4757 645.087 62.4045 647.673 62.4045 650.369C62.4045 653.066 63.4757 655.651 65.3823 657.558L90.5435 682.719C89.1135 681.289 88.3102 679.35 88.3102 677.328C88.3102 675.305 89.1135 673.366 90.5435 671.936L103.124 659.355L76.1657 632.397Z" stroke="white" stroke-width="2" stroke-linecap="round" stroke-linejoin="round"/>
</g>
<path d="M881 918.5L905.5 894L916 904.5L891.5 929L881 918.5Z" stroke="white" stroke-width="2" stroke-linecap="round" stroke-linejoin="round"/>
<path d="M902 897.5L896.75 871.25L846 859L858.25 909.75L884.5 915L902 897.5Z" stroke="white" stroke-width="2" stroke-linecap="round" stroke-linejoin="round"/>
<path d="M846 859L872.551 885.551" stroke="white" stroke-width="2" stroke-linecap="round" stroke-linejoin="round"/>
<path d="M877.498 897.498C881.364 897.498 884.498 894.364 884.498 890.498C884.498 886.632 881.364 883.498 877.498 883.498C873.632 883.498 870.498 886.632 870.498 890.498C870.498 894.364 873.632 897.498 877.498 897.498Z" stroke="white" stroke-width="2" stroke-linecap="round" stroke-linejoin="round"/>
<path d="M865 225.48L907.488 185.999" stroke="white"/>
<path d="M895.744 222.48L938.232 182.999" stroke="white"/>
<path d="M895.744 253.48L938.232 213.999" stroke="white"/>
<path d="M895.744 274.48L938.232 234.999" stroke="white"/>
<path d="M113.1 135.596L85.6477 84.5037" stroke="white"/>
<path d="M117.973 105.092L90.5208 53.9998" stroke="white"/>
<path d="M147.965 112.932L120.513 61.8396" stroke="white"/>
<path d="M168.283 118.242L140.831 67.1502" stroke="white"/>
<g opacity="0.5">
<path d="M159.42 1073.33C160.442 1073.33 161.27 1072.5 161.27 1071.48C161.27 1070.46 160.442 1069.63 159.42 1069.63C158.399 1069.63 157.57 1070.46 157.57 1071.48C157.57 1072.5 158.399 1073.33 159.42 1073.33Z" fill="white"/>
<path d="M159.422 1057.48C160.444 1057.48 161.272 1056.65 161.272 1055.63C161.272 1054.61 160.444 1053.78 159.422 1053.78C158.4 1053.78 157.572 1054.61 157.572 1055.63C157.572 1056.65 158.4 1057.48 159.422 1057.48Z" fill="white"/>
<path d="M245.045 1073.33C246.067 1073.33 246.895 1072.5 246.895 1071.48C246.895 1070.46 246.067 1069.63 245.045 1069.63C244.024 1069.63 243.195 1070.46 243.195 1071.48C243.195 1072.5 244.024 1073.33 245.045 1073.33Z" fill="white"/>
<path d="M245.045 1057.48C246.067 1057.48 246.895 1056.65 246.895 1055.63C246.895 1054.6 246.067 1053.78 245.045 1053.78C244.024 1053.78 243.195 1054.6 243.195 1055.63C243.195 1056.65 244.024 1057.48 245.045 1057.48Z" fill="white"/>
<path d="M228 1073.33C229.022 1073.33 229.85 1072.5 229.85 1071.48C229.85 1070.46 229.022 1069.63 228 1069.63C226.979 1069.63 226.15 1070.46 226.15 1071.48C226.15 1072.5 226.979 1073.33 228 1073.33Z" fill="white"/>
<path d="M228 1057.48C229.022 1057.48 229.85 1056.65 229.85 1055.63C229.85 1054.6 229.022 1053.78 228 1053.78C226.979 1053.78 226.15 1054.6 226.15 1055.63C226.15 1056.65 226.979 1057.48 228 1057.48Z" fill="white"/>
<path d="M210.824 1073.33C211.846 1073.33 212.674 1072.5 212.674 1071.48C212.674 1070.46 211.846 1069.63 210.824 1069.63C209.803 1069.63 208.975 1070.46 208.975 1071.48C208.975 1072.5 209.803 1073.33 210.824 1073.33Z" fill="white"/>
<path d="M210.823 1057.48C211.844 1057.48 212.672 1056.65 212.672 1055.63C212.672 1054.6 211.844 1053.78 210.823 1053.78C209.801 1053.78 208.973 1054.6 208.973 1055.63C208.973 1056.65 209.801 1057.48 210.823 1057.48Z" fill="white"/>
<path d="M193.647 1073.33C194.668 1073.33 195.497 1072.5 195.497 1071.48C195.497 1070.46 194.668 1069.63 193.647 1069.63C192.625 1069.63 191.797 1070.46 191.797 1071.48C191.797 1072.5 192.625 1073.33 193.647 1073.33Z" fill="white"/>
<path d="M193.645 1057.48C194.666 1057.48 195.495 1056.65 195.495 1055.63C195.495 1054.6 194.666 1053.78 193.645 1053.78C192.623 1053.78 191.795 1054.6 191.795 1055.63C191.795 1056.65 192.623 1057.48 193.645 1057.48Z" fill="white"/>
<path d="M176.469 1073.33C177.491 1073.33 178.319 1072.5 178.319 1071.48C178.319 1070.46 177.491 1069.63 176.469 1069.63C175.447 1069.63 174.619 1070.46 174.619 1071.48C174.619 1072.5 175.447 1073.33 176.469 1073.33Z" fill="white"/>
<path d="M176.467 1057.48C177.489 1057.48 178.317 1056.65 178.317 1055.63C178.317 1054.6 177.489 1053.78 176.467 1053.78C175.445 1053.78 174.617 1054.6 174.617 1055.63C174.617 1056.65 175.445 1057.48 176.467 1057.48Z" fill="white"/>
<path d="M58.1799 1073.33C59.2016 1073.33 60.0298 1072.5 60.0298 1071.48C60.0298 1070.46 59.2016 1069.63 58.1799 1069.63C57.1583 1069.63 56.3301 1070.46 56.3301 1071.48C56.3301 1072.5 57.1583 1073.33 58.1799 1073.33Z" fill="white"/>
<path d="M58.1819 1057.48C59.2035 1057.48 60.0317 1056.65 60.0317 1055.63C60.0317 1054.61 59.2035 1053.78 58.1819 1053.78C57.1602 1053.78 56.332 1054.61 56.332 1055.63C56.332 1056.65 57.1602 1057.48 58.1819 1057.48Z" fill="white"/>
<path d="M143.805 1073.33C144.827 1073.33 145.655 1072.5 145.655 1071.48C145.655 1070.46 144.827 1069.63 143.805 1069.63C142.783 1069.63 141.955 1070.46 141.955 1071.48C141.955 1072.5 142.783 1073.33 143.805 1073.33Z" fill="white"/>
<path d="M143.805 1057.48C144.827 1057.48 145.655 1056.65 145.655 1055.63C145.655 1054.6 144.827 1053.78 143.805 1053.78C142.783 1053.78 141.955 1054.6 141.955 1055.63C141.955 1056.65 142.783 1057.48 143.805 1057.48Z" fill="white"/>
<path d="M126.76 1073.33C127.782 1073.33 128.61 1072.5 128.61 1071.48C128.61 1070.46 127.782 1069.63 126.76 1069.63C125.738 1069.63 124.91 1070.46 124.91 1071.48C124.91 1072.5 125.738 1073.33 126.76 1073.33Z" fill="white"/>
<path d="M126.76 1057.48C127.782 1057.48 128.61 1056.65 128.61 1055.63C128.61 1054.6 127.782 1053.78 126.76 1053.78C125.738 1053.78 124.91 1054.6 124.91 1055.63C124.91 1056.65 125.738 1057.48 126.76 1057.48Z" fill="white"/>
<path d="M109.584 1073.33C110.606 1073.33 111.434 1072.5 111.434 1071.48C111.434 1070.46 110.606 1069.63 109.584 1069.63C108.563 1069.63 107.734 1070.46 107.734 1071.48C107.734 1072.5 108.563 1073.33 109.584 1073.33Z" fill="white"/>
<path d="M109.582 1057.48C110.604 1057.48 111.432 1056.65 111.432 1055.63C111.432 1054.6 110.604 1053.78 109.582 1053.78C108.561 1053.78 107.732 1054.6 107.732 1055.63C107.732 1056.65 108.561 1057.48 109.582 1057.48Z" fill="white"/>
<path d="M92.4065 1073.33C93.4281 1073.33 94.2564 1072.5 94.2564 1071.48C94.2564 1070.46 93.4281 1069.63 92.4065 1069.63C91.3848 1069.63 90.5566 1070.46 90.5566 1071.48C90.5566 1072.5 91.3848 1073.33 92.4065 1073.33Z" fill="white"/>
<path d="M92.4045 1057.48C93.4262 1057.48 94.2544 1056.65 94.2544 1055.63C94.2544 1054.6 93.4262 1053.78 92.4045 1053.78C91.3829 1053.78 90.5547 1054.6 90.5547 1055.63C90.5547 1056.65 91.3829 1057.48 92.4045 1057.48Z" fill="white"/>
<path d="M75.2288 1073.33C76.2504 1073.33 77.0786 1072.5 77.0786 1071.48C77.0786 1070.46 76.2504 1069.63 75.2288 1069.63C74.2071 1069.63 73.3789 1070.46 73.3789 1071.48C73.3789 1072.5 74.2071 1073.33 75.2288 1073.33Z" fill="white"/>
<path d="M75.2268 1057.48C76.2485 1057.48 77.0767 1056.65 77.0767 1055.63C77.0767 1054.6 76.2485 1053.78 75.2268 1053.78C74.2052 1053.78 73.377 1054.6 73.377 1055.63C73.377 1056.65 74.2052 1057.48 75.2268 1057.48Z" fill="white"/>
<path d="M159.42 1040.38C160.442 1040.38 161.27 1039.55 161.27 1038.53C161.27 1037.51 160.442 1036.68 159.42 1036.68C158.399 1036.68 157.57 1037.51 157.57 1038.53C157.57 1039.55 158.399 1040.38 159.42 1040.38Z" fill="white"/>
<path d="M159.42 1024.39C160.442 1024.39 161.27 1023.56 161.27 1022.54C161.27 1021.52 160.442 1020.69 159.42 1020.69C158.399 1020.69 157.57 1021.52 157.57 1022.54C157.57 1023.56 158.399 1024.39 159.42 1024.39Z" fill="white"/>
<path d="M159.42 1008.4C160.442 1008.4 161.27 1007.57 161.27 1006.55C161.27 1005.53 160.442 1004.7 159.42 1004.7C158.399 1004.7 157.57 1005.53 157.57 1006.55C157.57 1007.57 158.399 1008.4 159.42 1008.4Z" fill="white"/>
<path d="M159.42 992.545C160.442 992.545 161.27 991.717 161.27 990.696C161.27 989.674 160.442 988.846 159.42 988.846C158.399 988.846 157.57 989.674 157.57 990.696C157.57 991.717 158.399 992.545 159.42 992.545Z" fill="white"/>
<path d="M159.42 976.557C160.442 976.557 161.27 975.729 161.27 974.707C161.27 973.686 160.442 972.857 159.42 972.857C158.399 972.857 157.57 973.686 157.57 974.707C157.57 975.729 158.399 976.557 159.42 976.557Z" fill="white"/>
<path d="M159.422 960.702C160.444 960.702 161.272 959.873 161.272 958.852C161.272 957.83 160.444 957.002 159.422 957.002C158.4 957.002 157.572 957.83 157.572 958.852C157.572 959.873 158.4 960.702 159.422 960.702Z" fill="white"/>
<path d="M245.045 1040.38C246.067 1040.38 246.895 1039.55 246.895 1038.53C246.895 1037.5 246.067 1036.68 245.045 1036.68C244.024 1036.68 243.195 1037.5 243.195 1038.53C243.195 1039.55 244.024 1040.38 245.045 1040.38Z" fill="white"/>
<path d="M245.045 1024.39C246.067 1024.39 246.895 1023.56 246.895 1022.54C246.895 1021.52 246.067 1020.69 245.045 1020.69C244.024 1020.69 243.195 1021.52 243.195 1022.54C243.195 1023.56 244.024 1024.39 245.045 1024.39Z" fill="white"/>
<path d="M245.045 1008.4C246.067 1008.4 246.895 1007.57 246.895 1006.55C246.895 1005.53 246.067 1004.7 245.045 1004.7C244.024 1004.7 243.195 1005.53 243.195 1006.55C243.195 1007.57 244.024 1008.4 245.045 1008.4Z" fill="white"/>
<path d="M245.045 992.543C246.067 992.543 246.895 991.715 246.895 990.694C246.895 989.672 246.067 988.844 245.045 988.844C244.024 988.844 243.195 989.672 243.195 990.694C243.195 991.715 244.024 992.543 245.045 992.543Z" fill="white"/>
<path d="M245.045 976.555C246.067 976.555 246.895 975.727 246.895 974.705C246.895 973.684 246.067 972.855 245.045 972.855C244.024 972.855 243.195 973.684 243.195 974.705C243.195 975.727 244.024 976.555 245.045 976.555Z" fill="white"/>
<path d="M245.045 960.7C246.067 960.7 246.895 959.872 246.895 958.85C246.895 957.828 246.067 957 245.045 957C244.024 957 243.195 957.828 243.195 958.85C243.195 959.872 244.024 960.7 245.045 960.7Z" fill="white"/>
<path d="M228 1040.38C229.022 1040.38 229.85 1039.55 229.85 1038.53C229.85 1037.5 229.022 1036.68 228 1036.68C226.979 1036.68 226.15 1037.5 226.15 1038.53C226.15 1039.55 226.979 1040.38 228 1040.38Z" fill="white"/>
<path d="M228 1024.39C229.022 1024.39 229.85 1023.56 229.85 1022.54C229.85 1021.52 229.022 1020.69 228 1020.69C226.979 1020.69 226.15 1021.52 226.15 1022.54C226.15 1023.56 226.979 1024.39 228 1024.39Z" fill="white"/>
<path d="M228 1008.4C229.022 1008.4 229.85 1007.57 229.85 1006.55C229.85 1005.53 229.022 1004.7 228 1004.7C226.979 1004.7 226.15 1005.53 226.15 1006.55C226.15 1007.57 226.979 1008.4 228 1008.4Z" fill="white"/>
<path d="M228 992.543C229.022 992.543 229.85 991.715 229.85 990.694C229.85 989.672 229.022 988.844 228 988.844C226.979 988.844 226.15 989.672 226.15 990.694C226.15 991.715 226.979 992.543 228 992.543Z" fill="white"/>
<path d="M228 976.555C229.022 976.555 229.85 975.727 229.85 974.705C229.85 973.684 229.022 972.855 228 972.855C226.979 972.855 226.15 973.684 226.15 974.705C226.15 975.727 226.979 976.555 228 976.555Z" fill="white"/>
<path d="M228 960.7C229.022 960.7 229.85 959.872 229.85 958.85C229.85 957.828 229.022 957 228 957C226.979 957 226.15 957.828 226.15 958.85C226.15 959.872 226.979 960.7 228 960.7Z" fill="white"/>
<path d="M210.823 1040.38C211.844 1040.38 212.672 1039.55 212.672 1038.53C212.672 1037.5 211.844 1036.68 210.823 1036.68C209.801 1036.68 208.973 1037.5 208.973 1038.53C208.973 1039.55 209.801 1040.38 210.823 1040.38Z" fill="white"/>
<path d="M210.824 1024.39C211.846 1024.39 212.674 1023.56 212.674 1022.54C212.674 1021.52 211.846 1020.69 210.824 1020.69C209.803 1020.69 208.975 1021.52 208.975 1022.54C208.975 1023.56 209.803 1024.39 210.824 1024.39Z" fill="white"/>
<path d="M210.824 1008.4C211.846 1008.4 212.674 1007.57 212.674 1006.55C212.674 1005.53 211.846 1004.7 210.824 1004.7C209.803 1004.7 208.975 1005.53 208.975 1006.55C208.975 1007.57 209.803 1008.4 210.824 1008.4Z" fill="white"/>
<path d="M210.823 992.543C211.844 992.543 212.672 991.715 212.672 990.694C212.672 989.672 211.844 988.844 210.823 988.844C209.801 988.844 208.973 989.672 208.973 990.694C208.973 991.715 209.801 992.543 210.823 992.543Z" fill="white"/>
<path d="M210.824 976.555C211.846 976.555 212.674 975.727 212.674 974.705C212.674 973.684 211.846 972.855 210.824 972.855C209.803 972.855 208.975 973.684 208.975 974.705C208.975 975.727 209.803 976.555 210.824 976.555Z" fill="white"/>
<path d="M210.823 960.7C211.844 960.7 212.672 959.872 212.672 958.85C212.672 957.828 211.844 957 210.823 957C209.801 957 208.973 957.828 208.973 958.85C208.973 959.872 209.801 960.7 210.823 960.7Z" fill="white"/>
<path d="M193.645 1040.38C194.666 1040.38 195.495 1039.55 195.495 1038.53C195.495 1037.5 194.666 1036.68 193.645 1036.68C192.623 1036.68 191.795 1037.5 191.795 1038.53C191.795 1039.55 192.623 1040.38 193.645 1040.38Z" fill="white"/>
<path d="M193.647 1024.39C194.668 1024.39 195.497 1023.56 195.497 1022.54C195.497 1021.52 194.668 1020.69 193.647 1020.69C192.625 1020.69 191.797 1021.52 191.797 1022.54C191.797 1023.56 192.625 1024.39 193.647 1024.39Z" fill="white"/>
<path d="M193.647 1008.4C194.668 1008.4 195.497 1007.57 195.497 1006.55C195.497 1005.53 194.668 1004.7 193.647 1004.7C192.625 1004.7 191.797 1005.53 191.797 1006.55C191.797 1007.57 192.625 1008.4 193.647 1008.4Z" fill="white"/>
<path d="M193.645 992.543C194.666 992.543 195.495 991.715 195.495 990.694C195.495 989.672 194.666 988.844 193.645 988.844C192.623 988.844 191.795 989.672 191.795 990.694C191.795 991.715 192.623 992.543 193.645 992.543Z" fill="white"/>
<path d="M193.647 976.555C194.668 976.555 195.497 975.727 195.497 974.705C195.497 973.684 194.668 972.855 193.647 972.855C192.625 972.855 191.797 973.684 191.797 974.705C191.797 975.727 192.625 976.555 193.647 976.555Z" fill="white"/>
<path d="M193.645 960.7C194.666 960.7 195.495 959.872 195.495 958.85C195.495 957.828 194.666 957 193.645 957C192.623 957 191.795 957.828 191.795 958.85C191.795 959.872 192.623 960.7 193.645 960.7Z" fill="white"/>
<path d="M176.469 1040.38C177.491 1040.38 178.319 1039.55 178.319 1038.53C178.319 1037.5 177.491 1036.68 176.469 1036.68C175.447 1036.68 174.619 1037.5 174.619 1038.53C174.619 1039.55 175.447 1040.38 176.469 1040.38Z" fill="white"/>
<path d="M176.469 1024.39C177.491 1024.39 178.319 1023.56 178.319 1022.54C178.319 1021.52 177.491 1020.69 176.469 1020.69C175.447 1020.69 174.619 1021.52 174.619 1022.54C174.619 1023.56 175.447 1024.39 176.469 1024.39Z" fill="white"/>
<path d="M176.469 1008.4C177.491 1008.4 178.319 1007.57 178.319 1006.55C178.319 1005.53 177.491 1004.7 176.469 1004.7C175.447 1004.7 174.619 1005.53 174.619 1006.55C174.619 1007.57 175.447 1008.4 176.469 1008.4Z" fill="white"/>
<path d="M176.469 992.543C177.491 992.543 178.319 991.715 178.319 990.694C178.319 989.672 177.491 988.844 176.469 988.844C175.447 988.844 174.619 989.672 174.619 990.694C174.619 991.715 175.447 992.543 176.469 992.543Z" fill="white"/>
<path d="M176.469 976.555C177.491 976.555 178.319 975.727 178.319 974.705C178.319 973.684 177.491 972.855 176.469 972.855C175.447 972.855 174.619 973.684 174.619 974.705C174.619 975.727 175.447 976.555 176.469 976.555Z" fill="white"/>
<path d="M176.467 960.7C177.489 960.7 178.317 959.872 178.317 958.85C178.317 957.828 177.489 957 176.467 957C175.445 957 174.617 957.828 174.617 958.85C174.617 959.872 175.445 960.7 176.467 960.7Z" fill="white"/>
<path d="M41.0725 1040.38C42.0942 1040.38 42.9224 1039.55 42.9224 1038.53C42.9224 1037.5 42.0942 1036.68 41.0725 1036.68C40.0509 1036.68 39.2227 1037.5 39.2227 1038.53C39.2227 1039.55 40.0509 1040.38 41.0725 1040.38Z" fill="white"/>
<path d="M41.0725 1024.39C42.0942 1024.39 42.9224 1023.56 42.9224 1022.54C42.9224 1021.52 42.0942 1020.69 41.0725 1020.69C40.0509 1020.69 39.2227 1021.52 39.2227 1022.54C39.2227 1023.56 40.0509 1024.39 41.0725 1024.39Z" fill="white"/>
<path d="M41.0725 1008.4C42.0942 1008.4 42.9224 1007.57 42.9224 1006.55C42.9224 1005.53 42.0942 1004.7 41.0725 1004.7C40.0509 1004.7 39.2227 1005.53 39.2227 1006.55C39.2227 1007.57 40.0509 1008.4 41.0725 1008.4Z" fill="white"/>
<path d="M41.0725 992.543C42.0942 992.543 42.9224 991.715 42.9224 990.694C42.9224 989.672 42.0942 988.844 41.0725 988.844C40.0509 988.844 39.2227 989.672 39.2227 990.694C39.2227 991.715 40.0509 992.543 41.0725 992.543Z" fill="white"/>
<path d="M41.0725 976.555C42.0942 976.555 42.9224 975.727 42.9224 974.705C42.9224 973.684 42.0942 972.855 41.0725 972.855C40.0509 972.855 39.2227 973.684 39.2227 974.705C39.2227 975.727 40.0509 976.555 41.0725 976.555Z" fill="white"/>
<path d="M41.0725 960.7C42.0942 960.7 42.9224 959.872 42.9224 958.85C42.9224 957.828 42.0942 957 41.0725 957C40.0509 957 39.2227 957.828 39.2227 958.85C39.2227 959.872 40.0509 960.7 41.0725 960.7Z" fill="white"/>
<path d="M24.0276 1040.38C25.0492 1040.38 25.8774 1039.55 25.8774 1038.53C25.8774 1037.5 25.0492 1036.68 24.0276 1036.68C23.0059 1036.68 22.1777 1037.5 22.1777 1038.53C22.1777 1039.55 23.0059 1040.38 24.0276 1040.38Z" fill="white"/>
<path d="M24.0276 1024.39C25.0492 1024.39 25.8774 1023.56 25.8774 1022.54C25.8774 1021.52 25.0492 1020.69 24.0276 1020.69C23.0059 1020.69 22.1777 1021.52 22.1777 1022.54C22.1777 1023.56 23.0059 1024.39 24.0276 1024.39Z" fill="white"/>
<path d="M24.0276 1008.4C25.0492 1008.4 25.8774 1007.57 25.8774 1006.55C25.8774 1005.53 25.0492 1004.7 24.0276 1004.7C23.0059 1004.7 22.1777 1005.53 22.1777 1006.55C22.1777 1007.57 23.0059 1008.4 24.0276 1008.4Z" fill="white"/>
<path d="M24.0276 992.543C25.0492 992.543 25.8774 991.715 25.8774 990.694C25.8774 989.672 25.0492 988.844 24.0276 988.844C23.0059 988.844 22.1777 989.672 22.1777 990.694C22.1777 991.715 23.0059 992.543 24.0276 992.543Z" fill="white"/>
<path d="M24.0276 976.555C25.0492 976.555 25.8774 975.727 25.8774 974.705C25.8774 973.684 25.0492 972.855 24.0276 972.855C23.0059 972.855 22.1777 973.684 22.1777 974.705C22.1777 975.727 23.0059 976.555 24.0276 976.555Z" fill="white"/>
<path d="M24.0276 960.7C25.0492 960.7 25.8774 959.872 25.8774 958.85C25.8774 957.828 25.0492 957 24.0276 957C23.0059 957 22.1777 957.828 22.1777 958.85C22.1777 959.872 23.0059 960.7 24.0276 960.7Z" fill="white"/>
<path d="M6.84985 1040.38C7.8715 1040.38 8.69971 1039.55 8.69971 1038.53C8.69971 1037.5 7.8715 1036.68 6.84985 1036.68C5.82821 1036.68 5 1037.5 5 1038.53C5 1039.55 5.82821 1040.38 6.84985 1040.38Z" fill="white"/>
<path d="M6.85181 1024.39C7.87346 1024.39 8.70167 1023.56 8.70167 1022.54C8.70167 1021.52 7.87346 1020.69 6.85181 1020.69C5.83016 1020.69 5.00195 1021.52 5.00195 1022.54C5.00195 1023.56 5.83016 1024.39 6.85181 1024.39Z" fill="white"/>
<path d="M6.85181 1008.4C7.87346 1008.4 8.70167 1007.57 8.70167 1006.55C8.70167 1005.53 7.87346 1004.7 6.85181 1004.7C5.83016 1004.7 5.00195 1005.53 5.00195 1006.55C5.00195 1007.57 5.83016 1008.4 6.85181 1008.4Z" fill="white"/>
<path d="M6.84985 992.543C7.8715 992.543 8.69971 991.715 8.69971 990.694C8.69971 989.672 7.8715 988.844 6.84985 988.844C5.82821 988.844 5 989.672 5 990.694C5 991.715 5.82821 992.543 6.84985 992.543Z" fill="white"/>
<path d="M6.85181 976.555C7.87346 976.555 8.70167 975.727 8.70167 974.705C8.70167 973.684 7.87346 972.855 6.85181 972.855C5.83016 972.855 5.00195 973.684 5.00195 974.705C5.00195 975.727 5.83016 976.555 6.85181 976.555Z" fill="white"/>
<path d="M6.84985 960.7C7.8715 960.7 8.69971 959.872 8.69971 958.85C8.69971 957.828 7.8715 957 6.84985 957C5.82821 957 5 957.828 5 958.85C5 959.872 5.82821 960.7 6.84985 960.7Z" fill="white"/>
<path d="M41.0725 1073.33C42.0942 1073.33 42.9224 1072.5 42.9224 1071.48C42.9224 1070.46 42.0942 1069.63 41.0725 1069.63C40.0509 1069.63 39.2227 1070.46 39.2227 1071.48C39.2227 1072.5 40.0509 1073.33 41.0725 1073.33Z" fill="white"/>
<path d="M41.0725 1057.48C42.0942 1057.48 42.9224 1056.65 42.9224 1055.63C42.9224 1054.6 42.0942 1053.78 41.0725 1053.78C40.0509 1053.78 39.2227 1054.6 39.2227 1055.63C39.2227 1056.65 40.0509 1057.48 41.0725 1057.48Z" fill="white"/>
<path d="M24.0276 1073.33C25.0492 1073.33 25.8774 1072.5 25.8774 1071.48C25.8774 1070.46 25.0492 1069.63 24.0276 1069.63C23.0059 1069.63 22.1777 1070.46 22.1777 1071.48C22.1777 1072.5 23.0059 1073.33 24.0276 1073.33Z" fill="white"/>
<path d="M24.0276 1057.48C25.0492 1057.48 25.8774 1056.65 25.8774 1055.63C25.8774 1054.6 25.0492 1053.78 24.0276 1053.78C23.0059 1053.78 22.1777 1054.6 22.1777 1055.63C22.1777 1056.65 23.0059 1057.48 24.0276 1057.48Z" fill="white"/>
<path d="M6.85181 1073.33C7.87346 1073.33 8.70167 1072.5 8.70167 1071.48C8.70167 1070.46 7.87346 1069.63 6.85181 1069.63C5.83016 1069.63 5.00195 1070.46 5.00195 1071.48C5.00195 1072.5 5.83016 1073.33 6.85181 1073.33Z" fill="white"/>
<path d="M6.84985 1057.48C7.8715 1057.48 8.69971 1056.65 8.69971 1055.63C8.69971 1054.6 7.8715 1053.78 6.84985 1053.78C5.82821 1053.78 5 1054.6 5 1055.63C5 1056.65 5.82821 1057.48 6.84985 1057.48Z" fill="white"/>
<path d="M58.1799 1040.38C59.2016 1040.38 60.0298 1039.55 60.0298 1038.53C60.0298 1037.51 59.2016 1036.68 58.1799 1036.68C57.1583 1036.68 56.3301 1037.51 56.3301 1038.53C56.3301 1039.55 57.1583 1040.38 58.1799 1040.38Z" fill="white"/>
<path d="M58.1799 1024.39C59.2016 1024.39 60.0298 1023.56 60.0298 1022.54C60.0298 1021.52 59.2016 1020.69 58.1799 1020.69C57.1583 1020.69 56.3301 1021.52 56.3301 1022.54C56.3301 1023.56 57.1583 1024.39 58.1799 1024.39Z" fill="white"/>
<path d="M58.1799 1008.4C59.2016 1008.4 60.0298 1007.57 60.0298 1006.55C60.0298 1005.53 59.2016 1004.7 58.1799 1004.7C57.1583 1004.7 56.3301 1005.53 56.3301 1006.55C56.3301 1007.57 57.1583 1008.4 58.1799 1008.4Z" fill="white"/>
<path d="M58.1799 992.545C59.2016 992.545 60.0298 991.717 60.0298 990.696C60.0298 989.674 59.2016 988.846 58.1799 988.846C57.1583 988.846 56.3301 989.674 56.3301 990.696C56.3301 991.717 57.1583 992.545 58.1799 992.545Z" fill="white"/>
<path d="M58.1799 976.557C59.2016 976.557 60.0298 975.729 60.0298 974.707C60.0298 973.686 59.2016 972.857 58.1799 972.857C57.1583 972.857 56.3301 973.686 56.3301 974.707C56.3301 975.729 57.1583 976.557 58.1799 976.557Z" fill="white"/>
<path d="M58.1819 960.702C59.2035 960.702 60.0317 959.873 60.0317 958.852C60.0317 957.83 59.2035 957.002 58.1819 957.002C57.1602 957.002 56.332 957.83 56.332 958.852C56.332 959.873 57.1602 960.702 58.1819 960.702Z" fill="white"/>
<path d="M143.805 1040.38C144.827 1040.38 145.655 1039.55 145.655 1038.53C145.655 1037.5 144.827 1036.68 143.805 1036.68C142.783 1036.68 141.955 1037.5 141.955 1038.53C141.955 1039.55 142.783 1040.38 143.805 1040.38Z" fill="white"/>
<path d="M143.805 1024.39C144.827 1024.39 145.655 1023.56 145.655 1022.54C145.655 1021.52 144.827 1020.69 143.805 1020.69C142.783 1020.69 141.955 1021.52 141.955 1022.54C141.955 1023.56 142.783 1024.39 143.805 1024.39Z" fill="white"/>
<path d="M143.805 1008.4C144.827 1008.4 145.655 1007.57 145.655 1006.55C145.655 1005.53 144.827 1004.7 143.805 1004.7C142.783 1004.7 141.955 1005.53 141.955 1006.55C141.955 1007.57 142.783 1008.4 143.805 1008.4Z" fill="white"/>
<path d="M143.805 992.543C144.827 992.543 145.655 991.715 145.655 990.694C145.655 989.672 144.827 988.844 143.805 988.844C142.783 988.844 141.955 989.672 141.955 990.694C141.955 991.715 142.783 992.543 143.805 992.543Z" fill="white"/>
<path d="M143.805 976.555C144.827 976.555 145.655 975.727 145.655 974.705C145.655 973.684 144.827 972.855 143.805 972.855C142.783 972.855 141.955 973.684 141.955 974.705C141.955 975.727 142.783 976.555 143.805 976.555Z" fill="white"/>
<path d="M143.805 960.7C144.827 960.7 145.655 959.872 145.655 958.85C145.655 957.828 144.827 957 143.805 957C142.783 957 141.955 957.828 141.955 958.85C141.955 959.872 142.783 960.7 143.805 960.7Z" fill="white"/>
<path d="M126.76 1040.38C127.782 1040.38 128.61 1039.55 128.61 1038.53C128.61 1037.5 127.782 1036.68 126.76 1036.68C125.738 1036.68 124.91 1037.5 124.91 1038.53C124.91 1039.55 125.738 1040.38 126.76 1040.38Z" fill="white"/>
<path d="M126.76 1024.39C127.782 1024.39 128.61 1023.56 128.61 1022.54C128.61 1021.52 127.782 1020.69 126.76 1020.69C125.738 1020.69 124.91 1021.52 124.91 1022.54C124.91 1023.56 125.738 1024.39 126.76 1024.39Z" fill="white"/>
<path d="M126.76 1008.4C127.782 1008.4 128.61 1007.57 128.61 1006.55C128.61 1005.53 127.782 1004.7 126.76 1004.7C125.738 1004.7 124.91 1005.53 124.91 1006.55C124.91 1007.57 125.738 1008.4 126.76 1008.4Z" fill="white"/>
<path d="M126.76 992.543C127.782 992.543 128.61 991.715 128.61 990.694C128.61 989.672 127.782 988.844 126.76 988.844C125.738 988.844 124.91 989.672 124.91 990.694C124.91 991.715 125.738 992.543 126.76 992.543Z" fill="white"/>
<path d="M126.76 976.555C127.782 976.555 128.61 975.727 128.61 974.705C128.61 973.684 127.782 972.855 126.76 972.855C125.738 972.855 124.91 973.684 124.91 974.705C124.91 975.727 125.738 976.555 126.76 976.555Z" fill="white"/>
<path d="M126.76 960.7C127.782 960.7 128.61 959.872 128.61 958.85C128.61 957.828 127.782 957 126.76 957C125.738 957 124.91 957.828 124.91 958.85C124.91 959.872 125.738 960.7 126.76 960.7Z" fill="white"/>
<path d="M109.582 1040.38C110.604 1040.38 111.432 1039.55 111.432 1038.53C111.432 1037.5 110.604 1036.68 109.582 1036.68C108.561 1036.68 107.732 1037.5 107.732 1038.53C107.732 1039.55 108.561 1040.38 109.582 1040.38Z" fill="white"/>
<path d="M109.584 1024.39C110.606 1024.39 111.434 1023.56 111.434 1022.54C111.434 1021.52 110.606 1020.69 109.584 1020.69C108.563 1020.69 107.734 1021.52 107.734 1022.54C107.734 1023.56 108.563 1024.39 109.584 1024.39Z" fill="white"/>
<path d="M109.584 1008.4C110.606 1008.4 111.434 1007.57 111.434 1006.55C111.434 1005.53 110.606 1004.7 109.584 1004.7C108.563 1004.7 107.734 1005.53 107.734 1006.55C107.734 1007.57 108.563 1008.4 109.584 1008.4Z" fill="white"/>
<path d="M109.582 992.543C110.604 992.543 111.432 991.715 111.432 990.694C111.432 989.672 110.604 988.844 109.582 988.844C108.561 988.844 107.732 989.672 107.732 990.694C107.732 991.715 108.561 992.543 109.582 992.543Z" fill="white"/>
<path d="M109.584 976.555C110.606 976.555 111.434 975.727 111.434 974.705C111.434 973.684 110.606 972.855 109.584 972.855C108.563 972.855 107.734 973.684 107.734 974.705C107.734 975.727 108.563 976.555 109.584 976.555Z" fill="white"/>
<path d="M109.582 960.7C110.604 960.7 111.432 959.872 111.432 958.85C111.432 957.828 110.604 957 109.582 957C108.561 957 107.732 957.828 107.732 958.85C107.732 959.872 108.561 960.7 109.582 960.7Z" fill="white"/>
<path d="M92.4045 1040.38C93.4262 1040.38 94.2544 1039.55 94.2544 1038.53C94.2544 1037.5 93.4262 1036.68 92.4045 1036.68C91.3829 1036.68 90.5547 1037.5 90.5547 1038.53C90.5547 1039.55 91.3829 1040.38 92.4045 1040.38Z" fill="white"/>
<path d="M92.4065 1024.39C93.4281 1024.39 94.2564 1023.56 94.2564 1022.54C94.2564 1021.52 93.4281 1020.69 92.4065 1020.69C91.3848 1020.69 90.5566 1021.52 90.5566 1022.54C90.5566 1023.56 91.3848 1024.39 92.4065 1024.39Z" fill="white"/>
<path d="M92.4065 1008.4C93.4281 1008.4 94.2564 1007.57 94.2564 1006.55C94.2564 1005.53 93.4281 1004.7 92.4065 1004.7C91.3848 1004.7 90.5566 1005.53 90.5566 1006.55C90.5566 1007.57 91.3848 1008.4 92.4065 1008.4Z" fill="white"/>
<path d="M92.4045 992.543C93.4262 992.543 94.2544 991.715 94.2544 990.694C94.2544 989.672 93.4262 988.844 92.4045 988.844C91.3829 988.844 90.5547 989.672 90.5547 990.694C90.5547 991.715 91.3829 992.543 92.4045 992.543Z" fill="white"/>
<path d="M92.4065 976.555C93.4281 976.555 94.2564 975.727 94.2564 974.705C94.2564 973.684 93.4281 972.855 92.4065 972.855C91.3848 972.855 90.5566 973.684 90.5566 974.705C90.5566 975.727 91.3848 976.555 92.4065 976.555Z" fill="white"/>
<path d="M92.4045 960.7C93.4262 960.7 94.2544 959.872 94.2544 958.85C94.2544 957.828 93.4262 957 92.4045 957C91.3829 957 90.5547 957.828 90.5547 958.85C90.5547 959.872 91.3829 960.7 92.4045 960.7Z" fill="white"/>
<path d="M75.2288 1040.38C76.2504 1040.38 77.0786 1039.55 77.0786 1038.53C77.0786 1037.5 76.2504 1036.68 75.2288 1036.68C74.2071 1036.68 73.3789 1037.5 73.3789 1038.53C73.3789 1039.55 74.2071 1040.38 75.2288 1040.38Z" fill="white"/>
<path d="M75.2288 1024.39C76.2504 1024.39 77.0786 1023.56 77.0786 1022.54C77.0786 1021.52 76.2504 1020.69 75.2288 1020.69C74.2071 1020.69 73.3789 1021.52 73.3789 1022.54C73.3789 1023.56 74.2071 1024.39 75.2288 1024.39Z" fill="white"/>
<path d="M75.2288 1008.4C76.2504 1008.4 77.0786 1007.57 77.0786 1006.55C77.0786 1005.53 76.2504 1004.7 75.2288 1004.7C74.2071 1004.7 73.3789 1005.53 73.3789 1006.55C73.3789 1007.57 74.2071 1008.4 75.2288 1008.4Z" fill="white"/>
<path d="M75.2288 992.543C76.2504 992.543 77.0786 991.715 77.0786 990.694C77.0786 989.672 76.2504 988.844 75.2288 988.844C74.2071 988.844 73.3789 989.672 73.3789 990.694C73.3789 991.715 74.2071 992.543 75.2288 992.543Z" fill="white"/>
<path d="M75.2288 976.555C76.2504 976.555 77.0786 975.727 77.0786 974.705C77.0786 973.684 76.2504 972.855 75.2288 972.855C74.2071 972.855 73.3789 973.684 73.3789 974.705C73.3789 975.727 74.2071 976.555 75.2288 976.555Z" fill="white"/>
<path d="M75.2268 960.7C76.2485 960.7 77.0767 959.872 77.0767 958.85C77.0767 957.828 76.2485 957 75.2268 957C74.2052 957 73.377 957.828 73.377 958.85C73.377 959.872 74.2052 960.7 75.2268 960.7Z" fill="white"/>
</g>
<g opacity="0.5">
<path d="M902.094 8.37745C903.116 8.37745 903.944 7.54924 903.944 6.52759C903.944 5.50595 903.116 4.67773 902.094 4.67773C901.072 4.67773 900.244 5.50595 900.244 6.52759C900.244 7.54924 901.072 8.37745 902.094 8.37745Z" fill="white"/>
<path d="M953.496 8.3755C954.518 8.3755 955.346 7.54729 955.346 6.52564C955.346 5.50399 954.518 4.67578 953.496 4.67578C952.475 4.67578 951.646 5.50399 951.646 6.52564C951.646 7.54729 952.475 8.3755 953.496 8.3755Z" fill="white"/>
<path d="M936.319 8.3755C937.34 8.3755 938.168 7.54729 938.168 6.52564C938.168 5.50399 937.34 4.67578 936.319 4.67578C935.297 4.67578 934.469 5.50399 934.469 6.52564C934.469 7.54729 935.297 8.3755 936.319 8.3755Z" fill="white"/>
<path d="M919.143 8.3755C920.164 8.3755 920.993 7.54729 920.993 6.52564C920.993 5.50399 920.164 4.67578 919.143 4.67578C918.121 4.67578 917.293 5.50399 917.293 6.52564C917.293 7.54729 918.121 8.3755 919.143 8.3755Z" fill="white"/>
<path d="M902.094 105.155C903.116 105.155 903.944 104.327 903.944 103.305C903.944 102.283 903.116 101.455 902.094 101.455C901.072 101.455 900.244 102.283 900.244 103.305C900.244 104.327 901.072 105.155 902.094 105.155Z" fill="white"/>
<path d="M902.094 89.1665C903.116 89.1665 903.944 88.3383 903.944 87.3167C903.944 86.295 903.116 85.4668 902.094 85.4668C901.072 85.4668 900.244 86.295 900.244 87.3167C900.244 88.3383 901.072 89.1665 902.094 89.1665Z" fill="white"/>
<path d="M902.094 73.1782C903.116 73.1782 903.944 72.35 903.944 71.3284C903.944 70.3067 903.116 69.4785 902.094 69.4785C901.072 69.4785 900.244 70.3067 900.244 71.3284C900.244 72.35 901.072 73.1782 902.094 73.1782Z" fill="white"/>
<path d="M902.094 57.3208C903.116 57.3208 903.944 56.4926 903.944 55.471C903.944 54.4493 903.116 53.6211 902.094 53.6211C901.072 53.6211 900.244 54.4493 900.244 55.471C900.244 56.4926 901.072 57.3208 902.094 57.3208Z" fill="white"/>
<path d="M902.094 41.3345C903.116 41.3345 903.944 40.5063 903.944 39.4846C903.944 38.463 903.116 37.6348 902.094 37.6348C901.072 37.6348 900.244 38.463 900.244 39.4846C900.244 40.5063 901.072 41.3345 902.094 41.3345Z" fill="white"/>
<path d="M902.096 25.479C903.118 25.479 903.946 24.6508 903.946 23.6292C903.946 22.6075 903.118 21.7793 902.096 21.7793C901.074 21.7793 900.246 22.6075 900.246 23.6292C900.246 24.6508 901.074 25.479 902.096 25.479Z" fill="white"/>
<path d="M953.496 105.153C954.518 105.153 955.346 104.325 955.346 103.303C955.346 102.281 954.518 101.453 953.496 101.453C952.475 101.453 951.646 102.281 951.646 103.303C951.646 104.325 952.475 105.153 953.496 105.153Z" fill="white"/>
<path d="M953.498 89.1646C954.52 89.1646 955.348 88.3363 955.348 87.3147C955.348 86.2931 954.52 85.4648 953.498 85.4648C952.477 85.4648 951.648 86.2931 951.648 87.3147C951.648 88.3363 952.477 89.1646 953.498 89.1646Z" fill="white"/>
<path d="M953.498 73.1763C954.52 73.1763 955.348 72.3481 955.348 71.3264C955.348 70.3048 954.52 69.4766 953.498 69.4766C952.477 69.4766 951.648 70.3048 951.648 71.3264C951.648 72.3481 952.477 73.1763 953.498 73.1763Z" fill="white"/>
<path d="M953.496 57.3208C954.518 57.3208 955.346 56.4926 955.346 55.471C955.346 54.4493 954.518 53.6211 953.496 53.6211C952.475 53.6211 951.646 54.4493 951.646 55.471C951.646 56.4926 952.475 57.3208 953.496 57.3208Z" fill="white"/>
<path d="M953.498 41.3325C954.52 41.3325 955.348 40.5043 955.348 39.4827C955.348 38.461 954.52 37.6328 953.498 37.6328C952.477 37.6328 951.648 38.461 951.648 39.4827C951.648 40.5043 952.477 41.3325 953.498 41.3325Z" fill="white"/>
<path d="M953.496 25.4771C954.518 25.4771 955.346 24.6488 955.346 23.6272C955.346 22.6056 954.518 21.7773 953.496 21.7773C952.475 21.7773 951.646 22.6056 951.646 23.6272C951.646 24.6488 952.475 25.4771 953.496 25.4771Z" fill="white"/>
<path d="M936.319 105.153C937.34 105.153 938.168 104.325 938.168 103.303C938.168 102.281 937.34 101.453 936.319 101.453C935.297 101.453 934.469 102.281 934.469 103.303C934.469 104.325 935.297 105.153 936.319 105.153Z" fill="white"/>
<path d="M936.321 89.1646C937.342 89.1646 938.17 88.3363 938.17 87.3147C938.17 86.2931 937.342 85.4648 936.321 85.4648C935.299 85.4648 934.471 86.2931 934.471 87.3147C934.471 88.3363 935.299 89.1646 936.321 89.1646Z" fill="white"/>
<path d="M936.321 73.1763C937.342 73.1763 938.17 72.3481 938.17 71.3264C938.17 70.3048 937.342 69.4766 936.321 69.4766C935.299 69.4766 934.471 70.3048 934.471 71.3264C934.471 72.3481 935.299 73.1763 936.321 73.1763Z" fill="white"/>
<path d="M936.319 57.3208C937.34 57.3208 938.168 56.4926 938.168 55.471C938.168 54.4493 937.34 53.6211 936.319 53.6211C935.297 53.6211 934.469 54.4493 934.469 55.471C934.469 56.4926 935.297 57.3208 936.319 57.3208Z" fill="white"/>
<path d="M936.321 41.3325C937.342 41.3325 938.17 40.5043 938.17 39.4827C938.17 38.461 937.342 37.6328 936.321 37.6328C935.299 37.6328 934.471 38.461 934.471 39.4827C934.471 40.5043 935.299 41.3325 936.321 41.3325Z" fill="white"/>
<path d="M936.319 25.4771C937.34 25.4771 938.168 24.6488 938.168 23.6272C938.168 22.6056 937.34 21.7773 936.319 21.7773C935.297 21.7773 934.469 22.6056 934.469 23.6272C934.469 24.6488 935.297 25.4771 936.319 25.4771Z" fill="white"/>
<path d="M919.143 105.153C920.164 105.153 920.993 104.325 920.993 103.303C920.993 102.281 920.164 101.453 919.143 101.453C918.121 101.453 917.293 102.281 917.293 103.303C917.293 104.325 918.121 105.153 919.143 105.153Z" fill="white"/>
<path d="M919.143 89.1646C920.164 89.1646 920.993 88.3363 920.993 87.3147C920.993 86.2931 920.164 85.4648 919.143 85.4648C918.121 85.4648 917.293 86.2931 917.293 87.3147C917.293 88.3363 918.121 89.1646 919.143 89.1646Z" fill="white"/>
<path d="M919.143 73.1763C920.164 73.1763 920.993 72.3481 920.993 71.3264C920.993 70.3048 920.164 69.4766 919.143 69.4766C918.121 69.4766 917.293 70.3048 917.293 71.3264C917.293 72.3481 918.121 73.1763 919.143 73.1763Z" fill="white"/>
<path d="M919.143 57.3208C920.164 57.3208 920.993 56.4926 920.993 55.471C920.993 54.4493 920.164 53.6211 919.143 53.6211C918.121 53.6211 917.293 54.4493 917.293 55.471C917.293 56.4926 918.121 57.3208 919.143 57.3208Z" fill="white"/>
<path d="M919.143 41.3325C920.164 41.3325 920.993 40.5043 920.993 39.4827C920.993 38.461 920.164 37.6328 919.143 37.6328C918.121 37.6328 917.293 38.461 917.293 39.4827C917.293 40.5043 918.121 41.3325 919.143 41.3325Z" fill="white"/>
<path d="M919.141 25.4771C920.163 25.4771 920.991 24.6488 920.991 23.6272C920.991 22.6056 920.163 21.7773 919.141 21.7773C918.119 21.7773 917.291 22.6056 917.291 23.6272C917.291 24.6488 918.119 25.4771 919.141 25.4771Z" fill="white"/>
<path d="M800.85 8.37745C801.872 8.37745 802.7 7.54924 802.7 6.52759C802.7 5.50595 801.872 4.67773 800.85 4.67773C799.828 4.67773 799 5.50595 799 6.52759C799 7.54924 799.828 8.37745 800.85 8.37745Z" fill="white"/>
<path d="M886.475 8.3755C887.496 8.3755 888.325 7.54729 888.325 6.52564C888.325 5.50399 887.496 4.67578 886.475 4.67578C885.453 4.67578 884.625 5.50399 884.625 6.52564C884.625 7.54729 885.453 8.3755 886.475 8.3755Z" fill="white"/>
<path d="M869.43 8.3755C870.452 8.3755 871.28 7.54729 871.28 6.52564C871.28 5.50399 870.452 4.67578 869.43 4.67578C868.408 4.67578 867.58 5.50399 867.58 6.52564C867.58 7.54729 868.408 8.3755 869.43 8.3755Z" fill="white"/>
<path d="M852.252 8.3755C853.274 8.3755 854.102 7.54729 854.102 6.52564C854.102 5.50399 853.274 4.67578 852.252 4.67578C851.231 4.67578 850.402 5.50399 850.402 6.52564C850.402 7.54729 851.231 8.3755 852.252 8.3755Z" fill="white"/>
<path d="M835.074 8.3755C836.096 8.3755 836.924 7.54729 836.924 6.52564C836.924 5.50399 836.096 4.67578 835.074 4.67578C834.053 4.67578 833.225 5.50399 833.225 6.52564C833.225 7.54729 834.053 8.3755 835.074 8.3755Z" fill="white"/>
<path d="M817.899 8.3755C818.92 8.3755 819.749 7.54729 819.749 6.52564C819.749 5.50399 818.92 4.67578 817.899 4.67578C816.877 4.67578 816.049 5.50399 816.049 6.52564C816.049 7.54729 816.877 8.3755 817.899 8.3755Z" fill="white"/>
<path d="M800.85 105.155C801.872 105.155 802.7 104.327 802.7 103.305C802.7 102.283 801.872 101.455 800.85 101.455C799.828 101.455 799 102.283 799 103.305C799 104.327 799.828 105.155 800.85 105.155Z" fill="white"/>
<path d="M800.85 89.1665C801.872 89.1665 802.7 88.3383 802.7 87.3167C802.7 86.295 801.872 85.4668 800.85 85.4668C799.828 85.4668 799 86.295 799 87.3167C799 88.3383 799.828 89.1665 800.85 89.1665Z" fill="white"/>
<path d="M800.85 73.1782C801.872 73.1782 802.7 72.35 802.7 71.3284C802.7 70.3067 801.872 69.4785 800.85 69.4785C799.828 69.4785 799 70.3067 799 71.3284C799 72.35 799.828 73.1782 800.85 73.1782Z" fill="white"/>
<path d="M800.85 57.3208C801.872 57.3208 802.7 56.4926 802.7 55.471C802.7 54.4493 801.872 53.6211 800.85 53.6211C799.828 53.6211 799 54.4493 799 55.471C799 56.4926 799.828 57.3208 800.85 57.3208Z" fill="white"/>
<path d="M800.85 41.3345C801.872 41.3345 802.7 40.5063 802.7 39.4846C802.7 38.463 801.872 37.6348 800.85 37.6348C799.828 37.6348 799 38.463 799 39.4846C799 40.5063 799.828 41.3345 800.85 41.3345Z" fill="white"/>
<path d="M800.852 25.479C801.873 25.479 802.702 24.6508 802.702 23.6292C802.702 22.6075 801.873 21.7793 800.852 21.7793C799.83 21.7793 799.002 22.6075 799.002 23.6292C799.002 24.6508 799.83 25.479 800.852 25.479Z" fill="white"/>
<path d="M886.475 105.153C887.496 105.153 888.325 104.325 888.325 103.303C888.325 102.281 887.496 101.453 886.475 101.453C885.453 101.453 884.625 102.281 884.625 103.303C884.625 104.325 885.453 105.153 886.475 105.153Z" fill="white"/>
<path d="M886.475 89.1646C887.496 89.1646 888.325 88.3363 888.325 87.3147C888.325 86.2931 887.496 85.4648 886.475 85.4648C885.453 85.4648 884.625 86.2931 884.625 87.3147C884.625 88.3363 885.453 89.1646 886.475 89.1646Z" fill="white"/>
<path d="M886.475 73.1763C887.496 73.1763 888.325 72.3481 888.325 71.3264C888.325 70.3048 887.496 69.4766 886.475 69.4766C885.453 69.4766 884.625 70.3048 884.625 71.3264C884.625 72.3481 885.453 73.1763 886.475 73.1763Z" fill="white"/>
<path d="M886.475 57.3208C887.496 57.3208 888.325 56.4926 888.325 55.471C888.325 54.4493 887.496 53.6211 886.475 53.6211C885.453 53.6211 884.625 54.4493 884.625 55.471C884.625 56.4926 885.453 57.3208 886.475 57.3208Z" fill="white"/>
<path d="M886.475 41.3325C887.496 41.3325 888.325 40.5043 888.325 39.4827C888.325 38.461 887.496 37.6328 886.475 37.6328C885.453 37.6328 884.625 38.461 884.625 39.4827C884.625 40.5043 885.453 41.3325 886.475 41.3325Z" fill="white"/>
<path d="M886.475 25.4771C887.496 25.4771 888.325 24.6488 888.325 23.6272C888.325 22.6056 887.496 21.7773 886.475 21.7773C885.453 21.7773 884.625 22.6056 884.625 23.6272C884.625 24.6488 885.453 25.4771 886.475 25.4771Z" fill="white"/>
<path d="M869.43 105.153C870.452 105.153 871.28 104.325 871.28 103.303C871.28 102.281 870.452 101.453 869.43 101.453C868.408 101.453 867.58 102.281 867.58 103.303C867.58 104.325 868.408 105.153 869.43 105.153Z" fill="white"/>
<path d="M869.43 89.1646C870.452 89.1646 871.28 88.3363 871.28 87.3147C871.28 86.2931 870.452 85.4648 869.43 85.4648C868.408 85.4648 867.58 86.2931 867.58 87.3147C867.58 88.3363 868.408 89.1646 869.43 89.1646Z" fill="white"/>
<path d="M869.43 73.1763C870.452 73.1763 871.28 72.3481 871.28 71.3264C871.28 70.3048 870.452 69.4766 869.43 69.4766C868.408 69.4766 867.58 70.3048 867.58 71.3264C867.58 72.3481 868.408 73.1763 869.43 73.1763Z" fill="white"/>
<path d="M869.43 57.3208C870.452 57.3208 871.28 56.4926 871.28 55.471C871.28 54.4493 870.452 53.6211 869.43 53.6211C868.408 53.6211 867.58 54.4493 867.58 55.471C867.58 56.4926 868.408 57.3208 869.43 57.3208Z" fill="white"/>
<path d="M869.43 41.3325C870.452 41.3325 871.28 40.5043 871.28 39.4827C871.28 38.461 870.452 37.6328 869.43 37.6328C868.408 37.6328 867.58 38.461 867.58 39.4827C867.58 40.5043 868.408 41.3325 869.43 41.3325Z" fill="white"/>
<path d="M869.43 25.4771C870.452 25.4771 871.28 24.6488 871.28 23.6272C871.28 22.6056 870.452 21.7773 869.43 21.7773C868.408 21.7773 867.58 22.6056 867.58 23.6272C867.58 24.6488 868.408 25.4771 869.43 25.4771Z" fill="white"/>
<path d="M852.252 105.153C853.274 105.153 854.102 104.325 854.102 103.303C854.102 102.281 853.274 101.453 852.252 101.453C851.231 101.453 850.402 102.281 850.402 103.303C850.402 104.325 851.231 105.153 852.252 105.153Z" fill="white"/>
<path d="M852.254 89.1646C853.276 89.1646 854.104 88.3363 854.104 87.3147C854.104 86.2931 853.276 85.4648 852.254 85.4648C851.233 85.4648 850.404 86.2931 850.404 87.3147C850.404 88.3363 851.233 89.1646 852.254 89.1646Z" fill="white"/>
<path d="M852.254 73.1763C853.276 73.1763 854.104 72.3481 854.104 71.3264C854.104 70.3048 853.276 69.4766 852.254 69.4766C851.233 69.4766 850.404 70.3048 850.404 71.3264C850.404 72.3481 851.233 73.1763 852.254 73.1763Z" fill="white"/>
<path d="M852.252 57.3208C853.274 57.3208 854.102 56.4926 854.102 55.471C854.102 54.4493 853.274 53.6211 852.252 53.6211C851.231 53.6211 850.402 54.4493 850.402 55.471C850.402 56.4926 851.231 57.3208 852.252 57.3208Z" fill="white"/>
<path d="M852.254 41.3325C853.276 41.3325 854.104 40.5043 854.104 39.4827C854.104 38.461 853.276 37.6328 852.254 37.6328C851.233 37.6328 850.404 38.461 850.404 39.4827C850.404 40.5043 851.233 41.3325 852.254 41.3325Z" fill="white"/>
<path d="M852.252 25.4771C853.274 25.4771 854.102 24.6488 854.102 23.6272C854.102 22.6056 853.274 21.7773 852.252 21.7773C851.231 21.7773 850.402 22.6056 850.402 23.6272C850.402 24.6488 851.231 25.4771 852.252 25.4771Z" fill="white"/>
<path d="M835.074 105.153C836.096 105.153 836.924 104.325 836.924 103.303C836.924 102.281 836.096 101.453 835.074 101.453C834.053 101.453 833.225 102.281 833.225 103.303C833.225 104.325 834.053 105.153 835.074 105.153Z" fill="white"/>
<path d="M835.076 89.1646C836.098 89.1646 836.926 88.3363 836.926 87.3147C836.926 86.2931 836.098 85.4648 835.076 85.4648C834.055 85.4648 833.227 86.2931 833.227 87.3147C833.227 88.3363 834.055 89.1646 835.076 89.1646Z" fill="white"/>
<path d="M835.076 73.1763C836.098 73.1763 836.926 72.3481 836.926 71.3264C836.926 70.3048 836.098 69.4766 835.076 69.4766C834.055 69.4766 833.227 70.3048 833.227 71.3264C833.227 72.3481 834.055 73.1763 835.076 73.1763Z" fill="white"/>
<path d="M835.074 57.3208C836.096 57.3208 836.924 56.4926 836.924 55.471C836.924 54.4493 836.096 53.6211 835.074 53.6211C834.053 53.6211 833.225 54.4493 833.225 55.471C833.225 56.4926 834.053 57.3208 835.074 57.3208Z" fill="white"/>
<path d="M835.076 41.3325C836.098 41.3325 836.926 40.5043 836.926 39.4827C836.926 38.461 836.098 37.6328 835.076 37.6328C834.055 37.6328 833.227 38.461 833.227 39.4827C833.227 40.5043 834.055 41.3325 835.076 41.3325Z" fill="white"/>
<path d="M835.074 25.4771C836.096 25.4771 836.924 24.6488 836.924 23.6272C836.924 22.6056 836.096 21.7773 835.074 21.7773C834.053 21.7773 833.225 22.6056 833.225 23.6272C833.225 24.6488 834.053 25.4771 835.074 25.4771Z" fill="white"/>
<path d="M817.899 105.153C818.92 105.153 819.749 104.325 819.749 103.303C819.749 102.281 818.92 101.453 817.899 101.453C816.877 101.453 816.049 102.281 816.049 103.303C816.049 104.325 816.877 105.153 817.899 105.153Z" fill="white"/>
<path d="M817.899 89.1646C818.92 89.1646 819.749 88.3363 819.749 87.3147C819.749 86.2931 818.92 85.4648 817.899 85.4648C816.877 85.4648 816.049 86.2931 816.049 87.3147C816.049 88.3363 816.877 89.1646 817.899 89.1646Z" fill="white"/>
<path d="M817.899 73.1763C818.92 73.1763 819.749 72.3481 819.749 71.3264C819.749 70.3048 818.92 69.4766 817.899 69.4766C816.877 69.4766 816.049 70.3048 816.049 71.3264C816.049 72.3481 816.877 73.1763 817.899 73.1763Z" fill="white"/>
<path d="M817.899 57.3208C818.92 57.3208 819.749 56.4926 819.749 55.471C819.749 54.4493 818.92 53.6211 817.899 53.6211C816.877 53.6211 816.049 54.4493 816.049 55.471C816.049 56.4926 816.877 57.3208 817.899 57.3208Z" fill="white"/>
<path d="M817.899 41.3325C818.92 41.3325 819.749 40.5043 819.749 39.4827C819.749 38.461 818.92 37.6328 817.899 37.6328C816.877 37.6328 816.049 38.461 816.049 39.4827C816.049 40.5043 816.877 41.3325 817.899 41.3325Z" fill="white"/>
<path d="M817.897 25.4771C818.918 25.4771 819.747 24.6488 819.747 23.6272C819.747 22.6056 818.918 21.7773 817.897 21.7773C816.875 21.7773 816.047 22.6056 816.047 23.6272C816.047 24.6488 816.875 25.4771 817.897 25.4771Z" fill="white"/>
</g>
<g clip-path="url(#clip2_2560_15645)">
<path d="M630.725 48.9989C631.47 47.8938 632.624 47.13 633.932 46.8757C635.241 46.6213 636.597 46.8972 637.702 47.6426L660.203 62.8199" stroke="white" stroke-width="2" stroke-linecap="round" stroke-linejoin="round"/>
<path d="M654.565 22.6407L677.066 37.8179L654.582 71.1529L632.081 55.9757C630.975 55.2303 630.212 54.0764 629.957 52.7679C629.703 51.4594 629.979 50.1034 630.724 48.9982L647.588 23.997C648.333 22.8918 649.487 22.1281 650.796 21.8737C652.104 21.6194 653.46 21.8953 654.565 22.6407V22.6407Z" stroke="white" stroke-width="2" stroke-linecap="round" stroke-linejoin="round"/>
</g>
<g clip-path="url(#clip3_2560_15645)">
<path d="M686.426 995.027L666.841 985.004C665.543 984.339 664.034 984.218 662.645 984.666C661.257 985.114 660.104 986.096 659.44 987.394L639.394 1026.56C638.729 1027.86 638.608 1029.37 639.056 1030.76C639.505 1032.15 640.486 1033.3 641.784 1033.96L671.161 1049C672.459 1049.66 673.969 1049.78 675.357 1049.34C676.745 1048.89 677.898 1047.91 678.563 1046.61L693.597 1017.23L686.426 995.027Z" stroke="white" stroke-width="2" stroke-linecap="round" stroke-linejoin="round"/>
<path d="M686.426 995.025L678.909 1009.71L693.597 1017.23" stroke="white" stroke-width="2" stroke-linecap="round" stroke-linejoin="round"/>
<path d="M677.539 1024.46L657.955 1014.44" stroke="white" stroke-width="2" stroke-linecap="round" stroke-linejoin="round"/>
<path d="M672.528 1034.25L652.943 1024.23" stroke="white" stroke-width="2" stroke-linecap="round" stroke-linejoin="round"/>
<path d="M667.863 1007.15L665.415 1005.9L662.967 1004.64" stroke="white" stroke-width="2" stroke-linecap="round" stroke-linejoin="round"/>
</g>
<g clip-path="url(#clip4_2560_15645)">
<path d="M128.836 277.437L109.252 267.414C107.953 266.749 106.444 266.628 105.056 267.076C103.667 267.524 102.514 268.506 101.85 269.804L81.8042 308.973C81.1396 310.271 81.0181 311.781 81.4664 313.169C81.9147 314.557 82.896 315.71 84.1946 316.375L113.571 331.409C114.869 332.073 116.379 332.195 117.767 331.747C119.155 331.298 120.308 330.317 120.973 329.018L136.007 299.642L128.836 277.437Z" stroke="white" stroke-width="2" stroke-linecap="round" stroke-linejoin="round"/>
<path d="M128.836 277.436L121.319 292.124L136.007 299.641" stroke="white" stroke-width="2" stroke-linecap="round" stroke-linejoin="round"/>
<path d="M119.95 306.87L100.365 296.848" stroke="white" stroke-width="2" stroke-linecap="round" stroke-linejoin="round"/>
<path d="M114.938 316.661L95.3535 306.639" stroke="white" stroke-width="2" stroke-linecap="round" stroke-linejoin="round"/>
<path d="M110.273 289.56L107.825 288.308L105.377 287.055" stroke="white" stroke-width="2" stroke-linecap="round" stroke-linejoin="round"/>
</g>
<defs>
<clipPath id="clip0_2560_15645">
<rect width="61" height="61" fill="white" transform="translate(816.143 533.566) rotate(-45)"/>
</clipPath>
<clipPath id="clip1_2560_15645">
<rect width="61" height="61" fill="white" transform="translate(31.2344 666.545) rotate(-45)"/>
</clipPath>
<clipPath id="clip2_2560_15645">
<rect width="48.2512" height="48.2512" fill="white" transform="translate(645.98 12) rotate(34)"/>
</clipPath>
<clipPath id="clip3_2560_15645">
<rect width="66" height="66" fill="white" transform="translate(654.658 972.59) rotate(27.1023)"/>
</clipPath>
<clipPath id="clip4_2560_15645">
<rect width="66" height="66" fill="white" transform="translate(97.0684 255) rotate(27.1023)"/>
</clipPath>
</defs>
</svg>
