<svg width="228" height="465" viewBox="0 0 228 465" fill="none" xmlns="http://www.w3.org/2000/svg">
<g style="mix-blend-mode:multiply">
<path d="M13.6891 8.16283C13.4436 9.50449 12.806 10.7433 11.8568 11.7228C10.9077 12.7023 9.68952 13.3786 8.35626 13.6663C7.02299 13.9539 5.63438 13.84 4.36581 13.3389C3.09723 12.8379 2.00559 11.9721 1.22873 10.8511C0.45188 9.72996 0.024664 8.40379 0.00103597 7.04004C-0.0225921 5.6763 0.358426 4.33614 1.09598 3.18881C1.83353 2.04148 2.89453 1.13843 4.14498 0.593728C5.39544 0.0490233 6.77928 -0.11291 8.12171 0.128371C9.91839 0.469049 11.5091 1.50242 12.5507 3.00551C13.5922 4.50861 14.0011 6.36094 13.6891 8.16283Z" fill="#E9FAEC"/>
<path d="M67.3306 8.16475C67.0837 9.50731 66.4442 10.7465 65.4929 11.7255C64.5417 12.7046 63.3214 13.3795 61.9865 13.6649C60.6516 13.9504 59.262 13.8335 57.9935 13.329C56.725 12.8246 55.6347 11.9553 54.8603 10.8311C54.0859 9.70691 53.6624 8.37832 53.6433 7.01337C53.6241 5.64842 54.0102 4.30845 54.7527 3.16296C55.4952 2.01747 56.5608 1.11793 57.8146 0.578119C59.0684 0.0383061 60.4542 -0.117522 61.7965 0.130341C63.5871 0.478606 65.1697 1.51515 66.2044 3.01737C67.2391 4.51959 67.6435 6.36768 67.3306 8.16475Z" fill="#E9FAEC"/>
<path d="M120.67 8.16475C120.424 9.50731 119.784 10.7465 118.833 11.7255C117.881 12.7046 116.661 13.3795 115.326 13.6649C113.991 13.9504 112.602 13.8335 111.333 13.329C110.065 12.8246 108.974 11.9553 108.2 10.8311C107.426 9.70691 107.002 8.37832 106.983 7.01337C106.964 5.64842 107.35 4.30845 108.093 3.16296C108.835 2.01747 109.901 1.11793 111.154 0.578119C112.408 0.0383061 113.794 -0.117522 115.136 0.130341C116.931 0.47063 118.519 1.50537 119.555 3.00974C120.592 4.51412 120.992 6.3666 120.67 8.16475Z" fill="#E9FAEC"/>
<path d="M174.313 8.16475C174.066 9.50731 173.427 10.7465 172.475 11.7255C171.524 12.7046 170.304 13.3795 168.969 13.6649C167.634 13.9504 166.244 13.8335 164.976 13.329C163.707 12.8246 162.617 11.9553 161.843 10.8311C161.068 9.70691 160.645 8.37832 160.626 7.01337C160.607 5.64842 160.993 4.30845 161.735 3.16296C162.478 2.01747 163.543 1.11793 164.797 0.578119C166.051 0.0383061 167.437 -0.117522 168.779 0.130341C170.574 0.47063 172.162 1.50537 173.198 3.00974C174.234 4.51412 174.635 6.3666 174.313 8.16475Z" fill="#E9FAEC"/>
<path d="M227.886 8.1651C227.722 9.05821 227.383 9.91024 226.89 10.6725C226.396 11.4348 225.757 12.0925 225.01 12.6079C224.262 13.1234 223.42 13.4865 222.532 13.6766C221.644 13.8667 220.728 13.88 219.835 13.7159C218.942 13.5517 218.089 13.2132 217.327 12.7197C216.565 12.2263 215.907 11.5875 215.392 10.8399C214.876 10.0923 214.513 9.25048 214.323 8.36252C214.133 7.47457 214.12 6.55786 214.284 5.66475C214.615 3.86103 215.65 2.26289 217.16 1.22192C218.67 0.180951 220.531 -0.217586 222.335 0.11398C224.139 0.445547 225.737 1.48006 226.778 2.98993C227.819 4.49981 228.217 6.36138 227.886 8.1651Z" fill="#E9FAEC"/>
<path d="M13.6891 53.1023C13.4436 54.4439 12.806 55.6828 11.8568 56.6623C10.9077 57.6418 9.68952 58.3181 8.35626 58.6057C7.02299 58.8934 5.63438 58.7795 4.36581 58.2784C3.09723 57.7773 2.00559 56.9116 1.22873 55.7905C0.45188 54.6694 0.024664 53.3432 0.00103597 51.9795C-0.0225921 50.6158 0.358426 49.2756 1.09598 48.1283C1.83353 46.9809 2.89453 46.0779 4.14498 45.5332C5.39544 44.9885 6.77928 44.8265 8.12171 45.0678C9.91839 45.4085 11.5091 46.4419 12.5507 47.945C13.5922 49.4481 14.0011 51.3004 13.6891 53.1023Z" fill="#E9FAEC"/>
<path d="M67.3306 53.1042C67.0837 54.4468 66.4442 55.686 65.4929 56.6651C64.5417 57.6441 63.3214 58.319 61.9865 58.6045C60.6516 58.8899 59.262 58.773 57.9935 58.2686C56.725 57.7642 55.6347 56.8949 54.8603 55.7706C54.0859 54.6464 53.6624 53.3178 53.6433 51.9529C53.6241 50.5879 54.0102 49.2479 54.7527 48.1024C55.4952 46.9569 56.5608 46.0574 57.8146 45.5176C59.0684 44.9778 60.4542 44.8219 61.7965 45.0698C63.5871 45.4181 65.1697 46.4546 66.2044 47.9568C67.2391 49.4591 67.6435 51.3072 67.3306 53.1042Z" fill="#E9FAEC"/>
<path d="M120.67 53.1042C120.424 54.4468 119.784 55.686 118.833 56.6651C117.881 57.6441 116.661 58.319 115.326 58.6045C113.991 58.8899 112.602 58.773 111.333 58.2686C110.065 57.7642 108.974 56.8949 108.2 55.7706C107.426 54.6464 107.002 53.3178 106.983 51.9529C106.964 50.5879 107.35 49.2479 108.093 48.1024C108.835 46.9569 109.901 46.0574 111.154 45.5176C112.408 44.9778 113.794 44.8219 115.136 45.0698C116.931 45.4101 118.519 46.4448 119.555 47.9492C120.592 49.4536 120.992 51.3061 120.67 53.1042Z" fill="#E9FAEC"/>
<path d="M174.313 53.1042C174.066 54.4468 173.427 55.686 172.475 56.6651C171.524 57.6441 170.304 58.319 168.969 58.6045C167.634 58.8899 166.244 58.773 164.976 58.2686C163.707 57.7642 162.617 56.8949 161.843 55.7706C161.068 54.6464 160.645 53.3178 160.626 51.9529C160.607 50.5879 160.993 49.2479 161.735 48.1024C162.478 46.9569 163.543 46.0574 164.797 45.5176C166.051 44.9778 167.437 44.8219 168.779 45.0698C170.574 45.4101 172.162 46.4448 173.198 47.9492C174.234 49.4536 174.635 51.3061 174.313 53.1042Z" fill="#E9FAEC"/>
<path d="M227.886 53.1045C227.722 53.9977 227.383 54.8497 226.89 55.612C226.396 56.3743 225.757 57.0319 225.01 57.5474C224.262 58.0628 223.42 58.4259 222.532 58.616C221.644 58.8061 220.728 58.8195 219.835 58.6553C218.942 58.4911 218.089 58.1527 217.327 57.6592C216.565 57.1657 215.907 56.527 215.392 55.7794C214.876 55.0317 214.513 54.1899 214.323 53.302C214.133 52.414 214.12 51.4973 214.284 50.6042C214.615 48.8005 215.65 47.2024 217.16 46.1614C218.67 45.1204 220.531 44.7219 222.335 45.0534C224.139 45.385 225.737 46.4195 226.778 47.9294C227.819 49.4393 228.217 51.3008 227.886 53.1045Z" fill="#E9FAEC"/>
<path d="M13.6891 98.1765C13.4436 99.5182 12.806 100.757 11.8568 101.736C10.9077 102.716 9.68952 103.392 8.35626 103.68C7.02299 103.968 5.63438 103.854 4.36581 103.353C3.09723 102.852 2.00559 101.986 1.22873 100.865C0.45188 99.7436 0.024664 98.4175 0.00103597 97.0537C-0.0225921 95.69 0.358426 94.3498 1.09598 93.2025C1.83353 92.0552 2.89453 91.1521 4.14498 90.6074C5.39544 90.0627 6.77928 89.9008 8.12171 90.142C9.91839 90.4827 11.5091 91.5161 12.5507 93.0192C13.5922 94.5223 14.0011 96.3746 13.6891 98.1765Z" fill="#E9FAEC"/>
<path d="M67.3306 98.1764C67.0837 99.519 66.4442 100.758 65.4929 101.737C64.5417 102.716 63.3214 103.391 61.9865 103.677C60.6516 103.962 59.262 103.845 57.9935 103.341C56.725 102.836 55.6347 101.967 54.8603 100.843C54.0859 99.7186 53.6624 98.39 53.6433 97.0251C53.6241 95.6601 54.0102 94.3201 54.7527 93.1747C55.4952 92.0292 56.5608 91.1297 57.8146 90.5899C59.0684 90.05 60.4542 89.8942 61.7965 90.1421C63.5871 90.4903 65.1697 91.5269 66.2044 93.0291C67.2391 94.5313 67.6435 96.3794 67.3306 98.1764Z" fill="#E9FAEC"/>
<path d="M120.67 98.1764C120.424 99.519 119.784 100.758 118.833 101.737C117.881 102.716 116.661 103.391 115.326 103.677C113.991 103.962 112.602 103.845 111.333 103.341C110.065 102.836 108.974 101.967 108.2 100.843C107.426 99.7186 107.002 98.39 106.983 97.0251C106.964 95.6601 107.35 94.3201 108.093 93.1747C108.835 92.0292 109.901 91.1297 111.154 90.5899C112.408 90.05 113.794 89.8942 115.136 90.1421C116.931 90.4823 118.519 91.5171 119.555 93.0215C120.592 94.5258 120.992 96.3783 120.67 98.1764Z" fill="#E9FAEC"/>
<path d="M174.313 98.1764C174.066 99.519 173.427 100.758 172.475 101.737C171.524 102.716 170.304 103.391 168.969 103.677C167.634 103.962 166.244 103.845 164.976 103.341C163.707 102.836 162.617 101.967 161.843 100.843C161.068 99.7186 160.645 98.39 160.626 97.0251C160.607 95.6601 160.993 94.3201 161.735 93.1747C162.478 92.0292 163.543 91.1297 164.797 90.5899C166.051 90.05 167.437 89.8942 168.779 90.1421C170.574 90.4823 172.162 91.5171 173.198 93.0215C174.234 94.5258 174.635 96.3783 174.313 98.1764Z" fill="#E9FAEC"/>
<path d="M227.886 98.1768C227.722 99.0699 227.383 99.922 226.89 100.684C226.396 101.447 225.757 102.104 225.01 102.62C224.262 103.135 223.42 103.498 222.532 103.688C221.644 103.878 220.728 103.892 219.835 103.728C218.942 103.563 218.089 103.225 217.327 102.731C216.565 102.238 215.907 101.599 215.392 100.852C214.876 100.104 214.513 99.2622 214.323 98.3742C214.133 97.4863 214.12 96.5696 214.284 95.6765C214.615 93.8727 215.65 92.2746 217.16 91.2336C218.67 90.1927 220.531 89.7941 222.335 90.1257C224.139 90.4573 225.737 91.4918 226.778 93.0017C227.819 94.5115 228.217 96.3731 227.886 98.1768Z" fill="#E9FAEC"/>
<path d="M13.6891 143.315C13.4436 144.657 12.806 145.896 11.8568 146.875C10.9077 147.855 9.68952 148.531 8.35626 148.819C7.02299 149.106 5.63438 148.992 4.36581 148.491C3.09723 147.99 2.00559 147.124 1.22873 146.003C0.45188 144.882 0.024664 143.556 0.00103597 142.192C-0.0225921 140.829 0.358426 139.488 1.09598 138.341C1.83353 137.194 2.89453 136.291 4.14498 135.746C5.39544 135.201 6.77928 135.039 8.12171 135.281C9.91839 135.621 11.5091 136.655 12.5507 138.158C13.5922 139.661 14.0011 141.513 13.6891 143.315Z" fill="#E9FAEC"/>
<path d="M67.3306 143.317C67.0837 144.66 66.4442 145.899 65.4929 146.878C64.5417 147.857 63.3214 148.532 61.9865 148.817C60.6516 149.103 59.262 148.986 57.9935 148.481C56.725 147.977 55.6347 147.108 54.8603 145.983C54.0859 144.859 53.6624 143.531 53.6433 142.166C53.6241 140.801 54.0102 139.461 54.7527 138.315C55.4952 137.17 56.5608 136.27 57.8146 135.73C59.0684 135.191 60.4542 135.035 61.7965 135.283C63.5871 135.631 65.1697 136.667 66.2044 138.17C67.2391 139.672 67.6435 141.52 67.3306 143.317Z" fill="#E9FAEC"/>
<path d="M120.67 143.317C120.424 144.66 119.784 145.899 118.833 146.878C117.881 147.857 116.661 148.532 115.326 148.817C113.991 149.103 112.602 148.986 111.333 148.481C110.065 147.977 108.974 147.108 108.2 145.983C107.426 144.859 107.002 143.531 106.983 142.166C106.964 140.801 107.35 139.461 108.093 138.315C108.835 137.17 109.901 136.27 111.154 135.73C112.408 135.191 113.794 135.035 115.136 135.283C116.931 135.623 118.519 136.658 119.555 138.162C120.592 139.666 120.992 141.519 120.67 143.317Z" fill="#E9FAEC"/>
<path d="M174.313 143.317C174.066 144.66 173.427 145.899 172.475 146.878C171.524 147.857 170.304 148.532 168.969 148.817C167.634 149.103 166.244 148.986 164.976 148.481C163.707 147.977 162.617 147.108 161.843 145.983C161.068 144.859 160.645 143.531 160.626 142.166C160.607 140.801 160.993 139.461 161.735 138.315C162.478 137.17 163.543 136.27 164.797 135.73C166.051 135.191 167.437 135.035 168.779 135.283C170.574 135.623 172.162 136.658 173.198 138.162C174.234 139.666 174.635 141.519 174.313 143.317Z" fill="#E9FAEC"/>
<path d="M227.886 143.315C227.722 144.209 227.383 145.061 226.89 145.823C226.396 146.585 225.757 147.243 225.01 147.758C224.262 148.274 223.42 148.637 222.532 148.827C221.644 149.017 220.728 149.03 219.835 148.866C218.942 148.702 218.089 148.364 217.327 147.87C216.565 147.377 215.907 146.738 215.392 145.99C214.876 145.243 214.513 144.401 214.323 143.513C214.133 142.625 214.12 141.708 214.284 140.815C214.615 139.011 215.65 137.413 217.16 136.372C218.67 135.331 220.531 134.933 222.335 135.264C224.139 135.596 225.737 136.63 226.778 138.14C227.819 139.65 228.217 141.512 227.886 143.315Z" fill="#E9FAEC"/>
<path d="M13.6891 188.423C13.4436 189.764 12.806 191.003 11.8568 191.983C10.9077 192.962 9.68952 193.638 8.35626 193.926C7.02299 194.214 5.63438 194.1 4.36581 193.599C3.09723 193.098 2.00559 192.232 1.22873 191.111C0.45188 189.99 0.024664 188.664 0.00103597 187.3C-0.0225921 185.936 0.358426 184.596 1.09598 183.449C1.83353 182.301 2.89453 181.398 4.14498 180.853C5.39544 180.309 6.77928 180.147 8.12171 180.388C9.91839 180.729 11.5091 181.762 12.5507 183.265C13.5922 184.768 14.0011 186.621 13.6891 188.423Z" fill="#E9FAEC"/>
<path d="M67.3306 188.423C67.0837 189.765 66.4442 191.004 65.4929 191.983C64.5417 192.962 63.3214 193.637 61.9865 193.923C60.6516 194.208 59.262 194.091 57.9935 193.587C56.725 193.082 55.6347 192.213 54.8603 191.089C54.0859 189.965 53.6624 188.636 53.6433 187.271C53.6241 185.906 54.0102 184.566 54.7527 183.421C55.4952 182.275 56.5608 181.376 57.8146 180.836C59.0684 180.296 60.4542 180.14 61.7965 180.388C63.5871 180.736 65.1697 181.773 66.2044 183.275C67.2391 184.777 67.6435 186.625 67.3306 188.423Z" fill="#E9FAEC"/>
<path d="M120.67 188.423C120.424 189.765 119.784 191.004 118.833 191.983C117.881 192.962 116.661 193.637 115.326 193.923C113.991 194.208 112.602 194.091 111.333 193.587C110.065 193.082 108.974 192.213 108.2 191.089C107.426 189.965 107.002 188.636 106.983 187.271C106.964 185.906 107.35 184.566 108.093 183.421C108.835 182.275 109.901 181.376 111.154 180.836C112.408 180.296 113.794 180.14 115.136 180.388C116.931 180.728 118.519 181.763 119.555 183.268C120.592 184.772 120.992 186.624 120.67 188.423Z" fill="#E9FAEC"/>
<path d="M174.313 188.423C174.066 189.765 173.427 191.004 172.475 191.983C171.524 192.962 170.304 193.637 168.969 193.923C167.634 194.208 166.244 194.091 164.976 193.587C163.707 193.082 162.617 192.213 161.843 191.089C161.068 189.965 160.645 188.636 160.626 187.271C160.607 185.906 160.993 184.566 161.735 183.421C162.478 182.275 163.543 181.376 164.797 180.836C166.051 180.296 167.437 180.14 168.779 180.388C170.574 180.728 172.162 181.763 173.198 183.268C174.234 184.772 174.635 186.624 174.313 188.423Z" fill="#E9FAEC"/>
<path d="M227.886 188.423C227.722 189.316 227.383 190.168 226.89 190.93C226.396 191.693 225.757 192.35 225.01 192.866C224.262 193.381 223.42 193.744 222.532 193.934C221.644 194.125 220.728 194.138 219.835 193.974C218.942 193.81 218.089 193.471 217.327 192.978C216.565 192.484 215.907 191.845 215.392 191.098C214.876 190.35 214.513 189.508 214.323 188.62C214.133 187.732 214.12 186.816 214.284 185.923C214.615 184.119 215.65 182.521 217.16 181.48C218.67 180.439 220.531 180.04 222.335 180.372C224.139 180.703 225.737 181.738 226.778 183.248C227.819 184.758 228.217 186.619 227.886 188.423Z" fill="#E9FAEC"/>
<path d="M13.6891 233.53C13.4436 234.872 12.806 236.111 11.8568 237.09C10.9077 238.07 9.68953 238.746 8.35626 239.034C7.02299 239.321 5.63439 239.207 4.36581 238.706C3.09723 238.205 2.00559 237.339 1.22873 236.218C0.45188 235.097 0.024664 233.771 0.00103597 232.407C-0.0225921 231.044 0.358426 229.703 1.09598 228.556C1.83353 227.409 2.89453 226.506 4.14499 225.961C5.39544 225.416 6.77928 225.254 8.12171 225.496C9.92259 225.828 11.5188 226.86 12.5618 228.365C13.6049 229.87 14.0101 231.727 13.6891 233.53Z" fill="#E9FAEC"/>
<path d="M67.3307 233.528C67.0837 234.871 66.4442 236.11 65.4929 237.089C64.5417 238.068 63.3214 238.743 61.9865 239.028C60.6516 239.314 59.262 239.197 57.9935 238.692C56.725 238.188 55.6347 237.319 54.8603 236.194C54.0859 235.07 53.6624 233.742 53.6433 232.377C53.6241 231.012 54.0102 229.672 54.7527 228.526C55.4952 227.381 56.5608 226.481 57.8146 225.941C59.0684 225.402 60.4542 225.246 61.7965 225.494C63.5913 225.834 65.1793 226.869 66.2155 228.373C67.2517 229.877 67.6524 231.73 67.3307 233.528Z" fill="#E9FAEC"/>
<path d="M120.67 233.528C120.424 234.871 119.784 236.11 118.833 237.089C117.881 238.068 116.661 238.743 115.326 239.028C113.991 239.314 112.602 239.197 111.333 238.692C110.065 238.188 108.974 237.319 108.2 236.194C107.426 235.07 107.002 233.742 106.983 232.377C106.964 231.012 107.35 229.672 108.093 228.526C108.835 227.381 109.901 226.481 111.154 225.941C112.408 225.402 113.794 225.246 115.136 225.494C116.935 225.826 118.529 226.859 119.567 228.365C120.604 229.872 121.001 231.729 120.67 233.528Z" fill="#E9FAEC"/>
<path d="M174.313 233.528C174.066 234.871 173.427 236.11 172.475 237.089C171.524 238.068 170.304 238.743 168.969 239.028C167.634 239.314 166.244 239.197 164.976 238.692C163.707 238.188 162.617 237.319 161.843 236.194C161.068 235.07 160.645 233.742 160.626 232.377C160.607 231.012 160.993 229.672 161.735 228.526C162.478 227.381 163.543 226.481 164.797 225.941C166.051 225.402 167.437 225.246 168.779 225.494C170.578 225.826 172.171 226.859 173.209 228.365C174.247 229.872 174.644 231.729 174.313 233.528Z" fill="#E9FAEC"/>
<path d="M227.884 233.53C227.639 234.872 227.001 236.111 226.052 237.09C225.103 238.07 223.885 238.746 222.552 239.034C221.218 239.321 219.83 239.207 218.561 238.706C217.293 238.205 216.201 237.339 215.424 236.218C214.647 235.097 214.22 233.771 214.196 232.407C214.173 231.044 214.554 229.703 215.291 228.556C216.029 227.409 217.09 226.506 218.34 225.961C219.591 225.416 220.975 225.254 222.317 225.496C224.118 225.828 225.714 226.86 226.757 228.365C227.8 229.87 228.205 231.727 227.884 233.53Z" fill="#E9FAEC"/>
<path d="M13.6891 278.633C13.4436 279.975 12.806 281.214 11.8568 282.193C10.9077 283.173 9.68953 283.849 8.35626 284.137C7.02299 284.424 5.63439 284.311 4.36581 283.809C3.09723 283.308 2.00559 282.443 1.22873 281.322C0.45188 280.201 0.024664 278.874 0.00103597 277.511C-0.0225921 276.147 0.358426 274.807 1.09598 273.659C1.83353 272.512 2.89453 271.609 4.14499 271.064C5.39544 270.52 6.77928 270.358 8.12171 270.599C9.92259 270.932 11.5188 271.963 12.5618 273.468C13.6049 274.974 14.0101 276.83 13.6891 278.633Z" fill="#E9FAEC"/>
<path d="M67.3307 278.634C67.0837 279.976 66.4442 281.215 65.4929 282.194C64.5417 283.174 63.3214 283.848 61.9865 284.134C60.6516 284.419 59.262 284.302 57.9935 283.798C56.725 283.294 55.6347 282.424 54.8603 281.3C54.0859 280.176 53.6624 278.847 53.6433 277.482C53.6241 276.117 54.0102 274.777 54.7527 273.632C55.4952 272.486 56.5608 271.587 57.8146 271.047C59.0684 270.507 60.4542 270.351 61.7965 270.599C63.5913 270.939 65.1793 271.974 66.2155 273.479C67.2517 274.983 67.6524 276.835 67.3307 278.634Z" fill="#E9FAEC"/>
<path d="M120.67 278.634C120.424 279.976 119.784 281.215 118.833 282.194C117.881 283.174 116.661 283.848 115.326 284.134C113.991 284.419 112.602 284.302 111.333 283.798C110.065 283.294 108.974 282.424 108.2 281.3C107.426 280.176 107.002 278.847 106.983 277.482C106.964 276.117 107.35 274.777 108.093 273.632C108.835 272.486 109.901 271.587 111.154 271.047C112.408 270.507 113.794 270.351 115.136 270.599C116.935 270.931 118.529 271.964 119.567 273.471C120.604 274.977 121.001 276.834 120.67 278.634Z" fill="#E9FAEC"/>
<path d="M174.313 278.634C174.066 279.976 173.427 281.215 172.475 282.194C171.524 283.174 170.304 283.848 168.969 284.134C167.634 284.419 166.244 284.302 164.976 283.798C163.707 283.294 162.617 282.424 161.843 281.3C161.068 280.176 160.645 278.847 160.626 277.482C160.607 276.117 160.993 274.777 161.735 273.632C162.478 272.486 163.543 271.587 164.797 271.047C166.051 270.507 167.437 270.351 168.779 270.599C170.578 270.931 172.171 271.964 173.209 273.471C174.247 274.977 174.644 276.834 174.313 278.634Z" fill="#E9FAEC"/>
<path d="M221.051 284.302C224.863 284.302 227.952 281.212 227.952 277.401C227.952 273.59 224.863 270.5 221.051 270.5C217.24 270.5 214.15 273.59 214.15 277.401C214.15 281.212 217.24 284.302 221.051 284.302Z" fill="#E9FAEC"/>
<path d="M13.6891 323.741C13.4436 325.083 12.806 326.321 11.8568 327.301C10.9077 328.28 9.68953 328.957 8.35626 329.244C7.02299 329.532 5.63439 329.418 4.36581 328.917C3.09723 328.416 2.00559 327.55 1.22873 326.429C0.45188 325.308 0.024664 323.982 0.00103597 322.618C-0.0225921 321.254 0.358426 319.914 1.09598 318.767C1.83353 317.62 2.89453 316.717 4.14499 316.172C5.39544 315.627 6.77928 315.465 8.12171 315.706C9.92259 316.039 11.5188 317.071 12.5618 318.576C13.6049 320.081 14.0101 321.938 13.6891 323.741Z" fill="#E9FAEC"/>
<path d="M67.3307 323.741C67.0837 325.084 66.4442 326.323 65.4929 327.302C64.5417 328.281 63.3214 328.956 61.9865 329.241C60.6516 329.527 59.262 329.41 57.9935 328.905C56.725 328.401 55.6347 327.532 54.8603 326.407C54.0859 325.283 53.6624 323.955 53.6433 322.59C53.6241 321.225 54.0102 319.885 54.7527 318.739C55.4952 317.594 56.5608 316.694 57.8146 316.154C59.0684 315.614 60.4542 315.459 61.7965 315.707C63.5913 316.047 65.1793 317.082 66.2155 318.586C67.2517 320.09 67.6524 321.943 67.3307 323.741Z" fill="#E9FAEC"/>
<path d="M120.67 323.741C120.424 325.084 119.784 326.323 118.833 327.302C117.881 328.281 116.661 328.956 115.326 329.241C113.991 329.527 112.602 329.41 111.333 328.905C110.065 328.401 108.974 327.532 108.2 326.407C107.426 325.283 107.002 323.955 106.983 322.59C106.964 321.225 107.35 319.885 108.093 318.739C108.835 317.594 109.901 316.694 111.154 316.154C112.408 315.614 113.794 315.459 115.136 315.707C116.935 316.039 118.529 317.072 119.567 318.578C120.604 320.085 121.001 321.942 120.67 323.741Z" fill="#E9FAEC"/>
<path d="M174.313 323.741C174.066 325.084 173.427 326.323 172.475 327.302C171.524 328.281 170.304 328.956 168.969 329.241C167.634 329.527 166.244 329.41 164.976 328.905C163.707 328.401 162.617 327.532 161.843 326.407C161.068 325.283 160.645 323.955 160.626 322.59C160.607 321.225 160.993 319.885 161.735 318.739C162.478 317.594 163.543 316.694 164.797 316.154C166.051 315.614 167.437 315.459 168.779 315.707C170.578 316.039 172.171 317.072 173.209 318.578C174.247 320.085 174.644 321.942 174.313 323.741Z" fill="#E9FAEC"/>
<path d="M221.051 329.408C224.863 329.408 227.952 326.318 227.952 322.507C227.952 318.695 224.863 315.605 221.051 315.605C217.24 315.605 214.15 318.695 214.15 322.507C214.15 326.318 217.24 329.408 221.051 329.408Z" fill="#E9FAEC"/>
<path d="M13.6891 368.846C13.4436 370.188 12.806 371.427 11.8568 372.406C10.9077 373.386 9.68953 374.062 8.35626 374.35C7.02299 374.638 5.63439 374.524 4.36581 374.023C3.09723 373.521 2.00559 372.656 1.22873 371.535C0.45188 370.414 0.024664 369.087 0.00103597 367.724C-0.0225921 366.36 0.358426 365.02 1.09598 363.872C1.83353 362.725 2.89453 361.822 4.14499 361.277C5.39544 360.733 6.77928 360.571 8.12171 360.812C9.92259 361.145 11.5188 362.176 12.5618 363.681C13.6049 365.187 14.0101 367.043 13.6891 368.846Z" fill="#E9FAEC"/>
<path d="M67.3307 368.849C67.0837 370.191 66.4442 371.43 65.4929 372.409C64.5417 373.388 63.3214 374.063 61.9865 374.349C60.6516 374.634 59.262 374.517 57.9935 374.013C56.725 373.508 55.6347 372.639 54.8603 371.515C54.0859 370.391 53.6624 369.062 53.6433 367.697C53.6241 366.332 54.0102 364.992 54.7527 363.847C55.4952 362.701 56.5608 361.802 57.8146 361.262C59.0684 360.722 60.4542 360.566 61.7965 360.814C63.5913 361.154 65.1793 362.189 66.2155 363.693C67.2517 365.198 67.6524 367.05 67.3307 368.849Z" fill="#E9FAEC"/>
<path d="M120.67 368.849C120.424 370.191 119.784 371.43 118.833 372.409C117.881 373.388 116.661 374.063 115.326 374.349C113.991 374.634 112.602 374.517 111.333 374.013C110.065 373.508 108.974 372.639 108.2 371.515C107.426 370.391 107.002 369.062 106.983 367.697C106.964 366.332 107.35 364.992 108.093 363.847C108.835 362.701 109.901 361.802 111.154 361.262C112.408 360.722 113.794 360.566 115.136 360.814C116.935 361.146 118.529 362.179 119.567 363.686C120.604 365.192 121.001 367.049 120.67 368.849Z" fill="#E9FAEC"/>
<path d="M174.313 368.849C174.066 370.191 173.427 371.43 172.475 372.409C171.524 373.388 170.304 374.063 168.969 374.349C167.634 374.634 166.244 374.517 164.976 374.013C163.707 373.508 162.617 372.639 161.843 371.515C161.068 370.391 160.645 369.062 160.626 367.697C160.607 366.332 160.993 364.992 161.735 363.847C162.478 362.701 163.543 361.802 164.797 361.262C166.051 360.722 167.437 360.566 168.779 360.814C170.578 361.146 172.171 362.179 173.209 363.686C174.247 365.192 174.644 367.049 174.313 368.849Z" fill="#E9FAEC"/>
<path d="M221.051 374.515C224.863 374.515 227.952 371.425 227.952 367.614C227.952 363.803 224.863 360.713 221.051 360.713C217.24 360.713 214.15 363.803 214.15 367.614C214.15 371.425 217.24 374.515 221.051 374.515Z" fill="#E9FAEC"/>
<path d="M13.6891 413.954C13.4436 415.296 12.806 416.534 11.8568 417.514C10.9077 418.493 9.68953 419.17 8.35626 419.457C7.02299 419.745 5.63439 419.631 4.36581 419.13C3.09723 418.629 2.00559 417.763 1.22873 416.642C0.45188 415.521 0.024664 414.195 0.00103597 412.831C-0.0225921 411.467 0.358426 410.127 1.09598 408.98C1.83353 407.832 2.89453 406.929 4.14499 406.385C5.39544 405.84 6.77928 405.678 8.12171 405.919C9.92259 406.252 11.5188 407.284 12.5618 408.789C13.6049 410.294 14.0101 412.151 13.6891 413.954Z" fill="#E9FAEC"/>
<path d="M67.3307 413.952C67.0837 415.294 66.4442 416.534 65.4929 417.513C64.5417 418.492 63.3214 419.167 61.9865 419.452C60.6516 419.738 59.262 419.621 57.9935 419.116C56.725 418.612 55.6347 417.742 54.8603 416.618C54.0859 415.494 53.6624 414.165 53.6433 412.801C53.6241 411.436 54.0102 410.096 54.7527 408.95C55.4952 407.805 56.5608 406.905 57.8146 406.365C59.0684 405.825 60.4542 405.67 61.7965 405.917C63.5913 406.258 65.1793 407.292 66.2155 408.797C67.2517 410.301 67.6524 412.154 67.3307 413.952Z" fill="#E9FAEC"/>
<path d="M120.67 413.952C120.424 415.294 119.784 416.534 118.833 417.513C117.881 418.492 116.661 419.167 115.326 419.452C113.991 419.738 112.602 419.621 111.333 419.116C110.065 418.612 108.974 417.742 108.2 416.618C107.426 415.494 107.002 414.165 106.983 412.801C106.964 411.436 107.35 410.096 108.093 408.95C108.835 407.805 109.901 406.905 111.154 406.365C112.408 405.825 113.794 405.67 115.136 405.917C116.935 406.25 118.529 407.283 119.567 408.789C120.604 410.296 121.001 412.153 120.67 413.952Z" fill="#E9FAEC"/>
<path d="M174.313 413.952C174.066 415.294 173.427 416.534 172.475 417.513C171.524 418.492 170.304 419.167 168.969 419.452C167.634 419.738 166.244 419.621 164.976 419.116C163.707 418.612 162.617 417.742 161.843 416.618C161.068 415.494 160.645 414.165 160.626 412.801C160.607 411.436 160.993 410.096 161.735 408.95C162.478 407.805 163.543 406.905 164.797 406.365C166.051 405.825 167.437 405.67 168.779 405.917C170.578 406.25 172.171 407.283 173.209 408.789C174.247 410.296 174.644 412.153 174.313 413.952Z" fill="#E9FAEC"/>
<path d="M221.051 419.62C224.863 419.62 227.952 416.531 227.952 412.719C227.952 408.908 224.863 405.818 221.051 405.818C217.24 405.818 214.15 408.908 214.15 412.719C214.15 416.531 217.24 419.62 221.051 419.62Z" fill="#E9FAEC"/>
<path d="M13.6891 459.059C13.4436 460.401 12.806 461.64 11.8568 462.619C10.9077 463.599 9.68953 464.275 8.35626 464.563C7.02299 464.85 5.63439 464.736 4.36581 464.235C3.09723 463.734 2.00559 462.868 1.22873 461.747C0.45188 460.626 0.024664 459.3 0.00103597 457.936C-0.0225921 456.573 0.358426 455.233 1.09598 454.085C1.83353 452.938 2.89453 452.035 4.14499 451.49C5.39544 450.946 6.77928 450.784 8.12171 451.025C9.92259 451.357 11.5188 452.389 12.5618 453.894C13.6049 455.4 14.0101 457.256 13.6891 459.059Z" fill="#E9FAEC"/>
<path d="M67.3307 459.059C67.0837 460.402 66.4442 461.641 65.4929 462.62C64.5417 463.599 63.3214 464.274 61.9865 464.56C60.6516 464.845 59.262 464.728 57.9935 464.224C56.725 463.719 55.6347 462.85 54.8603 461.726C54.0859 460.601 53.6624 459.273 53.6433 457.908C53.6241 456.543 54.0102 455.203 54.7527 454.058C55.4952 452.912 56.5608 452.012 57.8146 451.473C59.0684 450.933 60.4542 450.777 61.7965 451.025C63.5913 451.365 65.1793 452.4 66.2155 453.904C67.2517 455.409 67.6524 457.261 67.3307 459.059Z" fill="#E9FAEC"/>
<path d="M120.67 459.059C120.424 460.402 119.784 461.641 118.833 462.62C117.881 463.599 116.661 464.274 115.326 464.56C113.991 464.845 112.602 464.728 111.333 464.224C110.065 463.719 108.974 462.85 108.2 461.726C107.426 460.601 107.002 459.273 106.983 457.908C106.964 456.543 107.35 455.203 108.093 454.058C108.835 452.912 109.901 452.012 111.154 451.473C112.408 450.933 113.794 450.777 115.136 451.025C116.935 451.357 118.529 452.39 119.567 453.897C120.604 455.403 121.001 457.26 120.67 459.059Z" fill="#E9FAEC"/>
<path d="M174.313 459.059C174.066 460.402 173.427 461.641 172.475 462.62C171.524 463.599 170.304 464.274 168.969 464.56C167.634 464.845 166.244 464.728 164.976 464.224C163.707 463.719 162.617 462.85 161.843 461.726C161.068 460.601 160.645 459.273 160.626 457.908C160.607 456.543 160.993 455.203 161.735 454.058C162.478 452.912 163.543 452.012 164.797 451.473C166.051 450.933 167.437 450.777 168.779 451.025C170.578 451.357 172.171 452.39 173.209 453.897C174.247 455.403 174.644 457.26 174.313 459.059Z" fill="#E9FAEC"/>
<path d="M221.051 464.728C224.863 464.728 227.952 461.638 227.952 457.827C227.952 454.015 224.863 450.926 221.051 450.926C217.24 450.926 214.15 454.015 214.15 457.827C214.15 461.638 217.24 464.728 221.051 464.728Z" fill="#E9FAEC"/>
</g>
</svg>
