<svg width="254" height="150" viewBox="0 0 254 150" fill="none" xmlns="http://www.w3.org/2000/svg">
<path d="M254 11.5074C240.125 21.2579 227.622 19.0794 217.669 17.3226C208.349 15.6887 200.963 14.4062 191.872 20.8363C182.78 27.2663 181.532 34.5573 179.879 43.8862C178.12 53.8826 175.975 66.3212 162.1 76.0717C148.225 85.8222 135.722 83.6261 125.787 81.8869C116.449 80.253 109.081 78.9529 99.9892 85.4006C90.8977 91.8482 89.614 99.1567 87.9961 108.486C86.2376 118.482 84.0922 130.921 70.2175 140.671C56.3428 150.422 43.8398 148.226 33.9042 146.486C24.5665 144.852 17.1983 143.552 8.10676 150L0 138.493C13.8747 128.76 26.3777 130.938 36.3309 132.695C45.6686 134.329 53.0368 135.611 62.1284 129.181C71.2199 122.751 72.5036 115.425 74.1214 106.096C75.8799 96.0998 78.0253 83.6613 91.8824 73.9108C105.74 64.1602 118.26 66.3563 128.213 68.1131C137.551 69.747 144.919 71.0295 154.011 64.5994C163.102 58.1694 164.386 50.8433 166.004 41.5144C167.762 31.5179 169.908 19.0794 183.782 9.32888C197.657 -0.421646 210.16 1.77442 220.096 3.5137C229.434 5.14758 236.802 6.44765 245.911 0L254 11.5074Z" fill="#75C883"/>
</svg>
