<svg width="26" height="26" viewBox="0 0 26 26" fill="none" xmlns="http://www.w3.org/2000/svg">
<rect y="26" width="26" height="26" rx="5" transform="rotate(-90 0 26)" fill="#F5F6FA"/>
<path d="M11 13C11 14.0992 11.9008 15 13 15C14.0992 15 15 14.0992 15 13C15 11.9008 14.0992 11 13 11C11.9008 11 11 11.9008 11 13Z" fill="#8F8F8F"/>
<path d="M5 13C5 14.0992 5.90076 15 7 15C8.09924 15 9 14.0992 9 13C9 11.9008 8.09924 11 7 11C5.90076 11 5 11.9008 5 13Z" fill="#8F8F8F"/>
<path d="M17 13C17 14.0992 17.9008 15 19 15C20.0992 15 21 14.0992 21 13C21 11.9008 20.0992 11 19 11C17.9008 11 17 11.9008 17 13Z" fill="#8F8F8F"/>
</svg>
