<svg width="44" height="44" viewBox="0 0 44 44" fill="none" xmlns="http://www.w3.org/2000/svg">
<path d="M13.879 32.5886H6.45902C6.06045 32.5886 5.92687 32.5886 5.92687 31.8664V30.1486C5.92687 30.0065 5.87043 29.8702 5.76997 29.7698C5.6695 29.6693 5.53324 29.6129 5.39116 29.6129C5.24908 29.6129 5.11282 29.6693 5.01235 29.7698C4.91189 29.8702 4.85545 30.0065 4.85545 30.1486V31.8664C4.81507 32.0946 4.82703 32.3289 4.89043 32.5518C4.95383 32.7746 5.06701 32.9801 5.22143 33.1529C5.37586 33.3256 5.56749 33.461 5.78187 33.5488C5.99626 33.6367 6.2278 33.6747 6.45902 33.66H13.879C14.0211 33.66 14.1574 33.6036 14.2578 33.5031C14.3583 33.4026 14.4147 33.2664 14.4147 33.1243C14.4147 32.9822 14.3583 32.846 14.2578 32.7455C14.1574 32.645 14.0211 32.5886 13.879 32.5886ZM5.39116 28.4621C5.53324 28.4621 5.6695 28.4057 5.76997 28.3052C5.87043 28.2048 5.92687 28.0685 5.92687 27.9264V10.2179L22.1412 10.2457V19.1779C22.1412 19.3199 22.1976 19.4562 22.2981 19.5567C22.3985 19.6571 22.5348 19.7136 22.6769 19.7136C22.819 19.7136 22.9552 19.6571 23.0557 19.5567C23.1562 19.4562 23.2126 19.3199 23.2126 19.1779V10.2457C23.2153 9.95599 23.1028 9.67706 22.8998 9.47026C22.6969 9.26345 22.4202 9.14569 22.1304 9.14286H6.38116L8.83116 7.07143H24.4026C24.6299 7.07143 24.8479 7.16173 25.0087 7.32248C25.1694 7.48323 25.2597 7.70124 25.2597 7.92857V18.8C25.2597 18.9421 25.3162 19.0783 25.4166 19.1788C25.5171 19.2793 25.6534 19.3357 25.7955 19.3357C25.9375 19.3357 26.0738 19.2793 26.1743 19.1788C26.2747 19.0783 26.3312 18.9421 26.3312 18.8V7.92857C26.3312 7.41708 26.128 6.92654 25.7663 6.56487C25.4046 6.20319 24.9141 6 24.4026 6H8.63545C8.50888 5.99992 8.38639 6.04472 8.28973 6.12643L5.10759 8.82214C5.03236 8.8993 4.97356 8.99091 4.93473 9.09143C4.885 9.17131 4.85762 9.26307 4.85545 9.35714V27.9286C4.85601 28.0703 4.9127 28.206 5.01311 28.306C5.11351 28.406 5.24945 28.4622 5.39116 28.4621Z" fill="#7A7A7A"/>
<path d="M24.2424 18.9872C24.3845 18.9872 24.5208 18.9308 24.6212 18.8303C24.7217 18.7298 24.7782 18.5936 24.7782 18.4515V9.17221C24.7776 8.75024 24.6099 8.34567 24.3118 8.04702C24.0137 7.74837 23.6094 7.57996 23.1874 7.57864L9.79743 7.55078C9.65535 7.55078 9.51909 7.60722 9.41863 7.70769C9.31816 7.80815 9.26172 7.94442 9.26172 8.0865C9.26172 8.22858 9.31816 8.36484 9.41863 8.4653C9.51909 8.56577 9.65535 8.62221 9.79743 8.62221L23.1882 8.65007C23.3265 8.65044 23.459 8.7056 23.5567 8.80346C23.6544 8.90132 23.7094 9.03391 23.7096 9.17221V18.4515C23.7096 18.5931 23.7656 18.7289 23.8655 18.8293C23.9653 18.9297 24.1009 18.9865 24.2424 18.9872ZM31.621 29.1858C31.4789 29.1858 31.3427 29.2422 31.2422 29.3427C31.1417 29.4432 31.0853 29.5794 31.0853 29.7215V34.1758C31.0863 34.2803 31.0618 34.3836 31.0139 34.4765C30.7124 35.0515 29.2839 36.9294 23.5696 36.9294C17.8553 36.9294 16.4267 35.0536 16.1217 34.4779C16.0739 34.3852 16.0494 34.2822 16.0503 34.1779V29.9486C16.0503 29.8066 15.9939 29.6703 15.8934 29.5698C15.7929 29.4694 15.6567 29.4129 15.5146 29.4129C15.3725 29.4129 15.2362 29.4694 15.1358 29.5698C15.0353 29.6703 14.9789 29.8066 14.9789 29.9486V34.1758C14.9774 34.4537 15.043 34.728 15.1703 34.9751C15.6517 35.8844 17.4267 38.0008 23.5696 38.0008C29.7124 38.0008 31.4867 35.8865 31.9646 34.9779C32.0929 34.7309 32.1591 34.4563 32.1574 34.1779V29.7215C32.1574 29.6511 32.1436 29.5814 32.1166 29.5163C32.0896 29.4513 32.0501 29.3922 32.0003 29.3424C31.9505 29.2927 31.8913 29.2532 31.8262 29.2264C31.7612 29.1995 31.6914 29.1857 31.621 29.1858Z" fill="#7A7A7A"/>
<path d="M38.7738 24.5995L24.6009 19.8652C24.4927 19.8288 24.3755 19.8288 24.2673 19.8652L8.30232 24.9838C8.19572 25.0189 8.10281 25.0865 8.03666 25.1772C7.97052 25.2678 7.93448 25.377 7.93361 25.4892C7.93274 25.6014 7.96709 25.7111 8.03183 25.8027C8.09656 25.8944 8.18842 25.9635 8.29446 26.0002L23.223 31.0459C23.2783 31.0646 23.3362 31.0742 23.3945 31.0745C23.4558 31.0744 23.5167 31.0638 23.5745 31.0431L34.5323 27.1302V29.7016C34.163 29.8132 33.8391 30.0403 33.6086 30.3497C33.378 30.6591 33.2529 31.0344 33.2516 31.4202V32.5002C33.2516 32.9791 33.4419 33.4384 33.7805 33.777C34.1191 34.1157 34.5784 34.3059 35.0573 34.3059C35.5362 34.3059 35.9955 34.1157 36.3342 33.777C36.6728 33.4384 36.863 32.9791 36.863 32.5002V31.4188C36.8621 31.0364 36.7395 30.6643 36.5132 30.3561C36.2868 30.048 35.9683 29.8198 35.6038 29.7045V26.7474L38.783 25.6123C38.8881 25.5749 38.9788 25.5056 39.0425 25.4141C39.1063 25.3227 39.1399 25.2136 39.1388 25.1021C39.1376 24.9906 39.1016 24.8823 39.036 24.7922C38.9703 24.7021 38.8781 24.6347 38.7723 24.5995H38.7738ZM35.7888 32.5002C35.7888 32.695 35.7114 32.8817 35.5737 33.0194C35.436 33.1571 35.2492 33.2345 35.0545 33.2345C34.8597 33.2345 34.673 33.1571 34.5353 33.0194C34.3975 32.8817 34.3202 32.695 34.3202 32.5002V31.4188C34.3202 31.3224 34.3392 31.2269 34.3761 31.1378C34.413 31.0487 34.4671 30.9677 34.5353 30.8996C34.6034 30.8314 34.6844 30.7773 34.7735 30.7404C34.8626 30.7035 34.958 30.6845 35.0545 30.6845C35.1509 30.6845 35.2464 30.7035 35.3355 30.7404C35.4246 30.7773 35.5055 30.8314 35.5737 30.8996C35.6419 30.9677 35.696 31.0487 35.7329 31.1378C35.7698 31.2269 35.7888 31.3224 35.7888 31.4188V32.5002ZM34.9916 25.8288L23.6252 24.6024C23.5544 24.593 23.4824 24.5979 23.4135 24.6168C23.3446 24.6357 23.2801 24.6682 23.224 24.7124C23.1678 24.7565 23.1211 24.8115 23.0865 24.874C23.0519 24.9365 23.0301 25.0053 23.0225 25.0763C23.0149 25.1473 23.0215 25.2192 23.0421 25.2876C23.0626 25.356 23.0967 25.4196 23.1422 25.4747C23.1877 25.5298 23.2438 25.5752 23.3071 25.6083C23.3704 25.6414 23.4397 25.6615 23.5109 25.6674L32.6745 26.6559L23.3888 29.9731L10.1788 25.5074L24.4273 20.9359L36.9638 25.1238L34.9916 25.8288Z" fill="#7A7A7A"/>
</svg>
