<svg width="44" height="44" viewBox="0 0 44 44" fill="none" xmlns="http://www.w3.org/2000/svg">
<path fill-rule="evenodd" clip-rule="evenodd" d="M31.9269 30.723C31.9269 36.6569 31.9269 35.6195 31.9269 36.0667C31.9269 36.4357 31.6278 36.7348 31.2589 36.7348H9.96105C9.77714 36.7348 9.60081 36.6616 9.47079 36.5318C9.34076 36.4018 9.26776 36.2254 9.26776 36.0415V14.9642C11.1842 15.9571 12.9872 15.8574 14.7119 15.0393C15.039 14.8841 15.1895 14.5015 15.0557 14.1651C14.0905 11.7393 14.1523 9.57643 15.5939 7.75249C15.5942 7.752 15.5947 7.75167 15.595 7.75117C15.8554 7.41994 16.2535 7.22663 16.6749 7.22663C16.6764 7.22663 16.6779 7.22663 16.6792 7.22663C19.4379 7.20917 27.9032 7.20917 31.2402 7.20917C31.4223 7.20917 31.597 7.28151 31.7259 7.41021C31.8546 7.53908 31.9269 7.71376 31.9269 7.89586V18.2449C31.9269 18.6239 32.2346 18.9316 32.6136 18.9316C32.9925 18.9316 33.3002 18.6239 33.3002 18.2449C33.3002 18.2449 33.3002 9.67465 33.3002 7.89586C33.3002 7.34957 33.0831 6.82552 32.6969 6.43925C32.3106 6.05297 31.7867 5.83594 31.2402 5.83594C27.9012 5.83594 19.4308 5.83594 16.6706 5.85341C15.8325 5.85341 15.0367 6.23985 14.5158 6.90182C12.8949 8.95334 12.6404 11.3516 13.5452 14.0353C12.1062 14.5303 10.5976 14.3416 8.98316 13.1755C8.77404 13.0246 8.49817 13.0035 8.26845 13.121C8.03889 13.2383 7.89453 13.4745 7.89453 13.7322C7.89453 13.7322 7.89453 30.9807 7.89453 36.0415C7.89453 36.5896 8.11222 37.1151 8.49982 37.5027C8.88725 37.8903 9.41294 38.108 9.96105 38.108C14.2075 38.108 27.0467 38.108 31.2589 38.108C32.3864 38.108 33.3002 37.1941 33.3002 36.0667C33.3002 35.6195 33.3002 36.6569 33.3002 30.723C33.3002 30.3439 32.9925 30.0363 32.6136 30.0363C32.2346 30.0363 31.9269 30.3439 31.9269 30.723Z" fill="#21B873"/>
<path fill-rule="evenodd" clip-rule="evenodd" d="M16.1009 5.91707C14.5014 6.27501 12.6827 7.40747 11.1551 8.84546C9.6304 10.2807 8.40054 12.0148 7.92956 13.5292C7.81701 13.8911 8.01937 14.2762 8.38126 14.3888C8.74315 14.5014 9.12827 14.299 9.24083 13.9371C9.65413 12.6084 10.7586 11.1046 12.0964 9.84543C13.4312 8.58888 15.003 7.56996 16.4008 7.25718C16.7706 7.17445 17.0036 6.80713 16.9209 6.43716C16.8382 6.06737 16.4707 5.83435 16.1009 5.91707ZM27.1211 15.6417C22.1926 15.6417 18.1914 19.6429 18.1914 24.5714C18.1914 29.4999 22.1926 33.5011 27.1211 33.5011C32.0496 33.5011 36.0508 29.4999 36.0508 24.5714C36.0508 19.6429 32.0496 15.6417 27.1211 15.6417ZM27.1211 17.015C31.2916 17.015 34.6776 20.401 34.6776 24.5714C34.6776 28.7419 31.2916 32.1279 27.1211 32.1279C22.9505 32.1279 19.5647 28.7419 19.5647 24.5714C19.5647 20.401 22.9505 17.015 27.1211 17.015Z" fill="#21B873"/>
<path fill-rule="evenodd" clip-rule="evenodd" d="M27.1205 19.1113C25.5442 19.1113 24.2646 20.391 24.2646 21.9672C24.2646 23.5435 25.5442 24.8231 27.1205 24.8231C28.6966 24.8231 29.9764 23.5435 29.9764 21.9672C29.9764 20.391 28.6966 19.1113 27.1205 19.1113ZM27.1205 20.4846C27.9387 20.4846 28.603 21.149 28.603 21.9672C28.603 22.7854 27.9387 23.4498 27.1205 23.4498C26.3021 23.4498 25.6378 22.7854 25.6378 21.9672C25.6378 21.149 26.3021 20.4846 27.1205 20.4846ZM21.3949 30.2232C22.5677 28.2874 24.6939 26.9923 27.1205 26.9923C29.5474 26.9923 31.6741 28.2879 32.8466 30.2242C33.0428 30.5483 33.4654 30.6522 33.7895 30.4559C34.1138 30.2596 34.2177 29.8371 34.0212 29.5129C32.6083 27.1795 30.0451 25.619 27.1205 25.619C24.1964 25.619 21.6337 27.179 20.2204 29.5116C20.0241 29.8358 20.1278 30.2583 20.4519 30.4546C20.7761 30.651 21.1986 30.5473 21.3949 30.2232Z" fill="#21B873"/>
</svg>
