<svg width="42" height="42" viewBox="0 0 42 42" fill="none" xmlns="http://www.w3.org/2000/svg">
<g clip-path="url(#clip0_683_4758)">
<path d="M41.0204 21.3938C41.0204 19.6731 40.8808 18.4174 40.5786 17.1152H20.9297V24.8817H32.4632C32.2307 26.8118 30.9751 29.7184 28.1846 31.6716L28.1455 31.9316L34.3581 36.7444L34.7886 36.7874C38.7415 33.1366 41.0204 27.7651 41.0204 21.3938Z" fill="#4285F4"/>
<path d="M20.9299 41.8553C26.5804 41.8553 31.324 39.995 34.7888 36.7861L28.1849 31.6702C26.4177 32.9027 24.0458 33.763 20.9299 33.763C15.3957 33.763 10.6986 30.1124 9.02425 25.0664L8.77883 25.0872L2.31886 30.0867L2.23438 30.3216C5.6758 37.158 12.7448 41.8553 20.9299 41.8553Z" fill="#34A853"/>
<path d="M9.0241 25.0669C8.58229 23.7647 8.32661 22.3694 8.32661 20.9278C8.32661 19.486 8.58229 18.0909 9.00085 16.7887L8.98915 16.5114L2.44821 11.4316L2.2342 11.5334C0.815823 14.3704 0.00195312 17.5561 0.00195312 20.9278C0.00195312 24.2995 0.815823 27.4851 2.2342 30.322L9.0241 25.0669Z" fill="#FBBC05"/>
<path d="M20.93 8.09203C24.8598 8.09203 27.5106 9.7895 29.0221 11.208L34.9284 5.44123C31.301 2.06954 26.5805 0 20.93 0C12.7448 0 5.67582 4.69709 2.23438 11.5335L9.00104 16.7887C10.6987 11.7428 15.3958 8.09203 20.93 8.09203Z" fill="#EB4335"/>
</g>
<defs>
<clipPath id="clip0_683_4758">
<rect width="41.0424" height="42" fill="white"/>
</clipPath>
</defs>
</svg>
