<svg width="42" height="42" viewBox="0 0 42 42" fill="none" xmlns="http://www.w3.org/2000/svg">
<g clip-path="url(#clip0_683_4752)">
<path d="M21 42C32.598 42 42 32.598 42 21C42 9.40202 32.598 0 21 0C9.40202 0 0 9.40202 0 21C0 32.598 9.40202 42 21 42Z" fill="#007AB9"/>
<path d="M33.5493 22.6914V31.3492H28.5297V23.2716C28.5297 21.2434 27.805 19.8583 25.9875 19.8583C24.6006 19.8583 23.7766 20.7908 23.4128 21.6937C23.2806 22.0164 23.2466 22.4645 23.2466 22.9171V31.3488H18.2266C18.2266 31.3488 18.294 17.668 18.2266 16.2519H23.2469V18.3913C23.2368 18.4081 23.2226 18.4246 23.2136 18.4407H23.2469V18.3913C23.914 17.3648 25.1037 15.8974 27.7709 15.8974C31.0734 15.8974 33.5493 18.0551 33.5493 22.6914ZM12.9753 8.97461C11.2582 8.97461 10.1348 10.1018 10.1348 11.5827C10.1348 13.0321 11.2256 14.1919 12.9094 14.1919H12.942C14.6928 14.1919 15.7814 13.0321 15.7814 11.5827C15.7481 10.1018 14.6928 8.97461 12.9753 8.97461ZM10.4331 31.3492H15.4512V16.2519H10.4331V31.3492Z" fill="#F1F2F2"/>
</g>
<defs>
<clipPath id="clip0_683_4752">
<rect width="42" height="42" fill="white"/>
</clipPath>
</defs>
</svg>
