<svg width="588" height="589" viewBox="0 0 588 589" fill="none" xmlns="http://www.w3.org/2000/svg">
<path opacity="0.7" d="M79.8838 196.833C79.8838 196.833 47.0969 281.649 93.1726 367.054C139.248 452.459 234.151 497.576 310.109 536.156C386.067 574.735 464.941 555.946 502.421 492.758C539.9 429.57 488.497 384.464 488.426 294.359C488.356 204.254 501.891 180.4 453.146 104.277C404.401 28.1548 284.908 11.2976 194.544 67.7592C104.18 124.221 79.8838 196.833 79.8838 196.833Z" fill="white"/>
<path d="M74.8985 163.932C106.309 102.864 164.639 56.6631 237.257 50.1606C287.202 45.7983 336.979 60.2239 376.884 90.6249C396.711 105.939 414.327 125.435 426.029 147.687C439.458 173.25 443.375 202.723 457.193 228.168C474.374 259.797 506.643 272.85 528.317 300.179C546.157 322.691 552.284 352.859 550.238 381.532C546.498 433.871 515.887 483.559 470.858 510.382C432.791 533.058 386.903 539.313 342.674 537.252C274.466 534.083 206.563 511.548 152.844 469.34C99.1241 427.132 60.516 364.734 51.3667 296.963C45.1457 250.915 54.1891 204.184 74.8985 163.932Z" fill="#3DC06A"/>
<path opacity="0.7" d="M74.8985 163.932C106.309 102.864 164.639 56.6631 237.257 50.1606C287.202 45.7983 336.979 60.2239 376.884 90.6249C396.711 105.939 414.327 125.435 426.029 147.687C439.458 173.25 443.375 202.723 457.193 228.168C474.374 259.797 506.643 272.85 528.317 300.179C546.157 322.691 552.284 352.859 550.238 381.532C546.498 433.871 515.887 483.559 470.858 510.382C432.791 533.058 386.903 539.313 342.674 537.252C274.466 534.083 206.563 511.548 152.844 469.34C99.1241 427.132 60.516 364.734 51.3667 296.963C45.1457 250.915 54.1891 204.184 74.8985 163.932Z" fill="white"/>
<path d="M54.1797 186.255C55.5674 191.768 54.8853 181.625 57.6018 169.233C60.3184 156.84 64.9871 161.858 64.9871 161.858" stroke="#382B26" stroke-linecap="round" stroke-linejoin="round"/>
<path d="M53.332 173.59L61.858 170.092" stroke="#382B26" stroke-linecap="round" stroke-linejoin="round"/>
<path d="M68.9031 165.887C68.9031 165.887 63.811 176.489 71.4903 180.942" stroke="#382B26" stroke-linecap="round" stroke-linejoin="round"/>
<path d="M76.1348 162.918C76.1348 162.918 84.5549 167.63 79.2864 177.737" stroke="#382B26" stroke-linecap="round" stroke-linejoin="round"/>
<path d="M70.373 169.469L76.4059 173.874" stroke="#382B26" stroke-linecap="round" stroke-linejoin="round"/>
<path d="M75.1005 167.523L70.3848 175.051" stroke="#382B26" stroke-linecap="round" stroke-linejoin="round"/>
<path d="M102.19 280.346C103.338 273.341 98.5998 266.731 91.6075 265.582C84.6151 264.432 78.0164 269.179 76.8688 276.183C75.7213 283.187 80.4595 289.797 87.4518 290.947C94.4442 292.096 101.043 287.35 102.19 280.346Z" stroke="#382B26" stroke-linecap="round" stroke-linejoin="round"/>
<path d="M109.802 297.254C117.5 295.673 122.461 288.139 120.882 280.427C119.303 272.716 111.783 267.746 104.084 269.328C96.3854 270.909 91.4245 278.443 93.0034 286.155C94.5822 293.866 102.103 298.836 109.802 297.254Z" stroke="#382B26" stroke-linecap="round" stroke-linejoin="round"/>
<path d="M101.218 272.955L95.3145 275.064" stroke="#382B26" stroke-linecap="round" stroke-linejoin="round"/>
<path d="M102.041 275.395L93.5508 278.469" stroke="#382B26" stroke-linecap="round" stroke-linejoin="round"/>
<path d="M102.359 278.338L92.8809 281.99" stroke="#382B26" stroke-linecap="round" stroke-linejoin="round"/>
<path d="M101.689 282.355L93.0449 286.314" stroke="#382B26" stroke-linecap="round" stroke-linejoin="round"/>
<path d="M100.16 285.441L93.5977 288.174" stroke="#382B26" stroke-linecap="round" stroke-linejoin="round"/>
<path d="M95.7266 258.679C95.362 257.501 91.199 256.77 91.0226 259.857C90.8462 262.943 95.409 260.375 96.7026 258.679C96.7026 258.679 94.3506 261.848 95.3385 262.472" stroke="#382B26" stroke-linecap="round" stroke-linejoin="round"/>
<path d="M118.777 262.518L115.084 270.21C115.084 270.21 116.93 266.358 118.906 266.676C121.34 267.112 119.717 271.105 116.777 269.633" stroke="#382B26" stroke-linecap="round" stroke-linejoin="round"/>
<path d="M520.627 388.117L526.425 393.607" stroke="#382B26" stroke-linecap="round" stroke-linejoin="round"/>
<path d="M526.425 386.68L521.568 393.948" stroke="#382B26" stroke-linecap="round" stroke-linejoin="round"/>
<path d="M532.129 388.765L537.938 386.598" stroke="#382B26" stroke-linecap="round" stroke-linejoin="round"/>
<path d="M540.725 380.541L544.253 383.663" stroke="#382B26" stroke-linecap="round" stroke-linejoin="round"/>
<path d="M546.957 376.783L542.488 392.144" stroke="#382B26" stroke-linecap="round" stroke-linejoin="round"/>
<path d="M276.324 301.827L291.93 291.072L312.592 292.521L313.886 318.767L298.715 329.628L279.993 328.262L276.324 301.827Z" stroke="#382B26" stroke-linecap="round" stroke-linejoin="round"/>
<path d="M279.994 328.262L295.106 317.365L313.886 318.767" stroke="#382B26" stroke-linecap="round" stroke-linejoin="round"/>
<path d="M295.107 317.365L291.932 291.072" stroke="#382B26" stroke-linecap="round" stroke-linejoin="round"/>
<path d="M276.324 301.828L296.939 304.219L312.592 292.521" stroke="#382B26" stroke-linecap="round" stroke-linejoin="round"/>
<path d="M296.941 304.219L298.717 329.628" stroke="#382B26" stroke-linecap="round" stroke-linejoin="round"/>
<path d="M458.464 213.654L451.549 235.176L473.07 232.267L458.464 213.654Z" stroke="#382B26" stroke-linecap="round" stroke-linejoin="round"/>
<path d="M458.465 213.654L462.31 233.598" stroke="#382B26" stroke-linecap="round" stroke-linejoin="round"/>
<path d="M461.697 230.406L464.214 230.006L464.802 233.387" stroke="#382B26" stroke-linecap="round" stroke-linejoin="round"/>
<path d="M187.443 410.604L198.192 415.893" stroke="#382B26" stroke-linecap="round" stroke-linejoin="round"/>
<path d="M194.722 406.564L191.641 417.814" stroke="#382B26" stroke-linecap="round" stroke-linejoin="round"/>
<path d="M196.217 401.075C196.393 400.892 196.61 400.753 196.849 400.669C197.089 400.585 197.345 400.559 197.596 400.592C197.848 400.625 198.088 400.717 198.298 400.86C198.508 401.003 198.681 401.194 198.804 401.416C199.886 403.113 197.769 406.67 197.769 406.67L202.085 405.021" stroke="#382B26" stroke-linecap="round" stroke-linejoin="round"/>
<path d="M271.833 40.0527C282.1 45.8367 270.34 59.9727 270.34 68.2187C270.34 76.4647 282.1 75.2867 287.98 77.6427C290.332 77.6427 295.036 77.6427 294.906 83.6269" stroke="#382B26" stroke-linecap="round" stroke-linejoin="round"/>
<path d="M260.391 47.5566C262.178 57.2987 273.327 53.8472 280.171 56.0736C291.931 59.9021 285.404 72.059 281.9 79.4098C279.795 83.7919 277.701 89.9411 281.465 94.0994" stroke="#382B26" stroke-linecap="round" stroke-linejoin="round"/>
<path d="M261.896 51.3381L274.139 41.1484" stroke="#382B26" stroke-linecap="round" stroke-linejoin="round"/>
<path d="M266.693 54.3777L275.913 46.7207" stroke="#382B26" stroke-linecap="round" stroke-linejoin="round"/>
<path d="M272.115 62.1275L279.9 56.002" stroke="#382B26" stroke-linecap="round" stroke-linejoin="round"/>
<path d="M270.504 71.2933L285.721 60.3379" stroke="#382B26" stroke-linecap="round" stroke-linejoin="round"/>
<path d="M276.336 75.5698L286.943 67.7715" stroke="#382B26" stroke-linecap="round" stroke-linejoin="round"/>
<path d="M280.854 92.1441L294.107 81.3301" stroke="#382B26" stroke-linecap="round" stroke-linejoin="round"/>
<path d="M281.182 83.6391L289.825 77.5488" stroke="#382B26" stroke-linecap="round" stroke-linejoin="round"/>
<path d="M108.135 416.472C120.763 411.413 126.905 397.057 121.854 384.408C116.804 371.759 102.472 365.606 89.8448 370.666C77.2172 375.725 71.0749 390.08 76.1256 402.729C81.1763 415.379 95.5074 421.531 108.135 416.472Z" stroke="#382B26" stroke-linecap="round" stroke-linejoin="round"/>
<path d="M105.182 369.705C113.766 359.609 121.069 353.896 123.88 355.757C128.161 358.573 120.481 377.798 106.734 398.684C92.9864 419.57 78.3687 434.224 74.0881 431.397C71.2657 429.547 73.6412 420.571 79.5212 408.685" stroke="#382B26" stroke-linecap="round" stroke-linejoin="round"/>
<path d="M74.8875 398.636C62.9158 395.185 55.2718 391.156 55.754 387.94C56.4478 382.851 77.1337 381.673 101.841 385.384C126.549 389.095 145.977 396.127 145.236 401.193C144.707 404.727 134.652 406.341 120.363 405.799" stroke="#382B26" stroke-linecap="round" stroke-linejoin="round"/>
<path d="M78.0285 380.766C68.9968 364.439 64.481 351.705 67.5386 349.714C71.5605 347.111 87.1072 364.003 102.266 387.41C117.425 410.817 126.444 431.974 122.434 434.589C119.777 436.309 112.074 429.5 102.772 417.908" stroke="#382B26" stroke-linecap="round" stroke-linejoin="round"/>
<path d="M127.35 366.429C126.911 367.099 126.285 367.623 125.549 367.936C124.813 368.25 124.001 368.337 123.215 368.188C122.43 368.039 121.706 367.661 121.135 367.1C120.564 366.539 120.172 365.822 120.008 365.038C119.844 364.254 119.915 363.439 120.213 362.696C120.511 361.953 121.023 361.315 121.682 360.863C122.342 360.41 123.121 360.164 123.92 360.155C124.72 360.145 125.504 360.373 126.174 360.81C126.62 361.101 127.005 361.478 127.306 361.918C127.606 362.358 127.817 362.853 127.927 363.375C128.036 363.897 128.041 364.436 127.942 364.96C127.843 365.484 127.642 365.983 127.35 366.429Z" fill="#382B26"/>
<path d="M113.955 428.498C113.517 429.167 112.89 429.692 112.154 430.005C111.418 430.318 110.606 430.406 109.821 430.257C109.035 430.108 108.311 429.729 107.741 429.168C107.17 428.608 106.777 427.89 106.613 427.106C106.449 426.323 106.521 425.508 106.819 424.765C107.117 424.021 107.628 423.383 108.288 422.931C108.947 422.479 109.726 422.232 110.526 422.223C111.325 422.214 112.109 422.442 112.779 422.879C113.226 423.17 113.61 423.546 113.911 423.986C114.212 424.426 114.423 424.921 114.532 425.443C114.641 425.966 114.647 426.504 114.548 427.028C114.449 427.552 114.247 428.052 113.955 428.498Z" fill="#382B26"/>
<path d="M92.3402 386.384C91.9017 387.054 91.2749 387.578 90.539 387.892C89.8032 388.205 88.9912 388.292 88.2056 388.143C87.4201 387.995 86.6962 387.616 86.1253 387.055C85.5544 386.495 85.1622 385.777 84.9982 384.993C84.8341 384.209 84.9056 383.394 85.2036 382.651C85.5016 381.908 86.0127 381.27 86.6725 380.818C87.3322 380.365 88.111 380.119 88.9104 380.11C89.7098 380.1 90.4941 380.328 91.1642 380.765C92.063 381.355 92.6917 382.278 92.9121 383.331C93.1326 384.385 92.9269 385.483 92.3402 386.384Z" fill="#382B26"/>
<path d="M350.249 210.062H364.102L371.029 198.047L364.102 186.031H350.249L343.322 198.047L350.249 210.062Z" stroke="#382B26" stroke-linecap="round" stroke-linejoin="round"/>
<path d="M348.237 236.438L341.31 224.422H327.457" stroke="#382B26" stroke-linecap="round" stroke-linejoin="round"/>
<path d="M329.315 198.047H343.169L350.095 186.031L343.169 174.004H329.315L322.389 186.031L329.315 198.047Z" stroke="#382B26" stroke-linecap="round" stroke-linejoin="round"/>
<path d="M350.249 186.031H364.102L371.029 174.004L364.102 161.988H350.249L343.322 174.004L350.249 186.031Z" stroke="#382B26" stroke-linecap="round" stroke-linejoin="round"/>
<path d="M350.096 187.892C351.123 187.892 351.954 187.059 351.954 186.031C351.954 185.003 351.123 184.17 350.096 184.17C349.07 184.17 348.238 185.003 348.238 186.031C348.238 187.059 349.07 187.892 350.096 187.892Z" fill="#382B26"/>
<path d="M321.167 162.658C322.193 162.658 323.025 161.825 323.025 160.797C323.025 159.769 322.193 158.936 321.167 158.936C320.141 158.936 319.309 159.769 319.309 160.797C319.309 161.825 320.141 162.658 321.167 162.658Z" fill="#382B26"/>
<path d="M346.379 236.437C346.379 236.069 346.488 235.709 346.692 235.403C346.896 235.097 347.186 234.859 347.526 234.718C347.865 234.577 348.239 234.54 348.599 234.612C348.96 234.684 349.291 234.861 349.551 235.121C349.811 235.382 349.988 235.713 350.059 236.074C350.131 236.435 350.094 236.81 349.954 237.15C349.813 237.49 349.575 237.78 349.269 237.985C348.964 238.19 348.604 238.299 348.237 238.299C347.993 238.299 347.751 238.251 347.526 238.157C347.3 238.063 347.096 237.926 346.923 237.754C346.751 237.581 346.614 237.376 346.52 237.15C346.427 236.924 346.379 236.682 346.379 236.437Z" fill="#382B26"/>
<path d="M327.458 226.283C328.484 226.283 329.316 225.45 329.316 224.422C329.316 223.394 328.484 222.561 327.458 222.561C326.432 222.561 325.6 223.394 325.6 224.422C325.6 225.45 326.432 226.283 327.458 226.283Z" fill="#382B26"/>
<path d="M384.436 174.346C384.436 173.975 384.546 173.612 384.752 173.304C384.958 172.996 385.25 172.756 385.593 172.614C385.935 172.473 386.312 172.436 386.675 172.51C387.038 172.583 387.371 172.762 387.632 173.025C387.893 173.289 388.07 173.623 388.141 173.988C388.212 174.352 388.173 174.729 388.03 175.071C387.886 175.413 387.645 175.704 387.336 175.909C387.027 176.113 386.664 176.221 386.294 176.219C386.049 176.219 385.806 176.17 385.58 176.076C385.354 175.982 385.148 175.843 384.976 175.669C384.803 175.495 384.666 175.289 384.574 175.062C384.481 174.834 384.434 174.591 384.436 174.346Z" fill="#382B26"/>
<path d="M341.171 226.283C342.197 226.283 343.029 225.45 343.029 224.422C343.029 223.394 342.197 222.561 341.171 222.561C340.144 222.561 339.312 223.394 339.312 224.422C339.312 225.45 340.144 226.283 341.171 226.283Z" fill="#382B26"/>
<path d="M369.17 174.346C369.17 173.975 369.28 173.613 369.485 173.305C369.69 172.997 369.983 172.757 370.324 172.615C370.666 172.473 371.042 172.436 371.405 172.509C371.767 172.581 372.1 172.759 372.362 173.021C372.623 173.283 372.802 173.617 372.874 173.98C372.946 174.344 372.909 174.72 372.767 175.062C372.626 175.405 372.386 175.697 372.079 175.903C371.771 176.109 371.41 176.219 371.04 176.219C370.544 176.219 370.068 176.021 369.718 175.67C369.367 175.319 369.17 174.842 369.17 174.346Z" fill="#382B26"/>
<path d="M348.238 210.074C348.236 209.703 348.344 209.339 348.549 209.029C348.753 208.719 349.045 208.478 349.387 208.334C349.729 208.191 350.106 208.153 350.47 208.225C350.834 208.297 351.168 208.475 351.43 208.738C351.692 209.001 351.871 209.336 351.943 209.7C352.014 210.064 351.976 210.442 351.833 210.785C351.69 211.127 351.449 211.42 351.14 211.625C350.83 211.83 350.467 211.938 350.096 211.935C349.605 211.932 349.134 211.735 348.786 211.387C348.438 211.039 348.241 210.567 348.238 210.074Z" fill="#382B26"/>
<path d="M371.041 174.32H386.294" stroke="#382B26" stroke-linecap="round" stroke-linejoin="round"/>
<path d="M350.096 210.074L341.17 224.422" stroke="#382B26" stroke-linecap="round" stroke-linejoin="round"/>
<path d="M329.316 174.002L321.166 160.797" stroke="#382B26" stroke-linecap="round" stroke-linejoin="round"/>
<path d="M427.57 126.637C429.168 121.227 432.498 116.493 437.048 113.167C441.597 109.841 447.112 108.106 452.743 108.231C458.374 108.355 463.807 110.332 468.206 113.857C472.604 117.381 475.722 122.257 477.08 127.732" stroke="#382B26" stroke-linecap="round" stroke-linejoin="round"/>
<path d="M449.232 159.432C442.975 158.714 437.201 155.716 433.008 151.008C428.816 146.301 426.5 140.213 426.5 133.904" stroke="#382B26" stroke-linecap="round" stroke-linejoin="round"/>
<path d="M477.82 133.904C477.82 140.716 475.12 147.249 470.312 152.067C465.505 156.885 458.984 159.593 452.184 159.596" stroke="#382B26" stroke-linecap="round" stroke-linejoin="round"/>
<path d="M479.279 117.613C487.3 116.588 492.674 117.142 493.509 119.545C495.167 124.328 478.009 134.635 455.183 142.575C432.357 150.515 412.518 153.059 410.848 148.265C409.966 145.709 414.458 141.574 422.314 137.062" stroke="#382B26" stroke-linecap="round" stroke-linejoin="round"/>
<path d="M341.17 100.014L343.628 104.997L349.12 105.798L345.145 109.685L346.086 115.163L341.17 112.571L336.255 115.163L337.196 109.685L333.221 105.798L338.713 104.997L341.17 100.014Z" stroke="#382B26" stroke-linecap="round" stroke-linejoin="round"/>
<path d="M167.545 86.7372C167.542 91.1675 165.784 95.4156 162.658 98.5495C159.532 101.683 155.292 103.447 150.869 103.453C150.328 103.453 149.799 103.429 149.282 103.382C146.063 103.077 143.002 101.841 140.472 99.825C137.941 97.8094 136.049 95.1008 135.027 92.0285C134.004 88.9561 133.894 85.6524 134.711 82.5188C135.528 79.3852 137.236 76.5567 139.627 74.3772C142.018 72.1977 144.99 70.7609 148.182 70.2417C151.373 69.7224 154.646 70.1429 157.603 71.4521C160.56 72.7614 163.074 74.9029 164.839 77.6164C166.604 80.3299 167.544 83.4986 167.545 86.7372V86.7372Z" stroke="#382B26" stroke-linecap="round" stroke-linejoin="round"/>
<path d="M164.876 89.7517C164.878 90.2648 164.728 90.767 164.445 91.1947C164.162 91.6224 163.759 91.9564 163.287 92.1544C162.814 92.3524 162.294 92.4054 161.791 92.3067C161.288 92.208 160.826 91.9622 160.463 91.6002C160.1 91.2382 159.853 90.7765 159.752 90.2734C159.651 89.7704 159.702 89.2487 159.897 88.7744C160.092 88.3002 160.424 87.8948 160.85 87.6095C161.275 87.3242 161.776 87.1719 162.288 87.1719C162.972 87.1719 163.629 87.4433 164.114 87.9268C164.598 88.4102 164.872 89.0664 164.876 89.7517V89.7517Z" stroke="#382B26" stroke-linecap="round" stroke-linejoin="round"/>
<path d="M141.649 96.325C141.65 96.939 141.516 97.5456 141.256 98.1015C140.995 98.6575 140.616 99.149 140.144 99.541C137.951 97.7276 136.262 95.3785 135.24 92.7203C135.887 92.3223 136.633 92.1141 137.392 92.1196C137.949 92.1117 138.501 92.2148 139.017 92.4226C139.533 92.6305 140.003 92.939 140.399 93.3303C140.795 93.7216 141.11 94.1878 141.324 94.7019C141.539 95.216 141.649 95.7678 141.649 96.325Z" stroke="#382B26" stroke-linecap="round" stroke-linejoin="round"/>
<path d="M162.288 98.9523C159.204 101.878 155.117 103.506 150.869 103.499C150.328 103.499 149.799 103.476 149.282 103.429C149.187 102.975 149.14 102.514 149.141 102.05C149.141 100.484 149.67 98.9645 150.641 97.7371C151.612 96.5097 152.968 95.6468 154.49 95.2882C156.012 94.9296 157.61 95.0963 159.026 95.7614C160.441 96.4264 161.591 97.5508 162.288 98.9523V98.9523Z" stroke="#382B26" stroke-linecap="round" stroke-linejoin="round"/>
<path d="M146.824 80.1044C148.941 80.1044 150.658 78.385 150.658 76.2641C150.658 74.1432 148.941 72.4238 146.824 72.4238C144.707 72.4238 142.99 74.1432 142.99 76.2641C142.99 78.385 144.707 80.1044 146.824 80.1044Z" stroke="#382B26" stroke-linecap="round" stroke-linejoin="round"/>
<path d="M150.376 87.1733C150.376 87.5251 150.272 87.869 150.076 88.1616C149.881 88.4541 149.604 88.6821 149.28 88.8167C148.955 88.9513 148.598 88.9866 148.254 88.9179C147.909 88.8493 147.593 88.6799 147.344 88.4311C147.096 88.1823 146.927 87.8654 146.858 87.5203C146.79 87.1753 146.825 86.8176 146.959 86.4926C147.094 86.1676 147.321 85.8898 147.613 85.6943C147.905 85.4989 148.249 85.3945 148.6 85.3945C148.833 85.3945 149.064 85.4405 149.28 85.5299C149.495 85.6193 149.691 85.7503 149.856 85.9155C150.021 86.0807 150.151 86.2768 150.241 86.4926C150.33 86.7084 150.376 86.9397 150.376 87.1733Z" stroke="#382B26" stroke-linecap="round" stroke-linejoin="round"/>
<path d="M164.404 76.9826C163.938 77.1359 163.449 77.2115 162.958 77.2064C162.316 77.2064 161.68 77.0796 161.087 76.8332C160.495 76.5867 159.956 76.2256 159.503 75.7704C159.049 75.3152 158.69 74.7748 158.446 74.1804C158.201 73.5859 158.076 72.9489 158.077 72.3059C158.065 72.1019 158.065 71.8974 158.077 71.6934C160.596 72.8963 162.772 74.7153 164.404 76.9826V76.9826Z" stroke="#382B26" stroke-linecap="round" stroke-linejoin="round"/>
<path d="M547.84 280.707L549.639 276.654L546.723 275.052C546.83 274.339 546.85 273.615 546.782 272.896L549.769 271.436L548.181 267.301L544.982 268.22C544.554 267.643 544.056 267.121 543.501 266.665L544.594 263.508L540.549 261.705L538.938 264.627C538.223 264.539 537.5 264.539 536.786 264.627L535.339 261.635L531.2 263.225L532.129 266.417C531.552 266.854 531.027 267.356 530.565 267.913L527.425 266.818L525.672 270.811L528.589 272.425C528.481 273.139 528.461 273.863 528.53 274.581L525.531 276.03L527.119 280.176L530.318 279.246C530.749 279.824 531.247 280.35 531.799 280.813L530.717 283.958L534.763 285.76L536.362 282.839C537.074 282.946 537.797 282.966 538.514 282.898L539.973 285.902L544.1 284.311L543.183 281.107C543.756 280.674 544.277 280.176 544.735 279.623L547.84 280.707ZM535.539 278.445C534.61 278.031 533.825 277.351 533.282 276.49C532.74 275.63 532.464 274.627 532.49 273.609C532.516 272.592 532.843 271.605 533.429 270.773C534.014 269.941 534.833 269.302 535.782 268.937C536.73 268.571 537.766 268.495 538.757 268.719C539.749 268.943 540.652 269.456 541.352 270.194C542.052 270.932 542.518 271.861 542.691 272.864C542.864 273.867 542.737 274.899 542.325 275.83C541.769 277.076 540.743 278.051 539.471 278.541C538.199 279.031 536.785 278.997 535.539 278.445V278.445Z" stroke="#382B26" stroke-linecap="round" stroke-linejoin="round"/>
<path d="M526.343 301.499L528.789 295.997L524.838 293.806C524.978 292.839 525.002 291.858 524.908 290.885L528.977 288.906L526.848 283.287L522.509 284.547C521.929 283.759 521.254 283.047 520.498 282.427L521.98 278.139L516.441 275.653L514.265 279.611C513.299 279.473 512.321 279.445 511.349 279.529L509.373 275.465L503.752 277.632L505.01 281.967C504.229 282.559 503.519 283.239 502.893 283.994L498.624 282.556L496.178 288.058L500.13 290.249C499.989 291.216 499.965 292.197 500.059 293.17L495.99 295.149L498.154 300.768L502.494 299.52C503.077 300.304 503.752 301.016 504.504 301.64L503.023 305.916L508.526 308.366L510.702 304.397C511.667 304.541 512.647 304.569 513.618 304.479L515.594 308.543L521.215 306.387L519.957 302.041C520.738 301.453 521.448 300.777 522.074 300.026L526.343 301.499ZM509.644 298.424C508.381 297.861 507.314 296.935 506.577 295.763C505.84 294.592 505.467 293.228 505.504 291.845C505.541 290.461 505.987 289.119 506.786 287.989C507.585 286.859 508.7 285.992 509.99 285.497C511.281 285.003 512.689 284.903 514.037 285.21C515.385 285.517 516.611 286.218 517.561 287.223C518.511 288.229 519.142 289.494 519.373 290.859C519.605 292.223 519.428 293.626 518.863 294.89C518.49 295.729 517.956 296.486 517.29 297.118C516.625 297.75 515.842 298.244 514.985 298.572C514.129 298.901 513.216 299.057 512.3 299.031C511.383 299.006 510.48 298.799 509.644 298.424Z" stroke="#382B26" stroke-linecap="round" stroke-linejoin="round"/>
<path d="M282.557 249.277C280.945 252.336 279.126 255.28 277.112 258.089C266.664 272.64 251.311 282.912 233.89 287.007C216.469 291.101 198.158 288.742 182.338 280.365C180.704 279.505 179.104 278.586 177.576 277.62C176.047 276.654 174.553 275.664 173.118 274.604C171.378 273.344 169.708 272.001 168.109 270.599C168.006 270.522 167.912 270.435 167.826 270.34C157.405 261.101 149.788 249.113 145.846 235.744C141.903 222.375 141.794 208.165 145.532 194.737C149.269 181.31 156.701 169.206 166.98 159.808C177.259 150.411 189.969 144.099 203.659 141.594C217.349 139.089 231.466 140.492 244.397 145.643C257.329 150.793 268.553 159.483 276.788 170.721C285.023 181.958 289.937 195.289 290.967 209.19C291.998 223.092 289.104 237.004 282.616 249.336L282.557 249.277Z" fill="#3DC06A"/>
<g opacity="0.6">
<path opacity="0.6" d="M282.557 249.277C280.945 252.335 279.126 255.279 277.112 258.088L275.677 256.91L273.207 255.602L270.608 254.236L271.044 251.091L270.902 248.252C270.75 245.413 272.796 247.733 274.43 246.873C275.705 245.961 276.735 244.747 277.429 243.34C277.429 243.34 278.605 239.558 278.217 238.038C277.584 236.288 276.838 234.58 275.983 232.926L271.773 238.816L268.245 238.545L264.905 236.778L264.47 232.125L262.753 231.23L262.035 228.556L252.757 225.952L251.698 224.091C250.64 222.23 246.371 221.276 246.371 221.276L247.418 218.849L249.064 216.139C250.722 213.43 252.439 217.93 252.439 217.93L254.403 218.955L258.049 215.892L259.013 211.498L264.952 211.84C264.836 211.245 264.926 210.628 265.209 210.093C265.491 209.557 265.948 209.134 266.504 208.895C268.48 208.117 267.61 203.818 266.857 202.227C266.104 200.637 263.329 201.921 263.329 201.921C263.329 201.921 260.307 197.315 259.895 195.477C259.483 193.64 265.657 194.299 268.303 192.45C270.949 190.6 270.044 186.925 268.75 186.843C267.457 186.76 271.279 178.479 278.629 180.752C280.675 181.388 281.969 181.165 282.768 180.458C288.283 191.093 291.144 202.909 291.107 214.893C291.07 226.878 288.137 238.675 282.557 249.277Z" fill="white"/>
<path opacity="0.6" d="M231.13 217.412L228.614 220.581C228.614 220.581 227.544 218.024 226.015 219.403L223.663 221.499L221.958 226.282L218.9 228.261L217.03 227.283L215.266 226.341L213.349 225.328L211.515 228.862L210.021 231.689C210.749 233.077 211.654 234.364 212.714 235.518L215.96 241.254L219.911 243.257C221.559 243.318 223.2 243.515 224.815 243.846L227.532 245.271L226.568 251.161C226.568 251.161 224.521 254.495 223.157 253.576L221.781 252.669L219.547 260.421L219.453 264.685C219.453 264.685 218.124 265.239 216.783 265.686C215.443 266.134 216.289 265.898 213.479 266.77C210.668 267.642 210.892 267.606 208.61 268.254C206.665 268.936 204.794 269.812 203.024 270.869L203.224 274.969L197.85 275.758L194.839 274.156L195.58 271.564L195.933 267.512L195.521 264.485L194.228 261.811L197.85 258.524L197.05 256.462L194.992 252.363L190.641 254.719L188.406 255.897L183.35 253.623L182.797 250.549L181.103 245.024L179.528 241.584L176.729 237.791L176.023 234.528L177.599 231.536L178.434 229.957L175.858 226.482L175.153 224.009L170.813 220.062C170.813 220.062 172.072 219.98 171.79 218.225C171.507 216.469 174.271 213.513 174.271 213.513C175.835 214.337 180.527 217.612 180.527 217.612L184.631 218.177C184.631 218.177 185.455 218.177 186.254 216.622C187.188 215.192 188.286 213.876 189.524 212.7C189.524 212.7 187.63 206.115 188.983 205.231C190.335 204.348 191.711 200.036 191.711 200.036L192.793 197.975C192.793 197.975 190.241 196.856 189.759 195.501C189.277 194.146 182.985 195.949 182.985 195.949L178.646 198.964L175.223 201.615L173.742 204.43C173.742 204.43 170.719 200.79 170.708 202.828C170.477 204.917 170.02 206.975 169.343 208.965C169.343 208.965 169.967 209.295 169.144 210.874C168.32 212.452 167.427 212.37 165.616 212.594C163.255 212.618 160.895 212.456 158.56 212.111C158.56 212.111 157.384 216.469 158.195 217.223L158.995 217.954C158.995 217.954 157.736 221.122 156.49 220.463L153.456 218.861L149.21 220.581L144.506 225.787L143.46 225.575C140.577 206.205 145.444 186.478 157.003 170.684C168.563 154.889 185.879 144.304 205.188 141.23C205.458 142.408 205.752 143.516 205.752 143.516L204.576 149.335L203.071 152.209L201.778 154.671L199.955 158.135L204.623 162.446L203.624 167.547L201.095 169.137L200.366 172.966L204.706 181.459L205.882 184.793C205.156 186.389 204.798 188.128 204.835 189.882C204.835 189.882 205.364 193.062 207.681 194.323C209.998 195.583 213.044 197.068 213.044 197.068L212.797 201.78L211.75 202.958L213.49 208.035C218.794 210.12 218.289 211.863 218.794 210.12L219.312 208.388L222.922 207.081L227.52 212.582C228.055 212.575 228.583 212.703 229.056 212.954C229.529 213.205 229.931 213.571 230.225 214.019C231.566 215.715 233.659 214.243 231.13 217.412Z" fill="white"/>
<path opacity="0.6" d="M168.802 258.441C168.932 260.113 166.815 262.21 166.815 262.21L168.543 263.117L169.073 267.829L167.767 270.327C158.518 262.142 151.462 251.766 147.246 240.146L148.187 235.152L152.338 234.563C152.338 234.563 156.054 232.089 157.701 232.749C159.347 233.408 160.852 237.461 160.852 237.461C160.852 237.461 162.028 242.926 161.876 242.82H161.805H161.899L163.592 243.716L164.075 245.871L161.723 250.348H157.936C157.936 250.348 157.183 249.947 157.113 251.915C157.174 252.597 157.381 253.259 157.72 253.854C158.059 254.45 158.522 254.965 159.077 255.366L163.169 254.318L164.263 250.077L168.285 249.288C168.285 249.288 167.708 251.891 168.649 252.386L169.602 252.892L170.166 256.002C169.745 256.253 169.397 256.61 169.158 257.038C168.918 257.466 168.796 257.95 168.802 258.441Z" fill="white"/>
<path opacity="0.6" d="M188.254 265.109C187.89 264.096 187.737 263.213 185.232 261.893C182.727 260.574 182.88 261.045 181.892 262.141C181.467 262.704 180.886 263.131 180.221 263.367C179.557 263.604 178.837 263.64 178.152 263.472C176.506 263.107 177.365 264.968 177.365 264.968L177.764 269.998L173.119 274.592C174.554 275.652 176.04 276.658 177.576 277.608L178.564 274.569L186.279 276.83C184.644 276.347 185.608 274.109 185.608 274.109L183.962 273.237C183.962 273.237 188.619 266.099 188.254 265.109Z" fill="white"/>
<path opacity="0.6" d="M236.847 238.957L234.318 236.4L231.425 237.307L230.249 239.663L229.367 241.36L230.543 243.716L232.895 246.578L234.236 244.01C234.236 244.01 237.964 244.01 239.916 241.855C241.868 239.699 236.847 238.957 236.847 238.957Z" fill="white"/>
<path opacity="0.6" d="M229.414 227.424L234.118 229.898L234.306 228.79C234.551 227.903 234.984 227.079 235.576 226.375L231.978 222.559L229.414 227.424Z" fill="white"/>
<path opacity="0.6" d="M227.814 282.261L226.462 280.27L224.886 279.445H220.076L217.336 284.652C217.336 284.652 214.714 284.299 211.268 283.992C207.822 283.686 208.669 285.111 208.669 285.111L207.775 288.386C216.469 289.459 225.283 288.984 233.812 286.984C232.821 286.292 231.792 285.655 230.731 285.076L227.814 282.261Z" fill="white"/>
</g>
<path d="M282.557 249.277C280.945 252.336 279.126 255.28 277.112 258.089C266.664 272.64 251.311 282.912 233.89 287.007C216.469 291.101 198.158 288.742 182.338 280.365C180.704 279.505 179.104 278.586 177.576 277.62C176.047 276.654 174.553 275.664 173.118 274.604C171.378 273.344 169.708 272.001 168.109 270.599C168.006 270.522 167.912 270.435 167.826 270.34V270.34C157.405 261.101 149.788 249.113 145.846 235.744C141.903 222.375 141.794 208.165 145.532 194.737C149.269 181.31 156.701 169.206 166.98 159.808C177.259 150.411 189.969 144.099 203.659 141.594C217.349 139.089 231.466 140.492 244.397 145.643C257.329 150.793 268.553 159.483 276.788 170.721C285.023 181.958 289.937 195.289 290.967 209.19C291.998 223.092 289.104 237.004 282.616 249.336L282.557 249.277Z" stroke="#382B26" stroke-linecap="round" stroke-linejoin="round"/>
<path d="M233.812 286.984C225.283 288.984 216.469 289.459 207.775 288.386L208.669 285.111C208.669 285.111 207.822 283.686 211.268 283.992C214.714 284.299 217.336 284.652 217.336 284.652L220.076 279.445H224.886L226.462 280.27L227.814 282.261L230.731 285.076C231.792 285.655 232.821 286.292 233.812 286.984Z" stroke="#382B26" stroke-linecap="round" stroke-linejoin="round"/>
<path d="M282.815 180.47C282.016 181.177 280.722 181.401 278.676 180.765C271.326 178.491 267.516 186.761 268.797 186.855C270.079 186.949 270.985 190.672 268.351 192.462C265.716 194.253 259.531 193.64 259.942 195.49C260.354 197.339 263.376 201.933 263.376 201.933C263.376 201.933 266.081 200.661 266.845 202.239C267.61 203.818 268.48 208.129 266.504 208.907C265.948 209.146 265.491 209.569 265.209 210.105C264.926 210.641 264.836 211.257 264.952 211.852L259.013 211.51L258.049 215.904L254.403 218.967L252.439 217.942C252.439 217.942 250.722 213.442 249.064 216.152L247.418 218.861L246.371 221.288C246.371 221.288 250.64 222.242 251.698 224.103L252.757 225.964L262.035 228.568L262.753 231.242L264.47 232.137L264.905 236.79L268.362 238.604L271.89 238.875L276.1 232.985C276.955 234.639 277.702 236.347 278.335 238.098C278.746 239.617 277.547 243.399 277.547 243.399C276.853 244.806 275.823 246.02 274.548 246.933C272.866 247.793 270.808 245.472 271.02 248.311L271.161 251.15L270.726 254.295L273.325 255.662L275.795 256.969L277.229 258.147" stroke="#382B26" stroke-linecap="round" stroke-linejoin="round"/>
<path d="M143.555 225.577L144.601 225.789L149.305 220.582L153.551 218.862L156.585 220.464C157.831 221.124 159.09 217.955 159.09 217.955L158.29 217.225C157.479 216.471 158.655 212.112 158.655 212.112C160.99 212.457 163.35 212.619 165.711 212.595C167.569 212.371 168.451 212.442 169.239 210.875C170.026 209.308 169.438 208.967 169.438 208.967C170.115 206.977 170.572 204.919 170.803 202.829C170.803 200.791 173.837 204.432 173.837 204.432L175.318 201.616L178.635 198.977L182.974 195.962C182.974 195.962 189.266 194.148 189.748 195.514C190.23 196.881 192.782 197.988 192.782 197.988L191.7 200.049C191.7 200.049 190.312 204.337 188.972 205.244C187.631 206.151 189.513 212.713 189.513 212.713C188.275 213.889 187.178 215.205 186.243 216.636C185.42 218.214 184.621 218.191 184.621 218.191L180.516 217.625C180.516 217.625 175.812 214.35 174.26 213.526C174.26 213.526 171.496 216.482 171.779 218.238C172.061 219.993 170.803 220.075 170.803 220.075L175.142 224.022L175.848 226.495L178.423 229.971L177.588 231.549L176.012 234.541L176.718 237.804L179.517 241.597L181.104 245.025L182.821 250.574L183.374 253.648L188.431 255.922L190.665 254.744L195.016 252.388L197.074 256.487L197.874 258.549L194.252 261.835L195.546 264.51L195.957 267.537L195.604 271.589L194.864 274.181L197.874 275.783L203.248 275.005L203.049 270.894C204.818 269.837 206.69 268.961 208.635 268.279C210.916 267.631 210.693 267.667 213.503 266.795C216.314 265.923 215.455 266.159 216.808 265.711C218.16 265.263 219.477 264.71 219.477 264.71L219.571 260.445L221.806 252.694L223.182 253.601C224.546 254.52 226.592 251.186 226.592 251.186L227.556 245.296L224.781 243.847C223.165 243.517 221.525 243.32 219.877 243.258L216.008 241.22L212.762 235.484C211.702 234.33 210.797 233.043 210.069 231.655L211.563 228.828L213.397 225.294L215.314 226.307L217.078 227.249L218.948 228.227L222.006 226.248L223.711 221.465L226.063 219.369C227.592 217.979 228.662 220.547 228.662 220.547L231.178 217.378C233.707 214.209 231.614 215.681 230.32 214.056C230.026 213.608 229.624 213.242 229.151 212.991C228.678 212.739 228.15 212.611 227.615 212.619L223.017 207.117L219.36 208.507L218.842 210.239C218.337 211.982 218.842 210.239 213.538 208.154L211.798 203.077L212.845 201.899L213.092 197.187C213.092 197.187 210.046 195.691 207.729 194.442C205.412 193.193 204.883 190.001 204.883 190.001C204.846 188.247 205.204 186.508 205.93 184.912L204.754 181.578L200.414 173.085L201.143 169.256L203.672 167.666L204.671 162.565L200.132 158.254L201.955 154.791L203.248 152.329L204.754 149.454L205.93 143.635C205.93 143.635 205.636 142.551 205.365 141.35" stroke="#382B26" stroke-linecap="round" stroke-linejoin="round"/>
<path d="M168.167 270.586C168.076 270.481 167.974 270.386 167.862 270.304V270.304L169.167 267.806L168.638 263.094L166.909 262.187C166.909 262.187 169.026 260.09 168.897 258.418C168.874 257.918 168.985 257.422 169.219 256.981C169.452 256.54 169.8 256.169 170.225 255.908L169.661 252.798L168.708 252.292C167.768 251.797 168.344 249.194 168.344 249.194L164.322 249.983L163.228 254.224L159.136 255.272C158.581 254.872 158.118 254.356 157.779 253.76C157.44 253.165 157.233 252.503 157.172 251.821C157.242 249.853 157.995 250.254 157.995 250.254H161.782L164.134 245.778L163.652 243.622L161.958 242.727" stroke="#382B26" stroke-linecap="round" stroke-linejoin="round"/>
<path d="M161.852 242.728C162.04 242.834 160.829 237.368 160.829 237.368C160.829 237.368 159.324 233.374 157.677 232.656C156.031 231.937 152.315 234.47 152.315 234.47L148.163 235.059L147.223 240.054" stroke="#382B26" stroke-linecap="round" stroke-linejoin="round"/>
<path d="M178.564 274.569L177.576 277.608C176.008 276.65 174.523 275.644 173.119 274.592L177.764 269.998L177.365 264.968C177.365 264.968 176.506 263.107 178.152 263.472C178.837 263.64 179.557 263.604 180.221 263.367C180.886 263.131 181.467 262.704 181.892 262.141C182.856 261.045 182.739 260.574 185.232 261.893C187.725 263.213 187.89 264.096 188.254 265.109C188.619 266.122 183.962 273.273 183.962 273.273L185.608 274.144C185.608 274.144 184.644 276.383 186.279 276.866L178.564 274.569Z" stroke="#382B26" stroke-linecap="round" stroke-linejoin="round"/>
<path d="M231.425 237.309L234.318 236.402L236.847 238.959C236.847 238.959 241.845 239.607 239.893 241.786C237.94 243.965 234.212 243.942 234.212 243.942L232.848 246.51L230.496 243.647L229.32 241.291L230.202 239.595L231.425 237.309Z" stroke="#382B26" stroke-linecap="round" stroke-linejoin="round"/>
<path d="M235.576 226.377C234.984 227.081 234.551 227.905 234.306 228.792L234.118 229.9L229.414 227.426L231.978 222.561L235.576 226.377Z" stroke="#382B26" stroke-linecap="round" stroke-linejoin="round"/>
<path d="M490.781 504.244C484.478 509.498 435.921 542.883 366.631 537.499C362.903 505.905 348.685 376.113 364.855 355.758C364.855 355.758 404.086 337.016 440.225 344.885C476.363 352.754 490.428 360.293 493.004 366.819C494.956 371.755 492.169 463.662 490.781 504.244Z" fill="#382B26"/>
<path d="M439.025 358.748C418.209 376.807 391.397 372.99 391.985 359.125C392.079 356.958 394.395 354.272 394.395 354.272L393.584 353.023L390.056 347.687C387.481 343.693 384.258 338.675 382.012 335.023C380.131 331.913 427.041 303.005 427.041 319.627C427.041 343.045 438.519 347.451 438.519 347.451C442.847 349.195 446.88 351.951 439.025 358.748Z" fill="white" stroke="#382B26" stroke-linecap="round" stroke-linejoin="round"/>
<path d="M452.185 394.514C452.185 394.514 447.986 408.932 449.974 413.067" stroke="white" stroke-linecap="round" stroke-linejoin="round"/>
<path d="M447.28 352.646C447.28 366.559 405.849 380.188 393.713 366.229" stroke="white" stroke-linecap="round" stroke-linejoin="round"/>
<path d="M413.201 336.59C413.201 336.59 410.425 347.074 397.489 355.261C396.872 354.2 395.876 353.413 394.702 353.058C394.313 352.995 393.915 352.995 393.526 353.058L389.998 347.722C396.689 342.892 413.201 336.59 413.201 336.59Z" fill="#382B26"/>
<path d="M419.01 323.703C419.01 323.703 418.869 334.046 416.658 336.154C400.253 351.916 384.212 353.165 381.566 349.006C363.75 321.017 367.96 313.666 366.149 308.872C362.938 300.461 358.999 286.725 360.739 278.409C364.62 259.832 399.547 245.425 417.94 264.108C426.76 273.049 429.547 292.451 427.689 308.613" fill="white"/>
<path d="M419.01 323.703C419.01 323.703 418.869 334.046 416.658 336.154C400.253 351.916 384.212 353.165 381.566 349.006C363.75 321.017 367.96 313.666 366.149 308.872C362.938 300.461 358.999 286.725 360.739 278.409C364.62 259.832 399.547 245.425 417.94 264.108C426.76 273.049 429.547 292.451 427.689 308.613" stroke="#382B26" stroke-linecap="round" stroke-linejoin="round"/>
<path d="M368.394 300.226C368.394 300.226 363.49 298.023 362.432 300.65" stroke="#382B26" stroke-linecap="round" stroke-linejoin="round"/>
<path d="M380.283 300.391C380.283 300.391 390.479 296.115 395.066 301.31" stroke="#382B26" stroke-linecap="round" stroke-linejoin="round"/>
<path d="M391.609 307.635C391.774 309.166 391.033 310.497 389.939 310.627C388.845 310.757 387.834 309.59 387.669 308.059C387.505 306.528 388.246 305.185 389.339 305.067C390.433 304.949 391.397 306.103 391.609 307.635Z" fill="#382B26"/>
<path d="M371.617 308.094C371.793 309.625 371.041 310.968 369.947 311.086C368.853 311.204 367.842 310.061 367.677 308.53C367.513 306.998 368.253 305.655 369.347 305.538C370.441 305.42 371.429 306.563 371.617 308.094Z" fill="#382B26"/>
<path d="M372.111 304.066C373.534 306.364 372.758 310.286 370.876 315.67C368.994 321.053 370.653 322.997 377.873 323.539" fill="white"/>
<path d="M372.111 304.066C373.534 306.364 372.758 310.286 370.876 315.67C368.994 321.053 370.653 322.997 377.873 323.539" stroke="#382B26" stroke-linecap="round" stroke-linejoin="round"/>
<path d="M377.873 332.857C377.873 332.857 387.281 331.997 391.585 329.629" stroke="#382B26" stroke-linecap="round" stroke-linejoin="round"/>
<path d="M437.472 279.446C437.472 272.449 430.58 258.089 418.491 256.475C411.541 249.195 401.639 246.521 389.62 249.289C361.843 255.674 353.388 283.145 352.176 287.692C352.059 288.116 352 288.352 352 288.352L359.432 286.467L356.234 292.722L360.126 295.302L359.232 296.291L363.748 300.65L362.337 292.687C363.207 287.55 369.111 280.365 369.111 280.365C366.956 283.162 365.613 286.5 365.23 290.012C367.582 283.899 381.694 278.232 381.694 278.232C377.119 281.955 374.638 289.235 374.638 289.235C378.989 283.863 389.185 280.388 395.712 278.539C397.911 283.852 401.404 289.4 406.39 292.475C411.094 295.372 410.929 301.357 410.929 301.357C415.991 304.881 419.719 310.01 421.513 315.917L427.205 323.715C427.205 323.715 437.472 311.099 437.472 279.446Z" fill="#382B26"/>
<path d="M413.517 303.36C411.612 299.272 418.527 288.199 423.431 289.565C426.183 290.343 429.781 295.373 430.487 300.65C431.192 305.928 427.465 315.964 423.49 318.144C420.961 319.557 418.88 315.705 418.88 315.705" fill="white"/>
<path d="M413.517 303.36C411.612 299.272 418.527 288.199 423.431 289.565C426.183 290.343 429.781 295.373 430.487 300.65C431.192 305.928 427.465 315.964 423.49 318.144C420.961 319.557 418.88 315.705 418.88 315.705" stroke="#382B26" stroke-linecap="round" stroke-linejoin="round"/>
<path d="M113.496 503.301L246.372 472.178L523.532 504.243L452.172 553.13L113.496 503.301Z" fill="white"/>
<path d="M113.496 503.301L246.372 472.178L523.532 504.243" fill="white"/>
<path d="M113.496 503.301L246.372 472.178L523.532 504.243" stroke="#382B26" stroke-linecap="round" stroke-linejoin="round"/>
<path d="M228.486 509.544L282.277 485.725L350.285 489.247L320.038 515.151L228.486 509.544Z" fill="white" stroke="#382B26" stroke-linecap="round" stroke-linejoin="round"/>
<path d="M367.476 354.578C350.224 361.646 346.508 377.537 317.19 440.337C317.19 440.337 304.172 443.011 297.198 458.855C290.224 474.699 301.902 487.209 315.344 486.785C315.344 486.785 320.742 491.497 331.808 491.014C342.874 490.531 391.784 415.563 391.784 415.563L367.476 354.578Z" fill="#382B26"/>
<path d="M322.33 444.023C330.045 450.903 334.478 460.998 332.126 472.189" stroke="white" stroke-linecap="round" stroke-linejoin="round"/>
<path d="M329.773 447.334C329.773 447.334 339.252 449.407 340.722 461.564" stroke="white" stroke-linecap="round" stroke-linejoin="round"/>
<path d="M357.505 411.758C353.026 400.69 351.479 388.65 353.012 376.807" stroke="white" stroke-linecap="round" stroke-linejoin="round"/>
<path d="M356.163 395.738C355.446 400.686 360.549 427.026 360.514 454.721" stroke="white" stroke-linecap="round" stroke-linejoin="round"/>
<path d="M485.124 359.785C506.704 370.646 509.268 404.066 488.911 444.024C474.529 472.225 454.678 513.868 442.118 516.659C429.558 519.451 417.305 511.618 417.305 511.618C417.305 511.618 406.721 511.123 403.522 503.584C394.772 482.98 417.011 456.947 425.713 463.178C425.713 463.178 453.655 402.311 458.747 398.471" fill="#382B26"/>
<path d="M401.523 491.062C398.665 476.844 421.009 460.069 425.713 463.179C425.713 463.179 442.307 464.11 444.788 475.607" stroke="white" stroke-linecap="round" stroke-linejoin="round"/>
<path d="M462.309 494.088C472.022 476.925 488.91 444.023 488.91 444.023" stroke="white" stroke-linecap="round" stroke-linejoin="round"/>
<path d="M425.713 463.179C425.713 463.179 437.344 456.205 446.034 462.802" stroke="white" stroke-linecap="round" stroke-linejoin="round"/>
<path d="M429.688 454.709C429.688 454.709 436.108 440.573 442.624 427.615C449.139 414.657 464.05 395.468 470.248 394.537" stroke="white" stroke-linecap="round" stroke-linejoin="round"/>
<path d="M307.125 480.117C305.728 480.049 304.363 479.675 303.126 479.022C283.134 468.573 267.588 451.303 258.227 438.911C254.587 434.174 251.237 429.222 248.195 424.08L252.993 403.488C252.993 403.488 257.509 415.268 275.655 426.848C293.801 438.428 315.357 442.245 322.33 453.942C328.504 464.132 317.626 480.624 307.125 480.117Z" fill="white"/>
<path opacity="0.4" d="M307.125 480.117C306.902 478.628 306.507 477.169 305.949 475.77C301.75 465.239 276.349 444.306 276.349 444.306C270.304 444.118 263.66 441.597 258.25 438.911C254.603 434.175 251.245 429.222 248.195 424.08L252.993 403.488C252.993 403.488 257.509 415.268 275.655 426.848C293.801 438.428 315.357 442.245 322.33 453.942C328.504 464.132 317.626 480.624 307.125 480.117Z" fill="#3DC06A"/>
<path d="M307.125 480.117C305.728 480.049 304.363 479.675 303.126 479.022C283.134 468.573 267.588 451.303 258.227 438.911C254.587 434.174 251.237 429.222 248.195 424.08L252.993 403.488C252.993 403.488 257.509 415.268 275.655 426.848C293.801 438.428 315.357 442.245 322.33 453.942C328.504 464.132 317.626 480.624 307.125 480.117Z" stroke="#382B26" stroke-linecap="round" stroke-linejoin="round"/>
<path d="M261.848 422.832C261.848 422.832 259.366 433.811 252.828 431.349C249.3 430.018 242.503 419.463 241.221 414.139L261.848 422.832Z" fill="white" stroke="#382B26" stroke-linecap="round" stroke-linejoin="round"/>
<path d="M233.025 355.227L238.364 352.471C238.364 352.471 253.453 352.6 262.813 360.222C271.316 367.149 275.632 377.998 275.632 377.998C275.632 377.998 308.666 359.727 342.405 370.211L356.164 447.029L292.907 451.175L253.429 413.609L233.025 355.227Z" fill="white" stroke="#382B26" stroke-linecap="round" stroke-linejoin="round"/>
<path d="M360.516 450.102C360.516 450.102 353.095 449.878 343.17 450.208C328.164 450.679 307.431 452.376 297.952 457.901L297.506 457.747L288.827 454.708L288.65 454.449C287.051 452.093 274.15 433.54 255.722 425.989L229.662 353.047C229.662 353.047 256.71 354.225 271.492 378.704L278.913 381.39C278.913 381.39 323.072 368.29 347.791 373.002L360.516 450.102Z" fill="#3DC06A"/>
<path opacity="0.3" d="M288.65 454.461C287.051 452.105 274.15 433.551 255.722 426L229.662 353.059C229.662 353.059 256.71 354.237 271.492 378.715L288.65 454.461Z" fill="black" fill-opacity="0.7"/>
<path opacity="0.3" d="M343.17 450.208C328.164 450.679 307.432 452.376 297.953 457.901L297.506 457.747L280.172 384.028C280.172 384.028 294.354 380.836 298.717 382.45C298.706 382.473 327.541 403.783 343.17 450.208Z" fill="black" fill-opacity="0.7"/>
<path d="M360.516 450.102C360.516 450.102 353.095 449.878 343.17 450.208C328.164 450.679 307.431 452.376 297.952 457.901L297.506 457.747L288.827 454.708L288.65 454.449C287.051 452.093 274.15 433.54 255.722 425.989L229.662 353.047C229.662 353.047 256.71 354.225 271.492 378.704L278.913 381.39C278.913 381.39 323.072 368.29 347.791 373.002L360.516 450.102Z" stroke="#382B26" stroke-linecap="round" stroke-linejoin="round"/>
<path d="M278.936 381.402L295.952 452.118" stroke="#382B26" stroke-linecap="round" stroke-linejoin="round"/>
<path d="M288.826 454.721L272.291 384.053" stroke="#382B26" stroke-linecap="round" stroke-linejoin="round"/>
<path d="M246.819 424.14C243.044 423.091 235.435 400.368 238.916 390.579C238.916 390.579 243.056 383.381 244.796 382.886C247.43 382.121 258.062 382.344 257.544 384.135C256.368 388.282 248.207 388.211 248.207 388.211L245.561 393.064L245.666 395.738C245.666 395.738 249.512 392.935 250.923 393.017C251.652 393.017 255.416 394.902 258.403 396.48C260.954 397.835 262.519 398.577 261.931 399.802C260.037 403.878 251.982 400.98 251.982 400.98L248.948 405.563C248.948 405.563 251.876 406.069 253.158 406.211C254.439 406.352 265.082 413.455 264.765 414.339C263.506 417.802 253.416 414.056 253.416 414.056L251.629 415.552C251.629 415.552 259.061 417.472 259.861 417.755C261.037 418.191 265.564 421.678 265.494 422.078C264.953 425.141 258.708 422.891 258.708 422.891L253.24 422.667C252.407 423.403 251.405 423.921 250.323 424.175" fill="white"/>
<path d="M246.819 424.14C243.044 423.091 235.435 400.368 238.916 390.579C238.916 390.579 243.056 383.381 244.796 382.886C247.43 382.121 258.062 382.344 257.544 384.135C256.368 388.282 248.207 388.211 248.207 388.211L245.561 393.064L245.666 395.738C245.666 395.738 249.512 392.935 250.923 393.017C251.652 393.017 255.416 394.902 258.403 396.48C260.954 397.835 262.519 398.577 261.931 399.802C260.037 403.878 251.982 400.98 251.982 400.98L248.948 405.563C248.948 405.563 251.876 406.069 253.158 406.211C254.439 406.352 265.082 413.455 264.765 414.339C263.506 417.802 253.416 414.056 253.416 414.056L251.629 415.552C251.629 415.552 259.061 417.472 259.861 417.755C261.037 418.191 265.564 421.678 265.494 422.078C264.953 425.141 258.708 422.891 258.708 422.891L253.24 422.667C252.407 423.403 251.405 423.921 250.323 424.175" stroke="#382B26" stroke-linecap="round" stroke-linejoin="round"/>
<path d="M245.62 395.738C245.62 395.738 242.092 398.707 241.187 399.567C240.281 400.427 240.505 403.16 240.505 403.16" stroke="#382B26" stroke-linecap="round" stroke-linejoin="round"/>
<path d="M243.068 409.191C243.068 412.184 245.068 413.998 245.985 414.964C246.902 415.93 244.515 418.557 247.161 420.441" stroke="#382B26" stroke-linecap="round" stroke-linejoin="round"/>
<path d="M417.257 504.032C409.789 506.07 401.675 492.924 391.773 478.576C385.234 469.152 377.919 459.103 369.511 452.66C368.841 452.153 368.159 451.658 367.477 451.187L372.392 426.449C382.6 431.809 388.927 440.397 399.523 449.22C416.575 463.438 431.686 472.167 435.873 478.458C440.059 484.748 430.052 500.534 417.257 504.032Z" fill="white"/>
<path opacity="0.4" d="M391.773 478.563C385.235 469.139 377.92 459.091 369.512 452.647C370.62 452.704 371.728 452.535 372.769 452.152C372.769 452.152 386.058 462.955 391.773 478.563Z" fill="#3DC06A"/>
<path d="M417.257 504.032C409.789 506.07 401.675 492.924 391.773 478.576C385.234 469.152 377.919 459.103 369.511 452.66C368.841 452.153 368.159 451.658 367.477 451.187L372.392 426.449C382.6 431.809 388.927 440.397 399.523 449.22C416.575 463.438 431.686 472.167 435.873 478.458C440.059 484.748 430.052 500.534 417.257 504.032Z" stroke="#382B26" stroke-linecap="round" stroke-linejoin="round"/>
<path d="M375.144 450.208C374.633 451.123 373.791 451.806 372.792 452.116C372.526 452.221 372.256 452.311 371.981 452.387H371.757C363.866 454.449 346.109 450.161 346.109 450.161C346.109 450.161 334.478 444.624 333.772 443.317C333.281 442.281 332.845 441.219 332.467 440.136L332.15 439.205C332.15 439.205 327.963 436.849 327.446 435.012C326.928 433.174 326.046 432.656 328.622 432.326C331.197 431.996 345.086 432.326 345.086 432.326L329.974 426.153C329.974 426.153 319.966 421.1 319.037 419.321C318.108 417.542 316.944 416.364 322.059 417.071C327.175 417.778 338.347 421.029 338.347 421.029L347.155 422.902L338.406 419.168C338.406 419.168 321.189 417.083 324.447 411.723H334.219C339.755 411.967 345.262 412.669 350.683 413.819C353.529 414.691 372.345 426.401 372.345 426.401" fill="white"/>
<path opacity="0.4" d="M371.734 452.435C363.843 454.496 346.085 450.208 346.085 450.208C346.085 450.208 334.454 444.672 333.749 443.364C333.257 442.328 332.821 441.266 332.443 440.184L346.72 441.75C346.221 442.651 345.959 443.665 345.959 444.695C345.959 445.726 346.221 446.739 346.72 447.64C348.308 450.503 366.395 453.401 371.734 452.435Z" fill="#3DC06A"/>
<path d="M375.144 450.208C374.633 451.123 373.791 451.806 372.792 452.116C372.526 452.221 372.256 452.311 371.981 452.387H371.757C363.866 454.449 346.109 450.161 346.109 450.161C346.109 450.161 334.478 444.624 333.772 443.317C333.281 442.281 332.845 441.219 332.467 440.136L332.15 439.205C332.15 439.205 327.963 436.849 327.446 435.012C326.928 433.174 326.046 432.656 328.622 432.326C331.197 431.996 345.086 432.326 345.086 432.326L329.974 426.153C329.974 426.153 319.966 421.1 319.037 419.321C318.108 417.542 316.944 416.364 322.059 417.071C327.175 417.778 338.347 421.029 338.347 421.029L347.155 422.902L338.406 419.168C338.406 419.168 321.189 417.083 324.447 411.723H334.219C339.755 411.967 345.262 412.669 350.683 413.819C353.529 414.691 372.345 426.401 372.345 426.401" stroke="#382B26" stroke-linecap="round" stroke-linejoin="round"/>
<path d="M332.127 439.254L349.308 441.787" stroke="#382B26" stroke-linecap="round" stroke-linejoin="round"/>
<path d="M160.854 491.957L203.919 504.915L282.711 486.904C282.711 486.904 234.589 473.215 234.142 473.557C233.695 473.899 160.854 491.957 160.854 491.957Z" fill="#3DC06A"/>
<path opacity="0.3" d="M160.854 491.957L203.919 504.915L282.711 486.904C282.711 486.904 234.589 473.215 234.142 473.557C233.695 473.899 160.854 491.957 160.854 491.957Z" fill="black" fill-opacity="0.7"/>
<path d="M160.854 491.957L203.919 504.915L282.711 486.904C282.711 486.904 234.589 473.215 234.142 473.557C233.695 473.899 160.854 491.957 160.854 491.957Z" stroke="#382B26" stroke-linecap="round" stroke-linejoin="round"/>
<path d="M161.478 476.76C158.455 476.972 157.703 487.881 160.854 491.956L230.426 477.491L236.001 464.273L161.478 476.76Z" fill="#3DC06A"/>
<path opacity="0.3" d="M161.478 476.76C158.455 476.972 157.703 487.881 160.854 491.956L230.426 477.491L236.001 464.273L161.478 476.76Z" fill="black" fill-opacity="0.7"/>
<path d="M161.478 476.76C158.455 476.972 157.703 487.881 160.854 491.956L230.427 477.491L236.001 464.273L161.478 476.76Z" stroke="#382B26" stroke-linecap="round" stroke-linejoin="round"/>
<path d="M279.336 476.608C279.336 476.608 278.301 482.345 278.972 485.879L203.837 502.913L164.229 491.227C164.229 491.227 160.113 483.935 163.7 478.269L236.071 465.959L279.336 476.608Z" fill="white" stroke="#382B26" stroke-linecap="round" stroke-linejoin="round"/>
<path d="M161.477 476.76L236 464.273L282.275 476.018L204.448 491.556L161.477 476.76Z" fill="#3DC06A" stroke="#382B26" stroke-linecap="round" stroke-linejoin="round"/>
<path d="M164.123 483.735L203.531 495.491L268.034 482.486" stroke="#382B26" stroke-linecap="round" stroke-linejoin="round"/>
<path d="M278.759 483.688L209.398 498.507" stroke="#382B26" stroke-linecap="round" stroke-linejoin="round"/>
<path d="M165.053 488.363C165.652 488.422 194.758 497.398 194.758 497.398" stroke="#382B26" stroke-linecap="round" stroke-linejoin="round"/>
<path d="M273.092 480.966L278.607 480.07" stroke="#382B26" stroke-linecap="round" stroke-linejoin="round"/>
<path d="M202.249 499.58L199.32 498.92" stroke="#382B26" stroke-linecap="round" stroke-linejoin="round"/>
<path d="M163.699 478.27C165.241 480.049 166.134 482.301 166.23 484.656C166.326 487.01 165.62 489.328 164.228 491.228C162.94 489.333 162.207 487.115 162.114 484.824C162.02 482.534 162.569 480.263 163.699 478.27Z" fill="#382B26"/>
<path opacity="0.3" d="M163.699 478.27C165.241 480.049 166.134 482.301 166.23 484.656C166.326 487.01 165.62 489.328 164.228 491.228C162.94 489.333 162.207 487.115 162.114 484.824C162.02 482.534 162.569 480.263 163.699 478.27Z" fill="white" fill-opacity="0.7"/>
<path d="M163.699 478.27C165.241 480.049 166.134 482.301 166.23 484.656C166.326 487.01 165.62 489.328 164.228 491.228C162.94 489.333 162.207 487.115 162.114 484.824C162.02 482.534 162.569 480.263 163.699 478.27Z" stroke="#382B26" stroke-linecap="round" stroke-linejoin="round"/>
<path d="M324.659 495.49L399.864 498.577L392.537 524.504L300.021 520.97L324.659 495.49Z" fill="white"/>
<path opacity="0.4" d="M324.659 495.49L399.864 498.577L392.537 524.504L300.021 520.97L324.659 495.49Z" fill="#3DC06A"/>
<path d="M324.659 495.49L399.864 498.577L392.537 524.504L300.021 520.97L324.659 495.49Z" stroke="#382B26" stroke-linecap="round" stroke-linejoin="round"/>
</svg>
