<svg width="173" height="350" viewBox="0 0 173 350" fill="none" xmlns="http://www.w3.org/2000/svg">
<path d="M10.7105 6.14765C10.5256 7.15795 10.0454 8.09079 9.33071 8.82838C8.61598 9.56597 7.6987 10.0752 6.69473 10.2918C5.69076 10.5084 4.64512 10.4226 3.68986 10.0453C2.73461 9.66804 1.91258 9.01613 1.3276 8.17193C0.742616 7.32772 0.420916 6.3291 0.403124 5.30218C0.385332 4.27526 0.672244 3.2661 1.22763 2.40214C1.78302 1.53818 2.58197 0.858174 3.52358 0.448004C4.46519 0.037833 5.50724 -0.0841055 6.51811 0.0975832C7.87104 0.354119 9.06888 1.13226 9.8532 2.26411C10.6375 3.39597 10.9454 4.7908 10.7105 6.14765Z" fill="#B4D7EC"/>
<path d="M51.1042 6.14813C50.9183 7.1591 50.4367 8.09223 49.7204 8.82946C49.004 9.5667 48.0852 10.0749 47.08 10.2899C46.0747 10.5048 45.0284 10.4168 44.0732 10.0369C43.118 9.65709 42.2969 9.00249 41.7138 8.15595C41.1307 7.30941 40.8118 6.30895 40.7974 5.28113C40.783 4.2533 41.0737 3.24428 41.6328 2.38171C42.1919 1.51914 42.9943 0.841773 43.9385 0.435286C44.8826 0.028798 45.9261 -0.0885431 46.9369 0.0981018C48.2852 0.360351 49.4769 1.14088 50.2561 2.27208C51.0353 3.40327 51.3398 4.79491 51.1042 6.14813Z" fill="#B4D7EC"/>
<path d="M91.2682 6.14813C91.0823 7.1591 90.6007 8.09223 89.8844 8.82946C89.1681 9.5667 88.2492 10.0749 87.244 10.2899C86.2388 10.5048 85.1924 10.4168 84.2372 10.0369C83.282 9.65709 82.461 9.00249 81.8779 8.15595C81.2948 7.30941 80.9759 6.30895 80.9614 5.28113C80.947 4.2533 81.2378 3.24428 81.7969 2.38171C82.356 1.51914 83.1584 0.841773 84.1025 0.435286C85.0467 0.028798 86.0901 -0.0885431 87.101 0.0981018C88.4524 0.354345 89.6482 1.13352 90.4285 2.26633C91.2088 3.39915 91.5105 4.7941 91.2682 6.14813Z" fill="#B4D7EC"/>
<path d="M131.663 6.14813C131.477 7.1591 130.995 8.09223 130.279 8.82946C129.563 9.5667 128.644 10.0749 127.639 10.2899C126.633 10.5048 125.587 10.4168 124.632 10.0369C123.677 9.65709 122.856 9.00249 122.272 8.15595C121.689 7.30941 121.37 6.30895 121.356 5.28113C121.342 4.2533 121.632 3.24428 122.191 2.38171C122.751 1.51914 123.553 0.841773 124.497 0.435286C125.441 0.028798 126.485 -0.0885431 127.496 0.0981018C128.847 0.354345 130.043 1.13352 130.823 2.26633C131.603 3.39915 131.905 4.7941 131.663 6.14813Z" fill="#B4D7EC"/>
<path d="M172.004 6.14844C171.88 6.82097 171.625 7.46256 171.254 8.03658C170.882 8.61061 170.401 9.10583 169.838 9.49396C169.275 9.88209 168.641 10.1555 167.973 10.2987C167.304 10.4418 166.614 10.4519 165.941 10.3283C165.269 10.2046 164.627 9.94975 164.053 9.57817C163.479 9.20658 162.984 8.72558 162.596 8.16262C162.208 7.59965 161.934 6.96575 161.791 6.29711C161.648 5.62846 161.638 4.93817 161.762 4.26564C162.011 2.90741 162.79 1.70399 163.927 0.920125C165.064 0.136259 166.466 -0.163846 167.824 0.0858289C169.182 0.335503 170.386 1.11451 171.17 2.25147C171.954 3.38843 172.254 4.79021 172.004 6.14844Z" fill="#B4D7EC"/>
<path d="M10.7105 39.9875C10.5256 40.9978 10.0454 41.9306 9.33071 42.6682C8.61598 43.4058 7.6987 43.9151 6.69473 44.1317C5.69076 44.3483 4.64512 44.2625 3.68986 43.8852C2.73461 43.5079 1.91258 42.856 1.3276 42.0118C0.742616 41.1676 0.420916 40.1689 0.403124 39.142C0.385332 38.1151 0.672244 37.1059 1.22763 36.242C1.78302 35.378 2.58197 34.698 3.52358 34.2878C4.46519 33.8777 5.50724 33.7557 6.51811 33.9374C7.87104 34.194 9.06888 34.9721 9.8532 36.104C10.6375 37.2358 10.9454 38.6306 10.7105 39.9875Z" fill="#B4D7EC"/>
<path d="M51.1042 39.988C50.9183 40.999 50.4367 41.9321 49.7204 42.6694C49.004 43.4066 48.0852 43.9148 47.08 44.1298C46.0747 44.3447 45.0284 44.2567 44.0732 43.8768C43.118 43.497 42.2969 42.8424 41.7138 41.9959C41.1307 41.1493 40.8118 40.1488 40.7974 39.121C40.783 38.0932 41.0737 37.0841 41.6328 36.2216C42.1919 35.359 42.9943 34.6816 43.9385 34.2751C44.8826 33.8686 45.9261 33.7513 46.9369 33.9379C48.2852 34.2002 49.4769 34.9807 50.2561 36.1119C51.0353 37.2431 51.3398 38.6348 51.1042 39.988Z" fill="#B4D7EC"/>
<path d="M91.2682 39.988C91.0823 40.999 90.6007 41.9321 89.8844 42.6694C89.1681 43.4066 88.2492 43.9148 87.244 44.1298C86.2388 44.3447 85.1924 44.2567 84.2372 43.8768C83.282 43.497 82.461 42.8424 81.8779 41.9959C81.2948 41.1493 80.9759 40.1488 80.9614 39.121C80.947 38.0932 81.2378 37.0841 81.7969 36.2216C82.356 35.359 83.1584 34.6816 84.1025 34.2751C85.0467 33.8686 86.0901 33.7513 87.101 33.9379C88.4524 34.1942 89.6482 34.9734 90.4285 36.1062C91.2088 37.239 91.5105 38.634 91.2682 39.988Z" fill="#B4D7EC"/>
<path d="M131.663 39.988C131.477 40.999 130.995 41.9321 130.279 42.6694C129.563 43.4066 128.644 43.9148 127.639 44.1298C126.633 44.3447 125.587 44.2567 124.632 43.8768C123.677 43.497 122.856 42.8424 122.272 41.9959C121.689 41.1493 121.37 40.1488 121.356 39.121C121.342 38.0932 121.632 37.0841 122.191 36.2216C122.751 35.359 123.553 34.6816 124.497 34.2751C125.441 33.8686 126.485 33.7513 127.496 33.9379C128.847 34.1942 130.043 34.9734 130.823 36.1062C131.603 37.239 131.905 38.634 131.663 39.988Z" fill="#B4D7EC"/>
<path d="M172.004 39.9883C171.88 40.6608 171.625 41.3024 171.254 41.8764C170.882 42.4505 170.401 42.9457 169.838 43.3338C169.275 43.7219 168.641 43.9954 167.973 44.1385C167.304 44.2817 166.614 44.2917 165.941 44.1681C165.269 44.0445 164.627 43.7896 164.053 43.418C163.479 43.0464 162.984 42.5654 162.596 42.0025C162.208 41.4395 161.934 40.8056 161.791 40.1369C161.648 39.4683 161.638 38.778 161.762 38.1055C162.011 36.7473 162.79 35.5438 163.927 34.76C165.064 33.9761 166.466 33.676 167.824 33.9257C169.182 34.1753 170.386 34.9543 171.17 36.0913C171.954 37.2283 172.254 38.6301 172.004 39.9883Z" fill="#B4D7EC"/>
<path d="M10.7105 73.9289C10.5256 74.9392 10.0454 75.872 9.33071 76.6096C8.61598 77.3472 7.6987 77.8565 6.69473 78.0731C5.69076 78.2897 4.64512 78.2039 3.68986 77.8266C2.73461 77.4493 1.91258 76.7974 1.3276 75.9532C0.742616 75.109 0.420916 74.1104 0.403124 73.0834C0.385332 72.0565 0.672244 71.0473 1.22763 70.1834C1.78302 69.3194 2.58197 68.6394 3.52358 68.2293C4.46519 67.8191 5.50724 67.6971 6.51811 67.8788C7.87104 68.1354 9.06888 68.9135 9.8532 70.0454C10.6375 71.1772 10.9454 72.572 10.7105 73.9289Z" fill="#B4D7EC"/>
<path d="M51.1042 73.9294C50.9183 74.9403 50.4367 75.8734 49.7204 76.6107C49.004 77.3479 48.0852 77.8561 47.08 78.071C46.0747 78.286 45.0284 78.198 44.0732 77.8181C43.118 77.4383 42.2969 76.7837 41.7138 75.9372C41.1307 75.0906 40.8118 74.0902 40.7974 73.0624C40.783 72.0345 41.0737 71.0255 41.6328 70.163C42.1919 69.3004 42.9943 68.623 43.9385 68.2165C44.8826 67.8101 45.9261 67.6927 46.9369 67.8793C48.2852 68.1416 49.4769 68.9221 50.2561 70.0533C51.0353 71.1845 51.3398 72.5761 51.1042 73.9294Z" fill="#B4D7EC"/>
<path d="M91.2682 73.9294C91.0823 74.9403 90.6007 75.8734 89.8844 76.6107C89.1681 77.3479 88.2492 77.8561 87.244 78.071C86.2388 78.286 85.1924 78.198 84.2372 77.8181C83.282 77.4383 82.461 76.7837 81.8779 75.9372C81.2948 75.0906 80.9759 74.0902 80.9614 73.0624C80.947 72.0345 81.2378 71.0255 81.7969 70.163C82.356 69.3004 83.1584 68.623 84.1025 68.2165C85.0467 67.8101 86.0901 67.6927 87.101 67.8793C88.4524 68.1356 89.6482 68.9148 90.4285 70.0476C91.2088 71.1804 91.5105 72.5753 91.2682 73.9294Z" fill="#B4D7EC"/>
<path d="M131.663 73.9294C131.477 74.9403 130.995 75.8734 130.279 76.6107C129.563 77.3479 128.644 77.8561 127.639 78.071C126.633 78.286 125.587 78.198 124.632 77.8181C123.677 77.4383 122.856 76.7837 122.272 75.9372C121.689 75.0906 121.37 74.0902 121.356 73.0624C121.342 72.0345 121.632 71.0255 122.191 70.163C122.751 69.3004 123.553 68.623 124.497 68.2165C125.441 67.8101 126.485 67.6927 127.496 67.8793C128.847 68.1356 130.043 68.9148 130.823 70.0476C131.603 71.1804 131.905 72.5753 131.663 73.9294Z" fill="#B4D7EC"/>
<path d="M172.004 73.9297C171.88 74.6022 171.625 75.2438 171.254 75.8178C170.882 76.3919 170.401 76.8871 169.838 77.2752C169.275 77.6633 168.641 77.9368 167.973 78.0799C167.304 78.2231 166.614 78.2331 165.941 78.1095C165.269 77.9859 164.627 77.731 164.053 77.3594C163.479 76.9878 162.984 76.5068 162.596 75.9439C162.208 75.3809 161.934 74.747 161.791 74.0784C161.648 73.4097 161.638 72.7194 161.762 72.0469C162.011 70.6887 162.79 69.4852 163.927 68.7014C165.064 67.9175 166.466 67.6174 167.824 67.8671C169.182 68.1168 170.386 68.8958 171.17 70.0327C171.954 71.1697 172.254 72.5715 172.004 73.9297Z" fill="#B4D7EC"/>
<path d="M10.7105 107.919C10.5256 108.929 10.0454 109.862 9.33071 110.6C8.61598 111.337 7.6987 111.847 6.69473 112.063C5.69076 112.28 4.64512 112.194 3.68986 111.817C2.73461 111.44 1.91258 110.788 1.3276 109.943C0.742616 109.099 0.420916 108.101 0.403124 107.074C0.385332 106.047 0.672244 105.038 1.22763 104.174C1.78302 103.31 2.58197 102.63 3.52358 102.219C4.46519 101.809 5.50724 101.687 6.51811 101.869C7.87104 102.126 9.06888 102.904 9.8532 104.036C10.6375 105.167 10.9454 106.562 10.7105 107.919Z" fill="#B4D7EC"/>
<path d="M51.1042 107.92C50.9183 108.931 50.4367 109.864 49.7204 110.601C49.004 111.338 48.0852 111.846 47.08 112.061C46.0747 112.276 45.0284 112.188 44.0732 111.808C43.118 111.429 42.2969 110.774 41.7138 109.927C41.1307 109.081 40.8118 108.08 40.7974 107.053C40.783 106.025 41.0737 105.016 41.6328 104.153C42.1919 103.291 42.9943 102.613 43.9385 102.207C44.8826 101.8 45.9261 101.683 46.9369 101.87C48.2852 102.132 49.4769 102.912 50.2561 104.044C51.0353 105.175 51.3398 106.566 51.1042 107.92Z" fill="#B4D7EC"/>
<path d="M91.2682 107.92C91.0823 108.931 90.6007 109.864 89.8844 110.601C89.1681 111.338 88.2492 111.846 87.244 112.061C86.2388 112.276 85.1924 112.188 84.2372 111.808C83.282 111.429 82.461 110.774 81.8779 109.927C81.2948 109.081 80.9759 108.08 80.9614 107.053C80.947 106.025 81.2378 105.016 81.7969 104.153C82.356 103.291 83.1584 102.613 84.1025 102.207C85.0467 101.8 86.0901 101.683 87.101 101.87C88.4524 102.126 89.6482 102.905 90.4285 104.038C91.2088 105.171 91.5105 106.566 91.2682 107.92Z" fill="#B4D7EC"/>
<path d="M131.663 107.92C131.477 108.931 130.995 109.864 130.279 110.601C129.563 111.338 128.644 111.846 127.639 112.061C126.633 112.276 125.587 112.188 124.632 111.808C123.677 111.429 122.856 110.774 122.272 109.927C121.689 109.081 121.37 108.08 121.356 107.053C121.342 106.025 121.632 105.016 122.191 104.153C122.751 103.291 123.553 102.613 124.497 102.207C125.441 101.8 126.485 101.683 127.496 101.87C128.847 102.126 130.043 102.905 130.823 104.038C131.603 105.171 131.905 106.566 131.663 107.92Z" fill="#B4D7EC"/>
<path d="M172.004 107.918C171.88 108.591 171.625 109.232 171.254 109.806C170.882 110.38 170.401 110.875 169.838 111.263C169.275 111.652 168.641 111.925 167.973 112.068C167.304 112.211 166.614 112.221 165.941 112.098C165.269 111.974 164.627 111.719 164.053 111.348C163.479 110.976 162.984 110.495 162.596 109.932C162.208 109.369 161.934 108.735 161.791 108.067C161.648 107.398 161.638 106.708 161.762 106.035C162.011 104.677 162.79 103.474 163.927 102.69C165.064 101.906 166.466 101.606 167.824 101.855C169.182 102.105 170.386 102.884 171.17 104.021C171.954 105.158 172.254 106.56 172.004 107.918Z" fill="#B4D7EC"/>
<path d="M10.7105 141.886C10.5256 142.896 10.0454 143.829 9.33071 144.567C8.61598 145.304 7.6987 145.814 6.69473 146.03C5.69076 146.247 4.64512 146.161 3.68986 145.784C2.73461 145.406 1.91258 144.754 1.3276 143.91C0.742616 143.066 0.420916 142.067 0.403124 141.04C0.385332 140.014 0.672244 139.004 1.22763 138.14C1.78302 137.276 2.58197 136.596 3.52358 136.186C4.46519 135.776 5.50724 135.654 6.51811 135.836C7.87104 136.092 9.06888 136.871 9.8532 138.002C10.6375 139.134 10.9454 140.529 10.7105 141.886Z" fill="#B4D7EC"/>
<path d="M51.1042 141.884C50.9183 142.895 50.4367 143.829 49.7204 144.566C49.004 145.303 48.0852 145.811 47.08 146.026C46.0747 146.241 45.0284 146.153 44.0732 145.773C43.118 145.393 42.2969 144.739 41.7138 143.892C41.1307 143.046 40.8118 142.045 40.7974 141.017C40.783 139.99 41.0737 138.981 41.6328 138.118C42.1919 137.255 42.9943 136.578 43.9385 136.172C44.8826 135.765 45.9261 135.648 46.9369 135.834C48.2852 136.097 49.4769 136.877 50.2561 138.008C51.0353 139.14 51.3398 140.531 51.1042 141.884Z" fill="#B4D7EC"/>
<path d="M91.2682 141.884C91.0823 142.895 90.6007 143.829 89.8844 144.566C89.1681 145.303 88.2492 145.811 87.244 146.026C86.2388 146.241 85.1924 146.153 84.2372 145.773C83.282 145.393 82.461 144.739 81.8779 143.892C81.2948 143.046 80.9759 142.045 80.9614 141.017C80.947 139.99 81.2378 138.981 81.7969 138.118C82.356 137.255 83.1584 136.578 84.1025 136.172C85.0467 135.765 86.0901 135.648 87.101 135.834C88.4524 136.091 89.6482 136.87 90.4285 138.003C91.2088 139.135 91.5105 140.53 91.2682 141.884Z" fill="#B4D7EC"/>
<path d="M131.663 141.884C131.477 142.895 130.995 143.829 130.279 144.566C129.563 145.303 128.644 145.811 127.639 146.026C126.633 146.241 125.587 146.153 124.632 145.773C123.677 145.393 122.856 144.739 122.272 143.892C121.689 143.046 121.37 142.045 121.356 141.017C121.342 139.99 121.632 138.981 122.191 138.118C122.751 137.255 123.553 136.578 124.497 136.172C125.441 135.765 126.485 135.648 127.496 135.834C128.847 136.091 130.043 136.87 130.823 138.003C131.603 139.135 131.905 140.53 131.663 141.884Z" fill="#B4D7EC"/>
<path d="M172.004 141.885C171.88 142.557 171.625 143.199 171.254 143.773C170.882 144.347 170.401 144.842 169.838 145.23C169.275 145.618 168.641 145.892 167.973 146.035C167.304 146.178 166.614 146.188 165.941 146.065C165.269 145.941 164.627 145.686 164.053 145.315C163.479 144.943 162.984 144.462 162.596 143.899C162.208 143.336 161.934 142.702 161.791 142.033C161.648 141.365 161.638 140.674 161.762 140.002C162.011 138.644 162.79 137.44 163.927 136.656C165.064 135.873 166.466 135.572 167.824 135.822C169.182 136.072 170.386 136.851 171.17 137.988C171.954 139.125 172.254 140.527 172.004 141.885Z" fill="#B4D7EC"/>
<path d="M10.7105 175.851C10.5256 176.861 10.0454 177.794 9.33071 178.532C8.61598 179.269 7.69871 179.778 6.69473 179.995C5.69076 180.212 4.64512 180.126 3.68987 179.749C2.73461 179.371 1.91258 178.719 1.3276 177.875C0.742616 177.031 0.420916 176.032 0.403124 175.005C0.385332 173.978 0.672244 172.969 1.22763 172.105C1.78302 171.241 2.58197 170.561 3.52358 170.151C4.46519 169.741 5.50724 169.619 6.51812 169.801C7.8742 170.051 9.07615 170.828 9.86159 171.961C10.647 173.095 10.9522 174.493 10.7105 175.851Z" fill="#B4D7EC"/>
<path d="M51.1042 175.851C50.9183 176.862 50.4367 177.795 49.7204 178.533C49.0041 179.27 48.0852 179.778 47.08 179.993C46.0747 180.208 45.0284 180.12 44.0732 179.74C43.118 179.36 42.2969 178.706 41.7138 177.859C41.1307 177.013 40.8118 176.012 40.7974 174.984C40.783 173.956 41.0737 172.947 41.6328 172.085C42.1919 171.222 42.9943 170.545 43.9385 170.138C44.8826 169.732 45.9261 169.615 46.9369 169.801C48.2884 170.057 49.4842 170.837 50.2645 171.969C51.0448 173.102 51.3465 174.497 51.1042 175.851Z" fill="#B4D7EC"/>
<path d="M91.2682 175.851C91.0823 176.862 90.6007 177.795 89.8844 178.533C89.1681 179.27 88.2492 179.778 87.244 179.993C86.2388 180.208 85.1924 180.12 84.2372 179.74C83.282 179.36 82.461 178.706 81.8779 177.859C81.2948 177.013 80.9759 176.012 80.9614 174.984C80.947 173.956 81.2378 172.947 81.7969 172.085C82.356 171.222 83.1584 170.545 84.1025 170.138C85.0467 169.732 86.0901 169.615 87.101 169.801C88.4556 170.051 89.6556 170.829 90.437 171.964C91.2184 173.098 91.5174 174.496 91.2682 175.851Z" fill="#B4D7EC"/>
<path d="M131.663 175.851C131.477 176.862 130.995 177.795 130.279 178.533C129.563 179.27 128.644 179.778 127.639 179.993C126.633 180.208 125.587 180.12 124.632 179.74C123.677 179.36 122.856 178.706 122.272 177.859C121.689 177.013 121.37 176.012 121.356 174.984C121.342 173.956 121.632 172.947 122.191 172.085C122.751 171.222 123.553 170.545 124.497 170.138C125.441 169.732 126.485 169.615 127.496 169.801C128.85 170.051 130.05 170.829 130.832 171.964C131.613 173.098 131.912 174.496 131.663 175.851Z" fill="#B4D7EC"/>
<path d="M172.003 175.851C171.819 176.861 171.338 177.794 170.624 178.532C169.909 179.269 168.992 179.778 167.988 179.995C166.984 180.212 165.938 180.126 164.983 179.749C164.028 179.371 163.206 178.719 162.621 177.875C162.036 177.031 161.714 176.032 161.696 175.005C161.678 173.978 161.965 172.969 162.521 172.105C163.076 171.241 163.875 170.561 164.817 170.151C165.758 169.741 166.8 169.619 167.811 169.801C169.167 170.051 170.369 170.828 171.155 171.961C171.94 173.095 172.245 174.493 172.003 175.851Z" fill="#B4D7EC"/>
<path d="M10.7105 209.816C10.5256 210.826 10.0454 211.759 9.33071 212.496C8.61598 213.234 7.69871 213.743 6.69473 213.96C5.69076 214.176 4.64512 214.09 3.68987 213.713C2.73461 213.336 1.91258 212.684 1.3276 211.84C0.742616 210.996 0.420916 209.997 0.403124 208.97C0.385332 207.943 0.672244 206.934 1.22763 206.07C1.78302 205.206 2.58197 204.526 3.52358 204.116C4.46519 203.706 5.50724 203.584 6.51812 203.766C7.8742 204.016 9.07615 204.793 9.86159 205.926C10.647 207.06 10.9522 208.458 10.7105 209.816Z" fill="#B4D7EC"/>
<path d="M51.1042 209.816C50.9183 210.827 50.4367 211.76 49.7204 212.498C49.0041 213.235 48.0852 213.743 47.08 213.958C46.0747 214.173 45.0284 214.085 44.0732 213.705C43.118 213.325 42.2969 212.671 41.7138 211.824C41.1307 210.978 40.8118 209.977 40.7974 208.949C40.783 207.921 41.0737 206.912 41.6328 206.05C42.1919 205.187 42.9943 204.51 43.9385 204.103C44.8826 203.697 45.9261 203.579 46.9369 203.766C48.2884 204.022 49.4842 204.801 50.2645 205.934C51.0448 207.067 51.3465 208.462 51.1042 209.816Z" fill="#B4D7EC"/>
<path d="M91.2682 209.816C91.0823 210.827 90.6007 211.76 89.8844 212.498C89.1681 213.235 88.2492 213.743 87.244 213.958C86.2388 214.173 85.1924 214.085 84.2372 213.705C83.282 213.325 82.461 212.671 81.8779 211.824C81.2948 210.978 80.9759 209.977 80.9614 208.949C80.947 207.921 81.2378 206.912 81.7969 206.05C82.356 205.187 83.1584 204.51 84.1025 204.103C85.0467 203.697 86.0901 203.579 87.101 203.766C88.4556 204.016 89.6556 204.794 90.437 205.928C91.2184 207.063 91.5174 208.461 91.2682 209.816Z" fill="#B4D7EC"/>
<path d="M131.663 209.816C131.477 210.827 130.995 211.76 130.279 212.498C129.563 213.235 128.644 213.743 127.639 213.958C126.633 214.173 125.587 214.085 124.632 213.705C123.677 213.325 122.856 212.671 122.272 211.824C121.689 210.978 121.37 209.977 121.356 208.949C121.342 207.921 121.632 206.912 122.191 206.05C122.751 205.187 123.553 204.51 124.497 204.103C125.441 203.697 126.485 203.579 127.496 203.766C128.85 204.016 130.05 204.794 130.832 205.928C131.613 207.063 131.912 208.461 131.663 209.816Z" fill="#B4D7EC"/>
<path d="M166.857 214.084C169.727 214.084 172.053 211.758 172.053 208.888C172.053 206.018 169.727 203.691 166.857 203.691C163.987 203.691 161.66 206.018 161.66 208.888C161.66 211.758 163.987 214.084 166.857 214.084Z" fill="#B4D7EC"/>
<path d="M10.7105 243.782C10.5256 244.793 10.0454 245.726 9.33071 246.463C8.61598 247.201 7.69871 247.71 6.69473 247.927C5.69076 248.143 4.64512 248.057 3.68987 247.68C2.73461 247.303 1.91258 246.651 1.3276 245.807C0.742616 244.962 0.420916 243.964 0.403124 242.937C0.385332 241.91 0.672244 240.901 1.22763 240.037C1.78302 239.173 2.58197 238.493 3.52358 238.083C4.46519 237.673 5.50724 237.551 6.51812 237.732C7.8742 237.983 9.07615 238.76 9.86159 239.893C10.647 241.027 10.9522 242.425 10.7105 243.782Z" fill="#B4D7EC"/>
<path d="M51.1042 243.781C50.9183 244.792 50.4367 245.725 49.7204 246.462C49.0041 247.2 48.0852 247.708 47.08 247.923C46.0747 248.138 45.0284 248.05 44.0732 247.67C43.118 247.29 42.2969 246.635 41.7138 245.789C41.1307 244.942 40.8118 243.942 40.7974 242.914C40.783 241.886 41.0737 240.877 41.6328 240.015C42.1919 239.152 42.9943 238.475 43.9385 238.068C44.8826 237.662 45.9261 237.544 46.9369 237.731C48.2884 237.987 49.4842 238.766 50.2645 239.899C51.0448 241.032 51.3465 242.427 51.1042 243.781Z" fill="#B4D7EC"/>
<path d="M91.2682 243.781C91.0823 244.792 90.6007 245.725 89.8844 246.462C89.1681 247.2 88.2492 247.708 87.244 247.923C86.2388 248.138 85.1924 248.05 84.2372 247.67C83.282 247.29 82.461 246.635 81.8779 245.789C81.2948 244.942 80.9759 243.942 80.9614 242.914C80.947 241.886 81.2378 240.877 81.7969 240.015C82.356 239.152 83.1584 238.475 84.1025 238.068C85.0467 237.662 86.0901 237.544 87.101 237.731C88.4556 237.981 89.6556 238.759 90.437 239.893C91.2184 241.028 91.5174 242.426 91.2682 243.781Z" fill="#B4D7EC"/>
<path d="M131.663 243.781C131.477 244.792 130.995 245.725 130.279 246.462C129.563 247.2 128.644 247.708 127.639 247.923C126.633 248.138 125.587 248.05 124.632 247.67C123.677 247.29 122.856 246.635 122.272 245.789C121.689 244.942 121.37 243.942 121.356 242.914C121.342 241.886 121.632 240.877 122.191 240.015C122.751 239.152 123.553 238.475 124.497 238.068C125.441 237.662 126.485 237.544 127.496 237.731C128.85 237.981 130.05 238.759 130.832 239.893C131.613 241.028 131.912 242.426 131.663 243.781Z" fill="#B4D7EC"/>
<path d="M166.857 248.049C169.727 248.049 172.053 245.723 172.053 242.853C172.053 239.983 169.727 237.656 166.857 237.656C163.987 237.656 161.66 239.983 161.66 242.853C161.66 245.723 163.987 248.049 166.857 248.049Z" fill="#B4D7EC"/>
<path d="M10.7105 277.747C10.5256 278.758 10.0454 279.69 9.33071 280.428C8.61598 281.166 7.69871 281.675 6.69473 281.891C5.69076 282.108 4.64512 282.022 3.68987 281.645C2.73461 281.268 1.91258 280.616 1.3276 279.772C0.742616 278.927 0.420916 277.929 0.403124 276.902C0.385332 275.875 0.672244 274.866 1.22763 274.002C1.78302 273.138 2.58197 272.458 3.52358 272.048C4.46519 271.637 5.50724 271.516 6.51812 271.697C7.8742 271.948 9.07615 272.724 9.86159 273.858C10.647 274.991 10.9522 276.39 10.7105 277.747Z" fill="#B4D7EC"/>
<path d="M51.1042 277.748C50.9183 278.759 50.4367 279.692 49.7204 280.429C49.0041 281.167 48.0852 281.675 47.08 281.89C46.0747 282.105 45.0284 282.017 44.0732 281.637C43.118 281.257 42.2969 280.602 41.7138 279.756C41.1307 278.909 40.8118 277.909 40.7974 276.881C40.783 275.853 41.0737 274.844 41.6328 273.981C42.1919 273.119 42.9943 272.441 43.9385 272.035C44.8826 271.628 45.9261 271.511 46.9369 271.698C48.2884 271.954 49.4842 272.733 50.2645 273.866C51.0448 274.999 51.3465 276.394 51.1042 277.748Z" fill="#B4D7EC"/>
<path d="M91.2682 277.748C91.0823 278.759 90.6007 279.692 89.8844 280.429C89.1681 281.167 88.2492 281.675 87.244 281.89C86.2388 282.105 85.1924 282.017 84.2372 281.637C83.282 281.257 82.461 280.602 81.8779 279.756C81.2948 278.909 80.9759 277.909 80.9614 276.881C80.947 275.853 81.2378 274.844 81.7969 273.981C82.356 273.119 83.1584 272.441 84.1025 272.035C85.0467 271.628 86.0901 271.511 87.101 271.698C88.4556 271.948 89.6556 272.726 90.437 273.86C91.2184 274.995 91.5174 276.393 91.2682 277.748Z" fill="#B4D7EC"/>
<path d="M131.663 277.748C131.477 278.759 130.995 279.692 130.279 280.429C129.563 281.167 128.644 281.675 127.639 281.89C126.633 282.105 125.587 282.017 124.632 281.637C123.677 281.257 122.856 280.602 122.272 279.756C121.689 278.909 121.37 277.909 121.356 276.881C121.342 275.853 121.632 274.844 122.191 273.981C122.751 273.119 123.553 272.441 124.497 272.035C125.441 271.628 126.485 271.511 127.496 271.698C128.85 271.948 130.05 272.726 130.832 273.86C131.613 274.995 131.912 276.393 131.663 277.748Z" fill="#B4D7EC"/>
<path d="M166.857 282.014C169.727 282.014 172.053 279.688 172.053 276.818C172.053 273.948 169.727 271.621 166.857 271.621C163.987 271.621 161.66 273.948 161.66 276.818C161.66 279.688 163.987 282.014 166.857 282.014Z" fill="#B4D7EC"/>
<path d="M10.7105 311.714C10.5256 312.724 10.0454 313.657 9.33071 314.395C8.61598 315.132 7.69871 315.642 6.69473 315.858C5.69076 316.075 4.64512 315.989 3.68987 315.612C2.73461 315.234 1.91258 314.583 1.3276 313.738C0.742616 312.894 0.420916 311.895 0.403124 310.869C0.385332 309.842 0.672244 308.832 1.22763 307.969C1.78302 307.105 2.58197 306.425 3.52358 306.014C4.46519 305.604 5.50724 305.482 6.51812 305.664C7.8742 305.914 9.07615 306.691 9.86159 307.825C10.647 308.958 10.9522 310.356 10.7105 311.714Z" fill="#B4D7EC"/>
<path d="M51.1042 311.713C50.9183 312.724 50.4367 313.657 49.7204 314.394C49.0041 315.131 48.0852 315.639 47.08 315.854C46.0747 316.069 45.0284 315.981 44.0732 315.601C43.118 315.222 42.2969 314.567 41.7138 313.72C41.1307 312.874 40.8118 311.873 40.7974 310.846C40.783 309.818 41.0737 308.809 41.6328 307.946C42.1919 307.084 42.9943 306.406 43.9385 306C44.8826 305.593 45.9261 305.476 46.9369 305.663C48.2884 305.919 49.4842 306.698 50.2645 307.831C51.0448 308.964 51.3465 310.359 51.1042 311.713Z" fill="#B4D7EC"/>
<path d="M91.2682 311.713C91.0823 312.724 90.6007 313.657 89.8844 314.394C89.1681 315.131 88.2492 315.639 87.244 315.854C86.2388 316.069 85.1924 315.981 84.2372 315.601C83.282 315.222 82.461 314.567 81.8779 313.72C81.2948 312.874 80.9759 311.873 80.9614 310.846C80.947 309.818 81.2378 308.809 81.7969 307.946C82.356 307.084 83.1584 306.406 84.1025 306C85.0467 305.593 86.0901 305.476 87.101 305.663C88.4556 305.913 89.6556 306.69 90.437 307.825C91.2184 308.959 91.5174 310.358 91.2682 311.713Z" fill="#B4D7EC"/>
<path d="M131.663 311.713C131.477 312.724 130.995 313.657 130.279 314.394C129.563 315.131 128.644 315.639 127.639 315.854C126.633 316.069 125.587 315.981 124.632 315.601C123.677 315.222 122.856 314.567 122.272 313.72C121.689 312.874 121.37 311.873 121.356 310.846C121.342 309.818 121.632 308.809 122.191 307.946C122.751 307.084 123.553 306.406 124.497 306C125.441 305.593 126.485 305.476 127.496 305.663C128.85 305.913 130.05 306.69 130.832 307.825C131.613 308.959 131.912 310.358 131.663 311.713Z" fill="#B4D7EC"/>
<path d="M166.857 315.981C169.727 315.981 172.053 313.654 172.053 310.784C172.053 307.914 169.727 305.588 166.857 305.588C163.987 305.588 161.66 307.914 161.66 310.784C161.66 313.654 163.987 315.981 166.857 315.981Z" fill="#B4D7EC"/>
<path d="M10.7105 345.679C10.5256 346.689 10.0454 347.622 9.33071 348.36C8.61598 349.097 7.69871 349.606 6.69473 349.823C5.69076 350.04 4.64512 349.954 3.68987 349.576C2.73461 349.199 1.91258 348.547 1.3276 347.703C0.742616 346.859 0.420916 345.86 0.403124 344.833C0.385332 343.806 0.672244 342.797 1.22763 341.933C1.78302 341.069 2.58197 340.389 3.52358 339.979C4.46519 339.569 5.50724 339.447 6.51812 339.629C7.8742 339.879 9.07615 340.656 9.86159 341.79C10.647 342.923 10.9522 344.321 10.7105 345.679Z" fill="#B4D7EC"/>
<path d="M51.1042 345.679C50.9183 346.69 50.4367 347.624 49.7204 348.361C49.0041 349.098 48.0852 349.606 47.08 349.821C46.0747 350.036 45.0284 349.948 44.0732 349.568C43.118 349.188 42.2969 348.534 41.7138 347.687C41.1307 346.841 40.8118 345.84 40.7974 344.812C40.783 343.785 41.0737 342.776 41.6328 341.913C42.1919 341.05 42.9943 340.373 43.9385 339.967C44.8826 339.56 45.9261 339.443 46.9369 339.629C48.2884 339.886 49.4842 340.665 50.2645 341.798C51.0448 342.93 51.3465 344.325 51.1042 345.679Z" fill="#B4D7EC"/>
<path d="M91.2682 345.679C91.0823 346.69 90.6007 347.624 89.8844 348.361C89.1681 349.098 88.2492 349.606 87.244 349.821C86.2388 350.036 85.1924 349.948 84.2372 349.568C83.282 349.188 82.461 348.534 81.8779 347.687C81.2948 346.841 80.9759 345.84 80.9614 344.812C80.947 343.785 81.2378 342.776 81.7969 341.913C82.356 341.05 83.1584 340.373 84.1025 339.967C85.0467 339.56 86.0901 339.443 87.101 339.629C88.4556 339.879 89.6556 340.657 90.437 341.792C91.2184 342.926 91.5174 344.325 91.2682 345.679Z" fill="#B4D7EC"/>
<path d="M131.663 345.679C131.477 346.69 130.995 347.624 130.279 348.361C129.563 349.098 128.644 349.606 127.639 349.821C126.633 350.036 125.587 349.948 124.632 349.568C123.677 349.188 122.856 348.534 122.272 347.687C121.689 346.841 121.37 345.84 121.356 344.812C121.342 343.785 121.632 342.776 122.191 341.913C122.751 341.05 123.553 340.373 124.497 339.967C125.441 339.56 126.485 339.443 127.496 339.629C128.85 339.879 130.05 340.657 130.832 341.792C131.613 342.926 131.912 344.325 131.663 345.679Z" fill="#B4D7EC"/>
<path d="M166.857 349.948C169.727 349.948 172.053 347.621 172.053 344.751C172.053 341.881 169.727 339.555 166.857 339.555C163.987 339.555 161.66 341.881 161.66 344.751C161.66 347.621 163.987 349.948 166.857 349.948Z" fill="#B4D7EC"/>
</svg>
