<svg width="136" height="350" viewBox="0 0 136 350" fill="none" xmlns="http://www.w3.org/2000/svg">
<path d="M14.7019 6.14813C14.5159 7.1591 14.0344 8.09223 13.318 8.82946C12.6017 9.5667 11.6828 10.0749 10.6776 10.2899C9.6724 10.5048 8.62601 10.4168 7.67083 10.0369C6.71565 9.65709 5.89459 9.00249 5.31149 8.15595C4.7284 7.30941 4.40946 6.30895 4.39504 5.28113C4.38062 4.2533 4.67136 3.24428 5.23048 2.38171C5.7896 1.51914 6.59198 0.841773 7.53613 0.435286C8.48027 0.028798 9.52375 -0.0885431 10.5346 0.0981018C11.8829 0.360351 13.0746 1.14088 13.8538 2.27208C14.6329 3.40327 14.9374 4.79491 14.7019 6.14813Z" fill="#B4D7EC"/>
<path d="M54.8659 6.14813C54.68 7.1591 54.1984 8.09223 53.4821 8.82946C52.7657 9.5667 51.8469 10.0749 50.8417 10.2899C49.8364 10.5048 48.7901 10.4168 47.8349 10.0369C46.8797 9.65709 46.0586 9.00249 45.4755 8.15595C44.8924 7.30941 44.5735 6.30895 44.5591 5.28113C44.5447 4.2533 44.8354 3.24428 45.3945 2.38171C45.9536 1.51914 46.756 0.841773 47.7002 0.435286C48.6443 0.028798 49.6878 -0.0885431 50.6986 0.0981018C52.0501 0.354345 53.2459 1.13352 54.0262 2.26633C54.8064 3.39915 55.1082 4.7941 54.8659 6.14813Z" fill="#B4D7EC"/>
<path d="M95.2604 6.14813C95.0745 7.1591 94.5929 8.09223 93.8766 8.82946C93.1603 9.5667 92.2414 10.0749 91.2362 10.2899C90.231 10.5048 89.1846 10.4168 88.2294 10.0369C87.2743 9.65709 86.4532 9.00249 85.8701 8.15595C85.287 7.30941 84.9681 6.30895 84.9536 5.28113C84.9392 4.2533 85.23 3.24428 85.7891 2.38171C86.3482 1.51914 87.1506 0.841773 88.0947 0.435286C89.0389 0.028798 90.0823 -0.0885431 91.0932 0.0981018C92.4447 0.354345 93.6404 1.13352 94.4207 2.26633C95.201 3.39915 95.5027 4.7941 95.2604 6.14813Z" fill="#B4D7EC"/>
<path d="M135.602 6.14844C135.478 6.82097 135.223 7.46256 134.852 8.03658C134.48 8.61061 133.999 9.10583 133.436 9.49396C132.873 9.88209 132.239 10.1555 131.571 10.2987C130.902 10.4418 130.212 10.4519 129.539 10.3283C128.867 10.2046 128.225 9.94975 127.651 9.57817C127.077 9.20658 126.582 8.72558 126.194 8.16262C125.805 7.59965 125.532 6.96575 125.389 6.29711C125.246 5.62846 125.236 4.93817 125.359 4.26564C125.609 2.90741 126.388 1.70399 127.525 0.920125C128.662 0.136259 130.064 -0.163846 131.422 0.0858289C132.78 0.335503 133.983 1.11451 134.767 2.25147C135.551 3.38843 135.851 4.79021 135.602 6.14844Z" fill="#B4D7EC"/>
<path d="M14.7019 39.988C14.5159 40.999 14.0344 41.9321 13.318 42.6694C12.6017 43.4066 11.6828 43.9148 10.6776 44.1298C9.6724 44.3447 8.62601 44.2567 7.67083 43.8768C6.71565 43.497 5.89459 42.8424 5.31149 41.9959C4.7284 41.1493 4.40946 40.1488 4.39504 39.121C4.38062 38.0932 4.67136 37.0841 5.23048 36.2216C5.7896 35.359 6.59198 34.6816 7.53613 34.2751C8.48027 33.8686 9.52375 33.7513 10.5346 33.9379C11.8829 34.2002 13.0746 34.9807 13.8538 36.1119C14.6329 37.2431 14.9374 38.6348 14.7019 39.988Z" fill="#B4D7EC"/>
<path d="M54.8659 39.988C54.68 40.999 54.1984 41.9321 53.4821 42.6694C52.7657 43.4066 51.8469 43.9148 50.8417 44.1298C49.8364 44.3447 48.7901 44.2567 47.8349 43.8768C46.8797 43.497 46.0586 42.8424 45.4755 41.9959C44.8924 41.1493 44.5735 40.1488 44.5591 39.121C44.5447 38.0932 44.8354 37.0841 45.3945 36.2216C45.9536 35.359 46.756 34.6816 47.7002 34.2751C48.6443 33.8686 49.6878 33.7513 50.6986 33.9379C52.0501 34.1942 53.2459 34.9734 54.0262 36.1062C54.8064 37.239 55.1082 38.634 54.8659 39.988Z" fill="#B4D7EC"/>
<path d="M95.2604 39.988C95.0745 40.999 94.5929 41.9321 93.8766 42.6694C93.1603 43.4066 92.2414 43.9148 91.2362 44.1298C90.231 44.3447 89.1846 44.2567 88.2294 43.8768C87.2743 43.497 86.4532 42.8424 85.8701 41.9959C85.287 41.1493 84.9681 40.1488 84.9536 39.121C84.9392 38.0932 85.23 37.0841 85.7891 36.2216C86.3482 35.359 87.1506 34.6816 88.0947 34.2751C89.0389 33.8686 90.0823 33.7513 91.0932 33.9379C92.4447 34.1942 93.6404 34.9734 94.4207 36.1062C95.201 37.239 95.5027 38.634 95.2604 39.988Z" fill="#B4D7EC"/>
<path d="M135.602 39.9883C135.478 40.6608 135.223 41.3024 134.852 41.8764C134.48 42.4505 133.999 42.9457 133.436 43.3338C132.873 43.7219 132.239 43.9954 131.571 44.1385C130.902 44.2817 130.212 44.2917 129.539 44.1681C128.867 44.0445 128.225 43.7896 127.651 43.418C127.077 43.0464 126.582 42.5654 126.194 42.0025C125.805 41.4395 125.532 40.8056 125.389 40.1369C125.246 39.4683 125.236 38.778 125.359 38.1055C125.609 36.7473 126.388 35.5438 127.525 34.76C128.662 33.9761 130.064 33.676 131.422 33.9257C132.78 34.1753 133.983 34.9543 134.767 36.0913C135.551 37.2283 135.851 38.6301 135.602 39.9883Z" fill="#B4D7EC"/>
<path d="M14.7019 73.9294C14.5159 74.9403 14.0344 75.8734 13.318 76.6107C12.6017 77.3479 11.6828 77.8561 10.6776 78.071C9.6724 78.286 8.62601 78.198 7.67083 77.8181C6.71565 77.4383 5.89459 76.7837 5.31149 75.9372C4.7284 75.0906 4.40946 74.0902 4.39504 73.0624C4.38062 72.0345 4.67136 71.0255 5.23048 70.163C5.7896 69.3004 6.59198 68.623 7.53613 68.2165C8.48027 67.8101 9.52375 67.6927 10.5346 67.8793C11.8829 68.1416 13.0746 68.9221 13.8538 70.0533C14.6329 71.1845 14.9374 72.5761 14.7019 73.9294Z" fill="#B4D7EC"/>
<path d="M54.8659 73.9294C54.68 74.9403 54.1984 75.8734 53.4821 76.6107C52.7657 77.3479 51.8469 77.8561 50.8417 78.071C49.8364 78.286 48.7901 78.198 47.8349 77.8181C46.8797 77.4383 46.0586 76.7837 45.4755 75.9372C44.8924 75.0906 44.5735 74.0902 44.5591 73.0624C44.5447 72.0345 44.8354 71.0255 45.3945 70.163C45.9536 69.3004 46.756 68.623 47.7002 68.2165C48.6443 67.8101 49.6878 67.6927 50.6986 67.8793C52.0501 68.1356 53.2459 68.9148 54.0262 70.0476C54.8064 71.1804 55.1082 72.5753 54.8659 73.9294Z" fill="#B4D7EC"/>
<path d="M95.2604 73.9294C95.0745 74.9403 94.5929 75.8734 93.8766 76.6107C93.1603 77.3479 92.2414 77.8561 91.2362 78.071C90.231 78.286 89.1846 78.198 88.2294 77.8181C87.2743 77.4383 86.4532 76.7837 85.8701 75.9372C85.287 75.0906 84.9681 74.0902 84.9536 73.0624C84.9392 72.0345 85.23 71.0255 85.7891 70.163C86.3482 69.3004 87.1506 68.623 88.0947 68.2165C89.0389 67.8101 90.0823 67.6927 91.0932 67.8793C92.4447 68.1356 93.6404 68.9148 94.4207 70.0476C95.201 71.1804 95.5027 72.5753 95.2604 73.9294Z" fill="#B4D7EC"/>
<path d="M135.602 73.9297C135.478 74.6022 135.223 75.2438 134.852 75.8178C134.48 76.3919 133.999 76.8871 133.436 77.2752C132.873 77.6633 132.239 77.9368 131.571 78.0799C130.902 78.2231 130.212 78.2331 129.539 78.1095C128.867 77.9859 128.225 77.731 127.651 77.3594C127.077 76.9878 126.582 76.5068 126.194 75.9439C125.805 75.3809 125.532 74.747 125.389 74.0784C125.246 73.4097 125.236 72.7194 125.359 72.0469C125.609 70.6887 126.388 69.4852 127.525 68.7014C128.662 67.9175 130.064 67.6174 131.422 67.8671C132.78 68.1168 133.983 68.8958 134.767 70.0327C135.551 71.1697 135.851 72.5715 135.602 73.9297Z" fill="#B4D7EC"/>
<path d="M14.7019 107.92C14.5159 108.931 14.0344 109.864 13.318 110.601C12.6017 111.338 11.6828 111.846 10.6776 112.061C9.6724 112.276 8.62601 112.188 7.67083 111.808C6.71565 111.429 5.89459 110.774 5.31149 109.927C4.7284 109.081 4.40946 108.08 4.39504 107.053C4.38062 106.025 4.67136 105.016 5.23048 104.153C5.7896 103.291 6.59198 102.613 7.53613 102.207C8.48027 101.8 9.52375 101.683 10.5346 101.87C11.8829 102.132 13.0746 102.912 13.8538 104.044C14.6329 105.175 14.9374 106.566 14.7019 107.92Z" fill="#B4D7EC"/>
<path d="M54.8659 107.92C54.68 108.931 54.1984 109.864 53.4821 110.601C52.7657 111.338 51.8469 111.846 50.8417 112.061C49.8364 112.276 48.7901 112.188 47.8349 111.808C46.8797 111.429 46.0586 110.774 45.4755 109.927C44.8924 109.081 44.5735 108.08 44.5591 107.053C44.5447 106.025 44.8354 105.016 45.3945 104.153C45.9536 103.291 46.756 102.613 47.7002 102.207C48.6443 101.8 49.6878 101.683 50.6986 101.87C52.0501 102.126 53.2459 102.905 54.0262 104.038C54.8064 105.171 55.1082 106.566 54.8659 107.92Z" fill="#B4D7EC"/>
<path d="M95.2604 107.92C95.0745 108.931 94.5929 109.864 93.8766 110.601C93.1603 111.338 92.2414 111.846 91.2362 112.061C90.231 112.276 89.1846 112.188 88.2294 111.808C87.2743 111.429 86.4532 110.774 85.8701 109.927C85.287 109.081 84.9681 108.08 84.9536 107.053C84.9392 106.025 85.23 105.016 85.7891 104.153C86.3482 103.291 87.1506 102.613 88.0947 102.207C89.0389 101.8 90.0823 101.683 91.0932 101.87C92.4447 102.126 93.6404 102.905 94.4207 104.038C95.201 105.171 95.5027 106.566 95.2604 107.92Z" fill="#B4D7EC"/>
<path d="M135.602 107.918C135.478 108.591 135.223 109.232 134.852 109.806C134.48 110.38 133.999 110.875 133.436 111.263C132.873 111.652 132.239 111.925 131.571 112.068C130.902 112.211 130.212 112.221 129.539 112.098C128.867 111.974 128.225 111.719 127.651 111.348C127.077 110.976 126.582 110.495 126.194 109.932C125.805 109.369 125.532 108.735 125.389 108.067C125.246 107.398 125.236 106.708 125.359 106.035C125.609 104.677 126.388 103.474 127.525 102.69C128.662 101.906 130.064 101.606 131.422 101.855C132.78 102.105 133.983 102.884 134.767 104.021C135.551 105.158 135.851 106.56 135.602 107.918Z" fill="#B4D7EC"/>
<path d="M14.7019 141.884C14.5159 142.895 14.0344 143.829 13.318 144.566C12.6017 145.303 11.6828 145.811 10.6776 146.026C9.6724 146.241 8.62601 146.153 7.67083 145.773C6.71565 145.393 5.89459 144.739 5.31149 143.892C4.7284 143.046 4.40946 142.045 4.39504 141.017C4.38062 139.99 4.67136 138.981 5.23048 138.118C5.7896 137.255 6.59198 136.578 7.53613 136.172C8.48027 135.765 9.52375 135.648 10.5346 135.834C11.8829 136.097 13.0746 136.877 13.8538 138.008C14.6329 139.14 14.9374 140.531 14.7019 141.884Z" fill="#B4D7EC"/>
<path d="M54.8659 141.884C54.68 142.895 54.1984 143.829 53.4821 144.566C52.7657 145.303 51.8469 145.811 50.8417 146.026C49.8364 146.241 48.7901 146.153 47.8349 145.773C46.8797 145.393 46.0586 144.739 45.4755 143.892C44.8924 143.046 44.5735 142.045 44.5591 141.017C44.5447 139.99 44.8354 138.981 45.3945 138.118C45.9536 137.255 46.756 136.578 47.7002 136.172C48.6443 135.765 49.6878 135.648 50.6986 135.834C52.0501 136.091 53.2459 136.87 54.0262 138.003C54.8064 139.135 55.1082 140.53 54.8659 141.884Z" fill="#B4D7EC"/>
<path d="M95.2604 141.884C95.0745 142.895 94.5929 143.829 93.8766 144.566C93.1603 145.303 92.2414 145.811 91.2362 146.026C90.231 146.241 89.1846 146.153 88.2294 145.773C87.2743 145.393 86.4532 144.739 85.8701 143.892C85.287 143.046 84.9681 142.045 84.9536 141.017C84.9392 139.99 85.23 138.981 85.7891 138.118C86.3482 137.255 87.1506 136.578 88.0947 136.172C89.0389 135.765 90.0823 135.648 91.0932 135.834C92.4447 136.091 93.6404 136.87 94.4207 138.003C95.201 139.135 95.5027 140.53 95.2604 141.884Z" fill="#B4D7EC"/>
<path d="M135.602 141.885C135.478 142.557 135.223 143.199 134.852 143.773C134.48 144.347 133.999 144.842 133.436 145.23C132.873 145.618 132.239 145.892 131.571 146.035C130.902 146.178 130.212 146.188 129.539 146.065C128.867 145.941 128.225 145.686 127.651 145.315C127.077 144.943 126.582 144.462 126.194 143.899C125.805 143.336 125.532 142.702 125.389 142.033C125.246 141.365 125.236 140.674 125.359 140.002C125.609 138.644 126.388 137.44 127.525 136.656C128.662 135.873 130.064 135.572 131.422 135.822C132.78 136.072 133.983 136.851 134.767 137.988C135.551 139.125 135.851 140.527 135.602 141.885Z" fill="#B4D7EC"/>
<path d="M14.7019 175.851C14.5159 176.862 14.0344 177.795 13.318 178.533C12.6017 179.27 11.6828 179.778 10.6776 179.993C9.6724 180.208 8.62601 180.12 7.67083 179.74C6.71565 179.36 5.89459 178.706 5.31149 177.859C4.7284 177.013 4.40946 176.012 4.39504 174.984C4.38062 173.956 4.67136 172.947 5.23048 172.085C5.7896 171.222 6.59198 170.545 7.53613 170.138C8.48028 169.732 9.52375 169.615 10.5346 169.801C11.8861 170.057 13.0818 170.837 13.8621 171.969C14.6424 173.102 14.9442 174.497 14.7019 175.851Z" fill="#B4D7EC"/>
<path d="M54.8659 175.851C54.68 176.862 54.1984 177.795 53.4821 178.533C52.7657 179.27 51.8469 179.778 50.8417 179.993C49.8364 180.208 48.7901 180.12 47.8349 179.74C46.8797 179.36 46.0586 178.706 45.4755 177.859C44.8924 177.013 44.5735 176.012 44.5591 174.984C44.5447 173.956 44.8354 172.947 45.3945 172.085C45.9536 171.222 46.756 170.545 47.7002 170.138C48.6443 169.732 49.6878 169.615 50.6986 169.801C52.0533 170.051 53.2532 170.829 54.0346 171.964C54.8161 173.098 55.1151 174.496 54.8659 175.851Z" fill="#B4D7EC"/>
<path d="M95.2604 175.851C95.0745 176.862 94.5929 177.795 93.8766 178.533C93.1603 179.27 92.2414 179.778 91.2362 179.993C90.231 180.208 89.1846 180.12 88.2294 179.74C87.2743 179.36 86.4532 178.706 85.8701 177.859C85.287 177.013 84.9681 176.012 84.9536 174.984C84.9392 173.956 85.23 172.947 85.7891 172.085C86.3482 171.222 87.1506 170.545 88.0947 170.138C89.0389 169.732 90.0823 169.615 91.0932 169.801C92.4479 170.051 93.6478 170.829 94.4292 171.964C95.2106 173.098 95.5096 174.496 95.2604 175.851Z" fill="#B4D7EC"/>
<path d="M135.601 175.851C135.416 176.861 134.936 177.794 134.221 178.532C133.507 179.269 132.589 179.778 131.585 179.995C130.581 180.212 129.536 180.126 128.581 179.749C127.625 179.371 126.803 178.719 126.218 177.875C125.633 177.031 125.312 176.032 125.294 175.005C125.276 173.978 125.563 172.969 126.118 172.105C126.674 171.241 127.473 170.561 128.414 170.151C129.356 169.741 130.398 169.619 131.409 169.801C132.765 170.051 133.967 170.828 134.752 171.961C135.538 173.095 135.843 174.493 135.601 175.851Z" fill="#B4D7EC"/>
<path d="M14.7019 209.816C14.5159 210.827 14.0344 211.76 13.318 212.498C12.6017 213.235 11.6828 213.743 10.6776 213.958C9.6724 214.173 8.62601 214.085 7.67083 213.705C6.71565 213.325 5.89459 212.671 5.31149 211.824C4.7284 210.978 4.40946 209.977 4.39504 208.949C4.38062 207.921 4.67136 206.912 5.23048 206.05C5.7896 205.187 6.59198 204.51 7.53613 204.103C8.48028 203.697 9.52375 203.579 10.5346 203.766C11.8861 204.022 13.0818 204.801 13.8621 205.934C14.6424 207.067 14.9442 208.462 14.7019 209.816Z" fill="#B4D7EC"/>
<path d="M54.8659 209.816C54.68 210.827 54.1984 211.76 53.4821 212.498C52.7657 213.235 51.8469 213.743 50.8417 213.958C49.8364 214.173 48.7901 214.085 47.8349 213.705C46.8797 213.325 46.0586 212.671 45.4755 211.824C44.8924 210.978 44.5735 209.977 44.5591 208.949C44.5447 207.921 44.8354 206.912 45.3945 206.05C45.9536 205.187 46.756 204.51 47.7002 204.103C48.6443 203.697 49.6878 203.579 50.6986 203.766C52.0533 204.016 53.2532 204.794 54.0346 205.928C54.8161 207.063 55.1151 208.461 54.8659 209.816Z" fill="#B4D7EC"/>
<path d="M95.2604 209.816C95.0745 210.827 94.5929 211.76 93.8766 212.498C93.1603 213.235 92.2414 213.743 91.2362 213.958C90.231 214.173 89.1846 214.085 88.2294 213.705C87.2743 213.325 86.4532 212.671 85.8701 211.824C85.287 210.978 84.9681 209.977 84.9536 208.949C84.9392 207.921 85.23 206.912 85.7891 206.05C86.3482 205.187 87.1506 204.51 88.0947 204.103C89.0389 203.697 90.0823 203.579 91.0932 203.766C92.4479 204.016 93.6478 204.794 94.4292 205.928C95.2106 207.063 95.5096 208.461 95.2604 209.816Z" fill="#B4D7EC"/>
<path d="M130.454 214.084C133.324 214.084 135.651 211.758 135.651 208.888C135.651 206.018 133.324 203.691 130.454 203.691C127.584 203.691 125.258 206.018 125.258 208.888C125.258 211.758 127.584 214.084 130.454 214.084Z" fill="#B4D7EC"/>
<path d="M14.7019 243.781C14.5159 244.792 14.0344 245.725 13.318 246.462C12.6017 247.2 11.6828 247.708 10.6776 247.923C9.6724 248.138 8.62601 248.05 7.67083 247.67C6.71565 247.29 5.89459 246.635 5.31149 245.789C4.7284 244.942 4.40946 243.942 4.39504 242.914C4.38062 241.886 4.67136 240.877 5.23048 240.015C5.7896 239.152 6.59198 238.475 7.53613 238.068C8.48028 237.662 9.52375 237.544 10.5346 237.731C11.8861 237.987 13.0818 238.766 13.8621 239.899C14.6424 241.032 14.9442 242.427 14.7019 243.781Z" fill="#B4D7EC"/>
<path d="M54.8659 243.781C54.68 244.792 54.1984 245.725 53.4821 246.462C52.7657 247.2 51.8469 247.708 50.8417 247.923C49.8364 248.138 48.7901 248.05 47.8349 247.67C46.8797 247.29 46.0586 246.635 45.4755 245.789C44.8924 244.942 44.5735 243.942 44.5591 242.914C44.5447 241.886 44.8354 240.877 45.3945 240.015C45.9536 239.152 46.756 238.475 47.7002 238.068C48.6443 237.662 49.6878 237.544 50.6986 237.731C52.0533 237.981 53.2532 238.759 54.0346 239.893C54.8161 241.028 55.1151 242.426 54.8659 243.781Z" fill="#B4D7EC"/>
<path d="M95.2604 243.781C95.0745 244.792 94.5929 245.725 93.8766 246.462C93.1603 247.2 92.2414 247.708 91.2362 247.923C90.231 248.138 89.1846 248.05 88.2294 247.67C87.2743 247.29 86.4532 246.635 85.8701 245.789C85.287 244.942 84.9681 243.942 84.9536 242.914C84.9392 241.886 85.23 240.877 85.7891 240.015C86.3482 239.152 87.1506 238.475 88.0947 238.068C89.0389 237.662 90.0823 237.544 91.0932 237.731C92.4479 237.981 93.6478 238.759 94.4292 239.893C95.2106 241.028 95.5096 242.426 95.2604 243.781Z" fill="#B4D7EC"/>
<path d="M130.454 248.049C133.324 248.049 135.651 245.723 135.651 242.853C135.651 239.983 133.324 237.656 130.454 237.656C127.584 237.656 125.258 239.983 125.258 242.853C125.258 245.723 127.584 248.049 130.454 248.049Z" fill="#B4D7EC"/>
<path d="M14.7019 277.748C14.5159 278.759 14.0344 279.692 13.318 280.429C12.6017 281.167 11.6828 281.675 10.6776 281.89C9.6724 282.105 8.62601 282.017 7.67083 281.637C6.71565 281.257 5.89459 280.602 5.31149 279.756C4.7284 278.909 4.40946 277.909 4.39504 276.881C4.38062 275.853 4.67136 274.844 5.23048 273.981C5.7896 273.119 6.59198 272.441 7.53613 272.035C8.48028 271.628 9.52375 271.511 10.5346 271.698C11.8861 271.954 13.0818 272.733 13.8621 273.866C14.6424 274.999 14.9442 276.394 14.7019 277.748Z" fill="#B4D7EC"/>
<path d="M54.8659 277.748C54.68 278.759 54.1984 279.692 53.4821 280.429C52.7657 281.167 51.8469 281.675 50.8417 281.89C49.8364 282.105 48.7901 282.017 47.8349 281.637C46.8797 281.257 46.0586 280.602 45.4755 279.756C44.8924 278.909 44.5735 277.909 44.5591 276.881C44.5447 275.853 44.8354 274.844 45.3945 273.981C45.9536 273.119 46.756 272.441 47.7002 272.035C48.6443 271.628 49.6878 271.511 50.6986 271.698C52.0533 271.948 53.2532 272.726 54.0346 273.86C54.8161 274.995 55.1151 276.393 54.8659 277.748Z" fill="#B4D7EC"/>
<path d="M95.2604 277.748C95.0745 278.759 94.5929 279.692 93.8766 280.429C93.1603 281.167 92.2414 281.675 91.2362 281.89C90.231 282.105 89.1846 282.017 88.2294 281.637C87.2743 281.257 86.4532 280.602 85.8701 279.756C85.287 278.909 84.9681 277.909 84.9536 276.881C84.9392 275.853 85.23 274.844 85.7891 273.981C86.3482 273.119 87.1506 272.441 88.0947 272.035C89.0389 271.628 90.0823 271.511 91.0932 271.698C92.4479 271.948 93.6478 272.726 94.4292 273.86C95.2106 274.995 95.5096 276.393 95.2604 277.748Z" fill="#B4D7EC"/>
<path d="M130.454 282.014C133.324 282.014 135.651 279.688 135.651 276.818C135.651 273.948 133.324 271.621 130.454 271.621C127.584 271.621 125.258 273.948 125.258 276.818C125.258 279.688 127.584 282.014 130.454 282.014Z" fill="#B4D7EC"/>
<path d="M14.7019 311.713C14.5159 312.724 14.0344 313.657 13.318 314.394C12.6017 315.131 11.6828 315.639 10.6776 315.854C9.6724 316.069 8.62601 315.981 7.67083 315.601C6.71565 315.222 5.89459 314.567 5.31149 313.72C4.7284 312.874 4.40946 311.873 4.39504 310.846C4.38062 309.818 4.67136 308.809 5.23048 307.946C5.7896 307.084 6.59198 306.406 7.53613 306C8.48028 305.593 9.52375 305.476 10.5346 305.663C11.8861 305.919 13.0818 306.698 13.8621 307.831C14.6424 308.964 14.9442 310.359 14.7019 311.713Z" fill="#B4D7EC"/>
<path d="M54.8659 311.713C54.68 312.724 54.1984 313.657 53.4821 314.394C52.7657 315.131 51.8469 315.639 50.8417 315.854C49.8364 316.069 48.7901 315.981 47.8349 315.601C46.8797 315.222 46.0586 314.567 45.4755 313.72C44.8924 312.874 44.5735 311.873 44.5591 310.846C44.5447 309.818 44.8354 308.809 45.3945 307.946C45.9536 307.084 46.756 306.406 47.7002 306C48.6443 305.593 49.6878 305.476 50.6986 305.663C52.0533 305.913 53.2532 306.69 54.0346 307.825C54.8161 308.959 55.1151 310.358 54.8659 311.713Z" fill="#B4D7EC"/>
<path d="M95.2604 311.713C95.0745 312.724 94.5929 313.657 93.8766 314.394C93.1603 315.131 92.2414 315.639 91.2362 315.854C90.231 316.069 89.1846 315.981 88.2294 315.601C87.2743 315.222 86.4532 314.567 85.8701 313.72C85.287 312.874 84.9681 311.873 84.9536 310.846C84.9392 309.818 85.23 308.809 85.7891 307.946C86.3482 307.084 87.1506 306.406 88.0947 306C89.0389 305.593 90.0823 305.476 91.0932 305.663C92.4479 305.913 93.6478 306.69 94.4292 307.825C95.2106 308.959 95.5096 310.358 95.2604 311.713Z" fill="#B4D7EC"/>
<path d="M130.454 315.981C133.324 315.981 135.651 313.654 135.651 310.784C135.651 307.914 133.324 305.588 130.454 305.588C127.584 305.588 125.258 307.914 125.258 310.784C125.258 313.654 127.584 315.981 130.454 315.981Z" fill="#B4D7EC"/>
<path d="M14.7019 345.679C14.5159 346.69 14.0344 347.624 13.318 348.361C12.6017 349.098 11.6828 349.606 10.6776 349.821C9.6724 350.036 8.62601 349.948 7.67083 349.568C6.71565 349.188 5.89459 348.534 5.31149 347.687C4.7284 346.841 4.40946 345.84 4.39504 344.812C4.38062 343.785 4.67136 342.776 5.23048 341.913C5.7896 341.05 6.59198 340.373 7.53613 339.967C8.48028 339.56 9.52375 339.443 10.5346 339.629C11.8861 339.886 13.0818 340.665 13.8621 341.798C14.6424 342.93 14.9442 344.325 14.7019 345.679Z" fill="#B4D7EC"/>
<path d="M54.8659 345.679C54.68 346.69 54.1984 347.624 53.4821 348.361C52.7657 349.098 51.8469 349.606 50.8417 349.821C49.8364 350.036 48.7901 349.948 47.8349 349.568C46.8797 349.188 46.0586 348.534 45.4755 347.687C44.8924 346.841 44.5735 345.84 44.5591 344.812C44.5447 343.785 44.8354 342.776 45.3945 341.913C45.9536 341.05 46.756 340.373 47.7002 339.967C48.6443 339.56 49.6878 339.443 50.6986 339.629C52.0533 339.879 53.2532 340.657 54.0346 341.792C54.8161 342.926 55.1151 344.325 54.8659 345.679Z" fill="#B4D7EC"/>
<path d="M95.2604 345.679C95.0745 346.69 94.5929 347.624 93.8766 348.361C93.1603 349.098 92.2414 349.606 91.2362 349.821C90.231 350.036 89.1846 349.948 88.2294 349.568C87.2743 349.188 86.4532 348.534 85.8701 347.687C85.287 346.841 84.9681 345.84 84.9536 344.812C84.9392 343.785 85.23 342.776 85.7891 341.913C86.3482 341.05 87.1506 340.373 88.0947 339.967C89.0389 339.56 90.0823 339.443 91.0932 339.629C92.4479 339.879 93.6478 340.657 94.4292 341.792C95.2106 342.926 95.5096 344.325 95.2604 345.679Z" fill="#B4D7EC"/>
<path d="M130.454 349.948C133.324 349.948 135.651 347.621 135.651 344.751C135.651 341.881 133.324 339.555 130.454 339.555C127.584 339.555 125.258 341.881 125.258 344.751C125.258 347.621 127.584 349.948 130.454 349.948Z" fill="#B4D7EC"/>
</svg>
