<svg width="168" height="150" viewBox="0 0 168 150" fill="none" xmlns="http://www.w3.org/2000/svg">
<path d="M254.402 11.5074C240.528 21.2579 228.025 19.0794 218.071 17.3226C208.751 15.6887 201.366 14.4062 192.274 20.8363C183.182 27.2663 181.934 34.5573 180.281 43.8862C178.522 53.8826 176.377 66.3212 162.502 76.0717C148.628 85.8222 136.125 83.6261 126.189 81.8869C116.851 80.253 109.483 78.9529 100.392 85.4006C91.3 91.8482 90.0163 99.1567 88.3985 108.486C86.6399 118.482 84.4946 130.921 70.6199 140.671C56.7452 150.422 44.2421 148.226 34.3065 146.486C24.9688 144.852 17.6006 143.552 8.5091 150L0.402344 138.493C14.277 128.76 26.7801 130.938 36.7333 132.695C46.071 134.329 53.4392 135.611 62.5307 129.181C71.6222 122.751 72.9059 115.425 74.5238 106.096C76.2823 96.0998 78.4277 83.6613 92.2848 73.9108C106.142 64.1602 118.663 66.3563 128.616 68.1131C137.953 69.747 145.322 71.0295 154.413 64.5994C163.505 58.1694 164.788 50.8433 166.406 41.5144C168.165 31.5179 170.31 19.0794 184.185 9.32888C198.059 -0.421646 210.563 1.77442 220.498 3.5137C229.836 5.14758 237.204 6.44765 246.313 0L254.402 11.5074Z" fill="#6FCDC7"/>
</svg>
